<?xml version="1.0" standalone="yes"?><svg version="1.1" xmlns = 'http://www.w3.org/2000/svg'><defs><font id='web' horiz-adv-x="1000">
<font-face font-family="web" descent="-492" cap-height="1434" units-per-em="2048" bbox="-229,-741,2503,2099" x-height="1063" ascent="1556" />
<missing-glyph horiz-adv-x="1843" d="M 410 -485 L 410 1546 L 1434 1546 L 1434 -485 L 410 -485 Z M 516 -170 L 854 530 L 516 1233 L 516 -170 Z M 539 -379 L 1305 -379 L 922 410 L 539 -379 Z M 539 1442 L 922 647 L 1305 1442 L 539 1442 Z M 989 530 L 1327 -170 L 1327 1231 L 989 530 Z" /><glyph horiz-adv-x="1064" d="M 0 0 L 0 1065 L 1065 1065 L 1065 0 L 0 0 Z" unicode="" />
<glyph horiz-adv-x="1024" d="" unicode=" " />
<glyph horiz-adv-x="2048" d="" unicode=" " />
<glyph horiz-adv-x="681" d="" unicode=" " />
<glyph horiz-adv-x="512" d="" unicode=" " />
<glyph horiz-adv-x="342" d="" unicode=" " />
<glyph horiz-adv-x="1269" d="" unicode=" " />
<glyph horiz-adv-x="491" d="" unicode=" " />
<glyph horiz-adv-x="204" d="" unicode=" " />
<glyph horiz-adv-x="102" d="" unicode=" " />
<glyph horiz-adv-x="0" d="" unicode="​" />
<glyph horiz-adv-x="1169" d="M 98 272 L 240 352 C 301 204 401 131 539 131 C 635 131 708 161 756 221 C 804 281 829 365 829 473 L 829 1434 L 1004 1434 L 1004 471 C 1004 315 964 193 886 106 C 808 18 695 -25 547 -25 C 439 -25 348 2 272 56 C 196 110 138 182 98 272 Z M 575 1782 L 694 1782 L 915 1645 L 918 1645 L 1141 1782 L 1260 1782 L 1001 1546 L 831 1546 L 575 1782 Z" unicode="" />
<glyph horiz-adv-x="1372" d="M 172 0 L 172 1434 L 346 1434 L 346 633 L 1040 1434 L 1243 1434 L 776 897 L 1298 0 L 1094 0 L 662 766 L 346 406 L 346 0 L 172 0 Z M 385 -379 C 493 -291 568 -196 612 -94 L 731 -94 C 696 -228 624 -344 514 -444 L 385 -379 Z" unicode="" />
<glyph horiz-adv-x="1239" d="M 172 0 L 172 1434 L 346 1434 L 346 156 L 1149 156 L 1149 0 L 172 0 Z M 360 -379 C 469 -290 545 -195 588 -94 L 707 -94 C 672 -226 599 -343 489 -444 L 360 -379 Z" unicode="" />
<glyph horiz-adv-x="1740" d="M 172 0 L 172 1434 L 360 1434 L 872 690 L 1384 1434 L 1571 1434 L 1571 0 L 1401 0 L 1401 1186 L 870 424 L 340 1188 L 340 0 L 172 0 Z M 567 1604 L 567 1722 L 1174 1722 L 1174 1604 L 567 1604 Z" unicode="" />
<glyph horiz-adv-x="1740" d="M 172 0 L 172 1434 L 360 1434 L 872 690 L 1384 1434 L 1571 1434 L 1571 0 L 1401 0 L 1401 1186 L 870 424 L 340 1188 L 340 0 L 172 0 Z M 580 -379 C 688 -291 763 -196 807 -94 L 926 -94 C 891 -228 819 -344 709 -444 L 580 -379 Z" unicode="" />
<glyph horiz-adv-x="1484" d="M 172 0 L 172 1434 L 348 1434 L 1145 270 L 1145 1434 L 1313 1434 L 1313 0 L 1135 0 L 340 1161 L 340 0 L 172 0 Z M 463 1726 L 596 1821 L 827 1546 L 698 1546 L 463 1726 Z" unicode="" />
<glyph horiz-adv-x="1484" d="M 172 0 L 172 1434 L 348 1434 L 1145 270 L 1145 1434 L 1313 1434 L 1313 0 L 1135 0 L 340 1161 L 340 0 L 172 0 Z M 457 1581 L 457 1749 L 614 1749 L 614 1581 L 457 1581 Z M 870 1581 L 870 1749 L 1026 1749 L 1026 1581 L 870 1581 Z" unicode="" />
<glyph horiz-adv-x="1210" d="M 94 461 L 94 612 L 1116 612 L 1116 461 L 94 461 Z" unicode="–" />
<glyph horiz-adv-x="1869" d="M 96 461 L 96 612 L 1774 612 L 1774 461 L 96 461 Z" unicode="—" />
<glyph horiz-adv-x="1484" d="M 172 0 L 172 1434 L 348 1434 L 1145 270 L 1145 1434 L 1313 1434 L 1313 -410 L 1145 -410 L 1145 0 L 1135 0 L 340 1161 L 340 0 L 172 0 Z" unicode="" />
<glyph horiz-adv-x="1656" d="M 113 727 C 113 871 144 999 208 1111 C 271 1223 357 1308 465 1368 C 573 1428 695 1458 829 1458 C 928 1458 1022 1440 1110 1405 C 1198 1370 1274 1321 1338 1259 C 1402 1196 1452 1119 1490 1027 C 1527 935 1546 835 1546 727 C 1546 614 1527 510 1491 416 C 1454 321 1404 241 1340 177 C 1276 113 1200 63 1112 28 C 1024 -7 930 -25 829 -25 C 727 -25 633 -7 545 28 C 457 63 382 113 318 177 C 254 241 204 321 168 416 C 131 510 113 614 113 727 Z M 291 727 C 291 635 304 551 332 475 C 360 399 398 336 446 286 C 494 235 551 196 617 168 C 682 140 753 127 829 127 C 904 127 974 140 1040 168 C 1106 196 1163 235 1211 286 C 1259 336 1298 400 1326 476 C 1354 552 1368 635 1368 727 C 1368 813 1354 893 1326 966 C 1298 1039 1259 1100 1211 1150 C 1163 1199 1106 1237 1040 1265 C 974 1293 903 1307 829 1307 C 754 1307 684 1293 618 1265 C 552 1237 495 1199 447 1150 C 399 1100 361 1039 333 966 C 305 893 291 813 291 727 Z M 700 1665 C 699 1691 707 1719 725 1749 C 743 1778 766 1803 795 1825 L 915 1825 C 859 1777 831 1732 831 1692 C 831 1675 836 1662 847 1653 C 857 1644 872 1640 891 1642 C 897 1642 912 1643 936 1647 L 936 1548 C 910 1541 883 1538 854 1538 C 806 1538 768 1549 742 1572 C 715 1595 701 1626 700 1665 Z" unicode="" />
<glyph horiz-adv-x="446" d="M 127 920 L 127 1118 C 127 1205 142 1273 174 1323 C 206 1373 256 1412 326 1442 L 369 1366 C 284 1324 242 1255 242 1159 L 317 1159 L 317 920 L 127 920 Z" unicode="‘" />
<glyph horiz-adv-x="446" d="M 78 987 C 162 1028 205 1097 205 1194 L 129 1194 L 129 1434 L 319 1434 L 319 1235 C 319 1147 303 1079 272 1029 C 240 979 190 940 121 911 L 78 987 Z" unicode="’" />
<glyph horiz-adv-x="446" d="M 78 -207 C 162 -165 205 -96 205 0 L 129 0 L 129 240 L 319 240 L 319 41 C 319 -46 303 -114 272 -164 C 240 -214 190 -253 121 -283 L 78 -207 Z" unicode="‚" />
<glyph horiz-adv-x="1656" d="M 113 727 C 113 871 144 999 208 1111 C 271 1223 357 1308 465 1368 C 573 1428 695 1458 829 1458 C 928 1458 1022 1440 1110 1405 C 1198 1370 1274 1321 1338 1259 C 1402 1196 1452 1119 1490 1027 C 1527 935 1546 835 1546 727 C 1546 614 1527 510 1491 416 C 1454 321 1404 241 1340 177 C 1276 113 1200 63 1112 28 C 1024 -7 930 -25 829 -25 C 727 -25 633 -7 545 28 C 457 63 382 113 318 177 C 254 241 204 321 168 416 C 131 510 113 614 113 727 Z M 291 727 C 291 635 304 551 332 475 C 360 399 398 336 446 286 C 494 235 551 196 617 168 C 682 140 753 127 829 127 C 904 127 974 140 1040 168 C 1106 196 1163 235 1211 286 C 1259 336 1298 400 1326 476 C 1354 552 1368 635 1368 727 C 1368 813 1354 893 1326 966 C 1298 1039 1259 1100 1211 1150 C 1163 1199 1106 1237 1040 1265 C 974 1293 903 1307 829 1307 C 754 1307 684 1293 618 1265 C 552 1237 495 1199 447 1150 C 399 1100 361 1039 333 966 C 305 893 291 813 291 727 Z M 539 -379 C 647 -291 722 -196 766 -94 L 885 -94 C 850 -228 778 -344 668 -444 L 539 -379 Z" unicode="" />
<glyph horiz-adv-x="856" d="M 127 920 L 127 1118 C 127 1205 142 1273 174 1323 C 206 1373 256 1412 326 1442 L 369 1366 C 284 1324 242 1255 242 1159 L 317 1159 L 317 920 L 127 920 Z M 537 920 L 537 1118 C 537 1205 552 1273 584 1323 C 615 1373 665 1412 735 1442 L 778 1366 C 693 1324 651 1255 651 1159 L 727 1159 L 727 920 L 537 920 Z" unicode="“" />
<glyph horiz-adv-x="856" d="M 78 987 C 162 1028 205 1097 205 1194 L 129 1194 L 129 1434 L 319 1434 L 319 1235 C 319 1147 303 1079 272 1029 C 240 979 190 940 121 911 L 78 987 Z M 485 987 C 569 1028 612 1097 612 1194 L 537 1194 L 537 1434 L 727 1434 L 727 1235 C 727 1147 711 1079 679 1029 C 647 979 597 940 528 911 L 485 987 Z" unicode="”" />
<glyph horiz-adv-x="856" d="M 78 -207 C 162 -165 205 -96 205 0 L 129 0 L 129 240 L 319 240 L 319 41 C 319 -46 303 -114 272 -164 C 240 -214 190 -253 121 -283 L 78 -207 Z M 485 -207 C 569 -165 612 -96 612 0 L 537 0 L 537 240 L 727 240 L 727 41 C 727 -46 711 -114 679 -164 C 647 -214 597 -253 528 -283 L 485 -207 Z" unicode="„" />
<glyph horiz-adv-x="1300" d="M 172 0 L 172 1434 L 1155 1434 L 1155 1278 L 346 1278 L 346 803 L 1075 803 L 1075 657 L 346 657 L 346 156 L 1167 156 L 1167 0 L 172 0 Z M 391 1726 L 524 1821 L 756 1546 L 627 1546 L 391 1726 Z M 590 -197 L 750 -197 L 750 -365 L 590 -365 L 590 -197 Z" unicode="" />
<glyph horiz-adv-x="512" d="" unicode=" " />
<glyph horiz-adv-x="528" d="M 170 0 L 170 219 L 356 219 L 356 0 L 170 0 Z M 172 1065 L 172 1434 L 352 1434 L 352 1065 L 307 422 L 217 422 L 172 1065 Z" unicode="!" />
<glyph horiz-adv-x="827" d="M 125 920 L 125 1434 L 317 1434 L 227 918 L 125 920 Z M 518 920 L 518 1434 L 711 1434 L 621 918 L 518 920 Z" unicode="&#x22;" />
<glyph horiz-adv-x="1470" d="M 74 389 L 74 512 L 391 512 L 461 930 L 154 930 L 154 1051 L 481 1051 L 545 1434 L 678 1434 L 614 1051 L 971 1051 L 1034 1434 L 1167 1434 L 1104 1051 L 1397 1051 L 1397 930 L 1083 930 L 1014 512 L 1315 512 L 1315 389 L 993 389 L 930 0 L 797 0 L 860 389 L 504 389 L 438 0 L 307 0 L 371 389 L 74 389 Z M 524 512 L 881 512 L 950 930 L 594 930 L 524 512 Z" unicode="#" />
<glyph horiz-adv-x="1249" d="M 113 135 L 193 260 C 313 180 447 136 596 129 L 596 653 C 564 660 539 666 520 672 C 500 677 476 684 447 693 C 417 702 393 711 375 719 C 356 727 334 737 310 750 C 286 763 266 776 251 790 C 235 803 219 819 203 838 C 187 857 174 877 165 899 C 155 920 148 944 142 972 C 136 1000 133 1029 133 1061 C 133 1166 174 1255 256 1327 C 338 1399 449 1438 590 1444 L 590 1628 L 690 1628 L 690 1442 C 821 1433 951 1398 1079 1337 L 1018 1210 C 910 1262 797 1293 680 1303 L 680 786 C 738 771 784 759 816 750 C 848 740 888 725 936 703 C 984 681 1020 657 1045 631 C 1070 605 1092 571 1112 528 C 1131 484 1141 435 1141 379 C 1141 269 1102 179 1024 108 C 946 37 833 -1 686 -8 L 686 -252 L 590 -252 L 590 -8 C 497 -4 409 11 327 37 C 244 63 173 95 113 135 Z M 291 1065 C 291 1025 298 991 314 962 C 329 932 352 908 383 889 C 413 869 445 854 477 842 C 509 830 548 819 596 807 L 596 1305 C 501 1301 426 1276 372 1232 C 318 1187 291 1131 291 1065 Z M 680 129 C 779 135 854 160 905 205 C 955 249 981 307 981 377 C 981 408 975 436 964 461 C 953 485 939 506 923 523 C 906 540 884 556 856 570 C 828 584 801 596 775 605 C 749 613 717 623 680 633 L 680 129 Z" unicode="$" />
<glyph horiz-adv-x="1667" d="M 113 1126 C 113 1224 145 1304 210 1365 C 275 1425 354 1456 446 1456 C 537 1456 615 1425 679 1365 C 743 1304 776 1224 776 1126 C 776 1027 744 947 680 887 C 616 827 538 797 446 797 C 354 797 276 827 211 888 C 145 948 113 1028 113 1126 Z M 446 905 C 504 905 553 925 591 965 C 629 1005 649 1058 649 1126 C 649 1192 629 1245 590 1287 C 551 1329 503 1350 446 1350 C 387 1350 338 1329 299 1288 C 259 1246 240 1192 240 1126 C 240 1059 259 1005 298 965 C 337 925 386 905 446 905 Z M 270 0 L 1255 1434 L 1389 1434 L 403 0 L 270 0 Z M 891 307 C 891 404 923 483 988 545 C 1053 606 1131 637 1223 637 C 1314 637 1392 606 1457 545 C 1521 483 1554 404 1554 307 C 1554 208 1522 128 1458 68 C 1394 7 1316 -23 1225 -23 C 1133 -23 1054 7 989 68 C 923 128 891 208 891 307 Z M 1018 307 C 1018 240 1037 186 1077 146 C 1116 106 1165 86 1225 86 C 1283 86 1331 106 1369 146 C 1407 186 1427 240 1427 307 C 1427 373 1407 427 1369 468 C 1330 509 1281 530 1223 530 C 1165 530 1116 509 1077 468 C 1037 426 1018 373 1018 307 Z" unicode="%" />
<glyph horiz-adv-x="1525" d="M 90 397 C 90 491 117 574 172 648 C 226 721 299 784 391 836 C 320 927 285 1020 285 1114 C 285 1209 320 1290 392 1357 C 464 1424 556 1458 668 1458 C 812 1458 933 1402 1030 1292 L 920 1198 C 848 1280 762 1321 664 1321 C 600 1321 549 1301 510 1261 C 470 1221 451 1172 451 1116 C 451 1036 495 946 584 846 C 726 695 893 547 1083 403 C 1141 503 1171 611 1171 727 L 1325 727 C 1325 577 1284 439 1204 313 C 1244 282 1336 217 1479 117 L 1384 -8 C 1236 97 1144 164 1106 193 C 1038 124 960 70 872 32 C 783 -5 688 -25 588 -25 C 509 -25 438 -13 374 10 C 310 33 257 64 217 104 C 176 144 145 189 123 239 C 101 289 90 342 90 397 Z M 252 410 C 252 328 282 259 343 204 C 403 148 488 121 596 121 C 748 121 879 175 989 283 C 783 442 611 593 475 737 C 406 699 352 652 312 597 C 272 541 252 479 252 410 Z" unicode="&#x26;" />
<glyph horiz-adv-x="432" d="M 125 920 L 125 1434 L 317 1434 L 227 918 L 125 920 Z" unicode="'" />
<glyph horiz-adv-x="780" d="M 125 567 C 125 933 249 1260 498 1546 L 692 1546 C 638 1492 589 1432 544 1367 C 498 1302 456 1229 417 1148 C 377 1066 346 976 324 876 C 302 776 291 673 291 567 C 291 461 302 358 324 258 C 346 158 377 68 417 -12 C 456 -93 498 -166 543 -231 C 588 -295 638 -355 692 -410 L 500 -410 C 250 -122 125 203 125 567 Z" unicode="(" />
<glyph horiz-adv-x="780" d="M 88 -410 C 142 -355 191 -295 236 -231 C 281 -166 323 -93 363 -12 C 402 68 433 158 455 258 C 477 358 489 461 489 567 C 489 673 477 776 455 876 C 433 976 402 1066 363 1148 C 323 1229 281 1302 236 1367 C 190 1432 141 1492 88 1546 L 283 1546 C 531 1260 655 934 655 567 C 655 202 530 -123 281 -410 L 88 -410 Z" unicode=")" />
<glyph horiz-adv-x="864" d="M 96 1061 L 98 1202 L 375 1176 L 377 1180 L 268 1432 L 391 1466 L 457 1202 L 461 1200 L 670 1374 L 748 1268 L 510 1135 L 510 1128 L 748 987 L 666 883 L 461 1063 L 457 1061 L 385 791 L 264 831 L 377 1092 L 373 1094 L 96 1061 Z" unicode="*" />
<glyph horiz-adv-x="1257" d="M 96 459 L 96 606 L 549 606 L 549 1065 L 709 1065 L 709 606 L 1161 606 L 1161 459 L 709 459 L 709 0 L 549 0 L 549 459 L 96 459 Z" unicode="+" />
<glyph horiz-adv-x="446" d="M 78 -207 C 162 -165 205 -96 205 0 L 129 0 L 129 240 L 319 240 L 319 41 C 319 -46 303 -114 272 -164 C 240 -214 190 -253 121 -283 L 78 -207 Z" unicode="," />
<glyph horiz-adv-x="776" d="M 90 461 L 90 612 L 688 612 L 688 461 L 90 461 Z" unicode="-" />
<glyph horiz-adv-x="446" d="M 129 0 L 129 240 L 319 240 L 319 0 L 129 0 Z" unicode="." />
<glyph horiz-adv-x="1034" d="M -23 -410 L 887 1546 L 1057 1546 L 150 -410 L -23 -410 Z" unicode="/" />
<glyph horiz-adv-x="1269" d="M 59 719 C 59 864 81 992 127 1103 C 172 1214 238 1301 326 1364 C 414 1426 517 1458 635 1458 C 753 1458 855 1426 943 1364 C 1030 1301 1096 1214 1142 1103 C 1187 992 1210 864 1210 719 C 1210 573 1187 444 1142 332 C 1096 220 1030 133 943 70 C 855 6 753 -25 635 -25 C 517 -25 415 6 327 69 C 239 132 173 220 127 332 C 81 444 59 573 59 719 Z M 233 719 C 233 537 268 393 339 285 C 410 177 509 123 635 123 C 762 123 861 176 932 284 C 1002 392 1038 537 1038 719 C 1038 899 1002 1042 931 1150 C 859 1257 761 1311 635 1311 C 509 1311 410 1257 339 1150 C 268 1042 233 899 233 719 Z" unicode="0" />
<glyph horiz-adv-x="1269" d="M 180 1219 L 649 1434 L 786 1434 L 786 139 L 1161 139 L 1161 0 L 209 0 L 209 139 L 614 139 L 614 1257 L 248 1092 L 180 1219 Z" unicode="1" />
<glyph horiz-adv-x="1269" d="M 143 1251 C 207 1312 285 1362 376 1400 C 467 1438 560 1458 655 1458 C 811 1458 933 1420 1021 1344 C 1109 1268 1153 1173 1153 1059 C 1153 1003 1143 952 1124 907 C 1105 861 1079 823 1047 792 C 1015 760 978 732 936 706 C 894 680 849 656 803 635 C 757 613 711 592 665 571 C 619 549 575 525 533 499 C 491 473 455 444 423 413 C 391 381 365 343 346 297 C 327 251 318 201 319 145 L 1151 145 L 1151 0 L 150 0 L 147 84 C 145 159 154 227 172 289 C 190 351 215 402 247 444 C 279 486 316 524 358 558 C 400 592 444 621 491 645 C 537 669 584 692 631 714 C 677 736 722 758 764 780 C 806 802 844 825 877 849 C 910 873 936 903 956 938 C 975 972 985 1011 985 1055 C 985 1128 956 1189 898 1238 C 840 1286 757 1311 651 1311 C 576 1311 504 1295 435 1265 C 365 1234 304 1193 252 1143 L 143 1251 Z" unicode="2" />
<glyph horiz-adv-x="1269" d="M 131 74 L 197 209 C 317 149 439 119 565 119 C 695 119 800 146 882 200 C 963 254 1004 329 1004 424 C 1004 467 994 505 975 539 C 955 572 929 598 895 618 C 861 637 822 651 780 661 C 737 671 691 676 641 676 L 444 676 L 444 813 L 635 813 C 728 813 804 835 862 879 C 920 923 950 988 950 1073 C 950 1143 919 1202 857 1248 C 795 1294 712 1317 608 1317 C 540 1317 472 1302 404 1273 C 336 1243 277 1205 227 1157 L 131 1272 C 277 1397 438 1460 616 1460 C 766 1460 888 1424 982 1354 C 1075 1283 1122 1193 1122 1083 C 1122 1003 1099 935 1055 879 C 1010 823 947 782 866 758 C 966 734 1043 693 1097 635 C 1151 577 1178 504 1178 416 C 1178 324 1150 245 1095 177 C 1039 109 966 59 875 25 C 783 -8 681 -25 567 -25 C 414 -25 269 8 131 74 Z" unicode="3" />
<glyph horiz-adv-x="1269" d="M 76 449 L 823 1434 L 1014 1434 L 1014 451 L 1237 451 L 1237 311 L 1014 311 L 1014 0 L 846 0 L 846 311 L 129 311 L 76 449 Z M 248 451 L 846 451 L 846 1249 L 248 451 Z" unicode="4" />
<glyph horiz-adv-x="1269" d="M 135 76 L 201 211 C 309 151 430 121 563 121 C 683 121 781 151 857 213 C 933 274 971 356 971 459 C 971 550 938 624 872 680 C 806 736 719 764 610 764 C 523 764 425 743 315 702 L 213 768 L 240 1434 L 1063 1434 L 1063 1294 L 393 1294 L 377 844 C 471 883 565 903 657 903 C 798 903 915 862 1007 781 C 1099 699 1145 593 1145 461 C 1145 361 1119 274 1067 200 C 1015 125 945 68 857 30 C 769 -7 669 -27 559 -27 C 401 -27 259 7 135 76 Z" unicode="5" />
<glyph horiz-adv-x="1269" d="M 104 672 C 104 782 115 881 139 971 C 163 1061 195 1135 235 1195 C 275 1254 323 1304 378 1344 C 433 1384 491 1413 552 1431 C 612 1449 676 1458 743 1458 C 871 1458 991 1432 1104 1380 L 1036 1253 C 941 1294 843 1315 741 1315 C 679 1315 622 1303 569 1280 C 515 1257 467 1223 424 1177 C 381 1131 346 1069 320 993 C 294 917 279 829 276 729 C 330 781 395 824 471 856 C 546 888 623 905 702 905 C 842 905 956 863 1046 781 C 1135 698 1180 588 1180 451 C 1180 387 1168 327 1145 270 C 1121 212 1088 162 1046 118 C 1003 74 949 40 884 14 C 818 -12 746 -25 668 -25 C 570 -25 485 -6 411 30 C 337 66 279 117 235 182 C 191 246 158 320 136 402 C 114 484 104 574 104 672 Z M 279 590 C 287 446 324 331 390 245 C 456 159 550 117 672 117 C 775 117 857 149 919 214 C 981 278 1012 357 1012 449 C 1012 545 980 622 918 681 C 856 740 776 770 678 770 C 600 770 525 753 453 719 C 381 685 323 642 279 590 Z" unicode="6" />
<glyph horiz-adv-x="1269" d="M 135 1288 L 135 1434 L 1151 1434 L 1151 1311 L 541 0 L 352 0 L 967 1288 L 135 1288 Z" unicode="7" />
<glyph horiz-adv-x="1269" d="M 78 373 C 78 467 111 545 178 609 C 245 673 331 718 436 745 C 350 767 279 807 225 865 C 170 923 143 992 143 1073 C 143 1189 189 1283 281 1353 C 373 1423 491 1458 635 1458 C 779 1458 897 1423 989 1353 C 1081 1283 1128 1190 1128 1073 C 1128 992 1100 923 1045 865 C 990 807 920 767 834 745 C 938 718 1024 673 1091 609 C 1158 545 1192 467 1192 373 C 1192 249 1140 152 1037 81 C 934 10 800 -25 635 -25 C 469 -25 335 10 232 81 C 129 152 78 249 78 373 Z M 246 379 C 246 297 282 233 354 185 C 426 137 520 113 635 113 C 749 113 843 137 916 185 C 989 233 1026 297 1026 379 C 1026 434 1007 483 971 526 C 934 568 887 602 829 626 C 771 650 707 666 635 674 C 563 666 499 650 442 626 C 384 602 337 568 301 526 C 264 483 246 434 246 379 Z M 307 1073 C 307 999 336 938 396 892 C 456 846 535 818 635 809 C 734 818 813 846 873 892 C 933 938 963 999 963 1073 C 963 1145 931 1205 869 1251 C 807 1297 729 1321 635 1321 C 541 1321 462 1297 400 1251 C 338 1205 307 1145 307 1073 Z" unicode="8" />
<glyph horiz-adv-x="1269" d="M 106 983 C 106 1046 117 1106 140 1163 C 163 1220 196 1271 238 1315 C 280 1359 334 1393 400 1419 C 465 1445 537 1458 616 1458 C 694 1458 764 1446 828 1422 C 891 1398 944 1364 987 1322 C 1030 1280 1066 1229 1095 1170 C 1124 1111 1145 1048 1158 980 C 1171 912 1178 839 1178 762 C 1178 651 1166 551 1142 462 C 1118 372 1087 298 1047 238 C 1007 178 960 128 905 88 C 850 48 793 19 733 1 C 673 -16 609 -25 543 -25 C 407 -25 280 9 162 78 L 240 201 C 330 146 431 119 543 119 C 604 119 661 130 714 152 C 766 174 814 208 857 254 C 899 300 934 361 960 438 C 986 514 1000 603 1004 705 C 952 653 888 610 812 577 C 736 544 660 528 582 528 C 442 528 328 569 239 652 C 150 735 106 845 106 983 Z M 274 985 C 274 889 305 811 367 752 C 429 693 508 664 606 664 C 683 664 757 681 829 715 C 901 749 958 792 1001 844 C 993 986 957 1101 892 1187 C 826 1273 734 1317 614 1317 C 510 1317 427 1284 366 1220 C 304 1156 274 1077 274 985 Z" unicode="9" />
<glyph horiz-adv-x="446" d="M 129 0 L 129 240 L 319 240 L 319 0 L 129 0 Z M 129 825 L 129 1065 L 319 1065 L 319 825 L 129 825 Z" unicode=":" />
<glyph horiz-adv-x="446" d="M 78 -207 C 162 -165 205 -96 205 0 L 129 0 L 129 240 L 319 240 L 319 41 C 319 -46 303 -114 272 -164 C 240 -214 190 -253 121 -283 L 78 -207 Z M 129 825 L 129 1065 L 319 1065 L 319 825 L 129 825 Z" unicode=";" />
<glyph horiz-adv-x="1292" d="M 84 455 L 84 610 L 1167 1065 L 1167 889 L 281 535 L 1167 172 L 1167 0 L 84 455 Z" unicode="&#x3C;" />
<glyph horiz-adv-x="1257" d="M 96 211 L 96 358 L 1161 358 L 1161 211 L 96 211 Z M 96 707 L 96 854 L 1161 854 L 1161 707 L 96 707 Z" unicode="=" />
<glyph horiz-adv-x="1292" d="M 125 0 L 125 172 L 1012 535 L 125 889 L 125 1065 L 1208 610 L 1208 455 L 125 0 Z" unicode="&#x3E;" />
<glyph horiz-adv-x="1075" d="M 82 1266 C 203 1394 348 1458 516 1458 C 652 1458 762 1424 846 1357 C 929 1290 971 1202 971 1092 C 971 1042 963 996 947 955 C 931 914 910 880 884 852 C 858 824 829 799 798 775 C 766 751 735 728 704 706 C 672 684 644 661 618 638 C 592 615 570 587 554 555 C 537 523 528 487 528 449 L 528 422 L 393 422 C 393 423 392 430 392 444 C 391 457 391 465 391 467 C 391 517 398 563 413 603 C 428 643 448 677 472 703 C 496 729 522 754 551 776 C 580 798 609 820 638 840 C 667 860 694 880 718 902 C 742 923 761 949 776 980 C 791 1010 799 1045 799 1083 C 799 1149 772 1204 720 1248 C 667 1291 598 1313 514 1313 C 397 1313 288 1263 188 1165 L 82 1266 Z M 369 0 L 369 219 L 555 219 L 555 0 L 369 0 Z" unicode="?" />
<glyph horiz-adv-x="1714" d="M 137 573 C 137 708 170 833 236 947 C 302 1061 393 1151 507 1217 C 621 1283 747 1317 883 1317 C 1016 1317 1136 1288 1242 1230 C 1348 1172 1430 1093 1489 991 C 1547 889 1577 775 1577 649 C 1577 573 1565 503 1541 440 C 1517 376 1486 325 1448 286 C 1410 246 1367 216 1321 194 C 1275 172 1228 162 1180 162 C 1119 162 1071 176 1036 205 C 1000 234 979 272 973 319 C 944 280 908 249 865 225 C 822 201 776 190 727 190 C 656 190 598 214 553 264 C 507 313 485 380 485 465 C 485 510 490 556 502 603 C 514 650 531 695 555 739 C 579 783 607 822 639 856 C 671 890 710 918 756 938 C 801 958 849 969 901 969 C 981 969 1046 936 1096 870 L 1126 948 L 1239 948 L 1096 451 C 1078 389 1078 340 1096 305 C 1114 269 1148 252 1198 252 C 1272 252 1338 288 1396 361 C 1454 433 1483 529 1483 649 C 1483 817 1427 954 1315 1062 C 1203 1169 1059 1223 883 1223 C 795 1223 710 1205 630 1171 C 550 1137 481 1091 423 1033 C 365 975 318 905 284 825 C 250 745 233 661 233 573 C 233 457 262 349 320 250 C 378 151 457 73 557 15 C 657 -43 765 -72 883 -72 C 1005 -72 1121 -38 1231 29 L 1284 -49 C 1162 -128 1028 -168 883 -168 C 781 -168 684 -148 592 -109 C 500 -70 420 -18 354 48 C 288 114 235 192 196 284 C 156 376 137 472 137 573 Z M 614 471 C 614 416 626 373 652 342 C 677 310 712 295 758 295 C 806 295 851 312 893 346 C 934 380 964 430 983 496 L 1067 786 C 1024 836 971 862 907 862 C 849 862 797 840 751 798 C 705 755 670 704 648 645 C 625 586 614 528 614 471 Z" unicode="@" />
<glyph horiz-adv-x="1417" d="M 61 0 L 604 1434 L 813 1434 L 1354 0 L 1165 0 L 1036 352 L 379 352 L 252 0 L 61 0 Z M 430 494 L 985 494 L 709 1255 L 705 1255 L 430 494 Z" unicode="A" />
<glyph horiz-adv-x="1380" d="M 172 0 L 172 1434 L 735 1434 C 889 1434 1007 1399 1087 1329 C 1167 1259 1208 1170 1208 1061 C 1208 981 1187 914 1145 860 C 1103 806 1046 766 975 741 C 1064 717 1135 677 1187 619 C 1239 561 1266 489 1266 401 C 1266 274 1222 175 1136 105 C 1049 35 930 0 778 0 L 172 0 Z M 346 147 L 776 147 C 875 147 952 169 1006 215 C 1060 260 1087 326 1087 412 C 1087 490 1058 550 1001 594 C 944 637 869 659 776 659 L 346 659 L 346 147 Z M 346 799 L 727 799 C 826 799 901 822 953 869 C 1004 915 1030 975 1030 1049 C 1030 1118 1004 1175 953 1219 C 902 1263 827 1286 727 1286 L 346 1286 L 346 799 Z" unicode="B" />
<glyph horiz-adv-x="1454" d="M 113 731 C 113 873 143 999 204 1109 C 264 1219 349 1305 459 1366 C 569 1427 694 1458 836 1458 C 1018 1458 1176 1406 1311 1303 L 1217 1176 C 1101 1263 975 1307 838 1307 C 674 1307 541 1254 440 1148 C 339 1042 289 903 289 731 C 289 549 338 403 438 293 C 538 182 671 127 838 127 C 994 127 1127 179 1235 283 L 1343 168 C 1208 39 1037 -25 831 -25 C 689 -25 564 6 455 70 C 346 133 262 222 202 337 C 142 451 113 583 113 731 Z" unicode="C" />
<glyph horiz-adv-x="1460" d="M 172 0 L 172 1434 L 586 1434 C 832 1434 1021 1371 1153 1246 C 1285 1121 1352 947 1352 725 C 1352 494 1287 315 1159 189 C 1030 63 839 0 586 0 L 172 0 Z M 346 147 L 596 147 C 786 147 930 197 1028 299 C 1126 400 1176 542 1176 725 C 1176 899 1125 1036 1025 1136 C 924 1236 781 1286 596 1286 L 346 1286 L 346 147 Z" unicode="D" />
<glyph horiz-adv-x="1300" d="M 172 0 L 172 1434 L 1155 1434 L 1155 1278 L 346 1278 L 346 803 L 1075 803 L 1075 657 L 346 657 L 346 156 L 1167 156 L 1167 0 L 172 0 Z" unicode="E" />
<glyph horiz-adv-x="1265" d="M 172 0 L 172 1434 L 1139 1434 L 1139 1278 L 346 1278 L 346 791 L 1042 791 L 1042 641 L 346 641 L 346 0 L 172 0 Z" unicode="F" />
<glyph horiz-adv-x="1488" d="M 113 731 C 113 836 130 934 165 1024 C 199 1114 248 1190 310 1254 C 372 1318 449 1368 539 1404 C 629 1440 728 1458 836 1458 C 1013 1458 1173 1411 1317 1317 L 1227 1190 C 1107 1268 978 1307 840 1307 C 676 1307 543 1253 442 1147 C 341 1040 291 901 291 731 C 291 545 339 398 437 290 C 535 181 669 127 840 127 C 972 127 1084 155 1174 211 L 1174 621 L 774 621 L 774 754 L 1335 754 L 1335 121 C 1267 74 1191 38 1105 13 C 1019 -12 929 -25 836 -25 C 615 -25 439 43 309 181 C 178 319 113 502 113 731 Z" unicode="G" />
<glyph horiz-adv-x="1437" d="M 172 0 L 172 1434 L 346 1434 L 346 807 L 1092 807 L 1092 1434 L 1266 1434 L 1266 0 L 1092 0 L 1092 653 L 346 653 L 346 0 L 172 0 Z" unicode="H" />
<glyph horiz-adv-x="516" d="M 172 0 L 172 1434 L 346 1434 L 346 0 L 172 0 Z" unicode="I" />
<glyph horiz-adv-x="1169" d="M 98 272 L 240 352 C 301 204 401 131 539 131 C 635 131 708 161 756 221 C 804 281 829 365 829 473 L 829 1434 L 1004 1434 L 1004 471 C 1004 315 964 193 886 106 C 808 18 695 -25 547 -25 C 439 -25 348 2 272 56 C 196 110 138 182 98 272 Z" unicode="J" />
<glyph horiz-adv-x="1372" d="M 172 0 L 172 1434 L 346 1434 L 346 633 L 1040 1434 L 1243 1434 L 776 897 L 1298 0 L 1094 0 L 662 766 L 346 406 L 346 0 L 172 0 Z" unicode="K" />
<glyph horiz-adv-x="1239" d="M 172 0 L 172 1434 L 346 1434 L 346 156 L 1149 156 L 1149 0 L 172 0 Z" unicode="L" />
<glyph horiz-adv-x="1740" d="M 172 0 L 172 1434 L 360 1434 L 872 690 L 1384 1434 L 1571 1434 L 1571 0 L 1401 0 L 1401 1186 L 870 424 L 340 1188 L 340 0 L 172 0 Z" unicode="M" />
<glyph horiz-adv-x="1484" d="M 172 0 L 172 1434 L 348 1434 L 1145 270 L 1145 1434 L 1313 1434 L 1313 0 L 1135 0 L 340 1161 L 340 0 L 172 0 Z" unicode="N" />
<glyph horiz-adv-x="1656" d="M 113 727 C 113 871 144 999 208 1111 C 271 1223 357 1308 465 1368 C 573 1428 695 1458 829 1458 C 928 1458 1022 1440 1110 1405 C 1198 1370 1274 1321 1338 1259 C 1402 1196 1452 1119 1490 1027 C 1527 935 1546 835 1546 727 C 1546 614 1527 510 1491 416 C 1454 321 1404 241 1340 177 C 1276 113 1200 63 1112 28 C 1024 -7 930 -25 829 -25 C 727 -25 633 -7 545 28 C 457 63 382 113 318 177 C 254 241 204 321 168 416 C 131 510 113 614 113 727 Z M 291 727 C 291 635 304 551 332 475 C 360 399 398 336 446 286 C 494 235 551 196 617 168 C 682 140 753 127 829 127 C 904 127 974 140 1040 168 C 1106 196 1163 235 1211 286 C 1259 336 1298 400 1326 476 C 1354 552 1368 635 1368 727 C 1368 813 1354 893 1326 966 C 1298 1039 1259 1100 1211 1150 C 1163 1199 1106 1237 1040 1265 C 974 1293 903 1307 829 1307 C 754 1307 684 1293 618 1265 C 552 1237 495 1199 447 1150 C 399 1100 361 1039 333 966 C 305 893 291 813 291 727 Z" unicode="O" />
<glyph horiz-adv-x="1353" d="M 172 0 L 172 1434 L 741 1434 C 812 1434 876 1425 933 1409 C 990 1393 1037 1371 1074 1344 C 1111 1317 1142 1285 1167 1248 C 1192 1211 1210 1172 1221 1132 C 1231 1092 1237 1050 1237 1006 C 1237 963 1231 922 1221 882 C 1210 842 1192 803 1167 765 C 1141 727 1110 694 1073 666 C 1035 638 988 615 931 598 C 873 581 809 573 739 573 L 346 573 L 346 0 L 172 0 Z M 346 717 L 737 717 C 793 717 843 725 887 741 C 930 757 964 780 989 808 C 1013 836 1032 866 1044 899 C 1056 932 1063 967 1063 1004 C 1063 1084 1036 1151 983 1205 C 930 1259 849 1286 741 1286 L 346 1286 L 346 717 Z" unicode="P" />
<glyph horiz-adv-x="1673" d="M 113 727 C 113 871 144 999 208 1111 C 271 1223 357 1308 465 1368 C 573 1428 695 1458 829 1458 C 928 1458 1022 1440 1110 1405 C 1198 1370 1274 1321 1338 1259 C 1402 1196 1452 1119 1490 1027 C 1527 935 1546 835 1546 727 C 1546 528 1491 361 1382 225 L 1565 72 L 1466 -33 L 1284 129 C 1158 26 1006 -25 829 -25 C 727 -25 633 -7 545 28 C 457 63 382 113 318 177 C 254 241 204 321 168 416 C 131 510 113 614 113 727 Z M 291 727 C 291 635 304 551 332 475 C 360 399 398 336 446 286 C 494 235 551 196 617 168 C 682 140 753 127 829 127 C 957 127 1067 165 1161 242 L 897 467 L 989 571 L 1253 336 C 1329 442 1368 573 1368 727 C 1368 813 1354 893 1326 966 C 1298 1039 1259 1100 1211 1150 C 1163 1199 1106 1237 1040 1265 C 974 1293 903 1307 829 1307 C 754 1307 684 1293 618 1265 C 552 1237 495 1199 447 1150 C 399 1100 361 1039 333 966 C 305 893 291 813 291 727 Z" unicode="Q" />
<glyph horiz-adv-x="1398" d="M 172 0 L 172 1434 L 772 1434 C 842 1434 906 1425 963 1409 C 1019 1393 1066 1371 1104 1344 C 1141 1317 1172 1285 1197 1248 C 1221 1211 1239 1172 1250 1132 C 1260 1092 1266 1050 1266 1006 C 1266 914 1240 832 1189 758 C 1137 684 1062 632 963 602 L 1268 0 L 1075 0 L 801 578 L 778 578 L 346 578 L 346 0 L 172 0 Z M 346 717 L 768 717 C 823 717 872 725 915 741 C 957 757 991 779 1016 807 C 1040 835 1059 865 1071 898 C 1083 931 1090 966 1090 1004 C 1090 1084 1063 1151 1011 1205 C 958 1259 878 1286 770 1286 L 346 1286 L 346 717 Z" unicode="R" />
<glyph horiz-adv-x="1261" d="M 106 123 L 193 262 C 326 174 473 131 635 131 C 744 131 827 153 885 198 C 942 242 971 301 971 375 C 971 416 961 452 942 482 C 923 512 897 537 865 555 C 832 573 795 589 753 603 C 711 617 666 629 620 641 C 574 652 527 664 481 677 C 435 690 391 707 349 727 C 307 747 269 771 237 799 C 204 827 178 863 159 909 C 140 954 131 1006 131 1065 C 131 1177 175 1271 264 1346 C 352 1420 472 1458 623 1458 C 789 1458 948 1422 1098 1350 L 1030 1206 C 899 1270 765 1303 629 1303 C 531 1303 454 1280 398 1236 C 341 1192 313 1135 313 1067 C 313 1025 322 989 341 959 C 360 929 386 904 418 886 C 450 868 488 852 530 839 C 572 825 616 813 662 802 C 708 790 755 778 801 766 C 847 753 892 736 934 716 C 976 696 1013 672 1045 644 C 1077 616 1103 579 1122 533 C 1141 487 1151 435 1151 375 C 1151 257 1106 160 1018 86 C 930 12 802 -25 635 -25 C 535 -25 438 -11 345 16 C 251 44 172 79 106 123 Z" unicode="S" />
<glyph horiz-adv-x="1333" d="M 61 1278 L 61 1434 L 1274 1434 L 1274 1278 L 754 1278 L 754 0 L 580 0 L 580 1278 L 61 1278 Z" unicode="T" />
<glyph horiz-adv-x="1466" d="M 166 530 L 166 1434 L 342 1434 L 342 530 C 342 403 378 304 452 233 C 525 162 619 127 733 127 C 847 127 941 162 1015 233 C 1089 304 1126 403 1126 530 L 1126 1434 L 1300 1434 L 1300 530 C 1300 440 1285 359 1256 288 C 1227 216 1187 158 1136 113 C 1084 68 1024 34 956 10 C 888 -13 813 -25 733 -25 C 652 -25 577 -13 509 10 C 441 34 381 68 330 113 C 278 158 238 216 209 288 C 180 359 166 440 166 530 Z" unicode="U" />
<glyph horiz-adv-x="1394" d="M 61 1434 L 254 1434 L 694 195 L 698 195 L 1143 1434 L 1335 1434 L 799 0 L 594 0 L 61 1434 Z" unicode="V" />
<glyph horiz-adv-x="2117" d="M 66 1434 L 252 1434 L 621 238 L 625 238 L 975 1434 L 1147 1434 L 1495 238 L 1499 238 L 1870 1434 L 2054 1434 L 1597 0 L 1405 0 L 1061 1171 L 1057 1171 L 713 0 L 520 0 L 66 1434 Z" unicode="W" />
<glyph horiz-adv-x="1415" d="M 78 0 L 598 731 L 102 1434 L 315 1434 L 711 868 L 1104 1434 L 1315 1434 L 817 731 L 1337 0 L 1122 0 L 707 596 L 293 0 L 78 0 Z" unicode="X" />
<glyph horiz-adv-x="1370" d="M 57 1434 L 264 1434 L 684 752 L 688 752 L 1108 1434 L 1313 1434 L 772 584 L 772 0 L 598 0 L 598 584 L 57 1434 Z" unicode="Y" />
<glyph horiz-adv-x="1325" d="M 115 0 L 115 145 L 973 1276 L 117 1276 L 117 1434 L 1194 1434 L 1194 1290 L 340 160 L 1217 160 L 1217 0 L 115 0 Z" unicode="Z" />
<glyph horiz-adv-x="794" d="M 172 -410 L 172 1546 L 662 1546 L 662 1417 L 344 1417 L 344 -281 L 662 -281 L 662 -410 L 172 -410 Z" unicode="[" />
<glyph horiz-adv-x="1034" d="M -23 1546 L 147 1546 L 1057 -410 L 885 -410 L -23 1546 Z" unicode="\" />
<glyph horiz-adv-x="794" d="M 133 -281 L 451 -281 L 451 1417 L 133 1417 L 133 1546 L 623 1546 L 623 -410 L 133 -410 L 133 -281 Z" unicode="]" />
<glyph horiz-adv-x="1114" d="M 193 1151 L 479 1516 L 637 1516 L 922 1151 L 786 1151 L 559 1372 L 328 1151 L 193 1151 Z" unicode="^" />
<glyph horiz-adv-x="1126" d="M 0 -27 L 1126 -27 L 1126 -176 L 0 -176 L 0 -27 Z" unicode="_" />
<glyph horiz-adv-x="1296" d="M 446 1446 L 567 1538 L 852 1176 L 735 1176 L 446 1446 Z" unicode="`" />
<glyph horiz-adv-x="1085" d="M 100 246 C 100 297 111 343 135 384 C 159 424 190 458 230 484 C 269 510 317 533 373 551 C 429 569 486 582 546 591 C 605 599 669 605 739 608 L 739 764 C 739 820 721 864 687 897 C 653 929 601 946 532 946 C 436 946 325 913 197 848 L 131 983 C 275 1052 411 1087 537 1087 C 663 1087 756 1057 817 999 C 878 940 909 861 909 762 L 909 231 C 909 159 944 123 1016 123 L 1016 -2 C 942 -2 885 8 846 29 C 807 50 778 84 760 131 C 665 27 549 -25 412 -25 C 318 -25 243 0 186 50 C 128 100 100 165 100 246 Z M 268 258 C 268 212 284 175 317 147 C 350 119 394 106 449 106 C 510 106 566 118 617 144 C 667 170 708 202 739 242 L 739 500 C 425 485 268 404 268 258 Z" unicode="a" />
<glyph horiz-adv-x="1208" d="M 166 0 L 166 1546 L 336 1546 L 336 926 C 436 1033 548 1087 672 1087 C 803 1087 908 1039 986 944 C 1064 849 1104 717 1104 549 C 1104 367 1065 226 988 126 C 911 25 806 -25 672 -25 C 542 -25 427 30 328 141 L 313 0 L 166 0 Z M 336 268 C 424 164 524 113 635 113 C 731 113 804 151 855 228 C 906 304 932 411 932 547 C 932 675 906 774 854 844 C 802 914 729 950 635 950 C 527 950 427 897 336 793 L 336 268 Z" unicode="b" />
<glyph horiz-adv-x="1056" d="M 102 543 C 102 709 149 841 243 939 C 337 1037 458 1087 608 1087 C 743 1087 858 1049 954 973 L 864 856 C 787 914 703 944 612 944 C 512 944 430 907 368 835 C 305 762 274 665 274 543 C 274 411 304 307 366 231 C 428 155 510 117 612 117 C 710 117 799 151 879 219 L 977 115 C 923 67 867 32 809 9 C 751 -13 684 -25 608 -25 C 456 -25 334 26 241 128 C 148 230 102 369 102 543 Z" unicode="c" />
<glyph horiz-adv-x="1206" d="M 104 549 C 104 717 143 849 221 944 C 299 1039 405 1087 537 1087 C 659 1087 771 1033 874 926 L 874 1546 L 1044 1546 L 1044 0 L 897 0 L 881 141 C 779 30 664 -25 535 -25 C 401 -25 295 25 219 126 C 142 226 104 367 104 549 Z M 274 547 C 274 411 299 304 351 228 C 403 151 477 113 573 113 C 683 113 783 164 874 268 L 874 793 C 780 897 679 950 573 950 C 479 950 405 914 353 844 C 300 774 274 675 274 547 Z" unicode="d" />
<glyph horiz-adv-x="1159" d="M 104 543 C 104 707 151 840 247 940 C 342 1040 464 1090 612 1090 C 755 1090 864 1046 938 958 C 1012 870 1049 756 1049 614 C 1049 588 1046 558 1040 524 L 274 524 C 276 392 306 291 366 221 C 425 150 511 115 625 115 C 731 115 835 148 936 215 L 1012 100 C 956 60 894 28 826 6 C 757 -15 687 -27 616 -27 C 454 -27 329 23 239 124 C 149 225 104 365 104 543 Z M 281 639 L 885 639 C 885 641 885 643 885 646 C 884 704 876 756 860 800 C 842 846 813 884 772 914 C 731 943 679 958 616 958 C 529 958 456 929 396 872 C 336 815 297 737 281 639 Z" unicode="e" />
<glyph horiz-adv-x="778" d="M 47 926 L 47 1055 L 236 1055 L 236 1147 C 236 1421 371 1559 643 1559 C 698 1559 755 1549 815 1530 L 772 1405 C 725 1417 683 1423 647 1423 C 567 1423 506 1401 466 1357 C 426 1313 406 1244 406 1149 L 406 1055 L 700 1055 L 700 926 L 406 926 L 406 0 L 236 0 L 236 926 L 47 926 Z" unicode="f" />
<glyph horiz-adv-x="1175" d="M 66 -150 C 66 -99 81 -54 113 -15 C 145 23 188 55 244 80 C 190 117 164 165 164 225 C 164 293 198 347 268 389 C 158 465 104 568 104 700 C 104 813 146 906 230 978 C 314 1050 418 1087 543 1087 C 653 1087 749 1057 829 997 C 909 1059 1002 1090 1110 1090 C 1113 1090 1116 1090 1120 1090 L 1120 961 C 1021 961 948 950 901 930 C 954 863 981 786 981 700 C 981 622 960 552 919 492 C 877 431 824 385 758 354 C 692 322 620 307 543 307 C 474 307 412 318 358 340 C 318 320 299 292 299 254 C 299 236 303 220 313 208 C 323 195 335 185 351 177 C 367 169 390 162 420 157 C 450 151 480 147 510 145 C 540 142 580 139 629 137 C 700 133 763 125 817 115 C 871 104 920 88 963 67 C 1006 46 1039 18 1062 -16 C 1084 -50 1096 -91 1096 -139 C 1096 -231 1051 -303 963 -354 C 875 -404 745 -430 575 -430 C 411 -430 286 -405 198 -357 C 110 -309 66 -240 66 -150 Z M 227 -143 C 227 -253 340 -309 567 -309 C 686 -309 777 -295 840 -269 C 902 -243 934 -204 934 -154 C 934 -102 906 -64 851 -42 C 795 -19 710 -5 596 0 C 519 2 445 11 375 27 C 330 11 294 -10 267 -40 C 240 -69 227 -103 227 -143 Z M 268 700 C 268 622 294 557 346 507 C 398 457 464 432 543 432 C 621 432 687 457 739 507 C 791 557 817 621 817 700 C 817 776 791 840 739 890 C 687 940 621 965 543 965 C 464 965 398 940 346 890 C 294 840 268 776 268 700 Z" unicode="g" />
<glyph horiz-adv-x="1185" d="M 166 0 L 166 1546 L 336 1546 L 336 920 C 444 1033 564 1090 696 1090 C 812 1090 897 1057 951 992 C 1005 927 1032 837 1032 721 L 1032 0 L 864 0 L 864 723 C 864 875 795 952 659 952 C 536 952 428 896 336 784 L 336 0 L 166 0 Z" unicode="h" />
<glyph horiz-adv-x="499" d="M 166 0 L 166 1057 L 336 1057 L 336 0 L 166 0 Z M 166 1327 L 166 1522 L 336 1522 L 336 1327 L 166 1327 Z" unicode="i" />
<glyph horiz-adv-x="518" d="M -106 -408 L -74 -274 C -40 -284 -10 -289 14 -289 C 127 -289 184 -211 184 -57 L 184 1057 L 352 1057 L 352 -51 C 352 -303 245 -430 31 -430 C -17 -430 -63 -422 -106 -408 Z M 184 1327 L 184 1522 L 352 1522 L 352 1327 L 184 1327 Z" unicode="j" />
<glyph horiz-adv-x="1097" d="M 166 0 L 166 1546 L 336 1546 L 336 518 L 813 1063 L 1006 1063 L 682 705 L 1055 0 L 860 0 L 569 580 L 336 322 L 336 0 L 166 0 Z" unicode="k" />
<glyph horiz-adv-x="501" d="M 166 0 L 166 1546 L 336 1546 L 336 0 L 166 0 Z" unicode="l" />
<glyph horiz-adv-x="1824" d="M 158 0 L 158 1063 L 315 1063 L 326 926 C 374 975 429 1015 489 1045 C 549 1075 611 1090 676 1090 C 822 1090 920 1031 969 913 C 1087 1031 1212 1090 1346 1090 C 1454 1090 1536 1057 1590 992 C 1644 926 1671 837 1671 723 L 1671 0 L 1501 0 L 1501 727 C 1501 877 1437 952 1309 952 C 1192 952 1089 899 999 795 C 1002 753 1004 726 1004 715 L 1004 0 L 831 0 L 831 727 C 831 877 767 952 639 952 C 519 952 416 897 328 788 L 328 0 L 158 0 Z" unicode="m" />
<glyph horiz-adv-x="1177" d="M 158 0 L 158 1063 L 315 1063 L 326 920 C 434 1033 556 1090 690 1090 C 805 1090 890 1057 944 992 C 998 927 1026 837 1026 721 L 1026 0 L 856 0 L 856 723 C 856 875 788 952 653 952 C 528 952 420 895 328 782 L 328 0 L 158 0 Z" unicode="n" />
<glyph horiz-adv-x="1230" d="M 104 545 C 104 707 152 838 248 938 C 344 1037 467 1087 616 1087 C 764 1087 886 1037 981 938 C 1076 838 1124 707 1124 545 C 1124 371 1077 232 984 129 C 891 26 768 -25 616 -25 C 461 -25 337 26 244 129 C 150 232 104 371 104 545 Z M 276 545 C 276 413 306 307 367 229 C 428 150 511 111 616 111 C 718 111 799 150 860 229 C 921 308 952 413 952 545 C 952 666 920 764 858 838 C 796 912 715 950 616 950 C 516 950 434 912 371 838 C 307 764 276 666 276 545 Z" unicode="o" />
<glyph horiz-adv-x="1204" d="M 164 -410 L 164 1063 L 313 1063 L 328 922 C 428 1032 542 1087 670 1087 C 800 1087 905 1039 983 944 C 1061 849 1100 717 1100 549 C 1100 367 1061 226 985 126 C 909 25 804 -25 672 -25 C 546 -25 433 29 332 137 L 332 -410 L 164 -410 Z M 332 268 C 420 164 521 113 633 113 C 728 113 801 151 853 228 C 904 304 930 411 930 547 C 930 675 903 774 851 844 C 799 914 725 950 631 950 C 525 950 426 897 332 793 L 332 268 Z" unicode="p" />
<glyph horiz-adv-x="1206" d="M 104 549 C 104 717 143 849 221 944 C 299 1039 405 1087 537 1087 C 663 1087 776 1032 877 922 L 893 1063 L 1044 1063 L 1044 -410 L 874 -410 L 874 137 C 772 29 659 -25 535 -25 C 401 -25 295 25 219 126 C 142 226 104 367 104 549 Z M 274 547 C 274 411 300 305 352 228 C 404 151 477 113 573 113 C 683 113 783 164 874 268 L 874 793 C 780 897 679 950 573 950 C 479 950 405 914 353 844 C 300 774 274 675 274 547 Z" unicode="q" />
<glyph horiz-adv-x="827" d="M 158 0 L 158 1063 L 311 1063 L 326 883 C 407 1021 515 1090 649 1090 C 695 1090 740 1083 784 1069 L 752 909 C 711 924 669 932 627 932 C 508 932 408 859 328 715 L 328 0 L 158 0 Z" unicode="r" />
<glyph horiz-adv-x="972" d="M 80 86 L 156 209 C 260 145 370 113 487 113 C 561 113 618 127 659 155 C 700 183 721 223 721 276 C 721 304 714 328 700 349 C 686 370 667 387 643 400 C 619 413 591 425 560 435 C 528 445 495 454 461 463 C 427 471 393 481 359 491 C 325 501 292 513 261 529 C 229 545 202 563 178 584 C 154 605 135 632 121 666 C 107 699 100 737 100 780 C 100 873 135 947 207 1003 C 279 1059 371 1087 483 1087 C 605 1087 726 1059 846 1004 L 778 874 C 734 896 686 915 633 929 C 579 943 529 950 483 950 C 417 950 365 935 326 906 C 287 876 268 836 268 786 C 268 754 276 727 294 705 C 312 683 335 666 364 654 C 393 642 426 631 463 620 C 500 608 538 599 577 591 C 616 583 654 571 691 555 C 728 539 761 520 790 500 C 819 479 842 450 860 414 C 878 377 887 334 887 285 C 887 187 851 110 780 56 C 708 2 611 -25 487 -25 C 336 -25 200 12 80 86 Z" unicode="s" />
<glyph horiz-adv-x="800" d="M 47 932 L 47 1063 L 233 1063 L 233 1374 L 403 1374 L 403 1063 L 709 1063 L 709 932 L 403 932 L 403 285 C 403 171 449 115 543 115 C 599 115 651 132 700 166 L 766 55 C 691 1 610 -25 524 -25 C 424 -25 351 0 304 52 C 256 103 233 180 233 283 L 233 932 L 47 932 Z" unicode="t" />
<glyph horiz-adv-x="1179" d="M 154 344 L 154 1063 L 324 1063 L 324 340 C 324 266 339 210 370 170 C 400 130 452 111 526 111 C 650 111 760 167 854 281 L 854 1063 L 1024 1063 L 1024 0 L 870 0 L 856 143 C 746 31 625 -25 492 -25 C 376 -25 290 7 236 72 C 181 137 154 228 154 344 Z" unicode="u" />
<glyph horiz-adv-x="1034" d="M 45 1063 L 221 1063 L 518 186 L 522 186 L 819 1063 L 989 1063 L 610 0 L 422 0 L 45 1063 Z" unicode="v" />
<glyph horiz-adv-x="1669" d="M 45 1063 L 219 1063 L 500 211 L 504 211 L 760 1063 L 911 1063 L 1169 211 L 1174 211 L 1452 1063 L 1622 1063 L 1262 0 L 1092 0 L 836 825 L 831 825 L 578 0 L 408 0 L 45 1063 Z" unicode="w" />
<glyph horiz-adv-x="1052" d="M 61 0 L 422 537 L 76 1063 L 262 1063 L 526 653 L 791 1063 L 975 1063 L 631 537 L 989 0 L 805 0 L 524 422 L 244 0 L 61 0 Z" unicode="x" />
<glyph horiz-adv-x="1040" d="M 33 -395 L 82 -258 C 134 -278 177 -289 211 -289 C 251 -289 285 -279 311 -261 C 337 -242 359 -209 377 -162 L 442 6 L 47 1063 L 223 1063 L 524 223 L 528 223 L 821 1063 L 993 1063 L 545 -174 C 509 -269 464 -335 411 -373 C 358 -411 293 -430 217 -430 C 153 -430 92 -418 33 -395 Z" unicode="y" />
<glyph horiz-adv-x="1026" d="M 102 0 L 102 119 L 705 926 L 119 926 L 119 1063 L 918 1063 L 918 942 L 317 137 L 938 137 L 938 0 L 102 0 Z" unicode="z" />
<glyph horiz-adv-x="933" d="M 70 481 L 70 635 L 164 635 C 228 635 274 649 301 679 C 328 708 342 755 342 821 L 342 1241 C 342 1444 456 1546 686 1546 L 809 1546 L 809 1419 L 694 1419 C 628 1419 581 1405 553 1377 C 525 1349 512 1303 512 1239 L 512 829 C 512 682 452 593 332 561 L 332 559 C 452 523 512 432 512 287 L 512 -102 C 512 -166 525 -212 553 -240 C 581 -268 628 -283 694 -283 L 809 -283 L 809 -410 L 686 -410 C 456 -410 342 -308 342 -104 L 342 297 C 342 361 328 408 301 437 C 274 466 228 481 164 481 L 70 481 Z" unicode="{" />
<glyph horiz-adv-x="585" d="M 213 -410 L 213 1546 L 375 1546 L 375 -410 L 213 -410 Z" unicode="|" />
<glyph horiz-adv-x="933" d="M 125 -283 L 240 -283 C 306 -283 352 -268 380 -240 C 408 -212 422 -166 422 -102 L 422 287 C 422 432 482 523 602 559 L 602 561 C 482 593 422 682 422 829 L 422 1239 C 422 1303 408 1349 380 1377 C 352 1405 306 1419 240 1419 L 125 1419 L 125 1546 L 248 1546 C 477 1546 592 1444 592 1241 L 592 821 C 592 755 605 708 632 679 C 659 649 705 635 770 635 L 864 635 L 864 481 L 770 481 C 705 481 659 466 632 437 C 605 408 592 361 592 297 L 592 -104 C 592 -308 477 -410 248 -410 L 125 -410 L 125 -283 Z" unicode="}" />
<glyph horiz-adv-x="1165" d="M 150 449 C 150 533 170 600 211 650 C 251 700 307 725 379 725 C 409 725 440 718 472 704 C 503 690 531 673 557 653 C 582 633 607 614 631 594 C 655 574 680 557 706 543 C 732 529 758 522 782 522 C 819 522 847 536 866 564 C 885 592 893 633 891 688 L 1014 688 C 1015 677 1016 663 1016 645 C 1016 561 995 494 955 445 C 914 395 858 371 786 371 C 754 371 723 378 692 392 C 660 406 632 422 607 442 C 581 462 556 481 532 501 C 508 521 483 538 457 552 C 431 566 406 573 383 573 C 345 573 317 558 297 529 C 277 500 270 459 274 406 L 152 406 C 150 416 150 431 150 449 Z" unicode="~" />
<glyph horiz-adv-x="831" d="M 117 1024 L 117 1749 L 227 1749 L 236 1657 C 306 1730 388 1767 481 1767 C 560 1767 619 1744 658 1699 C 697 1653 717 1591 717 1513 L 717 1024 L 596 1024 L 596 1516 C 596 1616 550 1667 459 1667 C 375 1667 301 1629 238 1554 L 238 1024 L 117 1024 Z" unicode="ⁿ" />
<glyph horiz-adv-x="802" d="M 403 737 C 498 737 577 703 640 636 C 703 568 735 477 735 362 C 735 246 703 155 640 88 C 577 21 498 -12 403 -12 C 305 -12 225 21 162 88 C 99 154 68 246 68 362 C 68 478 99 569 162 636 C 225 703 305 737 403 737 Z M 186 362 C 186 279 206 213 246 164 C 286 114 338 90 403 90 C 466 90 518 114 558 164 C 598 213 618 279 618 362 C 618 445 598 512 558 562 C 518 612 466 637 403 637 C 339 637 286 612 246 562 C 206 512 186 445 186 362 Z" unicode="₀" />
<glyph horiz-adv-x="587" d="M 90 614 L 313 725 L 406 725 L 406 0 L 289 0 L 289 608 L 137 528 L 90 614 Z" unicode="₁" />
<glyph horiz-adv-x="688" d="M 76 623 C 110 657 151 685 199 706 C 247 726 297 737 350 737 C 434 737 500 717 546 678 C 592 639 616 589 616 528 C 616 493 608 462 594 435 C 579 407 560 385 536 368 C 512 350 486 334 458 319 C 429 304 400 290 372 276 C 343 262 317 248 293 233 C 269 217 249 198 234 175 C 219 152 211 126 211 98 L 616 98 L 616 0 L 88 0 L 88 57 C 86 102 93 143 108 179 C 122 215 142 244 166 266 C 190 288 216 307 246 325 C 275 343 304 358 334 372 C 364 386 391 400 415 414 C 439 428 459 444 475 464 C 490 483 498 505 498 530 C 498 561 484 587 457 608 C 430 628 392 639 344 639 C 273 639 210 609 154 551 L 76 623 Z" unicode="₂" />
<glyph horiz-adv-x="681" d="M 74 635 C 152 703 240 737 336 737 C 412 737 474 719 523 684 C 571 648 596 603 596 549 C 596 471 559 416 485 385 C 577 353 623 296 623 215 C 623 144 593 88 534 47 C 474 6 401 -14 313 -14 C 229 -14 150 5 76 43 L 119 137 C 183 101 247 84 311 84 C 366 84 412 96 448 121 C 484 146 502 178 502 217 C 502 254 488 282 460 301 C 432 320 393 330 344 330 L 238 330 L 238 424 L 338 424 C 382 424 417 433 441 453 C 465 473 477 500 477 535 C 477 565 464 589 438 609 C 412 629 378 639 334 639 C 262 639 197 612 139 559 L 74 635 Z" unicode="₃" />
<glyph horiz-adv-x="686" d="M 51 242 L 420 725 L 551 725 L 551 248 L 657 248 L 657 154 L 551 154 L 551 0 L 436 0 L 436 154 L 88 154 L 51 242 Z M 174 248 L 436 248 L 436 600 L 174 248 Z" unicode="₄" />
<glyph horiz-adv-x="647" d="M 57 45 L 102 135 C 159 103 223 88 293 88 C 345 88 388 101 421 129 C 454 156 471 192 471 236 C 471 276 457 308 430 332 C 403 356 366 369 319 369 C 279 369 227 358 164 338 L 100 377 L 117 725 L 553 725 L 553 629 L 219 629 L 211 436 C 253 456 299 467 348 467 C 418 467 476 445 522 403 C 568 361 592 306 592 240 C 592 162 564 101 508 55 C 452 9 381 -14 295 -14 C 203 -14 123 5 57 45 Z" unicode="₅" />
<glyph horiz-adv-x="690" d="M 68 338 C 68 408 77 469 95 522 C 113 575 138 617 170 647 C 202 677 237 700 275 715 C 313 729 355 737 399 737 C 471 737 538 722 598 694 L 551 604 C 501 627 449 639 397 639 C 341 639 293 618 253 577 C 212 535 189 475 184 395 C 244 444 310 469 383 469 C 455 469 514 447 560 405 C 606 362 629 306 629 236 C 629 167 604 108 556 60 C 508 12 442 -12 360 -12 C 308 -12 263 -3 225 15 C 187 33 156 58 134 91 C 112 123 95 160 84 201 C 73 242 68 288 68 338 Z M 184 303 C 187 237 203 184 233 145 C 262 105 304 86 360 86 C 407 86 445 100 474 128 C 503 156 518 191 518 231 C 518 273 503 308 475 336 C 447 363 411 377 367 377 C 297 377 236 352 184 303 Z" unicode="₆" />
<glyph horiz-adv-x="616" d="M 51 625 L 51 725 L 565 725 L 565 645 L 276 0 L 147 0 L 440 625 L 51 625 Z" unicode="₇" />
<glyph horiz-adv-x="714" d="M 63 193 C 63 237 78 276 109 308 C 139 340 177 364 223 379 C 187 392 157 413 133 441 C 109 469 98 502 98 539 C 98 600 121 648 169 684 C 217 719 279 737 356 737 C 433 737 496 719 545 684 C 593 648 618 600 618 539 C 618 503 606 470 582 442 C 558 413 528 392 492 379 C 537 364 575 340 605 308 C 635 276 651 237 651 193 C 651 129 624 79 570 43 C 516 6 444 -12 356 -12 C 268 -12 198 6 144 43 C 90 79 63 129 63 193 Z M 178 197 C 178 161 194 132 227 112 C 259 92 302 82 356 82 C 409 82 452 92 485 112 C 518 132 535 161 535 197 C 535 234 518 264 485 287 C 451 310 408 324 356 328 C 304 324 262 310 228 287 C 194 264 178 234 178 197 Z M 209 541 C 209 507 222 479 248 458 C 274 436 310 424 356 420 C 402 424 439 436 465 458 C 491 479 504 507 504 541 C 504 572 490 597 462 615 C 434 633 399 643 356 643 C 313 643 278 633 250 615 C 222 596 209 571 209 541 Z" unicode="₈" />
<glyph horiz-adv-x="692" d="M 63 492 C 63 560 87 618 135 666 C 183 713 249 737 332 737 C 383 737 428 727 467 709 C 506 691 537 665 560 633 C 582 601 599 564 610 524 C 621 483 627 438 627 389 C 627 319 617 258 599 205 C 581 152 556 110 524 79 C 492 48 457 25 419 10 C 380 -4 339 -12 295 -12 C 217 -12 147 6 84 43 L 137 129 C 186 100 239 86 295 86 C 351 86 400 106 440 147 C 480 188 503 249 510 330 C 446 280 380 256 311 256 C 238 256 178 277 132 321 C 86 364 63 421 63 492 Z M 176 494 C 176 452 190 417 218 389 C 246 361 283 348 328 348 C 393 348 453 372 508 422 C 506 488 490 541 460 581 C 430 621 387 641 330 641 C 283 641 246 626 218 598 C 190 570 176 535 176 494 Z" unicode="₉" />
<glyph horiz-adv-x="1245" d="M 57 0 L 508 1071 C 441 1111 408 1171 408 1249 C 408 1308 428 1358 470 1398 C 512 1438 563 1458 623 1458 C 683 1458 733 1438 775 1398 C 817 1358 838 1308 838 1249 C 838 1211 828 1176 810 1146 C 792 1115 767 1090 737 1071 L 1188 0 L 1006 0 L 895 274 L 350 274 L 240 0 L 57 0 Z M 403 406 L 842 406 L 625 944 L 621 944 L 403 406 Z M 489 1249 C 489 1215 499 1185 520 1161 C 541 1136 568 1121 600 1116 L 643 1116 C 675 1121 701 1136 723 1161 C 745 1186 756 1215 756 1249 C 756 1287 743 1318 717 1344 C 691 1369 660 1382 623 1382 C 585 1382 554 1369 528 1344 C 502 1318 489 1287 489 1249 Z" unicode="" />
<glyph horiz-adv-x="1245" d="M 57 0 L 526 1116 L 719 1116 L 1188 0 L 1006 0 L 895 274 L 350 274 L 240 0 L 57 0 Z M 279 1552 L 399 1552 L 621 1329 L 623 1329 L 844 1552 L 967 1552 L 713 1229 L 532 1229 L 279 1552 Z M 403 406 L 842 406 L 625 944 L 621 944 L 403 406 Z" unicode="" />
<glyph horiz-adv-x="475" d="M 68 352 C 68 484 88 607 129 723 C 170 839 223 938 287 1020 L 414 1020 C 354 954 301 862 256 742 C 210 622 188 492 188 352 C 188 211 210 78 256 -45 C 302 -169 354 -265 414 -332 L 287 -332 C 223 -246 170 -145 129 -27 C 88 91 68 217 68 352 Z" unicode="₍" />
<glyph horiz-adv-x="475" d="M 61 -332 C 120 -265 172 -169 218 -45 C 264 78 287 211 287 352 C 287 492 264 622 219 742 C 173 862 121 954 61 1020 L 188 1020 C 252 936 304 837 346 722 C 387 606 408 483 408 352 C 408 217 387 91 346 -26 C 305 -144 252 -246 188 -332 L 61 -332 Z" unicode="₎" />
<glyph horiz-adv-x="1245" d="M 57 0 L 526 1116 L 719 1116 L 1188 0 L 1006 0 L 895 274 L 350 274 L 240 0 L 57 0 Z M 291 1229 C 297 1332 330 1413 390 1473 C 450 1533 527 1563 623 1563 C 717 1563 793 1533 852 1473 C 910 1413 944 1332 954 1229 L 838 1229 C 830 1296 807 1349 769 1387 C 731 1425 683 1444 623 1444 C 562 1444 512 1424 474 1386 C 436 1348 413 1295 406 1229 L 291 1229 Z M 403 406 L 842 406 L 625 944 L 621 944 L 403 406 Z" unicode="" />
<glyph horiz-adv-x="1245" d="M 57 0 L 526 1116 L 719 1116 L 1188 0 L 1006 0 L 895 274 L 350 274 L 240 0 L 57 0 Z M 147 1505 L 270 1591 L 541 1229 L 428 1229 L 147 1505 Z M 403 406 L 842 406 L 625 944 L 621 944 L 403 406 Z M 471 1505 L 592 1591 L 860 1229 L 750 1229 L 471 1505 Z" unicode="" />
<glyph horiz-adv-x="1245" d="M 57 0 L 526 1116 L 719 1116 L 1188 0 L 1006 0 L 895 274 L 350 274 L 240 0 L 57 0 Z M 403 406 L 842 406 L 625 944 L 621 944 L 403 406 Z M 545 1307 L 545 1475 L 702 1475 L 702 1307 L 545 1307 Z" unicode="" />
<glyph horiz-adv-x="1245" d="M 57 0 L 508 1071 C 441 1111 408 1171 408 1249 C 408 1308 428 1358 470 1398 C 512 1438 563 1458 623 1458 C 683 1458 733 1438 775 1398 C 817 1358 838 1308 838 1249 C 838 1211 828 1176 810 1146 C 792 1115 767 1090 737 1071 L 1188 0 L 1006 0 L 895 274 L 350 274 L 240 0 L 57 0 Z M 403 406 L 842 406 L 625 944 L 621 944 L 403 406 Z M 489 1249 C 489 1215 499 1185 520 1161 C 541 1136 568 1121 600 1116 L 643 1116 C 675 1121 701 1136 723 1161 C 745 1186 756 1215 756 1249 C 756 1287 743 1318 717 1344 C 691 1369 660 1382 623 1382 C 585 1382 554 1369 528 1344 C 502 1318 489 1287 489 1249 Z M 526 1511 L 811 1874 L 932 1782 L 643 1511 L 526 1511 Z" unicode="" />
<glyph horiz-adv-x="1245" d="M 57 0 L 526 1116 L 719 1116 L 1188 0 L 1006 0 L 895 274 L 350 274 L 240 0 L 57 0 Z M 322 1585 L 322 1704 L 924 1704 L 924 1585 L 322 1585 Z M 346 1280 L 346 1448 L 502 1448 L 502 1280 L 346 1280 Z M 403 406 L 842 406 L 625 944 L 621 944 L 403 406 Z M 745 1280 L 745 1448 L 901 1448 L 901 1280 L 745 1280 Z" unicode="" />
<glyph horiz-adv-x="1245" d="M 57 0 L 526 1116 L 719 1116 L 1188 0 C 1070 -52 1012 -119 1012 -201 C 1012 -229 1021 -252 1041 -268 C 1060 -284 1085 -293 1116 -293 C 1154 -293 1191 -283 1227 -264 L 1231 -268 L 1231 -395 C 1186 -414 1140 -424 1092 -424 C 1030 -424 979 -406 940 -372 C 900 -338 881 -291 881 -233 C 881 -141 930 -64 1028 0 L 1006 0 L 895 274 L 350 274 L 240 0 L 57 0 Z M 403 406 L 842 406 L 625 944 L 621 944 L 403 406 Z" unicode="" />
<glyph horiz-adv-x="1867" d="M 47 926 L 47 1055 L 236 1055 L 236 1139 C 236 1411 373 1548 649 1548 C 766 1548 875 1516 977 1454 C 1049 1524 1156 1559 1300 1559 C 1444 1559 1579 1518 1706 1438 L 1636 1321 C 1588 1351 1534 1376 1476 1395 C 1418 1413 1361 1423 1307 1423 C 1217 1423 1150 1401 1106 1357 C 1062 1313 1040 1241 1040 1141 L 1040 1055 L 1335 1055 L 1335 926 L 1040 926 L 1040 0 L 872 0 L 872 926 L 406 926 L 406 0 L 236 0 L 236 926 L 47 926 Z M 406 1055 L 872 1055 L 872 1143 C 872 1225 883 1294 907 1350 C 833 1392 751 1413 662 1413 C 576 1413 511 1391 469 1348 C 427 1305 406 1236 406 1141 L 406 1055 Z M 1243 -408 L 1276 -274 C 1310 -284 1339 -289 1364 -289 C 1477 -289 1534 -211 1534 -57 L 1534 1057 L 1702 1057 L 1702 -51 C 1702 -303 1594 -430 1380 -430 C 1331 -430 1285 -422 1243 -408 Z" unicode="" />
<glyph horiz-adv-x="1828" d="M 63 0 L 606 1116 L 1700 1116 L 1700 975 L 879 975 L 989 633 L 1632 633 L 1632 502 L 1032 502 L 1149 141 L 1710 141 L 1710 0 L 1014 0 L 930 274 L 377 274 L 248 0 L 63 0 Z M 440 412 L 889 412 L 717 975 L 707 975 L 440 412 Z" unicode="" />
<glyph horiz-adv-x="1818" d="M 53 0 L 596 1116 L 1690 1116 L 1690 975 L 868 975 L 979 633 L 1622 633 L 1622 502 L 1022 502 L 1139 141 L 1700 141 L 1700 0 L 1004 0 L 920 274 L 367 274 L 238 0 L 53 0 Z M 430 412 L 879 412 L 707 975 L 696 975 L 430 412 Z M 772 1229 L 1057 1591 L 1178 1499 L 889 1229 L 772 1229 Z" unicode="" />
<glyph horiz-adv-x="1818" d="M 53 0 L 596 1116 L 1690 1116 L 1690 975 L 868 975 L 979 633 L 1622 633 L 1622 502 L 1022 502 L 1139 141 L 1700 141 L 1700 0 L 1004 0 L 920 274 L 367 274 L 238 0 L 53 0 Z M 430 412 L 879 412 L 707 975 L 696 975 L 430 412 Z M 575 1331 L 575 1450 L 1178 1450 L 1178 1331 L 575 1331 Z" unicode="" />
<glyph horiz-adv-x="1234" d="M 109 571 C 109 653 123 729 153 800 C 182 870 222 931 274 981 C 326 1031 389 1071 464 1100 C 539 1128 621 1143 709 1143 C 861 1143 996 1100 1114 1014 L 1026 897 C 932 965 827 999 713 999 C 584 999 479 959 399 880 C 319 801 279 698 279 571 C 279 435 318 326 398 242 C 477 158 582 117 713 117 C 844 117 954 158 1042 240 L 1143 133 C 1026 27 881 -25 709 -25 C 528 -25 383 30 273 141 C 163 251 109 395 109 571 Z M 569 1229 L 854 1591 L 975 1499 L 686 1229 L 569 1229 Z" unicode="" />
<glyph horiz-adv-x="1234" d="M 109 571 C 109 653 123 729 153 800 C 182 870 222 931 274 981 C 326 1031 389 1071 464 1100 C 539 1128 621 1143 709 1143 C 861 1143 996 1100 1114 1014 L 1026 897 C 932 965 827 999 713 999 C 584 999 479 959 399 880 C 319 801 279 698 279 571 C 279 435 318 326 398 242 C 477 158 582 117 713 117 C 844 117 954 158 1042 240 L 1143 133 C 1026 27 881 -25 709 -25 C 528 -25 383 30 273 141 C 163 251 109 395 109 571 Z M 332 1229 L 586 1552 L 766 1552 L 1020 1229 L 897 1229 L 676 1452 L 674 1452 L 453 1229 L 332 1229 Z" unicode="" />
<glyph horiz-adv-x="1234" d="M 109 571 C 109 653 123 729 153 800 C 182 870 222 931 274 981 C 326 1031 389 1071 464 1100 C 539 1128 621 1143 709 1143 C 861 1143 996 1100 1114 1014 L 1026 897 C 932 965 827 999 713 999 C 584 999 479 959 399 880 C 319 801 279 698 279 571 C 279 435 318 326 398 242 C 477 158 582 117 713 117 C 844 117 954 158 1042 240 L 1143 133 C 1026 27 881 -25 709 -25 C 528 -25 383 30 273 141 C 163 251 109 395 109 571 Z M 332 1552 L 453 1552 L 674 1329 L 676 1329 L 897 1552 L 1020 1552 L 766 1229 L 586 1229 L 332 1552 Z" unicode="" />
<glyph horiz-adv-x="1234" d="M 109 571 C 109 653 123 729 153 800 C 182 870 222 931 274 981 C 326 1031 389 1071 464 1100 C 539 1128 621 1143 709 1143 C 861 1143 996 1100 1114 1014 L 1026 897 C 932 965 827 999 713 999 C 584 999 479 959 399 880 C 319 801 279 698 279 571 C 279 435 318 326 398 242 C 477 158 582 117 713 117 C 844 117 954 158 1042 240 L 1143 133 C 1026 27 881 -25 709 -25 C 528 -25 383 30 273 141 C 163 251 109 395 109 571 Z M 588 1307 L 588 1475 L 745 1475 L 745 1307 L 588 1307 Z" unicode="" />
<glyph horiz-adv-x="1437" d="M 172 0 L 172 1434 L 346 1434 L 346 807 L 1092 807 L 1092 1434 L 1266 1434 L 1266 0 L 1092 0 L 1092 653 L 346 653 L 346 0 L 172 0 Z M 416 -236 L 1022 -236 L 1022 -354 L 416 -354 L 416 -236 Z" unicode="" />
<glyph horiz-adv-x="1280" d="M 166 0 L 166 1116 L 528 1116 C 735 1116 894 1068 1005 972 C 1115 876 1171 742 1171 571 C 1171 389 1117 248 1009 149 C 901 49 740 0 528 0 L 166 0 Z M 324 1552 L 444 1552 L 666 1329 L 668 1329 L 889 1552 L 1012 1552 L 758 1229 L 578 1229 L 324 1552 Z M 336 139 L 535 139 C 691 139 807 176 885 251 C 962 326 1001 433 1001 573 C 1001 701 961 800 882 871 C 802 941 687 977 535 977 L 336 977 L 336 139 Z" unicode="" />
<glyph horiz-adv-x="1280" d="M 166 0 L 166 1116 L 528 1116 C 735 1116 894 1068 1005 972 C 1115 876 1171 742 1171 571 C 1171 389 1117 248 1009 149 C 901 49 740 0 528 0 L 166 0 Z M 336 139 L 535 139 C 691 139 807 176 885 251 C 962 326 1001 433 1001 573 C 1001 701 961 800 882 871 C 802 941 687 977 535 977 L 336 977 L 336 139 Z M 377 -379 C 485 -291 560 -196 604 -94 L 723 -94 C 688 -228 616 -344 506 -444 L 377 -379 Z" unicode="" />
<glyph horiz-adv-x="512" d="" unicode=" " />
<glyph horiz-adv-x="526" d="M 170 846 L 170 1065 L 356 1065 L 356 846 L 170 846 Z M 172 0 L 217 643 L 307 643 L 352 0 L 352 -369 L 172 -369 L 172 0 Z" unicode="¡" />
<glyph horiz-adv-x="1239" d="M 115 731 C 115 897 170 1033 280 1139 C 390 1245 535 1298 713 1298 C 718 1298 726 1297 738 1297 C 750 1296 758 1296 764 1296 L 797 1434 L 897 1434 L 862 1284 C 952 1265 1035 1229 1110 1176 L 1028 1065 C 965 1111 898 1141 827 1155 L 625 274 C 653 270 683 268 715 268 C 845 268 955 308 1044 389 L 1139 291 C 1023 188 881 137 713 137 C 669 137 631 139 600 145 L 563 0 L 465 0 L 504 168 C 382 206 287 274 218 374 C 149 474 115 593 115 731 Z M 264 731 C 264 625 288 534 337 458 C 386 382 454 329 541 297 L 739 1165 C 736 1165 732 1165 727 1166 C 721 1166 717 1167 715 1167 C 582 1167 474 1126 390 1046 C 306 965 264 860 264 731 Z" unicode="¢" />
<glyph horiz-adv-x="1374" d="M 78 199 C 78 262 101 315 148 358 C 194 400 255 422 330 422 C 408 422 494 393 588 336 C 590 360 592 377 592 389 C 592 439 582 488 562 536 C 542 584 514 636 479 694 C 477 694 477 694 477 696 L 184 696 L 184 803 L 410 803 C 344 911 311 1011 311 1104 C 311 1208 345 1293 414 1359 C 482 1425 578 1458 702 1458 C 868 1458 996 1389 1085 1253 L 967 1190 C 903 1284 814 1331 702 1331 C 626 1331 568 1309 526 1267 C 484 1224 463 1168 463 1100 C 463 1049 473 1000 493 954 C 513 908 541 856 578 799 L 920 799 L 920 698 L 641 698 C 672 642 696 590 713 542 C 730 494 739 443 739 389 C 739 345 733 304 721 266 C 730 259 746 247 770 229 C 794 211 810 199 820 193 C 829 187 843 177 863 164 C 883 150 898 141 910 135 C 922 129 936 123 952 116 C 968 109 984 104 999 102 C 1013 99 1028 98 1044 98 C 1103 98 1146 117 1173 157 C 1199 197 1209 252 1202 322 L 1343 322 C 1357 218 1339 134 1291 70 C 1243 6 1168 -25 1067 -25 C 1036 -25 1005 -21 974 -13 C 942 -5 916 3 895 11 C 873 19 846 34 812 55 C 778 76 754 92 740 102 C 726 112 700 130 662 158 C 623 100 573 55 512 23 C 451 -9 391 -25 332 -25 C 251 -25 188 -3 144 40 C 100 83 78 136 78 199 Z M 186 197 C 186 162 198 133 224 110 C 250 87 286 76 332 76 C 373 76 415 89 457 117 C 499 145 532 183 555 231 C 471 291 396 322 332 322 C 288 322 252 310 226 286 C 199 262 186 233 186 197 Z" unicode="£" />
<glyph horiz-adv-x="1349" d="M 133 547 C 133 679 175 795 260 895 L 147 1014 L 231 1094 L 342 973 C 439 1049 550 1087 676 1087 C 798 1087 908 1049 1006 973 L 1120 1094 L 1204 1014 L 1087 893 C 1173 791 1217 675 1217 547 C 1217 417 1174 301 1090 199 L 1204 78 L 1120 0 L 1008 121 C 910 44 799 6 676 6 C 549 6 438 43 342 119 L 231 0 L 147 78 L 258 199 C 174 299 133 415 133 547 Z M 401 822 C 325 746 287 654 287 547 C 287 439 325 348 401 272 C 477 196 568 158 676 158 C 783 158 875 196 951 272 C 1027 348 1065 439 1065 547 C 1065 654 1027 746 951 822 C 875 898 783 936 676 936 C 568 936 477 898 401 822 Z" unicode="¤" />
<glyph horiz-adv-x="1357" d="M 61 1434 L 252 1434 L 680 780 L 1106 1434 L 1296 1434 L 760 639 L 1223 639 L 1223 532 L 760 532 L 760 342 L 1223 342 L 1223 236 L 760 236 L 760 0 L 600 0 L 600 236 L 137 236 L 137 342 L 600 342 L 600 532 L 137 532 L 137 639 L 600 639 L 61 1434 Z" unicode="¥" />
<glyph horiz-adv-x="585" d="M 213 352 L 375 352 L 375 -410 L 213 -410 L 213 352 Z M 213 713 L 213 1546 L 375 1546 L 375 713 L 213 713 Z" unicode="¦" />
<glyph horiz-adv-x="1091" d="M 137 772 C 137 853 178 924 260 985 C 202 1035 174 1099 174 1176 C 174 1264 208 1333 278 1383 C 347 1433 442 1458 563 1458 C 634 1458 703 1443 770 1415 C 837 1386 894 1348 940 1300 L 827 1208 C 795 1243 755 1272 708 1294 C 660 1316 610 1327 557 1327 C 489 1327 435 1314 395 1289 C 355 1264 336 1228 336 1180 C 336 1151 344 1125 362 1103 C 380 1080 403 1062 432 1048 C 461 1034 494 1019 532 1005 C 569 991 607 978 646 966 C 684 954 722 939 760 921 C 797 903 830 883 859 861 C 888 839 911 811 929 777 C 947 742 956 703 956 659 C 956 577 914 506 831 444 C 890 393 920 330 920 256 C 920 167 884 98 814 48 C 744 -2 648 -27 528 -27 C 457 -27 388 -12 322 16 C 255 45 199 83 154 131 L 264 223 C 296 186 336 157 384 135 C 432 113 482 102 535 102 C 603 102 656 115 696 141 C 736 167 756 204 756 252 C 756 278 749 301 735 321 C 721 341 702 359 678 373 C 654 387 626 401 595 413 C 564 425 532 436 498 447 C 464 458 429 470 395 482 C 361 494 328 509 297 526 C 266 543 239 562 215 584 C 191 606 172 633 158 665 C 144 697 137 732 137 772 Z M 289 793 C 289 758 298 727 316 701 C 334 675 359 653 393 635 C 427 617 461 602 495 590 C 529 578 569 564 617 548 C 664 532 703 518 733 504 C 779 545 803 590 803 639 C 803 673 794 704 776 730 C 758 756 732 777 698 795 C 664 813 629 828 595 840 C 561 852 520 865 473 881 C 425 897 387 912 358 926 C 312 887 289 843 289 793 Z" unicode="§" />
<glyph horiz-adv-x="1316" d="M 381 1253 L 381 1421 L 537 1421 L 537 1253 L 381 1253 Z M 780 1253 L 780 1421 L 936 1421 L 936 1253 L 780 1253 Z" unicode="¨" />
<glyph horiz-adv-x="1759" d="M 135 573 C 135 708 168 833 234 947 C 300 1061 391 1151 505 1217 C 619 1283 743 1317 879 1317 C 980 1317 1077 1297 1169 1258 C 1261 1218 1340 1165 1406 1099 C 1472 1033 1525 954 1565 862 C 1604 770 1624 674 1624 573 C 1624 472 1604 376 1565 284 C 1525 192 1472 114 1406 48 C 1340 -18 1261 -70 1169 -109 C 1077 -148 980 -168 879 -168 C 777 -168 681 -148 589 -109 C 497 -70 418 -18 352 48 C 286 114 233 192 194 284 C 154 376 135 472 135 573 Z M 231 573 C 231 457 260 349 318 250 C 376 151 455 73 555 15 C 655 -43 763 -72 881 -72 C 998 -72 1106 -43 1206 15 C 1306 73 1385 151 1443 250 C 1501 349 1530 457 1530 573 C 1530 661 1512 745 1478 825 C 1444 905 1398 975 1340 1033 C 1282 1091 1213 1137 1133 1171 C 1053 1205 969 1223 881 1223 C 793 1223 708 1205 628 1171 C 548 1137 479 1091 421 1033 C 363 975 316 905 282 825 C 248 745 231 661 231 573 Z M 475 573 C 475 689 514 786 594 864 C 673 942 773 981 895 981 C 1001 981 1095 951 1178 891 L 1104 793 C 1038 841 969 866 897 866 C 813 866 744 838 690 783 C 635 727 608 657 608 573 C 608 483 634 411 688 358 C 742 305 811 279 897 279 C 983 279 1055 305 1112 358 L 1194 274 C 1114 198 1014 160 895 160 C 769 160 668 197 591 273 C 513 348 475 448 475 573 Z" unicode="©" />
<glyph horiz-adv-x="768" d="M 76 872 C 76 1026 222 1110 514 1124 L 514 1225 C 514 1260 502 1288 480 1309 C 457 1330 422 1341 375 1341 C 309 1341 232 1318 143 1272 L 96 1372 C 192 1421 286 1446 379 1446 C 465 1446 529 1425 571 1385 C 613 1345 635 1291 635 1223 L 635 868 C 635 819 659 795 709 795 L 709 700 C 657 700 618 707 591 721 C 564 735 543 757 528 788 C 464 720 387 686 295 686 C 230 686 177 703 137 737 C 96 771 76 816 76 872 Z M 199 883 C 199 853 209 828 231 810 C 253 791 281 782 317 782 C 395 782 461 810 514 868 L 514 1040 C 304 1031 199 979 199 883 Z" unicode="ª" />
<glyph horiz-adv-x="1253" d="M 98 535 L 508 1065 L 629 973 L 274 535 L 629 90 L 508 0 L 98 535 Z M 606 535 L 1016 1065 L 1137 973 L 782 535 L 1137 90 L 1016 0 L 606 535 Z" unicode="«" />
<glyph horiz-adv-x="1265" d="M 125 973 L 125 1116 L 1141 1116 L 1141 571 L 963 571 L 963 973 L 125 973 Z" unicode="¬" />
<glyph horiz-adv-x="1134" d="M 166 0 L 166 1116 L 1008 1116 L 1008 975 L 336 975 L 336 633 L 938 633 L 938 502 L 336 502 L 336 141 L 1016 141 L 1016 0 L 166 0 Z M 287 1499 L 408 1591 L 692 1229 L 575 1229 L 287 1499 Z M 512 -197 L 670 -197 L 670 -365 L 512 -365 L 512 -197 Z" unicode="" />
<glyph horiz-adv-x="1759" d="M 135 573 C 135 708 168 833 234 947 C 300 1061 391 1151 505 1217 C 619 1283 743 1317 879 1317 C 980 1317 1077 1297 1169 1258 C 1261 1218 1340 1165 1406 1099 C 1472 1033 1525 954 1565 862 C 1604 770 1624 674 1624 573 C 1624 472 1604 376 1565 284 C 1525 192 1472 114 1406 48 C 1340 -18 1261 -70 1169 -109 C 1077 -148 980 -168 879 -168 C 777 -168 681 -148 589 -109 C 497 -70 418 -18 352 48 C 286 114 233 192 194 284 C 154 376 135 472 135 573 Z M 231 573 C 231 457 259 349 317 250 C 375 151 453 73 553 15 C 653 -43 761 -72 879 -72 C 996 -72 1105 -43 1205 15 C 1305 73 1384 151 1442 250 C 1500 349 1530 457 1530 573 C 1530 661 1512 745 1478 825 C 1443 905 1397 975 1339 1033 C 1281 1091 1211 1137 1131 1171 C 1051 1205 967 1223 879 1223 C 791 1223 707 1205 627 1171 C 547 1137 478 1091 420 1033 C 362 975 316 905 282 825 C 248 745 231 661 231 573 Z M 575 182 L 575 967 L 944 967 C 995 967 1040 960 1079 946 C 1117 932 1148 914 1170 890 C 1192 866 1208 840 1219 812 C 1229 784 1235 753 1235 721 C 1235 673 1220 628 1192 587 C 1163 545 1119 516 1061 498 C 1067 488 1096 436 1148 343 C 1200 249 1231 196 1241 182 L 1098 182 L 936 483 L 707 483 L 707 182 L 575 182 Z M 707 584 L 930 584 C 990 584 1034 597 1063 625 C 1091 652 1106 684 1106 721 C 1106 761 1092 794 1064 821 C 1036 848 992 862 932 862 L 707 862 L 707 584 Z" unicode="®" />
<glyph horiz-adv-x="1312" d="M 362 1278 L 362 1397 L 965 1397 L 965 1278 L 362 1278 Z" unicode="¯" />
<glyph horiz-adv-x="849" d="M 92 1133 C 92 1225 124 1303 190 1366 C 255 1428 333 1460 424 1460 C 514 1460 591 1428 657 1366 C 723 1303 756 1225 756 1133 C 756 1037 723 958 659 898 C 595 837 517 807 426 807 C 333 807 254 837 189 898 C 124 958 92 1037 92 1133 Z M 207 1133 C 207 1071 228 1019 271 977 C 314 935 366 915 426 915 C 485 915 536 935 578 977 C 620 1018 641 1070 641 1133 C 641 1195 620 1246 578 1288 C 536 1329 485 1350 426 1350 C 366 1350 315 1329 272 1287 C 228 1245 207 1194 207 1133 Z" unicode="°" />
<glyph horiz-adv-x="1257" d="M 96 0 L 96 125 L 549 125 L 549 504 L 96 504 L 96 651 L 549 651 L 549 1065 L 709 1065 L 709 651 L 1161 651 L 1161 504 L 709 504 L 709 125 L 1161 125 L 1161 0 L 96 0 Z" unicode="±" />
<glyph horiz-adv-x="688" d="M 76 1647 C 110 1681 151 1709 199 1730 C 247 1750 297 1761 350 1761 C 434 1761 500 1741 546 1702 C 592 1663 616 1613 616 1552 C 616 1517 608 1486 594 1459 C 579 1431 560 1409 536 1392 C 512 1374 486 1358 458 1343 C 429 1328 400 1314 372 1300 C 343 1286 317 1272 293 1257 C 269 1241 249 1222 234 1199 C 219 1176 211 1150 211 1122 L 616 1122 L 616 1024 L 88 1024 L 88 1081 C 86 1126 93 1167 108 1203 C 122 1239 142 1268 166 1290 C 190 1312 216 1331 246 1349 C 275 1367 304 1382 334 1396 C 364 1410 391 1424 415 1438 C 439 1452 459 1468 475 1488 C 490 1507 498 1529 498 1554 C 498 1585 484 1611 457 1632 C 430 1652 392 1663 344 1663 C 273 1663 210 1633 154 1575 L 76 1647 Z" unicode="²" />
<glyph horiz-adv-x="681" d="M 74 1659 C 152 1727 240 1761 336 1761 C 412 1761 474 1743 523 1708 C 571 1672 596 1627 596 1573 C 596 1495 559 1440 485 1409 C 577 1377 623 1320 623 1239 C 623 1168 593 1112 534 1071 C 474 1030 401 1010 313 1010 C 229 1010 150 1029 76 1067 L 119 1161 C 183 1125 247 1108 311 1108 C 366 1108 412 1120 448 1145 C 484 1170 502 1202 502 1241 C 502 1278 488 1306 460 1325 C 432 1344 393 1354 344 1354 L 238 1354 L 238 1448 L 338 1448 C 382 1448 417 1457 441 1477 C 465 1497 477 1524 477 1559 C 477 1589 464 1613 438 1633 C 412 1653 378 1663 334 1663 C 262 1663 197 1636 139 1583 L 74 1659 Z" unicode="³" />
<glyph horiz-adv-x="1296" d="M 444 1176 L 729 1538 L 850 1446 L 561 1176 L 444 1176 Z" unicode="´" />
<glyph horiz-adv-x="1128" d="M 125 -410 L 125 1116 L 297 1116 L 297 322 C 300 255 317 203 349 167 C 381 131 431 113 500 113 C 624 113 734 169 829 281 L 829 1116 L 1001 1116 L 1001 0 L 844 0 L 834 137 C 736 30 630 -23 514 -23 C 404 -23 330 12 291 82 L 276 -410 L 125 -410 Z" unicode="µ" />
<glyph horiz-adv-x="1413" d="M 127 1008 C 127 1050 132 1091 143 1131 C 153 1171 171 1209 196 1246 C 220 1283 251 1315 287 1343 C 323 1370 368 1392 424 1409 C 479 1425 540 1434 608 1434 L 1231 1434 L 1231 0 L 1077 0 L 1077 1305 L 848 1305 L 848 0 L 694 0 L 694 586 L 612 586 C 544 586 483 594 428 611 C 372 628 326 651 290 679 C 254 707 223 739 198 776 C 172 813 154 851 143 890 C 132 928 127 968 127 1008 Z" unicode="¶" />
<glyph horiz-adv-x="446" d="M 129 414 L 129 653 L 319 653 L 319 414 L 129 414 Z" unicode="·" />
<glyph horiz-adv-x="1296" d="M 477 -379 C 545 -324 602 -263 649 -195 C 695 -127 724 -56 735 18 L 844 18 C 836 -70 811 -154 770 -233 C 729 -312 674 -382 606 -444 L 477 -379 Z" unicode="¸" />
<glyph horiz-adv-x="587" d="M 90 1638 L 313 1749 L 406 1749 L 406 1024 L 289 1024 L 289 1632 L 137 1552 L 90 1638 Z" unicode="¹" />
<glyph horiz-adv-x="866" d="M 72 1075 C 72 1186 105 1276 172 1344 C 238 1412 323 1446 426 1446 C 529 1446 614 1412 680 1344 C 746 1276 780 1186 780 1075 C 780 955 747 860 683 790 C 618 720 532 686 426 686 C 318 686 232 720 168 790 C 104 860 72 955 72 1075 Z M 195 1073 C 195 986 215 917 257 865 C 298 813 354 788 426 788 C 495 788 550 814 592 866 C 634 918 655 987 655 1073 C 655 1153 633 1218 591 1268 C 549 1318 494 1343 426 1343 C 358 1343 302 1318 259 1268 C 216 1218 195 1153 195 1073 Z" unicode="º" />
<glyph horiz-adv-x="1253" d="M 117 90 L 471 535 L 117 973 L 238 1065 L 647 535 L 238 0 L 117 90 Z M 627 90 L 981 535 L 627 973 L 748 1065 L 1157 535 L 748 0 L 627 90 Z" unicode="»" />
<glyph horiz-adv-x="1529" d="M 113 1331 L 336 1442 L 428 1442 L 428 717 L 311 717 L 311 1325 L 160 1245 L 113 1331 Z M 166 0 L 1366 1434 L 1499 1434 L 299 0 L 166 0 Z M 909 242 L 1278 725 L 1409 725 L 1409 248 L 1516 248 L 1516 154 L 1409 154 L 1409 0 L 1294 0 L 1294 154 L 946 154 L 909 242 Z M 1032 248 L 1294 248 L 1294 600 L 1032 248 Z" unicode="¼" />
<glyph horiz-adv-x="1640" d="M 113 1331 L 336 1442 L 428 1442 L 428 717 L 311 717 L 311 1325 L 160 1245 L 113 1331 Z M 164 0 L 1364 1434 L 1497 1434 L 297 0 L 164 0 Z M 1083 623 C 1117 657 1159 685 1207 706 C 1255 726 1305 737 1358 737 C 1442 737 1508 717 1554 678 C 1600 639 1624 589 1624 528 C 1624 493 1616 462 1602 435 C 1587 407 1568 385 1544 368 C 1520 350 1494 334 1466 319 C 1437 304 1408 290 1380 276 C 1351 262 1325 248 1301 233 C 1277 217 1257 198 1242 175 C 1227 152 1219 126 1219 98 L 1624 98 L 1624 0 L 1096 0 L 1096 57 C 1094 102 1101 143 1116 179 C 1130 215 1150 244 1174 266 C 1198 288 1224 307 1253 325 C 1282 343 1311 358 1341 372 C 1371 386 1398 400 1422 414 C 1446 428 1466 444 1482 464 C 1497 483 1505 505 1505 530 C 1505 561 1491 587 1465 608 C 1438 628 1400 639 1352 639 C 1316 639 1282 630 1248 614 C 1214 598 1185 577 1161 551 L 1083 623 Z" unicode="½" />
<glyph horiz-adv-x="1523" d="M 51 1352 C 129 1420 217 1454 313 1454 C 389 1454 451 1436 500 1401 C 548 1365 573 1320 573 1266 C 573 1188 536 1133 463 1102 C 554 1070 600 1014 600 932 C 600 861 570 805 511 764 C 451 722 378 702 291 702 C 208 702 129 721 53 760 L 96 854 C 160 818 225 801 289 801 C 344 801 389 813 425 838 C 461 863 479 895 479 934 C 479 971 465 999 437 1018 C 409 1037 371 1047 322 1047 L 215 1047 L 215 1141 L 315 1141 C 359 1141 394 1150 418 1170 C 442 1190 455 1217 455 1251 C 455 1281 442 1306 416 1326 C 390 1346 355 1356 311 1356 C 239 1356 175 1329 117 1276 L 51 1352 Z M 160 0 L 1360 1434 L 1493 1434 L 293 0 L 160 0 Z M 913 242 L 1282 725 L 1413 725 L 1413 248 L 1520 248 L 1520 154 L 1413 154 L 1413 0 L 1298 0 L 1298 154 L 950 154 L 913 242 Z M 1036 248 L 1298 248 L 1298 600 L 1036 248 Z" unicode="¾" />
<glyph horiz-adv-x="1044" d="M 111 -27 C 111 23 119 68 135 109 C 151 150 172 184 198 212 C 224 240 252 266 283 290 C 314 314 345 337 377 359 C 408 381 437 403 463 426 C 489 449 511 477 527 509 C 543 541 552 577 553 616 L 553 643 L 688 643 C 688 641 688 634 689 621 C 689 607 690 600 690 598 C 690 547 682 501 667 461 C 652 421 633 387 609 361 C 585 335 558 310 529 288 C 500 266 471 245 443 225 C 414 205 388 184 364 163 C 340 141 320 115 305 85 C 290 54 283 20 283 -18 C 283 -85 309 -140 362 -183 C 414 -226 483 -248 567 -248 C 683 -248 792 -198 893 -100 L 999 -201 C 877 -329 733 -393 565 -393 C 428 -393 318 -359 235 -292 C 152 -225 111 -137 111 -27 Z M 526 846 L 526 1065 L 713 1065 L 713 846 L 526 846 Z" unicode="¿" />
<glyph horiz-adv-x="1417" d="M 61 0 L 604 1434 L 813 1434 L 1354 0 L 1165 0 L 1036 352 L 379 352 L 252 0 L 61 0 Z M 430 494 L 985 494 L 709 1255 L 705 1255 L 430 494 Z M 430 1726 L 563 1821 L 795 1546 L 666 1546 L 430 1726 Z" unicode="À" />
<glyph horiz-adv-x="1417" d="M 61 0 L 604 1434 L 813 1434 L 1354 0 L 1165 0 L 1036 352 L 379 352 L 252 0 L 61 0 Z M 430 494 L 985 494 L 709 1255 L 705 1255 L 430 494 Z M 623 1546 L 852 1821 L 987 1726 L 752 1546 L 623 1546 Z" unicode="Á" />
<glyph horiz-adv-x="1417" d="M 61 0 L 604 1434 L 813 1434 L 1354 0 L 1165 0 L 1036 352 L 379 352 L 252 0 L 61 0 Z M 367 1546 L 625 1782 L 793 1782 L 1051 1546 L 932 1546 L 711 1686 L 709 1686 L 485 1546 L 367 1546 Z M 430 494 L 985 494 L 709 1255 L 705 1255 L 430 494 Z" unicode="Â" />
<glyph horiz-adv-x="1417" d="M 61 0 L 604 1434 L 813 1434 L 1354 0 L 1165 0 L 1036 352 L 379 352 L 252 0 L 61 0 Z M 401 1556 C 393 1628 404 1685 436 1727 C 467 1769 512 1790 571 1790 C 599 1790 626 1783 653 1770 C 680 1756 702 1741 719 1725 C 736 1709 755 1694 776 1681 C 797 1667 816 1661 834 1661 C 860 1661 879 1670 892 1690 C 904 1710 909 1737 905 1772 L 1012 1772 C 1020 1700 1009 1643 977 1601 C 945 1559 900 1538 842 1538 C 814 1538 786 1544 760 1558 C 733 1571 711 1585 694 1601 C 677 1617 658 1631 637 1645 C 616 1658 596 1665 578 1665 C 553 1665 534 1655 521 1636 C 508 1617 504 1590 508 1556 L 401 1556 Z M 430 494 L 985 494 L 709 1255 L 705 1255 L 430 494 Z" unicode="Ã" />
<glyph horiz-adv-x="1417" d="M 61 0 L 604 1434 L 813 1434 L 1354 0 L 1165 0 L 1036 352 L 379 352 L 252 0 L 61 0 Z M 424 1581 L 424 1749 L 582 1749 L 582 1581 L 424 1581 Z M 430 494 L 985 494 L 709 1255 L 705 1255 L 430 494 Z M 838 1581 L 838 1749 L 993 1749 L 993 1581 L 838 1581 Z" unicode="Ä" />
<glyph horiz-adv-x="1417" d="M 61 0 L 588 1393 C 525 1433 494 1491 494 1567 C 494 1626 514 1676 556 1717 C 598 1757 649 1778 709 1778 C 769 1778 819 1757 861 1717 C 903 1676 924 1626 924 1567 C 924 1493 891 1435 827 1393 L 1354 0 L 1165 0 L 1036 352 L 379 352 L 252 0 L 61 0 Z M 430 494 L 985 494 L 709 1255 L 705 1255 L 430 494 Z M 575 1567 C 575 1530 588 1499 614 1473 C 640 1447 671 1434 709 1434 C 745 1434 776 1446 802 1472 C 827 1498 840 1529 840 1567 C 840 1605 827 1636 802 1662 C 777 1687 746 1700 709 1700 C 671 1700 640 1687 614 1662 C 588 1636 575 1605 575 1567 Z" unicode="Å" />
<glyph horiz-adv-x="2117" d="M 55 0 L 713 1434 L 1972 1434 L 1972 1278 L 1004 1278 L 1141 805 L 1892 805 L 1892 655 L 1184 655 L 1329 156 L 1987 156 L 1987 0 L 1186 0 L 1087 352 L 408 352 L 252 0 L 55 0 Z M 473 498 L 1047 498 L 829 1278 L 819 1278 L 473 498 Z" unicode="Æ" />
<glyph horiz-adv-x="1454" d="M 113 731 C 113 873 143 999 204 1109 C 264 1219 349 1305 459 1366 C 569 1427 694 1458 836 1458 C 1018 1458 1176 1406 1311 1303 L 1217 1176 C 1101 1263 975 1307 838 1307 C 674 1307 541 1254 440 1148 C 339 1042 289 903 289 731 C 289 549 338 403 438 293 C 538 182 671 127 838 127 C 994 127 1127 179 1235 283 L 1343 168 C 1208 39 1037 -25 831 -25 L 829 -25 C 803 -188 726 -328 598 -444 L 469 -379 C 531 -329 585 -272 630 -210 C 674 -148 705 -83 721 -16 C 536 7 388 86 278 221 C 168 356 113 526 113 731 Z" unicode="Ç" />
<glyph horiz-adv-x="1300" d="M 172 0 L 172 1434 L 1155 1434 L 1155 1278 L 346 1278 L 346 803 L 1075 803 L 1075 657 L 346 657 L 346 156 L 1167 156 L 1167 0 L 172 0 Z M 391 1726 L 524 1821 L 756 1546 L 627 1546 L 391 1726 Z" unicode="È" />
<glyph horiz-adv-x="1300" d="M 172 0 L 172 1434 L 1155 1434 L 1155 1278 L 346 1278 L 346 803 L 1075 803 L 1075 657 L 346 657 L 346 156 L 1167 156 L 1167 0 L 172 0 Z M 584 1546 L 813 1821 L 948 1726 L 713 1546 L 584 1546 Z" unicode="É" />
<glyph horiz-adv-x="1300" d="M 172 0 L 172 1434 L 1155 1434 L 1155 1278 L 346 1278 L 346 803 L 1075 803 L 1075 657 L 346 657 L 346 156 L 1167 156 L 1167 0 L 172 0 Z M 328 1546 L 586 1782 L 754 1782 L 1012 1546 L 893 1546 L 672 1686 L 670 1686 L 446 1546 L 328 1546 Z" unicode="Ê" />
<glyph horiz-adv-x="1300" d="M 172 0 L 172 1434 L 1155 1434 L 1155 1278 L 346 1278 L 346 803 L 1075 803 L 1075 657 L 346 657 L 346 156 L 1167 156 L 1167 0 L 172 0 Z M 387 1581 L 387 1749 L 545 1749 L 545 1581 L 387 1581 Z M 801 1581 L 801 1749 L 956 1749 L 956 1581 L 801 1581 Z" unicode="Ë" />
<glyph horiz-adv-x="516" d="M -18 1726 L 115 1821 L 346 1546 L 217 1546 L -18 1726 Z M 172 0 L 172 1434 L 346 1434 L 346 0 L 172 0 Z" unicode="Ì" />
<glyph horiz-adv-x="516" d="M 172 0 L 172 1434 L 346 1434 L 346 0 L 172 0 Z M 172 1546 L 401 1821 L 537 1726 L 301 1546 L 172 1546 Z" unicode="Í" />
<glyph horiz-adv-x="516" d="M -82 1546 L 176 1782 L 344 1782 L 602 1546 L 483 1546 L 262 1686 L 260 1686 L 37 1546 L -82 1546 Z M 172 0 L 172 1434 L 346 1434 L 346 0 L 172 0 Z" unicode="Î" />
<glyph horiz-adv-x="516" d="M -25 1581 L -25 1749 L 133 1749 L 133 1581 L -25 1581 Z M 172 0 L 172 1434 L 346 1434 L 346 0 L 172 0 Z M 389 1581 L 389 1749 L 545 1749 L 545 1581 L 389 1581 Z" unicode="Ï" />
<glyph horiz-adv-x="1533" d="M 29 662 L 29 780 L 244 780 L 244 662 L 29 662 Z M 246 0 L 246 1434 L 659 1434 C 905 1434 1094 1371 1226 1246 C 1358 1121 1425 947 1425 725 C 1425 494 1360 315 1232 189 C 1103 63 912 0 659 0 L 246 0 Z M 420 147 L 670 147 C 860 147 1004 197 1102 299 C 1200 400 1249 542 1249 725 C 1249 899 1198 1036 1098 1136 C 998 1236 855 1286 670 1286 L 420 1286 L 420 780 L 840 780 L 840 662 L 420 662 L 420 147 Z" unicode="Ð" />
<glyph horiz-adv-x="1484" d="M 172 0 L 172 1434 L 348 1434 L 1145 270 L 1145 1434 L 1313 1434 L 1313 0 L 1135 0 L 340 1161 L 340 0 L 172 0 Z M 436 1556 C 428 1628 439 1685 471 1727 C 502 1769 547 1790 606 1790 C 634 1790 661 1783 688 1770 C 714 1756 736 1741 754 1725 C 771 1709 790 1694 811 1681 C 831 1667 850 1661 868 1661 C 894 1661 913 1670 926 1690 C 939 1710 944 1737 940 1772 L 1047 1772 C 1055 1700 1044 1643 1012 1601 C 980 1559 935 1538 877 1538 C 849 1538 821 1544 795 1558 C 768 1571 746 1585 729 1601 C 711 1617 692 1631 671 1645 C 650 1658 630 1665 612 1665 C 587 1665 568 1655 556 1636 C 543 1617 539 1590 543 1556 L 436 1556 Z" unicode="Ñ" />
<glyph horiz-adv-x="1656" d="M 113 727 C 113 871 144 999 208 1111 C 271 1223 357 1308 465 1368 C 573 1428 695 1458 829 1458 C 928 1458 1022 1440 1110 1405 C 1198 1370 1274 1321 1338 1259 C 1402 1196 1452 1119 1490 1027 C 1527 935 1546 835 1546 727 C 1546 614 1527 510 1491 416 C 1454 321 1404 241 1340 177 C 1276 113 1200 63 1112 28 C 1024 -7 930 -25 829 -25 C 727 -25 633 -7 545 28 C 457 63 382 113 318 177 C 254 241 204 321 168 416 C 131 510 113 614 113 727 Z M 291 727 C 291 635 304 551 332 475 C 360 399 398 336 446 286 C 494 235 551 196 617 168 C 682 140 753 127 829 127 C 904 127 974 140 1040 168 C 1106 196 1163 235 1211 286 C 1259 336 1298 400 1326 476 C 1354 552 1368 635 1368 727 C 1368 813 1354 893 1326 966 C 1298 1039 1259 1100 1211 1150 C 1163 1199 1106 1237 1040 1265 C 974 1293 903 1307 829 1307 C 754 1307 684 1293 618 1265 C 552 1237 495 1199 447 1150 C 399 1100 361 1039 333 966 C 305 893 291 813 291 727 Z M 553 1726 L 686 1821 L 918 1546 L 788 1546 L 553 1726 Z" unicode="Ò" />
<glyph horiz-adv-x="1656" d="M 113 727 C 113 871 144 999 208 1111 C 271 1223 357 1308 465 1368 C 573 1428 695 1458 829 1458 C 928 1458 1022 1440 1110 1405 C 1198 1370 1274 1321 1338 1259 C 1402 1196 1452 1119 1490 1027 C 1527 935 1546 835 1546 727 C 1546 614 1527 510 1491 416 C 1454 321 1404 241 1340 177 C 1276 113 1200 63 1112 28 C 1024 -7 930 -25 829 -25 C 727 -25 633 -7 545 28 C 457 63 382 113 318 177 C 254 241 204 321 168 416 C 131 510 113 614 113 727 Z M 291 727 C 291 635 304 551 332 475 C 360 399 398 336 446 286 C 494 235 551 196 617 168 C 682 140 753 127 829 127 C 904 127 974 140 1040 168 C 1106 196 1163 235 1211 286 C 1259 336 1298 400 1326 476 C 1354 552 1368 635 1368 727 C 1368 813 1354 893 1326 966 C 1298 1039 1259 1100 1211 1150 C 1163 1199 1106 1237 1040 1265 C 974 1293 903 1307 829 1307 C 754 1307 684 1293 618 1265 C 552 1237 495 1199 447 1150 C 399 1100 361 1039 333 966 C 305 893 291 813 291 727 Z M 743 1546 L 973 1821 L 1108 1726 L 872 1546 L 743 1546 Z" unicode="Ó" />
<glyph horiz-adv-x="1656" d="M 113 727 C 113 871 144 999 208 1111 C 271 1223 357 1308 465 1368 C 573 1428 695 1458 829 1458 C 928 1458 1022 1440 1110 1405 C 1198 1370 1274 1321 1338 1259 C 1402 1196 1452 1119 1490 1027 C 1527 935 1546 835 1546 727 C 1546 614 1527 510 1491 416 C 1454 321 1404 241 1340 177 C 1276 113 1200 63 1112 28 C 1024 -7 930 -25 829 -25 C 727 -25 633 -7 545 28 C 457 63 382 113 318 177 C 254 241 204 321 168 416 C 131 510 113 614 113 727 Z M 291 727 C 291 635 304 551 332 475 C 360 399 398 336 446 286 C 494 235 551 196 617 168 C 682 140 753 127 829 127 C 904 127 974 140 1040 168 C 1106 196 1163 235 1211 286 C 1259 336 1298 400 1326 476 C 1354 552 1368 635 1368 727 C 1368 813 1354 893 1326 966 C 1298 1039 1259 1100 1211 1150 C 1163 1199 1106 1237 1040 1265 C 974 1293 903 1307 829 1307 C 754 1307 684 1293 618 1265 C 552 1237 495 1199 447 1150 C 399 1100 361 1039 333 966 C 305 893 291 813 291 727 Z M 487 1546 L 745 1782 L 913 1782 L 1171 1546 L 1053 1546 L 831 1686 L 829 1686 L 606 1546 L 487 1546 Z" unicode="Ô" />
<glyph horiz-adv-x="1656" d="M 113 727 C 113 871 144 999 208 1111 C 271 1223 357 1308 465 1368 C 573 1428 695 1458 829 1458 C 928 1458 1022 1440 1110 1405 C 1198 1370 1274 1321 1338 1259 C 1402 1196 1452 1119 1490 1027 C 1527 935 1546 835 1546 727 C 1546 614 1527 510 1491 416 C 1454 321 1404 241 1340 177 C 1276 113 1200 63 1112 28 C 1024 -7 930 -25 829 -25 C 727 -25 633 -7 545 28 C 457 63 382 113 318 177 C 254 241 204 321 168 416 C 131 510 113 614 113 727 Z M 291 727 C 291 635 304 551 332 475 C 360 399 398 336 446 286 C 494 235 551 196 617 168 C 682 140 753 127 829 127 C 904 127 974 140 1040 168 C 1106 196 1163 235 1211 286 C 1259 336 1298 400 1326 476 C 1354 552 1368 635 1368 727 C 1368 813 1354 893 1326 966 C 1298 1039 1259 1100 1211 1150 C 1163 1199 1106 1237 1040 1265 C 974 1293 903 1307 829 1307 C 754 1307 684 1293 618 1265 C 552 1237 495 1199 447 1150 C 399 1100 361 1039 333 966 C 305 893 291 813 291 727 Z M 524 1556 C 516 1628 527 1685 559 1727 C 590 1769 635 1790 694 1790 C 722 1790 749 1783 776 1770 C 802 1756 824 1741 842 1725 C 859 1709 878 1694 899 1681 C 919 1667 938 1661 956 1661 C 982 1661 1001 1670 1014 1690 C 1027 1710 1032 1737 1028 1772 L 1135 1772 C 1143 1700 1132 1643 1100 1601 C 1068 1559 1023 1538 965 1538 C 937 1538 909 1544 883 1558 C 856 1571 834 1585 817 1601 C 799 1617 780 1631 759 1645 C 738 1658 718 1665 700 1665 C 675 1665 656 1655 644 1636 C 631 1617 627 1590 631 1556 L 524 1556 Z" unicode="Õ" />
<glyph horiz-adv-x="1656" d="M 113 727 C 113 871 144 999 208 1111 C 271 1223 357 1308 465 1368 C 573 1428 695 1458 829 1458 C 928 1458 1022 1440 1110 1405 C 1198 1370 1274 1321 1338 1259 C 1402 1196 1452 1119 1490 1027 C 1527 935 1546 835 1546 727 C 1546 614 1527 510 1491 416 C 1454 321 1404 241 1340 177 C 1276 113 1200 63 1112 28 C 1024 -7 930 -25 829 -25 C 727 -25 633 -7 545 28 C 457 63 382 113 318 177 C 254 241 204 321 168 416 C 131 510 113 614 113 727 Z M 291 727 C 291 635 304 551 332 475 C 360 399 398 336 446 286 C 494 235 551 196 617 168 C 682 140 753 127 829 127 C 904 127 974 140 1040 168 C 1106 196 1163 235 1211 286 C 1259 336 1298 400 1326 476 C 1354 552 1368 635 1368 727 C 1368 813 1354 893 1326 966 C 1298 1039 1259 1100 1211 1150 C 1163 1199 1106 1237 1040 1265 C 974 1293 903 1307 829 1307 C 754 1307 684 1293 618 1265 C 552 1237 495 1199 447 1150 C 399 1100 361 1039 333 966 C 305 893 291 813 291 727 Z M 545 1581 L 545 1749 L 702 1749 L 702 1581 L 545 1581 Z M 958 1581 L 958 1749 L 1114 1749 L 1114 1581 L 958 1581 Z" unicode="Ö" />
<glyph horiz-adv-x="1200" d="M 137 154 L 494 532 L 137 911 L 244 1016 L 598 639 L 954 1016 L 1063 911 L 705 532 L 1063 154 L 954 51 L 598 426 L 244 51 L 137 154 Z" unicode="×" />
<glyph horiz-adv-x="1656" d="M 113 727 C 113 871 144 999 208 1111 C 271 1223 357 1308 465 1368 C 573 1428 695 1458 829 1458 C 981 1458 1117 1418 1237 1339 L 1364 1507 L 1454 1436 L 1325 1272 C 1395 1206 1449 1126 1488 1034 C 1526 941 1546 839 1546 727 C 1546 614 1527 510 1491 416 C 1454 321 1404 241 1340 177 C 1276 113 1200 63 1112 28 C 1024 -7 930 -25 829 -25 C 675 -25 540 14 424 92 L 295 -74 L 205 -6 L 336 162 C 187 302 113 490 113 727 Z M 291 727 C 291 546 341 400 442 289 L 1141 1210 C 1047 1274 943 1307 829 1307 C 754 1307 684 1293 618 1265 C 552 1237 495 1199 447 1150 C 399 1100 361 1039 333 966 C 305 893 291 813 291 727 Z M 516 223 C 605 159 709 127 829 127 C 904 127 974 140 1040 168 C 1106 196 1163 235 1211 286 C 1259 336 1298 400 1326 476 C 1354 552 1368 635 1368 727 C 1368 898 1317 1037 1217 1145 L 516 223 Z" unicode="Ø" />
<glyph horiz-adv-x="1466" d="M 166 530 L 166 1434 L 342 1434 L 342 530 C 342 403 378 304 452 233 C 525 162 619 127 733 127 C 847 127 941 162 1015 233 C 1089 304 1126 403 1126 530 L 1126 1434 L 1300 1434 L 1300 530 C 1300 440 1285 359 1256 288 C 1227 216 1187 158 1136 113 C 1084 68 1024 34 956 10 C 888 -13 813 -25 733 -25 C 652 -25 577 -13 509 10 C 441 34 381 68 330 113 C 278 158 238 216 209 288 C 180 359 166 440 166 530 Z M 455 1726 L 588 1821 L 819 1546 L 690 1546 L 455 1726 Z" unicode="Ù" />
<glyph horiz-adv-x="1466" d="M 166 530 L 166 1434 L 342 1434 L 342 530 C 342 403 378 304 452 233 C 525 162 619 127 733 127 C 847 127 941 162 1015 233 C 1089 304 1126 403 1126 530 L 1126 1434 L 1300 1434 L 1300 530 C 1300 440 1285 359 1256 288 C 1227 216 1187 158 1136 113 C 1084 68 1024 34 956 10 C 888 -13 813 -25 733 -25 C 652 -25 577 -13 509 10 C 441 34 381 68 330 113 C 278 158 238 216 209 288 C 180 359 166 440 166 530 Z M 647 1546 L 877 1821 L 1012 1726 L 776 1546 L 647 1546 Z" unicode="Ú" />
<glyph horiz-adv-x="1466" d="M 166 530 L 166 1434 L 342 1434 L 342 530 C 342 403 378 304 452 233 C 525 162 619 127 733 127 C 847 127 941 162 1015 233 C 1089 304 1126 403 1126 530 L 1126 1434 L 1300 1434 L 1300 530 C 1300 440 1285 359 1256 288 C 1227 216 1187 158 1136 113 C 1084 68 1024 34 956 10 C 888 -13 813 -25 733 -25 C 652 -25 577 -13 509 10 C 441 34 381 68 330 113 C 278 158 238 216 209 288 C 180 359 166 440 166 530 Z M 391 1546 L 649 1782 L 817 1782 L 1075 1546 L 956 1546 L 735 1686 L 733 1686 L 510 1546 L 391 1546 Z" unicode="Û" />
<glyph horiz-adv-x="1466" d="M 166 530 L 166 1434 L 342 1434 L 342 530 C 342 403 378 304 452 233 C 525 162 619 127 733 127 C 847 127 941 162 1015 233 C 1089 304 1126 403 1126 530 L 1126 1434 L 1300 1434 L 1300 530 C 1300 440 1285 359 1256 288 C 1227 216 1187 158 1136 113 C 1084 68 1024 34 956 10 C 888 -13 813 -25 733 -25 C 652 -25 577 -13 509 10 C 441 34 381 68 330 113 C 278 158 238 216 209 288 C 180 359 166 440 166 530 Z M 449 1581 L 449 1749 L 606 1749 L 606 1581 L 449 1581 Z M 862 1581 L 862 1749 L 1018 1749 L 1018 1581 L 862 1581 Z" unicode="Ü" />
<glyph horiz-adv-x="1370" d="M 57 1434 L 264 1434 L 684 752 L 688 752 L 1108 1434 L 1313 1434 L 772 584 L 772 0 L 598 0 L 598 584 L 57 1434 Z M 600 1546 L 829 1821 L 965 1726 L 729 1546 L 600 1546 Z" unicode="Ý" />
<glyph horiz-adv-x="1345" d="M 172 0 L 172 1434 L 346 1434 L 346 1174 L 700 1174 C 790 1174 870 1162 940 1139 C 1009 1116 1065 1084 1107 1043 C 1149 1001 1180 954 1201 901 C 1222 848 1233 790 1233 727 C 1233 662 1222 603 1202 549 C 1181 495 1150 446 1108 404 C 1066 362 1011 329 941 305 C 871 281 791 270 700 270 L 346 270 L 346 0 L 172 0 Z M 346 416 L 698 416 C 816 416 906 444 967 502 C 1028 559 1059 634 1059 727 C 1059 817 1028 889 967 945 C 905 1000 816 1028 700 1028 L 346 1028 L 346 416 Z" unicode="Þ" />
<glyph horiz-adv-x="1302" d="M 162 0 L 162 1116 C 162 1255 205 1364 291 1443 C 377 1521 490 1561 629 1561 C 766 1561 879 1523 969 1447 C 1059 1371 1104 1271 1104 1145 C 1104 1063 1080 991 1034 930 C 987 869 922 826 840 801 C 952 782 1040 738 1106 668 C 1171 598 1204 512 1204 410 C 1204 320 1182 243 1140 177 C 1097 111 1040 61 969 29 C 898 -3 818 -20 729 -20 C 648 -20 574 -10 506 10 L 537 152 C 593 132 651 123 711 123 C 804 123 881 149 942 201 C 1003 253 1034 324 1034 416 C 1034 509 1000 582 932 636 C 864 690 774 717 662 717 L 571 717 L 571 860 L 631 860 C 727 860 802 886 855 940 C 907 993 934 1059 934 1139 C 934 1227 906 1296 850 1348 C 794 1399 721 1425 629 1425 C 538 1425 465 1398 411 1345 C 357 1291 330 1216 330 1118 L 330 0 L 162 0 Z" unicode="ß" />
<glyph horiz-adv-x="1085" d="M 100 246 C 100 297 111 343 135 384 C 159 424 190 458 230 484 C 269 510 317 533 373 551 C 429 569 486 582 546 591 C 605 599 669 605 739 608 L 739 764 C 739 820 721 864 687 897 C 653 929 601 946 532 946 C 436 946 325 913 197 848 L 131 983 C 275 1052 411 1087 537 1087 C 663 1087 756 1057 817 999 C 878 940 909 861 909 762 L 909 231 C 909 159 944 123 1016 123 L 1016 -2 C 942 -2 885 8 846 29 C 807 50 778 84 760 131 C 665 27 549 -25 412 -25 C 318 -25 243 0 186 50 C 128 100 100 165 100 246 Z M 248 1446 L 369 1538 L 653 1176 L 537 1176 L 248 1446 Z M 268 258 C 268 212 284 175 317 147 C 350 119 394 106 449 106 C 510 106 566 118 617 144 C 667 170 708 202 739 242 L 739 500 C 425 485 268 404 268 258 Z" unicode="à" />
<glyph horiz-adv-x="1085" d="M 100 246 C 100 297 111 343 135 384 C 159 424 190 458 230 484 C 269 510 317 533 373 551 C 429 569 486 582 546 591 C 605 599 669 605 739 608 L 739 764 C 739 820 721 864 687 897 C 653 929 601 946 532 946 C 436 946 325 913 197 848 L 131 983 C 275 1052 411 1087 537 1087 C 663 1087 756 1057 817 999 C 878 940 909 861 909 762 L 909 231 C 909 159 944 123 1016 123 L 1016 -2 C 942 -2 885 8 846 29 C 807 50 778 84 760 131 C 665 27 549 -25 412 -25 C 318 -25 243 0 186 50 C 128 100 100 165 100 246 Z M 268 258 C 268 212 284 175 317 147 C 350 119 394 106 449 106 C 510 106 566 118 617 144 C 667 170 708 202 739 242 L 739 500 C 425 485 268 404 268 258 Z M 457 1176 L 741 1538 L 862 1446 L 573 1176 L 457 1176 Z" unicode="á" />
<glyph horiz-adv-x="1085" d="M 100 246 C 100 297 111 343 135 384 C 159 424 190 458 230 484 C 269 510 317 533 373 551 C 429 569 486 582 546 591 C 605 599 669 605 739 608 L 739 764 C 739 820 721 864 687 897 C 653 929 601 946 532 946 C 436 946 325 913 197 848 L 131 983 C 275 1052 411 1087 537 1087 C 663 1087 756 1057 817 999 C 878 940 909 861 909 762 L 909 231 C 909 159 944 123 1016 123 L 1016 -2 C 942 -2 885 8 846 29 C 807 50 778 84 760 131 C 665 27 549 -25 412 -25 C 318 -25 243 0 186 50 C 128 100 100 165 100 246 Z M 213 1176 L 467 1499 L 647 1499 L 901 1176 L 778 1176 L 557 1399 L 555 1399 L 334 1176 L 213 1176 Z M 268 258 C 268 212 284 175 317 147 C 350 119 394 106 449 106 C 510 106 566 118 617 144 C 667 170 708 202 739 242 L 739 500 C 425 485 268 404 268 258 Z" unicode="â" />
<glyph horiz-adv-x="1085" d="M 100 246 C 100 297 111 343 135 384 C 159 424 190 458 230 484 C 269 510 317 533 373 551 C 429 569 486 582 546 591 C 605 599 669 605 739 608 L 739 764 C 739 820 721 864 687 897 C 653 929 601 946 532 946 C 436 946 325 913 197 848 L 131 983 C 275 1052 411 1087 537 1087 C 663 1087 756 1057 817 999 C 878 940 909 861 909 762 L 909 231 C 909 159 944 123 1016 123 L 1016 -2 C 942 -2 885 8 846 29 C 807 50 778 84 760 131 C 665 27 549 -25 412 -25 C 318 -25 243 0 186 50 C 128 100 100 165 100 246 Z M 252 1229 C 244 1301 255 1359 287 1401 C 318 1443 363 1464 422 1464 C 450 1464 477 1457 504 1444 C 530 1430 552 1415 569 1399 C 585 1383 604 1368 625 1355 C 645 1341 664 1335 682 1335 C 708 1335 727 1344 740 1364 C 753 1383 758 1410 754 1446 L 858 1446 C 866 1374 855 1316 824 1274 C 792 1231 748 1210 690 1210 C 662 1210 635 1216 609 1230 C 582 1243 560 1257 543 1273 C 526 1289 507 1303 486 1317 C 465 1330 446 1337 428 1337 C 402 1337 383 1327 371 1309 C 358 1291 354 1264 358 1229 L 252 1229 Z M 268 258 C 268 212 284 175 317 147 C 350 119 394 106 449 106 C 510 106 566 118 617 144 C 667 170 708 202 739 242 L 739 500 C 425 485 268 404 268 258 Z" unicode="ã" />
<glyph horiz-adv-x="1085" d="M 100 246 C 100 297 111 343 135 384 C 159 424 190 458 230 484 C 269 510 317 533 373 551 C 429 569 486 582 546 591 C 605 599 669 605 739 608 L 739 764 C 739 820 721 864 687 897 C 653 929 601 946 532 946 C 436 946 325 913 197 848 L 131 983 C 275 1052 411 1087 537 1087 C 663 1087 756 1057 817 999 C 878 940 909 861 909 762 L 909 231 C 909 159 944 123 1016 123 L 1016 -2 C 942 -2 885 8 846 29 C 807 50 778 84 760 131 C 665 27 549 -25 412 -25 C 318 -25 243 0 186 50 C 128 100 100 165 100 246 Z M 268 258 C 268 212 284 175 317 147 C 350 119 394 106 449 106 C 510 106 566 118 617 144 C 667 170 708 202 739 242 L 739 500 C 425 485 268 404 268 258 Z M 279 1253 L 279 1421 L 434 1421 L 434 1253 L 279 1253 Z M 678 1253 L 678 1421 L 834 1421 L 834 1253 L 678 1253 Z" unicode="ä" />
<glyph horiz-adv-x="1085" d="M 100 246 C 100 297 111 343 135 384 C 159 424 190 458 230 484 C 269 510 317 533 373 551 C 429 569 486 582 546 591 C 605 599 669 605 739 608 L 739 764 C 739 820 721 864 687 897 C 653 929 601 946 532 946 C 436 946 325 913 197 848 L 131 983 C 275 1052 411 1087 537 1087 C 663 1087 756 1057 817 999 C 878 940 909 861 909 762 L 909 231 C 909 159 944 123 1016 123 L 1016 -2 C 942 -2 885 8 846 29 C 807 50 778 84 760 131 C 665 27 549 -25 412 -25 C 318 -25 243 0 186 50 C 128 100 100 165 100 246 Z M 268 258 C 268 212 284 175 317 147 C 350 119 394 106 449 106 C 510 106 566 118 617 144 C 667 170 708 202 739 242 L 739 500 C 425 485 268 404 268 258 Z M 402 1227 C 360 1267 340 1316 340 1376 C 340 1435 360 1485 402 1525 C 444 1565 495 1585 555 1585 C 615 1585 665 1565 707 1525 C 749 1485 770 1435 770 1376 C 770 1316 749 1267 707 1227 C 665 1187 615 1167 555 1167 C 495 1167 444 1187 402 1227 Z M 422 1376 C 422 1338 435 1306 461 1280 C 487 1254 518 1241 555 1241 C 591 1241 623 1254 649 1280 C 675 1306 688 1338 688 1376 C 688 1414 675 1445 649 1471 C 623 1496 592 1509 555 1509 C 517 1509 486 1496 460 1471 C 434 1445 422 1414 422 1376 Z" unicode="å" />
<glyph horiz-adv-x="1792" d="M 100 244 C 99 295 111 341 135 382 C 159 422 190 456 230 482 C 269 508 317 529 374 547 C 430 565 488 578 547 587 C 606 595 671 601 741 604 L 741 766 C 741 820 724 864 690 897 C 656 929 605 946 537 946 C 439 946 327 913 199 848 L 131 983 C 285 1054 421 1090 537 1090 C 715 1090 822 1021 860 885 C 902 949 956 1000 1023 1036 C 1089 1072 1165 1090 1249 1090 C 1345 1090 1426 1068 1492 1026 C 1558 984 1607 928 1637 858 C 1667 788 1683 706 1683 614 C 1683 584 1680 554 1675 524 L 911 524 C 913 388 944 286 1004 218 C 1064 149 1150 115 1260 115 C 1368 115 1471 148 1569 215 L 1647 100 C 1529 15 1398 -27 1253 -27 C 1061 -27 920 44 831 186 C 789 125 732 74 659 34 C 585 -6 504 -27 416 -27 C 321 -27 245 -2 187 47 C 129 97 100 162 100 244 Z M 270 256 C 270 211 286 174 320 146 C 354 118 397 104 451 104 C 520 104 584 121 642 155 C 700 189 745 236 776 295 C 754 358 743 426 741 498 C 427 486 270 405 270 256 Z M 918 639 L 1518 639 C 1518 700 1510 754 1494 800 C 1477 846 1448 884 1407 914 C 1366 943 1314 958 1251 958 C 1164 958 1091 929 1031 872 C 971 815 933 737 918 639 Z" unicode="æ" />
<glyph horiz-adv-x="1056" d="M 102 543 C 102 709 149 841 243 939 C 337 1037 458 1087 608 1087 C 743 1087 858 1049 954 973 L 864 856 C 787 914 703 944 612 944 C 512 944 430 907 368 835 C 305 762 274 665 274 543 C 274 411 304 307 366 231 C 428 155 510 117 612 117 C 710 117 799 151 879 219 L 977 115 C 925 69 871 34 815 12 C 759 -10 695 -23 623 -25 C 597 -187 520 -327 391 -444 L 262 -379 C 324 -329 378 -272 423 -210 C 467 -148 498 -83 514 -16 C 388 4 287 63 213 162 C 139 260 102 387 102 543 Z" unicode="ç" />
<glyph horiz-adv-x="1159" d="M 104 543 C 104 707 151 840 247 940 C 342 1040 464 1090 612 1090 C 755 1090 864 1046 938 958 C 1012 870 1049 756 1049 614 C 1049 588 1046 558 1040 524 L 274 524 C 276 392 306 291 366 221 C 425 150 511 115 625 115 C 731 115 835 148 936 215 L 1012 100 C 956 60 894 28 826 6 C 757 -15 687 -27 616 -27 C 454 -27 329 23 239 124 C 149 225 104 365 104 543 Z M 281 639 L 885 639 C 885 700 877 754 860 800 C 843 846 814 884 773 914 C 731 943 679 958 616 958 C 529 958 456 929 396 872 C 336 815 297 737 281 639 Z M 299 1446 L 420 1538 L 705 1176 L 588 1176 L 299 1446 Z" unicode="è" />
<glyph horiz-adv-x="1159" d="M 104 543 C 104 707 151 840 247 940 C 342 1040 464 1090 612 1090 C 755 1090 864 1046 938 958 C 1012 870 1049 756 1049 614 C 1049 588 1046 558 1040 524 L 274 524 C 276 392 306 291 366 221 C 425 150 511 115 625 115 C 731 115 835 148 936 215 L 1012 100 C 956 60 894 28 826 6 C 757 -15 687 -27 616 -27 C 454 -27 329 23 239 124 C 149 225 104 365 104 543 Z M 281 639 L 885 639 C 885 700 877 754 860 800 C 843 846 814 884 773 914 C 731 943 679 958 616 958 C 529 958 456 929 396 872 C 336 815 297 737 281 639 Z M 508 1176 L 793 1538 L 913 1446 L 625 1176 L 508 1176 Z" unicode="é" />
<glyph horiz-adv-x="1159" d="M 104 543 C 104 707 151 840 247 940 C 342 1040 464 1090 612 1090 C 755 1090 864 1046 938 958 C 1012 870 1049 756 1049 614 C 1049 588 1046 558 1040 524 L 274 524 C 276 392 306 291 366 221 C 425 150 511 115 625 115 C 731 115 835 148 936 215 L 1012 100 C 956 60 894 28 826 6 C 757 -15 687 -27 616 -27 C 454 -27 329 23 239 124 C 149 225 104 365 104 543 Z M 266 1176 L 520 1499 L 700 1499 L 954 1176 L 831 1176 L 610 1399 L 608 1399 L 387 1176 L 266 1176 Z M 281 639 L 885 639 C 885 700 877 754 860 800 C 843 846 814 884 773 914 C 731 943 679 958 616 958 C 529 958 456 929 396 872 C 336 815 297 737 281 639 Z" unicode="ê" />
<glyph horiz-adv-x="1159" d="M 104 543 C 104 707 151 840 247 940 C 342 1040 464 1090 612 1090 C 755 1090 864 1046 938 958 C 1012 870 1049 756 1049 614 C 1049 588 1046 558 1040 524 L 274 524 C 276 392 306 291 366 221 C 425 150 511 115 625 115 C 731 115 835 148 936 215 L 1012 100 C 956 60 894 28 826 6 C 757 -15 687 -27 616 -27 C 454 -27 329 23 239 124 C 149 225 104 365 104 543 Z M 281 639 L 885 639 C 885 700 877 754 860 800 C 843 846 814 884 773 914 C 731 943 679 958 616 958 C 529 958 456 929 396 872 C 336 815 297 737 281 639 Z M 332 1253 L 332 1421 L 487 1421 L 487 1253 L 332 1253 Z M 731 1253 L 731 1421 L 887 1421 L 887 1253 L 731 1253 Z" unicode="ë" />
<glyph horiz-adv-x="499" d="M -59 1446 L 61 1538 L 346 1176 L 229 1176 L -59 1446 Z M 166 0 L 166 1057 L 336 1057 L 336 0 L 166 0 Z" unicode="ì" />
<glyph horiz-adv-x="499" d="M 152 1176 L 436 1538 L 557 1446 L 268 1176 L 152 1176 Z M 166 0 L 166 1057 L 336 1057 L 336 0 L 166 0 Z" unicode="í" />
<glyph horiz-adv-x="499" d="M -94 1176 L 160 1499 L 340 1499 L 594 1176 L 471 1176 L 250 1399 L 248 1399 L 27 1176 L -94 1176 Z M 166 0 L 166 1057 L 336 1057 L 336 0 L 166 0 Z" unicode="î" />
<glyph horiz-adv-x="499" d="M -27 1253 L -27 1421 L 129 1421 L 129 1253 L -27 1253 Z M 166 0 L 166 1057 L 336 1057 L 336 0 L 166 0 Z M 373 1253 L 373 1421 L 528 1421 L 528 1253 L 373 1253 Z" unicode="ï" />
<glyph horiz-adv-x="1208" d="M 111 471 C 111 609 152 721 234 807 C 316 893 423 936 553 936 C 677 936 787 895 881 813 C 829 955 743 1094 623 1229 L 389 1116 L 338 1217 C 422 1255 491 1287 545 1313 C 495 1364 411 1442 295 1546 L 502 1546 C 573 1482 632 1426 678 1378 L 879 1475 L 928 1372 C 862 1342 806 1315 758 1292 C 983 1035 1096 778 1096 522 C 1096 348 1051 213 962 118 C 872 22 753 -25 604 -25 C 453 -25 333 20 244 112 C 155 204 111 323 111 471 Z M 283 471 C 283 362 312 274 370 208 C 428 142 506 109 604 109 C 702 109 781 144 840 216 C 898 288 928 386 928 512 C 928 565 923 618 913 672 C 821 763 712 809 584 809 C 493 809 420 778 365 718 C 310 658 283 575 283 471 Z" unicode="ð" />
<glyph horiz-adv-x="1177" d="M 158 0 L 158 1063 L 315 1063 L 326 920 C 434 1033 556 1090 690 1090 C 805 1090 890 1057 944 992 C 998 927 1026 837 1026 721 L 1026 0 L 856 0 L 856 723 C 856 875 788 952 653 952 C 528 952 420 895 328 782 L 328 0 L 158 0 Z M 287 1229 C 279 1301 290 1359 322 1401 C 353 1443 398 1464 457 1464 C 485 1464 512 1457 539 1444 C 565 1430 587 1415 604 1399 C 620 1383 639 1368 660 1355 C 680 1341 699 1335 717 1335 C 743 1335 762 1344 775 1364 C 787 1383 792 1410 788 1446 L 893 1446 C 901 1374 890 1316 859 1274 C 827 1231 783 1210 725 1210 C 697 1210 670 1216 644 1230 C 617 1243 595 1257 578 1273 C 561 1289 542 1303 521 1317 C 500 1330 481 1337 463 1337 C 437 1337 418 1327 406 1309 C 393 1291 389 1264 393 1229 L 287 1229 Z" unicode="ñ" />
<glyph horiz-adv-x="1230" d="M 104 545 C 104 707 152 838 248 938 C 344 1037 467 1087 616 1087 C 764 1087 886 1037 981 938 C 1076 838 1124 707 1124 545 C 1124 371 1077 232 984 129 C 891 26 768 -25 616 -25 C 461 -25 337 26 244 129 C 150 232 104 371 104 545 Z M 276 545 C 276 413 306 307 367 229 C 428 150 511 111 616 111 C 718 111 799 150 860 229 C 921 308 952 413 952 545 C 952 666 920 764 858 838 C 796 912 715 950 616 950 C 516 950 434 912 371 838 C 307 764 276 666 276 545 Z M 305 1446 L 426 1538 L 711 1176 L 594 1176 L 305 1446 Z" unicode="ò" />
<glyph horiz-adv-x="1230" d="M 104 545 C 104 707 152 838 248 938 C 344 1037 467 1087 616 1087 C 764 1087 886 1037 981 938 C 1076 838 1124 707 1124 545 C 1124 371 1077 232 984 129 C 891 26 768 -25 616 -25 C 461 -25 337 26 244 129 C 150 232 104 371 104 545 Z M 276 545 C 276 413 306 307 367 229 C 428 150 511 111 616 111 C 718 111 799 150 860 229 C 921 308 952 413 952 545 C 952 666 920 764 858 838 C 796 912 715 950 616 950 C 516 950 434 912 371 838 C 307 764 276 666 276 545 Z M 516 1176 L 801 1538 L 922 1446 L 633 1176 L 516 1176 Z" unicode="ó" />
<glyph horiz-adv-x="1230" d="M 104 545 C 104 707 152 838 248 938 C 344 1037 467 1087 616 1087 C 764 1087 886 1037 981 938 C 1076 838 1124 707 1124 545 C 1124 371 1077 232 984 129 C 891 26 768 -25 616 -25 C 461 -25 337 26 244 129 C 150 232 104 371 104 545 Z M 272 1176 L 526 1499 L 707 1499 L 961 1176 L 838 1176 L 616 1399 L 614 1399 L 393 1176 L 272 1176 Z M 276 545 C 276 413 306 307 367 229 C 428 150 511 111 616 111 C 718 111 799 150 860 229 C 921 308 952 413 952 545 C 952 666 920 764 858 838 C 796 912 715 950 616 950 C 516 950 434 912 371 838 C 307 764 276 666 276 545 Z" unicode="ô" />
<glyph horiz-adv-x="1230" d="M 104 545 C 104 707 152 838 248 938 C 344 1037 467 1087 616 1087 C 764 1087 886 1037 981 938 C 1076 838 1124 707 1124 545 C 1124 371 1077 232 984 129 C 891 26 768 -25 616 -25 C 461 -25 337 26 244 129 C 150 232 104 371 104 545 Z M 276 545 C 276 413 306 307 367 229 C 428 150 511 111 616 111 C 718 111 799 150 860 229 C 921 308 952 413 952 545 C 952 666 920 764 858 838 C 796 912 715 950 616 950 C 516 950 434 912 371 838 C 307 764 276 666 276 545 Z M 311 1229 C 303 1301 314 1359 346 1401 C 377 1443 422 1464 481 1464 C 509 1464 536 1457 563 1444 C 589 1430 611 1415 628 1399 C 644 1383 663 1368 684 1355 C 704 1341 723 1335 741 1335 C 767 1335 786 1344 799 1364 C 812 1383 817 1410 813 1446 L 918 1446 C 926 1374 915 1316 884 1274 C 852 1231 808 1210 750 1210 C 722 1210 695 1216 669 1230 C 642 1243 620 1257 603 1273 C 585 1289 566 1303 545 1317 C 524 1330 505 1337 487 1337 C 461 1337 442 1327 430 1309 C 418 1291 414 1264 418 1229 L 311 1229 Z" unicode="õ" />
<glyph horiz-adv-x="1230" d="M 104 545 C 104 707 152 838 248 938 C 344 1037 467 1087 616 1087 C 764 1087 886 1037 981 938 C 1076 838 1124 707 1124 545 C 1124 371 1077 232 984 129 C 891 26 768 -25 616 -25 C 461 -25 337 26 244 129 C 150 232 104 371 104 545 Z M 276 545 C 276 413 306 307 367 229 C 428 150 511 111 616 111 C 718 111 799 150 860 229 C 921 308 952 413 952 545 C 952 666 920 764 858 838 C 796 912 715 950 616 950 C 516 950 434 912 371 838 C 307 764 276 666 276 545 Z M 338 1253 L 338 1421 L 494 1421 L 494 1253 L 338 1253 Z M 737 1253 L 737 1421 L 893 1421 L 893 1253 L 737 1253 Z" unicode="ö" />
<glyph horiz-adv-x="1257" d="M 96 459 L 96 606 L 1161 606 L 1161 459 L 96 459 Z M 547 45 L 547 242 L 709 242 L 709 45 L 547 45 Z M 547 821 L 547 1020 L 709 1020 L 709 821 L 547 821 Z" unicode="÷" />
<glyph horiz-adv-x="1230" d="M 98 -39 L 238 139 C 148 243 104 378 104 545 C 104 707 152 838 248 938 C 344 1037 467 1087 616 1087 C 723 1087 819 1059 905 1004 L 1026 1163 L 1116 1094 L 987 930 C 1078 830 1124 701 1124 545 C 1124 371 1077 232 984 129 C 891 26 768 -25 616 -25 C 503 -25 405 3 322 61 L 190 -106 L 98 -39 Z M 276 545 C 276 431 298 336 344 262 L 815 881 C 756 927 690 950 616 950 C 516 950 434 912 371 838 C 307 764 276 666 276 545 Z M 408 186 C 464 136 533 111 616 111 C 718 111 799 150 860 229 C 921 308 952 413 952 545 C 952 645 929 732 883 805 L 408 186 Z" unicode="ø" />
<glyph horiz-adv-x="1179" d="M 154 344 L 154 1063 L 324 1063 L 324 340 C 324 266 339 210 370 170 C 400 130 452 111 526 111 C 650 111 760 167 854 281 L 854 1063 L 1024 1063 L 1024 0 L 870 0 L 856 143 C 746 31 625 -25 492 -25 C 376 -25 290 7 236 72 C 181 137 154 228 154 344 Z M 270 1446 L 391 1538 L 676 1176 L 559 1176 L 270 1446 Z" unicode="ù" />
<glyph horiz-adv-x="1179" d="M 154 344 L 154 1063 L 324 1063 L 324 340 C 324 266 339 210 370 170 C 400 130 452 111 526 111 C 650 111 760 167 854 281 L 854 1063 L 1024 1063 L 1024 0 L 870 0 L 856 143 C 746 31 625 -25 492 -25 C 376 -25 290 7 236 72 C 181 137 154 228 154 344 Z M 496 1176 L 780 1538 L 901 1446 L 612 1176 L 496 1176 Z" unicode="ú" />
<glyph horiz-adv-x="1179" d="M 154 344 L 154 1063 L 324 1063 L 324 340 C 324 266 339 210 370 170 C 400 130 452 111 526 111 C 650 111 760 167 854 281 L 854 1063 L 1024 1063 L 1024 0 L 870 0 L 856 143 C 746 31 625 -25 492 -25 C 376 -25 290 7 236 72 C 181 137 154 228 154 344 Z M 246 1176 L 500 1499 L 680 1499 L 934 1176 L 811 1176 L 590 1399 L 588 1399 L 367 1176 L 246 1176 Z" unicode="û" />
<glyph horiz-adv-x="1179" d="M 154 344 L 154 1063 L 324 1063 L 324 340 C 324 266 339 210 370 170 C 400 130 452 111 526 111 C 650 111 760 167 854 281 L 854 1063 L 1024 1063 L 1024 0 L 870 0 L 856 143 C 746 31 625 -25 492 -25 C 376 -25 290 7 236 72 C 181 137 154 228 154 344 Z M 311 1253 L 311 1421 L 467 1421 L 467 1253 L 311 1253 Z M 711 1253 L 711 1421 L 866 1421 L 866 1253 L 711 1253 Z" unicode="ü" />
<glyph horiz-adv-x="1040" d="M 33 -395 L 82 -258 C 134 -278 177 -289 211 -289 C 251 -289 285 -279 311 -261 C 337 -242 359 -209 377 -162 L 442 6 L 47 1063 L 223 1063 L 524 223 L 528 223 L 821 1063 L 993 1063 L 545 -174 C 509 -269 464 -335 411 -373 C 358 -411 293 -430 217 -430 C 153 -430 92 -418 33 -395 Z M 426 1176 L 711 1538 L 831 1446 L 543 1176 L 426 1176 Z" unicode="ý" />
<glyph horiz-adv-x="1208" d="M 166 -410 L 166 1546 L 336 1546 L 336 922 C 436 1034 548 1090 674 1090 C 804 1090 908 1042 986 946 C 1064 850 1104 717 1104 549 C 1104 367 1065 226 989 125 C 912 23 807 -27 674 -27 C 548 -27 436 27 336 137 L 336 -410 L 166 -410 Z M 336 268 C 426 163 526 111 637 111 C 732 111 805 149 857 227 C 908 304 934 411 934 547 C 934 675 907 774 855 845 C 802 916 729 952 635 952 C 528 952 428 899 336 793 L 336 268 Z" unicode="þ" />
<glyph horiz-adv-x="1040" d="M 33 -395 L 82 -258 C 134 -278 177 -289 211 -289 C 251 -289 285 -279 311 -261 C 337 -242 359 -209 377 -162 L 442 6 L 47 1063 L 223 1063 L 524 223 L 528 223 L 821 1063 L 993 1063 L 545 -174 C 509 -269 464 -335 411 -373 C 358 -411 293 -430 217 -430 C 153 -430 92 -418 33 -395 Z M 246 1253 L 246 1421 L 401 1421 L 401 1253 L 246 1253 Z M 645 1253 L 645 1421 L 801 1421 L 801 1253 L 645 1253 Z" unicode="ÿ" />
<glyph horiz-adv-x="1417" d="M 61 0 L 604 1434 L 813 1434 L 1354 0 L 1165 0 L 1036 352 L 379 352 L 252 0 L 61 0 Z M 403 1604 L 403 1722 L 1010 1722 L 1010 1604 L 403 1604 Z M 430 494 L 985 494 L 709 1255 L 705 1255 L 430 494 Z" unicode="Ā" />
<glyph horiz-adv-x="1085" d="M 100 246 C 100 297 111 343 135 384 C 159 424 190 458 230 484 C 269 510 317 533 373 551 C 429 569 486 582 546 591 C 605 599 669 605 739 608 L 739 764 C 739 820 721 864 687 897 C 653 929 601 946 532 946 C 436 946 325 913 197 848 L 131 983 C 275 1052 411 1087 537 1087 C 663 1087 756 1057 817 999 C 878 940 909 861 909 762 L 909 231 C 909 159 944 123 1016 123 L 1016 -2 C 942 -2 885 8 846 29 C 807 50 778 84 760 131 C 665 27 549 -25 412 -25 C 318 -25 243 0 186 50 C 128 100 100 165 100 246 Z M 254 1278 L 254 1397 L 856 1397 L 856 1278 L 254 1278 Z M 268 258 C 268 212 284 175 317 147 C 350 119 394 106 449 106 C 510 106 566 118 617 144 C 667 170 708 202 739 242 L 739 500 C 425 485 268 404 268 258 Z" unicode="ā" />
<glyph horiz-adv-x="1417" d="M 61 0 L 604 1434 L 813 1434 L 1354 0 L 1165 0 L 1036 352 L 379 352 L 252 0 L 61 0 Z M 362 1782 L 485 1782 C 501 1742 528 1710 566 1687 C 604 1664 651 1653 707 1653 C 763 1653 809 1664 847 1687 C 885 1710 912 1742 928 1782 L 1051 1782 C 1032 1705 993 1645 933 1601 C 873 1557 797 1536 707 1536 C 615 1536 540 1557 481 1601 C 421 1644 382 1704 362 1782 Z M 430 494 L 985 494 L 709 1255 L 705 1255 L 430 494 Z" unicode="Ă" />
<glyph horiz-adv-x="1085" d="M 100 246 C 100 297 111 343 135 384 C 159 424 190 458 230 484 C 269 510 317 533 373 551 C 429 569 486 582 546 591 C 605 599 669 605 739 608 L 739 764 C 739 820 721 864 687 897 C 653 929 601 946 532 946 C 436 946 325 913 197 848 L 131 983 C 275 1052 411 1087 537 1087 C 663 1087 756 1057 817 999 C 878 940 909 861 909 762 L 909 231 C 909 159 944 123 1016 123 L 1016 -2 C 942 -2 885 8 846 29 C 807 50 778 84 760 131 C 665 27 549 -25 412 -25 C 318 -25 243 0 186 50 C 128 100 100 165 100 246 Z M 223 1499 L 340 1499 C 348 1431 370 1379 408 1341 C 446 1303 495 1284 555 1284 C 615 1284 664 1303 702 1341 C 740 1379 762 1432 770 1499 L 887 1499 C 880 1395 847 1314 787 1254 C 727 1194 649 1165 555 1165 C 460 1165 383 1194 325 1254 C 266 1313 232 1395 223 1499 Z M 268 258 C 268 212 284 175 317 147 C 350 119 394 106 449 106 C 510 106 566 118 617 144 C 667 170 708 202 739 242 L 739 500 C 425 485 268 404 268 258 Z" unicode="ă" />
<glyph horiz-adv-x="1417" d="M 61 0 L 604 1434 L 813 1434 L 1354 0 C 1236 -52 1178 -119 1178 -201 C 1178 -229 1187 -252 1207 -268 C 1226 -284 1251 -293 1282 -293 C 1320 -293 1357 -283 1393 -264 L 1397 -268 L 1397 -395 C 1352 -414 1305 -424 1257 -424 C 1195 -424 1144 -406 1105 -372 C 1066 -338 1047 -291 1047 -233 C 1047 -141 1096 -64 1194 0 L 1165 0 L 1036 352 L 379 352 L 252 0 L 61 0 Z M 430 494 L 985 494 L 709 1255 L 705 1255 L 430 494 Z" unicode="Ą" />
<glyph horiz-adv-x="1085" d="M 100 246 C 100 297 111 343 135 384 C 159 424 190 458 230 484 C 269 510 317 533 373 551 C 429 569 486 582 546 591 C 605 599 669 605 739 608 L 739 764 C 739 820 721 864 687 897 C 653 929 601 946 532 946 C 436 946 325 913 197 848 L 131 983 C 275 1052 411 1087 537 1087 C 663 1087 756 1057 817 999 C 878 940 909 861 909 762 L 909 231 C 909 159 944 123 1016 123 L 1016 0 C 897 -53 838 -120 838 -201 C 838 -230 847 -253 867 -269 C 887 -285 912 -293 942 -293 C 982 -293 1020 -284 1055 -266 L 1059 -270 L 1059 -395 C 1014 -414 968 -424 920 -424 C 858 -424 807 -406 768 -372 C 728 -338 709 -291 709 -233 C 709 -183 724 -137 756 -95 C 787 -53 830 -16 885 14 C 825 31 784 70 760 131 C 665 27 549 -25 412 -25 C 318 -25 243 0 186 50 C 128 100 100 165 100 246 Z M 268 258 C 268 212 284 175 317 147 C 350 119 394 106 449 106 C 510 106 566 118 617 144 C 667 170 708 202 739 242 L 739 500 C 425 485 268 404 268 258 Z" unicode="ą" />
<glyph horiz-adv-x="1454" d="M 113 731 C 113 873 143 999 204 1109 C 264 1219 349 1305 459 1366 C 569 1427 694 1458 836 1458 C 1018 1458 1176 1406 1311 1303 L 1217 1176 C 1101 1263 975 1307 838 1307 C 674 1307 541 1254 440 1148 C 339 1042 289 903 289 731 C 289 549 338 403 438 293 C 538 182 671 127 838 127 C 994 127 1127 179 1235 283 L 1343 168 C 1208 39 1037 -25 831 -25 C 689 -25 564 6 455 70 C 346 133 262 222 202 337 C 142 451 113 583 113 731 Z M 694 1546 L 924 1821 L 1059 1726 L 823 1546 L 694 1546 Z" unicode="Ć" />
<glyph horiz-adv-x="1056" d="M 102 543 C 102 709 149 841 243 939 C 337 1037 458 1087 608 1087 C 743 1087 858 1049 954 973 L 864 856 C 787 914 703 944 612 944 C 512 944 430 907 368 835 C 305 762 274 665 274 543 C 274 411 304 307 366 231 C 428 155 510 117 612 117 C 710 117 799 151 879 219 L 977 115 C 923 67 867 32 809 9 C 751 -13 684 -25 608 -25 C 456 -25 334 26 241 128 C 148 230 102 369 102 543 Z M 477 1176 L 762 1538 L 883 1446 L 594 1176 L 477 1176 Z" unicode="ć" />
<glyph horiz-adv-x="1454" d="M 113 731 C 113 873 143 999 204 1109 C 264 1219 349 1305 459 1366 C 569 1427 694 1458 836 1458 C 1018 1458 1176 1406 1311 1303 L 1217 1176 C 1101 1263 975 1307 838 1307 C 674 1307 541 1254 440 1148 C 339 1042 289 903 289 731 C 289 549 338 403 438 293 C 538 182 671 127 838 127 C 994 127 1127 179 1235 283 L 1343 168 C 1208 39 1037 -25 831 -25 C 689 -25 564 6 455 70 C 346 133 262 222 202 337 C 142 451 113 583 113 731 Z M 438 1546 L 696 1782 L 864 1782 L 1122 1546 L 1004 1546 L 782 1686 L 780 1686 L 557 1546 L 438 1546 Z" unicode="Ĉ" />
<glyph horiz-adv-x="1056" d="M 102 543 C 102 709 149 841 243 939 C 337 1037 458 1087 608 1087 C 743 1087 858 1049 954 973 L 864 856 C 787 914 703 944 612 944 C 512 944 430 907 368 835 C 305 762 274 665 274 543 C 274 411 304 307 366 231 C 428 155 510 117 612 117 C 710 117 799 151 879 219 L 977 115 C 923 67 867 32 809 9 C 751 -13 684 -25 608 -25 C 456 -25 334 26 241 128 C 148 230 102 369 102 543 Z M 233 1176 L 487 1499 L 668 1499 L 922 1176 L 799 1176 L 578 1399 L 575 1399 L 354 1176 L 233 1176 Z" unicode="ĉ" />
<glyph horiz-adv-x="1454" d="M 113 731 C 113 873 143 999 204 1109 C 264 1219 349 1305 459 1366 C 569 1427 694 1458 836 1458 C 1018 1458 1176 1406 1311 1303 L 1217 1176 C 1101 1263 975 1307 838 1307 C 674 1307 541 1254 440 1148 C 339 1042 289 903 289 731 C 289 549 338 403 438 293 C 538 182 671 127 838 127 C 994 127 1127 179 1235 283 L 1343 168 C 1208 39 1037 -25 831 -25 C 689 -25 564 6 455 70 C 346 133 262 222 202 337 C 142 451 113 583 113 731 Z M 700 1581 L 700 1749 L 860 1749 L 860 1581 L 700 1581 Z" unicode="Ċ" />
<glyph horiz-adv-x="1056" d="M 102 543 C 102 709 149 841 243 939 C 337 1037 458 1087 608 1087 C 743 1087 858 1049 954 973 L 864 856 C 787 914 703 944 612 944 C 512 944 430 907 368 835 C 305 762 274 665 274 543 C 274 411 304 307 366 231 C 428 155 510 117 612 117 C 710 117 799 151 879 219 L 977 115 C 923 67 867 32 809 9 C 751 -13 684 -25 608 -25 C 456 -25 334 26 241 128 C 148 230 102 369 102 543 Z M 496 1253 L 496 1421 L 653 1421 L 653 1253 L 496 1253 Z" unicode="ċ" />
<glyph horiz-adv-x="1454" d="M 113 731 C 113 873 143 999 204 1109 C 264 1219 349 1305 459 1366 C 569 1427 694 1458 836 1458 C 1018 1458 1176 1406 1311 1303 L 1217 1176 C 1101 1263 975 1307 838 1307 C 674 1307 541 1254 440 1148 C 339 1042 289 903 289 731 C 289 549 338 403 438 293 C 538 182 671 127 838 127 C 994 127 1127 179 1235 283 L 1343 168 C 1208 39 1037 -25 831 -25 C 689 -25 564 6 455 70 C 346 133 262 222 202 337 C 142 451 113 583 113 731 Z M 438 1782 L 557 1782 L 778 1645 L 780 1645 L 1004 1782 L 1122 1782 L 864 1546 L 694 1546 L 438 1782 Z" unicode="Č" />
<glyph horiz-adv-x="1056" d="M 102 543 C 102 709 149 841 243 939 C 337 1037 458 1087 608 1087 C 743 1087 858 1049 954 973 L 864 856 C 787 914 703 944 612 944 C 512 944 430 907 368 835 C 305 762 274 665 274 543 C 274 411 304 307 366 231 C 428 155 510 117 612 117 C 710 117 799 151 879 219 L 977 115 C 923 67 867 32 809 9 C 751 -13 684 -25 608 -25 C 456 -25 334 26 241 128 C 148 230 102 369 102 543 Z M 233 1499 L 354 1499 L 575 1276 L 578 1276 L 799 1499 L 922 1499 L 668 1176 L 487 1176 L 233 1499 Z" unicode="č" />
<glyph horiz-adv-x="1460" d="M 172 0 L 172 1434 L 586 1434 C 832 1434 1021 1371 1153 1246 C 1285 1121 1352 947 1352 725 C 1352 494 1287 315 1159 189 C 1030 63 839 0 586 0 L 172 0 Z M 346 147 L 596 147 C 786 147 930 197 1028 299 C 1126 400 1176 542 1176 725 C 1176 899 1125 1036 1025 1136 C 924 1236 781 1286 596 1286 L 346 1286 L 346 147 Z M 420 1782 L 539 1782 L 760 1645 L 762 1645 L 985 1782 L 1104 1782 L 846 1546 L 676 1546 L 420 1782 Z" unicode="Ď" />
<glyph horiz-adv-x="1206" d="M 104 549 C 104 717 143 849 221 944 C 299 1039 405 1087 537 1087 C 659 1087 771 1033 874 926 L 874 1546 L 1044 1546 L 1044 0 L 897 0 L 881 141 C 779 30 664 -25 535 -25 C 401 -25 295 25 219 126 C 142 226 104 367 104 549 Z M 274 547 C 274 411 299 304 351 228 C 403 151 477 113 573 113 C 683 113 783 164 874 268 L 874 793 C 780 897 679 950 573 950 C 479 950 405 914 353 844 C 300 774 274 675 274 547 Z M 1186 1384 L 1186 1483 C 1214 1489 1242 1493 1272 1493 C 1326 1493 1368 1480 1397 1454 C 1425 1428 1440 1393 1442 1350 C 1442 1318 1432 1284 1412 1250 C 1392 1215 1365 1183 1333 1155 L 1212 1155 C 1276 1219 1309 1275 1309 1323 C 1309 1343 1302 1359 1290 1372 C 1277 1384 1259 1391 1235 1391 C 1229 1391 1221 1390 1210 1388 C 1198 1386 1190 1384 1186 1384 Z" unicode="ď" />
<glyph horiz-adv-x="1533" d="M 29 662 L 29 780 L 244 780 L 244 662 L 29 662 Z M 246 0 L 246 1434 L 659 1434 C 905 1434 1094 1371 1226 1246 C 1358 1121 1425 947 1425 725 C 1425 494 1360 315 1232 189 C 1103 63 912 0 659 0 L 246 0 Z M 420 147 L 670 147 C 860 147 1004 197 1102 299 C 1200 400 1249 542 1249 725 C 1249 899 1198 1036 1098 1136 C 998 1236 855 1286 670 1286 L 420 1286 L 420 780 L 840 780 L 840 662 L 420 662 L 420 147 Z" unicode="Đ" />
<glyph horiz-adv-x="1206" d="M 104 549 C 104 717 143 849 221 944 C 299 1039 405 1087 537 1087 C 659 1087 771 1033 874 926 L 874 1255 L 707 1255 L 707 1370 L 874 1370 L 874 1546 L 1044 1546 L 1044 1370 L 1126 1370 L 1126 1255 L 1044 1255 L 1044 0 L 897 0 L 881 141 C 779 30 664 -25 535 -25 C 401 -25 295 25 219 126 C 142 226 104 367 104 549 Z M 274 547 C 274 411 299 304 351 228 C 403 151 477 113 573 113 C 683 113 783 164 874 268 L 874 793 C 780 897 679 950 573 950 C 479 950 405 914 353 844 C 300 774 274 675 274 547 Z" unicode="đ" />
<glyph horiz-adv-x="1300" d="M 172 0 L 172 1434 L 1155 1434 L 1155 1278 L 346 1278 L 346 803 L 1075 803 L 1075 657 L 346 657 L 346 156 L 1167 156 L 1167 0 L 172 0 Z M 367 1604 L 367 1722 L 973 1722 L 973 1604 L 367 1604 Z" unicode="Ē" />
<glyph horiz-adv-x="1159" d="M 104 543 C 104 707 151 840 247 940 C 342 1040 464 1090 612 1090 C 755 1090 864 1046 938 958 C 1012 870 1049 756 1049 614 C 1049 588 1046 558 1040 524 L 274 524 C 276 392 306 291 366 221 C 425 150 511 115 625 115 C 731 115 835 148 936 215 L 1012 100 C 956 60 894 28 826 6 C 757 -15 687 -27 616 -27 C 454 -27 329 23 239 124 C 149 225 104 365 104 543 Z M 281 639 L 885 639 C 885 700 877 754 860 800 C 843 846 814 884 773 914 C 731 943 679 958 616 958 C 529 958 456 929 396 872 C 336 815 297 737 281 639 Z M 309 1278 L 309 1397 L 911 1397 L 911 1278 L 309 1278 Z" unicode="ē" />
<glyph horiz-adv-x="1300" d="M 172 0 L 172 1434 L 1155 1434 L 1155 1278 L 346 1278 L 346 803 L 1075 803 L 1075 657 L 346 657 L 346 156 L 1167 156 L 1167 0 L 172 0 Z M 326 1782 L 449 1782 C 465 1742 491 1710 529 1687 C 567 1664 614 1653 670 1653 C 726 1653 772 1664 810 1687 C 848 1710 875 1742 891 1782 L 1014 1782 C 995 1705 956 1645 896 1601 C 836 1557 760 1536 670 1536 C 578 1536 503 1557 444 1601 C 385 1644 346 1704 326 1782 Z" unicode="Ĕ" />
<glyph horiz-adv-x="1159" d="M 104 543 C 104 707 151 840 247 940 C 342 1040 464 1090 612 1090 C 755 1090 864 1046 938 958 C 1012 870 1049 756 1049 614 C 1049 588 1046 558 1040 524 L 274 524 C 276 392 306 291 366 221 C 425 150 511 115 625 115 C 731 115 835 148 936 215 L 1012 100 C 956 60 894 28 826 6 C 757 -15 687 -27 616 -27 C 454 -27 329 23 239 124 C 149 225 104 365 104 543 Z M 279 1499 L 395 1499 C 403 1431 425 1379 463 1341 C 501 1303 550 1284 610 1284 C 670 1284 719 1303 757 1341 C 795 1379 817 1432 825 1499 L 942 1499 C 935 1395 902 1314 842 1254 C 782 1194 704 1165 610 1165 C 515 1165 438 1194 380 1254 C 322 1313 288 1395 279 1499 Z M 281 639 L 885 639 C 885 700 877 754 860 800 C 843 846 814 884 773 914 C 731 943 679 958 616 958 C 529 958 456 929 396 872 C 336 815 297 737 281 639 Z" unicode="ĕ" />
<glyph horiz-adv-x="1300" d="M 172 0 L 172 1434 L 1155 1434 L 1155 1278 L 346 1278 L 346 803 L 1075 803 L 1075 657 L 346 657 L 346 156 L 1167 156 L 1167 0 L 172 0 Z M 592 1581 L 592 1749 L 752 1749 L 752 1581 L 592 1581 Z" unicode="Ė" />
<glyph horiz-adv-x="1159" d="M 104 543 C 104 707 151 840 247 940 C 342 1040 464 1090 612 1090 C 755 1090 864 1046 938 958 C 1012 870 1049 756 1049 614 C 1049 588 1046 558 1040 524 L 274 524 C 276 392 306 291 366 221 C 425 150 511 115 625 115 C 731 115 835 148 936 215 L 1012 100 C 956 60 894 28 826 6 C 757 -15 687 -27 616 -27 C 454 -27 329 23 239 124 C 149 225 104 365 104 543 Z M 281 639 L 885 639 C 885 700 877 754 860 800 C 843 846 814 884 773 914 C 731 943 679 958 616 958 C 529 958 456 929 396 872 C 336 815 297 737 281 639 Z M 530 1253 L 530 1421 L 688 1421 L 688 1253 L 530 1253 Z" unicode="ė" />
<glyph horiz-adv-x="1300" d="M 172 0 L 172 1434 L 1155 1434 L 1155 1278 L 346 1278 L 346 803 L 1075 803 L 1075 657 L 346 657 L 346 156 L 1167 156 L 1167 0 C 1049 -52 991 -119 991 -201 C 991 -229 1000 -252 1020 -268 C 1040 -284 1065 -293 1096 -293 C 1134 -293 1170 -283 1206 -264 L 1210 -268 L 1210 -395 C 1165 -414 1119 -424 1071 -424 C 1009 -424 958 -406 919 -372 C 879 -338 860 -291 860 -233 C 860 -142 909 -64 1008 0 L 172 0 Z" unicode="Ę" />
<glyph horiz-adv-x="1159" d="M 104 543 C 104 707 151 840 247 940 C 342 1040 464 1090 612 1090 C 755 1090 864 1046 938 958 C 1012 870 1049 756 1049 614 C 1049 588 1046 558 1040 524 L 279 524 L 279 512 C 281 385 311 287 370 218 C 428 149 513 115 625 115 C 731 115 835 148 936 215 L 1012 100 C 964 70 934 52 924 47 C 887 27 857 9 833 -6 C 809 -21 786 -39 762 -59 C 738 -79 721 -101 709 -125 C 697 -148 692 -173 692 -199 C 692 -229 702 -252 722 -268 C 742 -284 769 -293 805 -293 C 846 -293 882 -284 913 -266 L 922 -270 L 922 -395 C 872 -414 826 -424 782 -424 C 716 -424 663 -406 623 -372 C 583 -337 563 -290 563 -231 C 563 -155 600 -85 676 -20 C 654 -24 634 -27 616 -27 C 454 -27 329 23 239 124 C 149 225 104 365 104 543 Z M 283 639 L 885 639 C 885 700 877 754 860 800 C 843 846 814 884 773 914 C 731 943 679 958 616 958 C 528 958 455 929 395 873 C 335 816 298 738 283 639 Z" unicode="ę" />
<glyph horiz-adv-x="1300" d="M 172 0 L 172 1434 L 1155 1434 L 1155 1278 L 346 1278 L 346 803 L 1075 803 L 1075 657 L 346 657 L 346 156 L 1167 156 L 1167 0 L 172 0 Z M 328 1782 L 446 1782 L 668 1645 L 670 1645 L 893 1782 L 1012 1782 L 754 1546 L 584 1546 L 328 1782 Z" unicode="Ě" />
<glyph horiz-adv-x="1159" d="M 104 543 C 104 707 151 840 247 940 C 342 1040 464 1090 612 1090 C 755 1090 864 1046 938 958 C 1012 870 1049 756 1049 614 C 1049 588 1046 558 1040 524 L 274 524 C 276 392 306 291 366 221 C 425 150 511 115 625 115 C 731 115 835 148 936 215 L 1012 100 C 956 60 894 28 826 6 C 757 -15 687 -27 616 -27 C 454 -27 329 23 239 124 C 149 225 104 365 104 543 Z M 266 1499 L 387 1499 L 608 1276 L 610 1276 L 831 1499 L 954 1499 L 700 1176 L 520 1176 L 266 1499 Z M 281 639 L 885 639 C 885 700 877 754 860 800 C 843 846 814 884 773 914 C 731 943 679 958 616 958 C 529 958 456 929 396 872 C 336 815 297 737 281 639 Z" unicode="ě" />
<glyph horiz-adv-x="1488" d="M 113 731 C 113 836 130 934 165 1024 C 199 1114 248 1190 310 1254 C 372 1318 449 1368 539 1404 C 629 1440 728 1458 836 1458 C 1013 1458 1173 1411 1317 1317 L 1227 1190 C 1107 1268 978 1307 840 1307 C 676 1307 543 1253 442 1147 C 341 1040 291 901 291 731 C 291 545 339 398 437 290 C 535 181 669 127 840 127 C 972 127 1084 155 1174 211 L 1174 621 L 774 621 L 774 754 L 1335 754 L 1335 121 C 1267 74 1191 38 1105 13 C 1019 -12 929 -25 836 -25 C 615 -25 439 43 309 181 C 178 319 113 502 113 731 Z M 438 1546 L 696 1782 L 864 1782 L 1122 1546 L 1004 1546 L 782 1686 L 780 1686 L 557 1546 L 438 1546 Z" unicode="Ĝ" />
<glyph horiz-adv-x="1175" d="M 66 -150 C 66 -99 81 -54 113 -15 C 145 23 188 55 244 80 C 190 117 164 165 164 225 C 164 293 198 347 268 389 C 158 465 104 568 104 700 C 104 813 146 906 230 978 C 314 1050 418 1087 543 1087 C 653 1087 749 1057 829 997 C 911 1061 1008 1092 1120 1090 L 1120 961 C 1021 961 948 950 901 930 C 954 863 981 786 981 700 C 981 622 960 552 919 492 C 877 431 824 385 758 354 C 692 322 620 307 543 307 C 474 307 412 318 358 340 C 318 320 299 292 299 254 C 299 236 303 220 313 208 C 323 195 335 185 351 177 C 367 169 390 162 420 157 C 450 151 480 147 510 145 C 540 142 580 139 629 137 C 700 133 763 125 817 115 C 871 104 920 88 963 67 C 1006 46 1039 18 1062 -16 C 1084 -50 1096 -91 1096 -139 C 1096 -231 1051 -303 963 -354 C 875 -404 745 -430 575 -430 C 411 -430 286 -405 198 -357 C 110 -309 66 -240 66 -150 Z M 227 -143 C 227 -253 340 -309 567 -309 C 686 -309 777 -295 840 -269 C 902 -243 934 -204 934 -154 C 934 -102 906 -64 851 -42 C 795 -19 710 -5 596 0 C 519 2 445 11 375 27 C 330 11 294 -10 267 -40 C 240 -69 227 -103 227 -143 Z M 254 1176 L 508 1499 L 688 1499 L 942 1176 L 819 1176 L 598 1399 L 596 1399 L 375 1176 L 254 1176 Z M 268 700 C 268 622 294 557 346 507 C 398 457 464 432 543 432 C 621 432 687 457 739 507 C 791 557 817 621 817 700 C 817 776 791 840 739 890 C 687 940 621 965 543 965 C 464 965 398 940 346 890 C 294 840 268 776 268 700 Z" unicode="ĝ" />
<glyph horiz-adv-x="1488" d="M 113 731 C 113 836 130 934 165 1024 C 199 1114 248 1190 310 1254 C 372 1318 449 1368 539 1404 C 629 1440 728 1458 836 1458 C 1013 1458 1173 1411 1317 1317 L 1227 1190 C 1107 1268 978 1307 840 1307 C 676 1307 543 1253 442 1147 C 341 1040 291 901 291 731 C 291 545 339 398 437 290 C 535 181 669 127 840 127 C 972 127 1084 155 1174 211 L 1174 621 L 774 621 L 774 754 L 1335 754 L 1335 121 C 1267 74 1191 38 1105 13 C 1019 -12 929 -25 836 -25 C 615 -25 439 43 309 181 C 178 319 113 502 113 731 Z M 434 1782 L 557 1782 C 573 1742 599 1710 637 1687 C 675 1664 722 1653 778 1653 C 834 1653 880 1664 918 1687 C 956 1710 983 1742 999 1782 L 1122 1782 C 1103 1705 1064 1645 1004 1601 C 944 1557 868 1536 778 1536 C 686 1536 611 1557 552 1601 C 493 1644 454 1704 434 1782 Z" unicode="Ğ" />
<glyph horiz-adv-x="1175" d="M 66 -150 C 66 -99 81 -54 113 -15 C 145 23 188 55 244 80 C 190 117 164 165 164 225 C 164 293 198 347 268 389 C 158 465 104 568 104 700 C 104 813 146 906 230 978 C 314 1050 418 1087 543 1087 C 653 1087 749 1057 829 997 C 911 1061 1008 1092 1120 1090 L 1120 961 C 1021 961 948 950 901 930 C 954 863 981 786 981 700 C 981 622 960 552 919 492 C 877 431 824 385 758 354 C 692 322 620 307 543 307 C 474 307 412 318 358 340 C 318 320 299 292 299 254 C 299 236 303 220 313 208 C 323 195 335 185 351 177 C 367 169 390 162 420 157 C 450 151 480 147 510 145 C 540 142 580 139 629 137 C 700 133 763 125 817 115 C 871 104 920 88 963 67 C 1006 46 1039 18 1062 -16 C 1084 -50 1096 -91 1096 -139 C 1096 -231 1051 -303 963 -354 C 875 -404 745 -430 575 -430 C 411 -430 286 -405 198 -357 C 110 -309 66 -240 66 -150 Z M 227 -143 C 227 -253 340 -309 567 -309 C 686 -309 777 -295 840 -269 C 902 -243 934 -204 934 -154 C 934 -102 906 -64 851 -42 C 795 -19 710 -5 596 0 C 519 2 445 11 375 27 C 330 11 294 -10 267 -40 C 240 -69 227 -103 227 -143 Z M 266 1499 L 383 1499 C 391 1431 413 1379 451 1341 C 489 1303 538 1284 598 1284 C 658 1284 707 1303 745 1341 C 783 1379 805 1432 813 1499 L 930 1499 C 923 1395 890 1314 830 1254 C 770 1194 692 1165 598 1165 C 503 1165 426 1194 368 1254 C 309 1313 275 1395 266 1499 Z M 268 700 C 268 622 294 557 346 507 C 398 457 464 432 543 432 C 621 432 687 457 739 507 C 791 557 817 621 817 700 C 817 776 791 840 739 890 C 687 940 621 965 543 965 C 464 965 398 940 346 890 C 294 840 268 776 268 700 Z" unicode="ğ" />
<glyph horiz-adv-x="1488" d="M 113 731 C 113 836 130 934 165 1024 C 199 1114 248 1190 310 1254 C 372 1318 449 1368 539 1404 C 629 1440 728 1458 836 1458 C 1013 1458 1173 1411 1317 1317 L 1227 1190 C 1107 1268 978 1307 840 1307 C 676 1307 543 1253 442 1147 C 341 1040 291 901 291 731 C 291 545 339 398 437 290 C 535 181 669 127 840 127 C 972 127 1084 155 1174 211 L 1174 621 L 774 621 L 774 754 L 1335 754 L 1335 121 C 1267 74 1191 38 1105 13 C 1019 -12 929 -25 836 -25 C 615 -25 439 43 309 181 C 178 319 113 502 113 731 Z M 698 1581 L 698 1749 L 858 1749 L 858 1581 L 698 1581 Z" unicode="Ġ" />
<glyph horiz-adv-x="1175" d="M 66 -150 C 66 -99 81 -54 113 -15 C 145 23 188 55 244 80 C 190 117 164 165 164 225 C 164 293 198 347 268 389 C 158 465 104 568 104 700 C 104 813 146 906 230 978 C 314 1050 418 1087 543 1087 C 653 1087 749 1057 829 997 C 911 1061 1008 1092 1120 1090 L 1120 961 C 1021 961 948 950 901 930 C 954 863 981 786 981 700 C 981 622 960 552 919 492 C 877 431 824 385 758 354 C 692 322 620 307 543 307 C 474 307 412 318 358 340 C 318 320 299 292 299 254 C 299 236 303 220 313 208 C 323 195 335 185 351 177 C 367 169 390 162 420 157 C 450 151 480 147 510 145 C 540 142 580 139 629 137 C 700 133 763 125 817 115 C 871 104 920 88 963 67 C 1006 46 1039 18 1062 -16 C 1084 -50 1096 -91 1096 -139 C 1096 -231 1051 -303 963 -354 C 875 -404 745 -430 575 -430 C 411 -430 286 -405 198 -357 C 110 -309 66 -240 66 -150 Z M 227 -143 C 227 -253 340 -309 567 -309 C 686 -309 777 -295 840 -269 C 902 -243 934 -204 934 -154 C 934 -102 906 -64 851 -42 C 795 -19 710 -5 596 0 C 519 2 445 11 375 27 C 330 11 294 -10 267 -40 C 240 -69 227 -103 227 -143 Z M 268 700 C 268 622 294 557 346 507 C 398 457 464 432 543 432 C 621 432 687 457 739 507 C 791 557 817 621 817 700 C 817 776 791 840 739 890 C 687 940 621 965 543 965 C 464 965 398 940 346 890 C 294 840 268 776 268 700 Z M 510 1253 L 510 1421 L 668 1421 L 668 1253 L 510 1253 Z" unicode="ġ" />
<glyph horiz-adv-x="1488" d="M 113 731 C 113 836 130 934 165 1024 C 199 1114 248 1190 310 1254 C 372 1318 449 1368 539 1404 C 629 1440 728 1458 836 1458 C 1013 1458 1173 1411 1317 1317 L 1227 1190 C 1107 1268 978 1307 840 1307 C 676 1307 543 1253 442 1147 C 341 1040 291 901 291 731 C 291 545 339 398 437 290 C 535 181 669 127 840 127 C 972 127 1084 155 1174 211 L 1174 621 L 774 621 L 774 754 L 1335 754 L 1335 121 C 1267 74 1191 38 1105 13 C 1019 -12 929 -25 836 -25 C 615 -25 439 43 309 181 C 178 319 113 502 113 731 Z M 651 -113 C 681 -105 710 -102 737 -102 C 791 -102 832 -115 861 -141 C 890 -167 905 -202 907 -244 C 907 -276 898 -309 878 -343 C 858 -377 832 -409 799 -438 L 678 -438 C 742 -376 774 -321 774 -272 C 774 -250 767 -234 755 -223 C 742 -211 724 -206 700 -207 C 691 -207 675 -208 651 -211 L 651 -113 Z" unicode="Ģ" />
<glyph horiz-adv-x="1175" d="M 66 -150 C 66 -99 81 -54 113 -15 C 145 23 188 55 244 80 C 190 117 164 165 164 225 C 164 293 198 347 268 389 C 158 465 104 568 104 700 C 104 813 146 906 230 978 C 314 1050 418 1087 543 1087 C 653 1087 749 1057 829 997 C 911 1061 1008 1092 1120 1090 L 1120 961 C 1021 961 948 950 901 930 C 954 863 981 786 981 700 C 981 622 960 552 919 492 C 877 431 824 385 758 354 C 692 322 620 307 543 307 C 474 307 412 318 358 340 C 318 320 299 292 299 254 C 299 236 303 220 313 208 C 323 195 335 185 351 177 C 367 169 390 162 420 157 C 450 151 480 147 510 145 C 540 142 580 139 629 137 C 700 133 763 125 817 115 C 871 104 920 88 963 67 C 1006 46 1039 18 1062 -16 C 1084 -50 1096 -91 1096 -139 C 1096 -231 1051 -303 963 -354 C 875 -404 745 -430 575 -430 C 411 -430 286 -405 198 -357 C 110 -309 66 -240 66 -150 Z M 227 -143 C 227 -253 340 -309 567 -309 C 686 -309 777 -295 840 -269 C 902 -243 934 -204 934 -154 C 934 -102 906 -64 851 -42 C 795 -19 710 -5 596 0 C 519 2 445 11 375 27 C 330 11 294 -10 267 -40 C 240 -69 227 -103 227 -143 Z M 268 700 C 268 622 294 557 346 507 C 398 457 464 432 543 432 C 621 432 687 457 739 507 C 791 557 817 621 817 700 C 817 776 791 840 739 890 C 687 940 621 965 543 965 C 464 965 398 940 346 890 C 294 840 268 776 268 700 Z M 461 1315 C 461 1347 470 1380 490 1414 C 510 1448 536 1480 569 1509 L 690 1509 C 626 1445 594 1389 594 1341 C 594 1321 600 1304 613 1292 C 625 1280 644 1274 668 1274 C 673 1274 682 1274 694 1276 C 706 1278 713 1279 717 1280 L 717 1182 C 686 1174 657 1171 631 1171 C 576 1171 534 1184 506 1210 C 477 1236 462 1271 461 1315 Z" unicode="ģ" />
<glyph horiz-adv-x="1437" d="M 172 0 L 172 1434 L 346 1434 L 346 807 L 1092 807 L 1092 1434 L 1266 1434 L 1266 0 L 1092 0 L 1092 653 L 346 653 L 346 0 L 172 0 Z M 377 1546 L 635 1782 L 803 1782 L 1061 1546 L 942 1546 L 721 1686 L 719 1686 L 496 1546 L 377 1546 Z" unicode="Ĥ" />
<glyph horiz-adv-x="1185" d="M -92 1632 L 166 1868 L 334 1868 L 592 1632 L 473 1632 L 252 1772 L 250 1772 L 27 1632 L -92 1632 Z M 166 0 L 166 1546 L 336 1546 L 336 920 C 444 1033 564 1090 696 1090 C 812 1090 897 1057 951 992 C 1005 927 1032 837 1032 721 L 1032 0 L 864 0 L 864 723 C 864 875 795 952 659 952 C 536 952 428 896 336 784 L 336 0 L 166 0 Z" unicode="ĥ" />
<glyph horiz-adv-x="1437" d="M 172 0 L 172 1434 L 346 1434 L 346 1180 L 1092 1180 L 1092 1434 L 1266 1434 L 1266 0 L 1092 0 L 1092 653 L 346 653 L 346 0 L 172 0 Z M 346 807 L 1092 807 L 1092 1067 L 346 1067 L 346 807 Z" unicode="Ħ" />
<glyph horiz-adv-x="1193" d="M 16 1255 L 16 1370 L 174 1370 L 174 1546 L 344 1546 L 344 1370 L 621 1370 L 621 1255 L 344 1255 L 344 920 C 452 1033 573 1090 705 1090 C 928 1090 1040 967 1040 721 L 1040 0 L 872 0 L 872 723 C 872 875 804 952 668 952 C 544 952 436 896 344 784 L 344 0 L 174 0 L 174 1255 L 16 1255 Z" unicode="ħ" />
<glyph horiz-adv-x="516" d="M -47 1556 C -55 1628 -43 1685 -12 1727 C 19 1769 64 1790 123 1790 C 151 1790 178 1783 205 1770 C 231 1756 253 1741 271 1725 C 288 1709 307 1694 328 1681 C 348 1667 367 1661 385 1661 C 411 1661 430 1670 443 1690 C 456 1710 461 1737 457 1772 L 563 1772 C 571 1700 560 1643 528 1601 C 496 1559 451 1538 393 1538 C 365 1538 337 1544 311 1558 C 284 1571 262 1585 245 1601 C 228 1617 209 1631 188 1645 C 167 1658 147 1665 129 1665 C 104 1665 85 1655 72 1636 C 59 1617 55 1590 59 1556 L -47 1556 Z M 172 0 L 172 1434 L 346 1434 L 346 0 L 172 0 Z" unicode="Ĩ" />
<glyph horiz-adv-x="499" d="M -55 1229 C -63 1301 -51 1359 -20 1401 C 11 1443 56 1464 115 1464 C 143 1464 170 1457 197 1444 C 223 1430 245 1415 262 1399 C 278 1383 297 1368 318 1355 C 338 1341 357 1335 375 1335 C 401 1335 420 1344 433 1364 C 445 1383 450 1410 446 1446 L 551 1446 C 559 1374 548 1316 517 1274 C 485 1231 441 1210 383 1210 C 355 1210 328 1216 302 1230 C 275 1243 253 1257 236 1273 C 219 1289 200 1303 179 1317 C 158 1330 139 1337 121 1337 C 95 1337 76 1327 64 1309 C 51 1291 47 1264 51 1229 L -55 1229 Z M 166 0 L 166 1057 L 336 1057 L 336 0 L 166 0 Z" unicode="ĩ" />
<glyph horiz-adv-x="516" d="M -45 1604 L -45 1722 L 561 1722 L 561 1604 L -45 1604 Z M 172 0 L 172 1434 L 346 1434 L 346 0 L 172 0 Z" unicode="Ī" />
<glyph horiz-adv-x="499" d="M -51 1278 L -51 1397 L 551 1397 L 551 1278 L -51 1278 Z M 166 0 L 166 1057 L 336 1057 L 336 0 L 166 0 Z" unicode="ī" />
<glyph horiz-adv-x="516" d="M -86 1782 L 37 1782 C 53 1742 79 1710 117 1687 C 155 1664 202 1653 258 1653 C 314 1653 360 1664 398 1687 C 436 1710 463 1742 479 1782 L 602 1782 C 583 1705 544 1645 484 1601 C 424 1557 348 1536 258 1536 C 166 1536 91 1557 32 1601 C -26 1644 -66 1704 -86 1782 Z M 172 0 L 172 1434 L 346 1434 L 346 0 L 172 0 Z" unicode="Ĭ" />
<glyph horiz-adv-x="499" d="M -82 1499 L 35 1499 C 43 1431 65 1379 103 1341 C 141 1303 190 1284 250 1284 C 310 1284 359 1303 397 1341 C 435 1379 457 1432 465 1499 L 582 1499 C 575 1395 542 1314 482 1254 C 422 1194 344 1165 250 1165 C 155 1165 78 1194 20 1254 C -38 1313 -72 1395 -82 1499 Z M 166 0 L 166 1057 L 336 1057 L 336 0 L 166 0 Z" unicode="ĭ" />
<glyph horiz-adv-x="516" d="M 39 -233 C 39 -141 88 -64 186 0 L 172 0 L 172 1434 L 346 1434 L 346 0 C 228 -52 170 -119 170 -201 C 170 -229 179 -252 199 -268 C 218 -284 243 -293 274 -293 C 312 -293 349 -283 385 -264 L 389 -268 L 389 -395 C 344 -414 298 -424 250 -424 C 188 -424 137 -406 98 -372 C 58 -338 39 -291 39 -233 Z" unicode="Į" />
<glyph horiz-adv-x="499" d="M 27 -233 C 27 -141 76 -64 174 0 L 166 0 L 166 1057 L 336 1057 L 336 0 L 334 0 C 216 -52 158 -119 158 -201 C 158 -229 167 -252 187 -268 C 206 -284 231 -293 262 -293 C 300 -293 337 -283 373 -264 L 377 -268 L 377 -395 C 332 -414 286 -424 238 -424 C 176 -424 125 -406 86 -372 C 46 -338 27 -291 27 -233 Z M 166 1327 L 166 1522 L 336 1522 L 336 1327 L 166 1327 Z" unicode="į" />
<glyph horiz-adv-x="516" d="M 172 0 L 172 1434 L 346 1434 L 346 0 L 172 0 Z M 178 1581 L 178 1749 L 338 1749 L 338 1581 L 178 1581 Z" unicode="İ" />
<glyph horiz-adv-x="499" d="M 166 0 L 166 1057 L 336 1057 L 336 0 L 166 0 Z" unicode="ı" />
<glyph horiz-adv-x="1196" d="M 166 0 L 166 1116 L 336 1116 L 336 920 L 616 920 C 696 920 766 910 828 892 C 889 873 938 847 975 814 C 1011 781 1039 743 1057 700 C 1075 657 1085 610 1085 559 C 1085 506 1076 458 1058 414 C 1040 370 1012 331 976 297 C 939 263 890 236 828 217 C 766 197 695 188 614 188 L 336 188 L 336 0 L 166 0 Z M 336 330 L 608 330 C 712 330 788 350 838 392 C 888 434 913 489 913 559 C 913 626 888 679 838 719 C 788 758 712 778 610 778 L 336 778 L 336 330 Z" unicode="" />
<glyph horiz-adv-x="1824" d="M 158 0 L 158 1063 L 315 1063 L 326 926 C 374 975 429 1015 489 1045 C 549 1075 611 1090 676 1090 C 822 1090 920 1031 969 913 C 1087 1031 1212 1090 1346 1090 C 1454 1090 1536 1057 1590 992 C 1644 926 1671 837 1671 723 L 1671 0 L 1501 0 L 1501 727 C 1501 877 1437 952 1309 952 C 1192 952 1089 899 999 795 C 1002 753 1004 726 1004 715 L 1004 0 L 831 0 L 831 727 C 831 877 767 952 639 952 C 519 952 416 897 328 788 L 328 0 L 158 0 Z M 612 1278 L 612 1397 L 1214 1397 L 1214 1278 L 612 1278 Z" unicode="" />
<glyph horiz-adv-x="1169" d="M 98 272 L 240 352 C 301 204 401 131 539 131 C 635 131 708 161 756 221 C 804 281 829 365 829 473 L 829 1434 L 1004 1434 L 1004 471 C 1004 315 964 193 886 106 C 808 18 695 -25 547 -25 C 439 -25 348 2 272 56 C 196 110 138 182 98 272 Z M 575 1546 L 834 1782 L 1001 1782 L 1260 1546 L 1141 1546 L 920 1686 L 918 1686 L 694 1546 L 575 1546 Z" unicode="Ĵ" />
<glyph horiz-adv-x="518" d="M -106 -408 L -74 -274 C -40 -284 -10 -289 14 -289 C 127 -289 184 -211 184 -57 L 184 1057 L 352 1057 L 352 -51 C 352 -303 245 -430 31 -430 C -17 -430 -63 -422 -106 -408 Z M -74 1176 L 180 1499 L 360 1499 L 614 1176 L 492 1176 L 270 1399 L 268 1399 L 47 1176 L -74 1176 Z" unicode="ĵ" />
<glyph horiz-adv-x="1372" d="M 172 0 L 172 1434 L 346 1434 L 346 633 L 1040 1434 L 1243 1434 L 776 897 L 1298 0 L 1094 0 L 662 766 L 346 406 L 346 0 L 172 0 Z M 547 -113 C 577 -105 606 -102 633 -102 C 687 -102 728 -115 757 -141 C 786 -167 801 -202 803 -244 C 803 -275 794 -308 774 -342 C 754 -376 727 -408 694 -438 L 573 -438 C 637 -376 670 -320 670 -272 C 670 -250 663 -234 651 -223 C 638 -211 620 -206 596 -207 C 587 -207 571 -208 547 -211 L 547 -113 Z" unicode="Ķ" />
<glyph horiz-adv-x="1097" d="M 166 0 L 166 1546 L 336 1546 L 336 518 L 813 1063 L 1006 1063 L 682 705 L 1055 0 L 860 0 L 569 580 L 336 322 L 336 0 L 166 0 Z M 479 -113 C 509 -105 537 -102 563 -102 C 618 -102 660 -115 689 -141 C 718 -167 733 -202 733 -244 C 735 -275 725 -308 705 -342 C 685 -376 658 -408 625 -438 L 506 -438 C 570 -374 602 -318 602 -272 C 602 -250 595 -234 583 -223 C 570 -211 552 -206 528 -207 C 516 -207 500 -208 479 -211 L 479 -113 Z" unicode="ķ" />
<glyph horiz-adv-x="1097" d="M 166 0 L 166 1063 L 336 1063 L 336 518 L 813 1063 L 1006 1063 L 682 705 L 1055 0 L 860 0 L 569 580 L 336 322 L 336 0 L 166 0 Z" unicode="ĸ" />
<glyph horiz-adv-x="1239" d="M 172 0 L 172 1434 L 346 1434 L 346 156 L 1149 156 L 1149 0 L 172 0 Z M 172 1546 L 401 1821 L 537 1726 L 301 1546 L 172 1546 Z" unicode="Ĺ" />
<glyph horiz-adv-x="501" d="M 164 1632 L 393 1907 L 528 1812 L 293 1632 L 164 1632 Z M 166 0 L 166 1546 L 336 1546 L 336 0 L 166 0 Z" unicode="ĺ" />
<glyph horiz-adv-x="1239" d="M 172 0 L 172 1434 L 346 1434 L 346 156 L 1149 156 L 1149 0 L 172 0 Z M 530 -113 C 560 -105 589 -102 616 -102 C 670 -102 711 -115 740 -141 C 769 -167 784 -202 786 -244 C 786 -276 777 -309 757 -343 C 737 -377 711 -409 678 -438 L 557 -438 C 621 -376 653 -321 653 -272 C 653 -250 646 -234 634 -223 C 622 -211 604 -206 580 -207 C 570 -207 554 -208 530 -211 L 530 -113 Z" unicode="Ļ" />
<glyph horiz-adv-x="501" d="M 164 -113 C 194 -105 222 -102 248 -102 C 303 -102 345 -115 374 -141 C 403 -167 418 -202 418 -244 C 420 -275 410 -308 390 -342 C 370 -376 343 -408 309 -438 L 190 -438 C 254 -373 287 -318 287 -272 C 287 -250 280 -234 268 -223 C 255 -211 237 -206 213 -207 C 201 -207 185 -208 164 -211 L 164 -113 Z M 166 0 L 166 1546 L 336 1546 L 336 0 L 166 0 Z" unicode="ļ" />
<glyph horiz-adv-x="1239" d="M 172 0 L 172 1434 L 346 1434 L 346 156 L 1149 156 L 1149 0 L 172 0 Z M 518 1333 L 518 1432 C 546 1438 574 1442 604 1442 C 658 1442 699 1428 728 1402 C 757 1376 772 1342 774 1300 C 774 1268 765 1234 745 1200 C 725 1166 699 1134 666 1106 L 545 1106 C 609 1167 641 1222 641 1272 C 641 1293 634 1309 622 1321 C 609 1332 591 1337 567 1337 C 558 1337 542 1335 518 1333 Z" unicode="Ľ" />
<glyph horiz-adv-x="501" d="M 166 0 L 166 1546 L 336 1546 L 336 0 L 166 0 Z M 481 1384 L 481 1483 C 509 1489 537 1493 567 1493 C 621 1493 663 1480 692 1454 C 720 1428 735 1393 737 1350 C 737 1318 727 1284 707 1250 C 687 1215 661 1183 629 1155 L 508 1155 C 572 1219 604 1275 604 1323 C 604 1343 597 1359 585 1372 C 572 1384 554 1391 530 1391 C 524 1391 516 1390 505 1388 C 493 1386 485 1384 481 1384 Z" unicode="ľ" />
<glyph horiz-adv-x="1239" d="M 172 0 L 172 1434 L 346 1434 L 346 156 L 1149 156 L 1149 0 L 172 0 Z M 991 696 L 991 864 L 1151 864 L 1151 696 L 991 696 Z" unicode="Ŀ" />
<glyph horiz-adv-x="501" d="M 166 0 L 166 1546 L 336 1546 L 336 0 L 166 0 Z M 451 631 L 451 799 L 608 799 L 608 631 L 451 631 Z" unicode="ŀ" />
<glyph horiz-adv-x="1300" d="M 25 455 L 25 590 L 231 709 L 231 1434 L 406 1434 L 406 807 L 811 1040 L 811 903 L 406 672 L 406 156 L 1208 156 L 1208 0 L 231 0 L 231 571 L 25 455 Z" unicode="Ł" />
<glyph horiz-adv-x="534" d="M 10 563 L 10 700 L 184 799 L 184 1546 L 354 1546 L 354 895 L 526 993 L 526 856 L 354 758 L 354 0 L 184 0 L 184 662 L 10 563 Z" unicode="ł" />
<glyph horiz-adv-x="1484" d="M 172 0 L 172 1434 L 348 1434 L 1145 270 L 1145 1434 L 1313 1434 L 1313 0 L 1135 0 L 340 1161 L 340 0 L 172 0 Z M 657 1546 L 887 1821 L 1022 1726 L 786 1546 L 657 1546 Z" unicode="Ń" />
<glyph horiz-adv-x="1177" d="M 158 0 L 158 1063 L 315 1063 L 326 920 C 434 1033 556 1090 690 1090 C 805 1090 890 1057 944 992 C 998 927 1026 837 1026 721 L 1026 0 L 856 0 L 856 723 C 856 875 788 952 653 952 C 528 952 420 895 328 782 L 328 0 L 158 0 Z M 494 1176 L 778 1538 L 899 1446 L 610 1176 L 494 1176 Z" unicode="ń" />
<glyph horiz-adv-x="1484" d="M 172 0 L 172 1434 L 348 1434 L 1145 270 L 1145 1434 L 1313 1434 L 1313 0 L 1135 0 L 340 1161 L 340 0 L 172 0 Z M 610 -113 C 640 -105 669 -102 696 -102 C 750 -102 791 -115 820 -141 C 849 -167 864 -202 866 -244 C 866 -276 857 -309 837 -343 C 817 -377 791 -409 758 -438 L 637 -438 C 701 -376 733 -321 733 -272 C 733 -250 726 -234 714 -223 C 701 -211 683 -206 659 -207 C 650 -207 634 -208 610 -211 L 610 -113 Z" unicode="Ņ" />
<glyph horiz-adv-x="1177" d="M 158 0 L 158 1063 L 315 1063 L 326 920 C 434 1033 556 1090 690 1090 C 805 1090 890 1057 944 992 C 998 927 1026 837 1026 721 L 1026 0 L 856 0 L 856 723 C 856 875 788 952 653 952 C 528 952 420 895 328 782 L 328 0 L 158 0 Z M 467 -113 C 497 -105 525 -102 551 -102 C 606 -102 648 -115 677 -141 C 706 -167 721 -202 721 -244 C 723 -275 713 -308 693 -342 C 673 -376 646 -408 612 -438 L 494 -438 C 558 -374 590 -318 590 -272 C 590 -250 583 -234 571 -223 C 558 -211 540 -206 516 -207 C 504 -207 488 -208 467 -211 L 467 -113 Z" unicode="ņ" />
<glyph horiz-adv-x="1484" d="M 172 0 L 172 1434 L 348 1434 L 1145 270 L 1145 1434 L 1313 1434 L 1313 0 L 1135 0 L 340 1161 L 340 0 L 172 0 Z M 399 1782 L 518 1782 L 739 1645 L 741 1645 L 965 1782 L 1083 1782 L 825 1546 L 655 1546 L 399 1782 Z" unicode="Ň" />
<glyph horiz-adv-x="1177" d="M 158 0 L 158 1063 L 315 1063 L 326 920 C 434 1033 556 1090 690 1090 C 805 1090 890 1057 944 992 C 998 927 1026 837 1026 721 L 1026 0 L 856 0 L 856 723 C 856 875 788 952 653 952 C 528 952 420 895 328 782 L 328 0 L 158 0 Z M 248 1499 L 369 1499 L 590 1276 L 592 1276 L 813 1499 L 936 1499 L 682 1176 L 502 1176 L 248 1499 Z" unicode="ň" />
<glyph horiz-adv-x="1263" d="M 98 561 L 516 1116 L 633 1026 L 272 561 L 633 88 L 516 0 L 98 561 Z M 610 561 L 1028 1116 L 1145 1026 L 784 561 L 1145 88 L 1028 0 L 610 561 Z" unicode="" />
<glyph horiz-adv-x="1484" d="M 172 0 L 172 1434 L 348 1434 L 1145 285 L 1145 1434 L 1313 1434 L 1313 -49 C 1313 -180 1284 -276 1228 -338 C 1171 -399 1093 -430 993 -430 C 939 -430 893 -422 854 -408 L 887 -272 C 916 -280 945 -285 975 -285 C 1088 -285 1145 -209 1145 -57 L 1145 2 L 340 1161 L 340 0 L 172 0 Z" unicode="Ŋ" />
<glyph horiz-adv-x="1177" d="M 158 0 L 158 1063 L 315 1063 L 326 920 C 434 1033 556 1090 690 1090 C 805 1090 890 1057 944 992 C 998 927 1026 837 1026 721 L 1026 -51 C 1026 -181 997 -277 941 -338 C 885 -399 806 -430 705 -430 C 657 -430 610 -422 565 -408 L 600 -274 C 634 -284 662 -289 686 -289 C 799 -289 856 -211 856 -57 L 856 727 C 856 877 788 952 653 952 C 528 952 420 895 328 782 L 328 0 L 158 0 Z" unicode="ŋ" />
<glyph horiz-adv-x="1656" d="M 113 727 C 113 871 144 999 208 1111 C 271 1223 357 1308 465 1368 C 573 1428 695 1458 829 1458 C 928 1458 1022 1440 1110 1405 C 1198 1370 1274 1321 1338 1259 C 1402 1196 1452 1119 1490 1027 C 1527 935 1546 835 1546 727 C 1546 614 1527 510 1491 416 C 1454 321 1404 241 1340 177 C 1276 113 1200 63 1112 28 C 1024 -7 930 -25 829 -25 C 727 -25 633 -7 545 28 C 457 63 382 113 318 177 C 254 241 204 321 168 416 C 131 510 113 614 113 727 Z M 291 727 C 291 635 304 551 332 475 C 360 399 398 336 446 286 C 494 235 551 196 617 168 C 682 140 753 127 829 127 C 904 127 974 140 1040 168 C 1106 196 1163 235 1211 286 C 1259 336 1298 400 1326 476 C 1354 552 1368 635 1368 727 C 1368 813 1354 893 1326 966 C 1298 1039 1259 1100 1211 1150 C 1163 1199 1106 1237 1040 1265 C 974 1293 903 1307 829 1307 C 754 1307 684 1293 618 1265 C 552 1237 495 1199 447 1150 C 399 1100 361 1039 333 966 C 305 893 291 813 291 727 Z M 526 1604 L 526 1722 L 1133 1722 L 1133 1604 L 526 1604 Z" unicode="Ō" />
<glyph horiz-adv-x="1230" d="M 104 545 C 104 707 152 838 248 938 C 344 1037 467 1087 616 1087 C 764 1087 886 1037 981 938 C 1076 838 1124 707 1124 545 C 1124 371 1077 232 984 129 C 891 26 768 -25 616 -25 C 461 -25 337 26 244 129 C 150 232 104 371 104 545 Z M 276 545 C 276 413 306 307 367 229 C 428 150 511 111 616 111 C 718 111 799 150 860 229 C 921 308 952 413 952 545 C 952 666 920 764 858 838 C 796 912 715 950 616 950 C 516 950 434 912 371 838 C 307 764 276 666 276 545 Z M 313 1278 L 313 1397 L 915 1397 L 915 1278 L 313 1278 Z" unicode="ō" />
<glyph horiz-adv-x="1656" d="M 113 727 C 113 871 144 999 208 1111 C 271 1223 357 1308 465 1368 C 573 1428 695 1458 829 1458 C 928 1458 1022 1440 1110 1405 C 1198 1370 1274 1321 1338 1259 C 1402 1196 1452 1119 1490 1027 C 1527 935 1546 835 1546 727 C 1546 614 1527 510 1491 416 C 1454 321 1404 241 1340 177 C 1276 113 1200 63 1112 28 C 1024 -7 930 -25 829 -25 C 727 -25 633 -7 545 28 C 457 63 382 113 318 177 C 254 241 204 321 168 416 C 131 510 113 614 113 727 Z M 291 727 C 291 635 304 551 332 475 C 360 399 398 336 446 286 C 494 235 551 196 617 168 C 682 140 753 127 829 127 C 904 127 974 140 1040 168 C 1106 196 1163 235 1211 286 C 1259 336 1298 400 1326 476 C 1354 552 1368 635 1368 727 C 1368 813 1354 893 1326 966 C 1298 1039 1259 1100 1211 1150 C 1163 1199 1106 1237 1040 1265 C 974 1293 903 1307 829 1307 C 754 1307 684 1293 618 1265 C 552 1237 495 1199 447 1150 C 399 1100 361 1039 333 966 C 305 893 291 813 291 727 Z M 485 1782 L 608 1782 C 624 1742 650 1710 688 1687 C 726 1664 773 1653 829 1653 C 885 1653 932 1664 970 1687 C 1008 1710 1035 1742 1051 1782 L 1174 1782 C 1155 1705 1116 1645 1056 1601 C 996 1557 920 1536 829 1536 C 737 1536 662 1557 603 1601 C 544 1644 505 1704 485 1782 Z" unicode="Ŏ" />
<glyph horiz-adv-x="1230" d="M 104 545 C 104 707 152 838 248 938 C 344 1037 467 1087 616 1087 C 764 1087 886 1037 981 938 C 1076 838 1124 707 1124 545 C 1124 371 1077 232 984 129 C 891 26 768 -25 616 -25 C 461 -25 337 26 244 129 C 150 232 104 371 104 545 Z M 276 545 C 276 413 306 307 367 229 C 428 150 511 111 616 111 C 718 111 799 150 860 229 C 921 308 952 413 952 545 C 952 666 920 764 858 838 C 796 912 715 950 616 950 C 516 950 434 912 371 838 C 307 764 276 666 276 545 Z M 283 1499 L 399 1499 C 407 1431 429 1379 467 1341 C 505 1303 554 1284 614 1284 C 674 1284 723 1303 761 1341 C 799 1379 821 1432 829 1499 L 946 1499 C 939 1395 906 1314 846 1254 C 786 1194 708 1165 614 1165 C 519 1165 442 1194 384 1254 C 326 1313 292 1395 283 1499 Z" unicode="ŏ" />
<glyph horiz-adv-x="1656" d="M 113 727 C 113 871 144 999 208 1111 C 271 1223 357 1308 465 1368 C 573 1428 695 1458 829 1458 C 928 1458 1022 1440 1110 1405 C 1198 1370 1274 1321 1338 1259 C 1402 1196 1452 1119 1490 1027 C 1527 935 1546 835 1546 727 C 1546 614 1527 510 1491 416 C 1454 321 1404 241 1340 177 C 1276 113 1200 63 1112 28 C 1024 -7 930 -25 829 -25 C 727 -25 633 -7 545 28 C 457 63 382 113 318 177 C 254 241 204 321 168 416 C 131 510 113 614 113 727 Z M 291 727 C 291 635 304 551 332 475 C 360 399 398 336 446 286 C 494 235 551 196 617 168 C 682 140 753 127 829 127 C 904 127 974 140 1040 168 C 1106 196 1163 235 1211 286 C 1259 336 1298 400 1326 476 C 1354 552 1368 635 1368 727 C 1368 813 1354 893 1326 966 C 1298 1039 1259 1100 1211 1150 C 1163 1199 1106 1237 1040 1265 C 974 1293 903 1307 829 1307 C 754 1307 684 1293 618 1265 C 552 1237 495 1199 447 1150 C 399 1100 361 1039 333 966 C 305 893 291 813 291 727 Z M 582 1546 L 811 1821 L 944 1726 L 711 1546 L 582 1546 Z M 897 1546 L 1126 1821 L 1257 1726 L 1024 1546 L 897 1546 Z" unicode="Ő" />
<glyph horiz-adv-x="1230" d="M 104 545 C 104 707 152 838 248 938 C 344 1037 467 1087 616 1087 C 764 1087 886 1037 981 938 C 1076 838 1124 707 1124 545 C 1124 371 1077 232 984 129 C 891 26 768 -25 616 -25 C 461 -25 337 26 244 129 C 150 232 104 371 104 545 Z M 276 545 C 276 413 306 307 367 229 C 428 150 511 111 616 111 C 718 111 799 150 860 229 C 921 308 952 413 952 545 C 952 666 920 764 858 838 C 796 912 715 950 616 950 C 516 950 434 912 371 838 C 307 764 276 666 276 545 Z M 383 1176 L 653 1538 L 776 1452 L 496 1176 L 383 1176 Z M 707 1176 L 975 1538 L 1096 1452 L 817 1176 L 707 1176 Z" unicode="ő" />
<glyph horiz-adv-x="2486" d="M 113 729 C 113 832 131 929 167 1020 C 203 1110 253 1187 316 1251 C 378 1315 453 1365 540 1402 C 626 1439 719 1458 817 1458 C 934 1458 1040 1429 1136 1373 C 1232 1317 1306 1239 1360 1141 L 1360 1434 L 2343 1434 L 2343 1278 L 1534 1278 L 1534 803 L 2261 803 L 2261 655 L 1534 655 L 1534 156 L 2355 156 L 2355 0 L 1360 0 L 1360 293 C 1307 193 1233 115 1139 59 C 1044 3 937 -25 817 -25 C 716 -25 622 -6 536 30 C 449 67 374 118 312 184 C 250 250 201 329 166 423 C 130 517 113 619 113 729 Z M 289 729 C 289 551 339 406 439 294 C 539 182 667 127 823 127 C 979 127 1107 183 1208 295 C 1309 407 1360 551 1360 729 C 1360 811 1346 889 1318 961 C 1290 1033 1252 1094 1204 1144 C 1156 1194 1099 1234 1033 1263 C 967 1292 897 1307 823 1307 C 671 1307 544 1252 442 1143 C 340 1033 289 895 289 729 Z" unicode="Œ" />
<glyph horiz-adv-x="2007" d="M 104 545 C 104 707 152 839 249 939 C 345 1039 468 1090 618 1090 C 716 1090 802 1065 875 1016 C 948 967 1002 899 1036 811 C 1073 899 1128 967 1202 1016 C 1276 1065 1362 1090 1460 1090 C 1603 1090 1712 1046 1786 958 C 1860 870 1898 756 1898 614 C 1898 584 1895 554 1890 524 L 1126 524 C 1128 391 1158 290 1217 220 C 1276 150 1362 115 1475 115 C 1583 115 1686 148 1784 215 L 1862 100 C 1741 15 1610 -27 1468 -27 C 1360 -27 1269 -2 1197 45 C 1124 93 1070 163 1036 254 C 1000 165 946 96 874 47 C 802 -2 716 -27 618 -27 C 464 -27 339 25 245 129 C 151 233 104 371 104 545 Z M 279 545 C 279 413 309 307 369 229 C 429 150 512 111 616 111 C 718 111 799 150 860 229 C 921 308 952 413 952 545 C 952 667 921 766 859 840 C 797 914 716 952 616 952 C 516 952 434 914 372 840 C 310 765 279 667 279 545 Z M 1133 639 L 1733 639 C 1733 700 1725 754 1708 800 C 1691 846 1662 884 1621 914 C 1579 943 1527 958 1464 958 C 1377 958 1304 929 1245 873 C 1185 816 1148 738 1133 639 Z" unicode="œ" />
<glyph horiz-adv-x="1398" d="M 172 0 L 172 1434 L 772 1434 C 842 1434 906 1425 963 1409 C 1019 1393 1066 1371 1104 1344 C 1141 1317 1172 1285 1197 1248 C 1221 1211 1239 1172 1250 1132 C 1260 1092 1266 1050 1266 1006 C 1266 914 1240 832 1189 758 C 1137 684 1062 632 963 602 L 1268 0 L 1075 0 L 801 578 L 346 578 L 346 0 L 172 0 Z M 346 717 L 768 717 C 823 717 872 725 915 741 C 957 757 991 779 1016 807 C 1040 835 1059 865 1071 898 C 1083 931 1090 966 1090 1004 C 1090 1084 1063 1151 1011 1205 C 958 1259 878 1286 770 1286 L 346 1286 L 346 717 Z M 596 1546 L 825 1821 L 961 1726 L 725 1546 L 596 1546 Z" unicode="Ŕ" />
<glyph horiz-adv-x="827" d="M 158 0 L 158 1063 L 311 1063 L 326 883 C 407 1021 515 1090 649 1090 C 695 1090 740 1083 784 1069 L 752 909 C 711 924 669 932 627 932 C 508 932 408 859 328 715 L 328 0 L 158 0 Z M 371 1176 L 655 1538 L 776 1446 L 487 1176 L 371 1176 Z" unicode="ŕ" />
<glyph horiz-adv-x="1398" d="M 172 0 L 172 1434 L 772 1434 C 842 1434 906 1425 963 1409 C 1019 1393 1066 1371 1104 1344 C 1141 1317 1172 1285 1197 1248 C 1221 1211 1239 1172 1250 1132 C 1260 1092 1266 1050 1266 1006 C 1266 914 1240 832 1189 758 C 1137 684 1062 632 963 602 L 1268 0 L 1075 0 L 801 578 L 778 578 L 346 578 L 346 0 L 172 0 Z M 346 717 L 768 717 C 823 717 872 725 915 741 C 957 757 991 779 1016 807 C 1040 835 1059 865 1071 898 C 1083 931 1090 966 1090 1004 C 1090 1084 1063 1151 1011 1205 C 958 1259 878 1286 770 1286 L 346 1286 L 346 717 Z M 551 -113 C 581 -105 610 -102 637 -102 C 691 -102 732 -115 761 -141 C 790 -167 805 -202 807 -244 C 807 -275 798 -308 778 -342 C 758 -376 731 -408 698 -438 L 578 -438 C 642 -376 674 -321 674 -272 C 674 -250 667 -234 655 -223 C 642 -211 624 -206 600 -207 C 591 -207 575 -208 551 -211 L 551 -113 Z" unicode="Ŗ" />
<glyph horiz-adv-x="827" d="M 156 -113 C 186 -105 214 -102 240 -102 C 295 -102 337 -115 366 -141 C 395 -167 410 -202 410 -244 C 412 -275 402 -308 382 -342 C 362 -376 335 -408 301 -438 L 182 -438 C 246 -373 279 -318 279 -272 C 279 -250 272 -234 260 -223 C 247 -211 229 -206 205 -207 C 193 -207 177 -208 156 -211 L 156 -113 Z M 158 0 L 158 1063 L 311 1063 L 326 883 C 407 1021 515 1090 649 1090 C 695 1090 740 1083 784 1069 L 752 909 C 711 924 669 932 627 932 C 508 932 408 859 328 715 L 328 0 L 158 0 Z" unicode="ŗ" />
<glyph horiz-adv-x="1398" d="M 172 0 L 172 1434 L 772 1434 C 842 1434 906 1425 963 1409 C 1019 1393 1066 1371 1104 1344 C 1141 1317 1172 1285 1197 1248 C 1221 1211 1239 1172 1250 1132 C 1260 1092 1266 1050 1266 1006 C 1266 914 1240 832 1189 758 C 1137 684 1062 632 963 602 L 1268 0 L 1075 0 L 801 578 L 778 578 L 346 578 L 346 0 L 172 0 Z M 340 1782 L 459 1782 L 680 1645 L 682 1645 L 905 1782 L 1024 1782 L 766 1546 L 596 1546 L 340 1782 Z M 346 717 L 768 717 C 823 717 872 725 915 741 C 957 757 991 779 1016 807 C 1040 835 1059 865 1071 898 C 1083 931 1090 966 1090 1004 C 1090 1084 1063 1151 1011 1205 C 958 1259 878 1286 770 1286 L 346 1286 L 346 717 Z" unicode="Ř" />
<glyph horiz-adv-x="827" d="M 127 1499 L 248 1499 L 469 1276 L 471 1276 L 692 1499 L 815 1499 L 561 1176 L 381 1176 L 127 1499 Z M 158 0 L 158 1063 L 311 1063 L 326 883 C 407 1021 515 1090 649 1090 C 695 1090 740 1083 784 1069 L 752 909 C 711 924 669 932 627 932 C 508 932 408 859 328 715 L 328 0 L 158 0 Z" unicode="ř" />
<glyph horiz-adv-x="1261" d="M 106 123 L 193 262 C 326 174 473 131 635 131 C 744 131 827 153 885 198 C 942 242 971 301 971 375 C 971 416 961 452 942 482 C 923 512 897 537 865 555 C 832 573 795 589 753 603 C 711 617 666 629 620 641 C 574 652 527 664 481 677 C 435 690 391 707 349 727 C 307 747 269 771 237 799 C 204 827 178 863 159 909 C 140 954 131 1006 131 1065 C 131 1177 175 1271 264 1346 C 352 1420 472 1458 623 1458 C 789 1458 948 1422 1098 1350 L 1030 1206 C 899 1270 765 1303 629 1303 C 531 1303 454 1280 398 1236 C 341 1192 313 1135 313 1067 C 313 1025 322 989 341 959 C 360 929 386 904 418 886 C 450 868 488 852 530 839 C 572 825 616 813 662 802 C 708 790 755 778 801 766 C 847 753 892 736 934 716 C 976 696 1013 672 1045 644 C 1077 616 1103 579 1122 533 C 1141 487 1151 435 1151 375 C 1151 257 1106 160 1018 86 C 930 12 802 -25 635 -25 C 535 -25 438 -11 345 16 C 251 44 172 79 106 123 Z M 547 1546 L 776 1821 L 911 1726 L 676 1546 L 547 1546 Z" unicode="Ś" />
<glyph horiz-adv-x="972" d="M 80 86 L 156 209 C 260 145 370 113 487 113 C 561 113 618 127 659 155 C 700 183 721 223 721 276 C 721 304 714 328 700 349 C 686 370 667 387 643 400 C 619 413 591 425 560 435 C 528 445 495 454 461 463 C 427 471 393 481 359 491 C 325 501 292 513 261 529 C 229 545 202 563 178 584 C 154 605 135 632 121 666 C 107 699 100 737 100 780 C 100 873 135 947 207 1003 C 279 1059 371 1087 483 1087 C 605 1087 726 1059 846 1004 L 778 874 C 734 896 686 915 633 929 C 579 943 529 950 483 950 C 417 950 365 935 326 906 C 287 876 268 836 268 786 C 268 754 276 727 294 705 C 312 683 335 666 364 654 C 393 642 426 631 463 620 C 500 608 538 599 577 591 C 616 583 654 571 691 555 C 728 539 761 520 790 500 C 819 479 842 450 860 414 C 878 377 887 334 887 285 C 887 187 851 110 780 56 C 708 2 611 -25 487 -25 C 336 -25 200 12 80 86 Z M 387 1176 L 672 1538 L 793 1446 L 504 1176 L 387 1176 Z" unicode="ś" />
<glyph horiz-adv-x="1261" d="M 106 123 L 193 262 C 326 174 473 131 635 131 C 744 131 827 153 885 198 C 942 242 971 301 971 375 C 971 416 961 452 942 482 C 923 512 897 537 865 555 C 832 573 795 589 753 603 C 711 617 666 629 620 641 C 574 652 527 664 481 677 C 435 690 391 707 349 727 C 307 747 269 771 237 799 C 204 827 178 863 159 909 C 140 954 131 1006 131 1065 C 131 1177 175 1271 264 1346 C 352 1420 472 1458 623 1458 C 789 1458 948 1422 1098 1350 L 1030 1206 C 899 1270 765 1303 629 1303 C 531 1303 454 1280 398 1236 C 341 1192 313 1135 313 1067 C 313 1025 322 989 341 959 C 360 929 386 904 418 886 C 450 868 488 852 530 839 C 572 825 616 813 662 802 C 708 790 755 778 801 766 C 847 753 892 736 934 716 C 976 696 1013 672 1045 644 C 1077 616 1103 579 1122 533 C 1141 487 1151 435 1151 375 C 1151 257 1106 160 1018 86 C 930 12 802 -25 635 -25 C 535 -25 438 -11 345 16 C 251 44 172 79 106 123 Z M 291 1546 L 549 1782 L 717 1782 L 975 1546 L 856 1546 L 635 1686 L 633 1686 L 410 1546 L 291 1546 Z" unicode="Ŝ" />
<glyph horiz-adv-x="972" d="M 80 86 L 156 209 C 260 145 370 113 487 113 C 561 113 618 127 659 155 C 700 183 721 223 721 276 C 721 304 714 328 700 349 C 686 370 667 387 643 400 C 619 413 591 425 560 435 C 528 445 495 454 461 463 C 427 471 393 481 359 491 C 325 501 292 513 261 529 C 229 545 202 563 178 584 C 154 605 135 632 121 666 C 107 699 100 737 100 780 C 100 873 135 947 207 1003 C 279 1059 371 1087 483 1087 C 605 1087 726 1059 846 1004 L 778 874 C 734 896 686 915 633 929 C 579 943 529 950 483 950 C 417 950 365 935 326 906 C 287 876 268 836 268 786 C 268 754 276 727 294 705 C 312 683 335 666 364 654 C 393 642 426 631 463 620 C 500 608 538 599 577 591 C 616 583 654 571 691 555 C 728 539 761 520 790 500 C 819 479 842 450 860 414 C 878 377 887 334 887 285 C 887 187 851 110 780 56 C 708 2 611 -25 487 -25 C 336 -25 200 12 80 86 Z M 147 1176 L 401 1499 L 582 1499 L 836 1176 L 713 1176 L 492 1399 L 489 1399 L 268 1176 L 147 1176 Z" unicode="ŝ" />
<glyph horiz-adv-x="1261" d="M 106 123 L 193 262 C 326 174 473 131 635 131 C 744 131 827 153 885 198 C 942 242 971 301 971 375 C 971 416 961 452 942 482 C 923 512 897 537 865 555 C 832 573 795 589 753 603 C 711 617 666 629 620 641 C 574 652 527 664 481 677 C 435 690 391 707 349 727 C 307 747 269 771 237 799 C 204 827 178 863 159 909 C 140 954 131 1006 131 1065 C 131 1177 175 1271 264 1346 C 352 1420 472 1458 623 1458 C 789 1458 948 1422 1098 1350 L 1030 1206 C 899 1270 765 1303 629 1303 C 531 1303 454 1280 398 1236 C 341 1192 313 1135 313 1067 C 313 1025 322 989 341 959 C 360 929 386 904 418 886 C 450 868 488 852 530 839 C 572 825 616 813 662 802 C 708 790 755 778 801 766 C 847 753 892 736 934 716 C 976 696 1013 672 1045 644 C 1077 616 1103 579 1122 533 C 1141 487 1151 435 1151 375 C 1151 263 1110 170 1030 97 C 950 23 834 -16 682 -23 C 656 -187 579 -327 451 -444 L 322 -379 C 456 -269 539 -151 571 -23 C 482 -17 397 0 316 26 C 235 52 165 85 106 123 Z" unicode="Ş" />
<glyph horiz-adv-x="972" d="M 80 86 L 156 209 C 260 145 370 113 487 113 C 561 113 618 127 659 155 C 700 183 721 223 721 276 C 721 304 714 328 700 349 C 686 370 667 387 643 400 C 619 413 591 425 560 435 C 528 445 495 454 461 463 C 427 471 393 481 359 491 C 325 501 292 513 261 529 C 229 545 202 563 178 584 C 154 605 135 632 121 666 C 107 699 100 737 100 780 C 100 873 135 947 207 1003 C 279 1059 371 1087 483 1087 C 605 1087 726 1059 846 1004 L 778 874 C 734 896 686 915 633 929 C 579 943 529 950 483 950 C 417 950 365 935 326 906 C 287 876 268 836 268 786 C 268 754 276 727 294 705 C 312 683 335 666 364 654 C 393 642 426 631 463 620 C 500 608 538 599 577 591 C 616 583 654 571 691 555 C 728 539 761 520 790 500 C 819 479 842 450 860 414 C 878 377 887 334 887 285 C 887 193 855 121 792 68 C 729 14 642 -15 532 -23 C 506 -187 429 -327 301 -444 L 172 -379 C 308 -267 391 -148 422 -20 C 290 -10 176 25 80 86 Z" unicode="ş" />
<glyph horiz-adv-x="1261" d="M 106 123 L 193 262 C 326 174 473 131 635 131 C 744 131 827 153 885 198 C 942 242 971 301 971 375 C 971 416 961 452 942 482 C 923 512 897 537 865 555 C 832 573 795 589 753 603 C 711 617 666 629 620 641 C 574 652 527 664 481 677 C 435 690 391 707 349 727 C 307 747 269 771 237 799 C 204 827 178 863 159 909 C 140 954 131 1006 131 1065 C 131 1177 175 1271 264 1346 C 352 1420 472 1458 623 1458 C 789 1458 948 1422 1098 1350 L 1030 1206 C 899 1270 765 1303 629 1303 C 531 1303 454 1280 398 1236 C 341 1192 313 1135 313 1067 C 313 1025 322 989 341 959 C 360 929 386 904 418 886 C 450 868 488 852 530 839 C 572 825 616 813 662 802 C 708 790 755 778 801 766 C 847 753 892 736 934 716 C 976 696 1013 672 1045 644 C 1077 616 1103 579 1122 533 C 1141 487 1151 435 1151 375 C 1151 257 1106 160 1018 86 C 930 12 802 -25 635 -25 C 535 -25 438 -11 345 16 C 251 44 172 79 106 123 Z M 291 1782 L 410 1782 L 631 1645 L 633 1645 L 856 1782 L 975 1782 L 717 1546 L 547 1546 L 291 1782 Z" unicode="Š" />
<glyph horiz-adv-x="972" d="M 80 86 L 156 209 C 260 145 370 113 487 113 C 561 113 618 127 659 155 C 700 183 721 223 721 276 C 721 304 714 328 700 349 C 686 370 667 387 643 400 C 619 413 591 425 560 435 C 528 445 495 454 461 463 C 427 471 393 481 359 491 C 325 501 292 513 261 529 C 229 545 202 563 178 584 C 154 605 135 632 121 666 C 107 699 100 737 100 780 C 100 873 135 947 207 1003 C 279 1059 371 1087 483 1087 C 605 1087 726 1059 846 1004 L 778 874 C 734 896 686 915 633 929 C 579 943 529 950 483 950 C 417 950 365 935 326 906 C 287 876 268 836 268 786 C 268 754 276 727 294 705 C 312 683 335 666 364 654 C 393 642 426 631 463 620 C 500 608 538 599 577 591 C 616 583 654 571 691 555 C 728 539 761 520 790 500 C 819 479 842 450 860 414 C 878 377 887 334 887 285 C 887 187 851 110 780 56 C 708 2 611 -25 487 -25 C 336 -25 200 12 80 86 Z M 147 1499 L 268 1499 L 489 1276 L 492 1276 L 713 1499 L 836 1499 L 582 1176 L 401 1176 L 147 1499 Z" unicode="š" />
<glyph horiz-adv-x="1333" d="M 61 1278 L 61 1434 L 1274 1434 L 1274 1278 L 754 1278 L 754 0 L 580 0 L 580 1278 L 61 1278 Z M 379 -379 C 487 -291 562 -196 606 -94 L 725 -94 C 690 -228 618 -344 508 -444 L 379 -379 Z" unicode="Ţ" />
<glyph horiz-adv-x="800" d="M 47 932 L 47 1063 L 233 1063 L 233 1374 L 403 1374 L 403 1063 L 709 1063 L 709 932 L 403 932 L 403 285 C 403 171 449 115 543 115 C 599 115 651 132 700 166 L 766 55 C 691 1 610 -25 524 -25 C 424 -25 351 0 304 52 C 256 103 233 180 233 283 L 233 932 L 47 932 Z M 111 -379 C 219 -291 294 -196 338 -94 L 457 -94 C 422 -228 350 -344 240 -444 L 111 -379 Z" unicode="ţ" />
<glyph horiz-adv-x="1333" d="M 61 1278 L 61 1434 L 1274 1434 L 1274 1278 L 754 1278 L 754 0 L 580 0 L 580 1278 L 61 1278 Z M 326 1782 L 444 1782 L 666 1645 L 668 1645 L 891 1782 L 1010 1782 L 752 1546 L 582 1546 L 326 1782 Z" unicode="Ť" />
<glyph horiz-adv-x="800" d="M 47 932 L 47 1063 L 233 1063 L 233 1374 L 403 1374 L 403 1063 L 709 1063 L 709 932 L 403 932 L 403 285 C 403 171 449 115 543 115 C 599 115 651 132 700 166 L 766 55 C 691 1 610 -25 524 -25 C 424 -25 351 0 304 52 C 256 103 233 180 233 283 L 233 932 L 47 932 Z M 561 1389 L 561 1487 C 589 1493 617 1497 647 1497 C 701 1497 743 1484 772 1458 C 800 1432 815 1397 817 1354 C 817 1322 807 1288 787 1254 C 767 1219 741 1187 709 1159 L 588 1159 C 652 1223 684 1279 684 1327 C 684 1347 677 1363 665 1376 C 652 1388 634 1395 610 1395 C 604 1395 596 1394 584 1392 C 572 1390 564 1389 561 1389 Z" unicode="ť" />
<glyph horiz-adv-x="1333" d="M 61 1278 L 61 1434 L 1274 1434 L 1274 1278 L 754 1278 L 754 778 L 1079 778 L 1079 662 L 754 662 L 754 0 L 580 0 L 580 662 L 256 662 L 256 778 L 580 778 L 580 1278 L 61 1278 Z" unicode="Ŧ" />
<glyph horiz-adv-x="800" d="M 47 932 L 47 1063 L 233 1063 L 233 1374 L 403 1374 L 403 1063 L 709 1063 L 709 932 L 403 932 L 403 664 L 682 664 L 682 549 L 403 549 L 403 285 C 403 171 449 115 543 115 C 599 115 651 132 700 166 L 766 55 C 691 1 610 -25 524 -25 C 424 -25 351 0 304 52 C 256 103 233 180 233 283 L 233 549 L 66 549 L 66 664 L 233 664 L 233 932 L 47 932 Z" unicode="ŧ" />
<glyph horiz-adv-x="1466" d="M 166 530 L 166 1434 L 342 1434 L 342 530 C 342 403 378 304 452 233 C 525 162 619 127 733 127 C 847 127 941 162 1015 233 C 1089 304 1126 403 1126 530 L 1126 1434 L 1300 1434 L 1300 530 C 1300 440 1285 359 1256 288 C 1227 216 1187 158 1136 113 C 1084 68 1024 34 956 10 C 888 -13 813 -25 733 -25 C 652 -25 577 -13 509 10 C 441 34 381 68 330 113 C 278 158 238 216 209 288 C 180 359 166 440 166 530 Z M 428 1556 C 420 1628 431 1685 463 1727 C 494 1769 539 1790 598 1790 C 626 1790 653 1783 680 1770 C 706 1756 728 1741 746 1725 C 763 1709 782 1694 803 1681 C 823 1667 842 1661 860 1661 C 886 1661 905 1670 918 1690 C 931 1710 936 1737 932 1772 L 1038 1772 C 1046 1700 1035 1643 1003 1601 C 971 1559 926 1538 868 1538 C 840 1538 812 1544 786 1558 C 759 1571 737 1585 720 1601 C 703 1617 684 1631 663 1645 C 642 1658 622 1665 604 1665 C 579 1665 560 1655 548 1636 C 535 1617 531 1590 535 1556 L 428 1556 Z" unicode="Ũ" />
<glyph horiz-adv-x="1179" d="M 154 344 L 154 1063 L 324 1063 L 324 340 C 324 266 339 210 370 170 C 400 130 452 111 526 111 C 650 111 760 167 854 281 L 854 1063 L 1024 1063 L 1024 0 L 870 0 L 856 143 C 746 31 625 -25 492 -25 C 376 -25 290 7 236 72 C 181 137 154 228 154 344 Z M 285 1229 C 277 1301 288 1359 320 1401 C 351 1443 396 1464 455 1464 C 483 1464 510 1457 537 1444 C 563 1430 585 1415 602 1399 C 618 1383 637 1368 658 1355 C 678 1341 697 1335 715 1335 C 741 1335 760 1344 773 1364 C 785 1383 790 1410 786 1446 L 891 1446 C 899 1374 888 1316 857 1274 C 825 1231 781 1210 723 1210 C 695 1210 668 1216 642 1230 C 615 1243 593 1257 576 1273 C 559 1289 540 1303 519 1317 C 498 1330 479 1337 461 1337 C 435 1337 416 1327 404 1309 C 391 1291 387 1264 391 1229 L 285 1229 Z" unicode="ũ" />
<glyph horiz-adv-x="1466" d="M 166 530 L 166 1434 L 342 1434 L 342 530 C 342 403 378 304 452 233 C 525 162 619 127 733 127 C 847 127 941 162 1015 233 C 1089 304 1126 403 1126 530 L 1126 1434 L 1300 1434 L 1300 530 C 1300 440 1285 359 1256 288 C 1227 216 1187 158 1136 113 C 1084 68 1024 34 956 10 C 888 -13 813 -25 733 -25 C 652 -25 577 -13 509 10 C 441 34 381 68 330 113 C 278 158 238 216 209 288 C 180 359 166 440 166 530 Z M 430 1604 L 430 1722 L 1036 1722 L 1036 1604 L 430 1604 Z" unicode="Ū" />
<glyph horiz-adv-x="1179" d="M 154 344 L 154 1063 L 324 1063 L 324 340 C 324 266 339 210 370 170 C 400 130 452 111 526 111 C 650 111 760 167 854 281 L 854 1063 L 1024 1063 L 1024 0 L 870 0 L 856 143 C 746 31 625 -25 492 -25 C 376 -25 290 7 236 72 C 181 137 154 228 154 344 Z M 287 1278 L 287 1397 L 889 1397 L 889 1278 L 287 1278 Z" unicode="ū" />
<glyph horiz-adv-x="1466" d="M 166 530 L 166 1434 L 342 1434 L 342 530 C 342 403 378 304 452 233 C 525 162 619 127 733 127 C 847 127 941 162 1015 233 C 1089 304 1126 403 1126 530 L 1126 1434 L 1300 1434 L 1300 530 C 1300 440 1285 359 1256 288 C 1227 216 1187 158 1136 113 C 1084 68 1024 34 956 10 C 888 -13 813 -25 733 -25 C 652 -25 577 -13 509 10 C 441 34 381 68 330 113 C 278 158 238 216 209 288 C 180 359 166 440 166 530 Z M 387 1782 L 510 1782 C 526 1742 552 1710 590 1687 C 628 1664 675 1653 731 1653 C 787 1653 833 1664 871 1687 C 909 1710 936 1742 952 1782 L 1075 1782 C 1056 1705 1017 1645 957 1601 C 897 1557 821 1536 731 1536 C 639 1536 564 1557 505 1601 C 446 1644 407 1704 387 1782 Z" unicode="Ŭ" />
<glyph horiz-adv-x="1179" d="M 154 344 L 154 1063 L 324 1063 L 324 340 C 324 266 339 210 370 170 C 400 130 452 111 526 111 C 650 111 760 167 854 281 L 854 1063 L 1024 1063 L 1024 0 L 870 0 L 856 143 C 746 31 625 -25 492 -25 C 376 -25 290 7 236 72 C 181 137 154 228 154 344 Z M 256 1499 L 373 1499 C 381 1431 403 1379 441 1341 C 479 1303 528 1284 588 1284 C 648 1284 697 1303 735 1341 C 773 1379 795 1432 803 1499 L 920 1499 C 913 1395 880 1314 820 1254 C 760 1194 682 1165 588 1165 C 493 1165 416 1194 358 1254 C 299 1313 265 1395 256 1499 Z" unicode="ŭ" />
<glyph horiz-adv-x="1466" d="M 166 530 L 166 1434 L 342 1434 L 342 530 C 342 403 378 304 452 233 C 525 162 619 127 733 127 C 847 127 941 162 1015 233 C 1089 304 1126 403 1126 530 L 1126 1434 L 1300 1434 L 1300 530 C 1300 440 1285 359 1256 288 C 1227 216 1187 158 1136 113 C 1084 68 1024 34 956 10 C 888 -13 813 -25 733 -25 C 652 -25 577 -13 509 10 C 441 34 381 68 330 113 C 278 158 238 216 209 288 C 180 359 166 440 166 530 Z M 518 1747 C 518 1806 538 1856 580 1897 C 622 1937 673 1958 733 1958 C 793 1958 843 1937 885 1897 C 927 1856 948 1806 948 1747 C 948 1688 927 1639 885 1599 C 843 1559 793 1540 733 1540 C 673 1540 622 1559 580 1599 C 538 1639 518 1688 518 1747 Z M 600 1747 C 600 1710 613 1679 639 1653 C 665 1627 696 1614 733 1614 C 769 1614 800 1626 826 1652 C 851 1678 864 1709 864 1747 C 864 1785 851 1816 826 1842 C 801 1867 770 1880 733 1880 C 695 1880 664 1867 638 1842 C 612 1816 600 1785 600 1747 Z" unicode="Ů" />
<glyph horiz-adv-x="1179" d="M 154 344 L 154 1063 L 324 1063 L 324 340 C 324 266 339 210 370 170 C 400 130 452 111 526 111 C 650 111 760 167 854 281 L 854 1063 L 1024 1063 L 1024 0 L 870 0 L 856 143 C 746 31 625 -25 492 -25 C 376 -25 290 7 236 72 C 181 137 154 228 154 344 Z M 435 1227 C 393 1267 373 1316 373 1376 C 373 1435 393 1485 435 1525 C 477 1565 528 1585 588 1585 C 648 1585 698 1565 740 1525 C 782 1485 803 1435 803 1376 C 803 1316 782 1267 740 1227 C 698 1187 648 1167 588 1167 C 528 1167 477 1187 435 1227 Z M 455 1376 C 455 1338 468 1306 494 1280 C 520 1254 551 1241 588 1241 C 624 1241 656 1254 682 1280 C 708 1306 721 1338 721 1376 C 721 1414 708 1445 682 1471 C 656 1496 625 1509 588 1509 C 550 1509 519 1496 493 1471 C 467 1445 455 1414 455 1376 Z" unicode="ů" />
<glyph horiz-adv-x="1466" d="M 166 530 L 166 1434 L 342 1434 L 342 530 C 342 403 378 304 452 233 C 525 162 619 127 733 127 C 847 127 941 162 1015 233 C 1089 304 1126 403 1126 530 L 1126 1434 L 1300 1434 L 1300 530 C 1300 440 1285 359 1256 288 C 1227 216 1187 158 1136 113 C 1084 68 1024 34 956 10 C 888 -13 813 -25 733 -25 C 652 -25 577 -13 509 10 C 441 34 381 68 330 113 C 278 158 238 216 209 288 C 180 359 166 440 166 530 Z M 485 1546 L 715 1821 L 848 1726 L 614 1546 L 485 1546 Z M 801 1546 L 1030 1821 L 1161 1726 L 928 1546 L 801 1546 Z" unicode="Ű" />
<glyph horiz-adv-x="1179" d="M 154 344 L 154 1063 L 324 1063 L 324 340 C 324 266 339 210 370 170 C 400 130 452 111 526 111 C 650 111 760 167 854 281 L 854 1063 L 1024 1063 L 1024 0 L 870 0 L 856 143 C 746 31 625 -25 492 -25 C 376 -25 290 7 236 72 C 181 137 154 228 154 344 Z M 352 1176 L 623 1538 L 745 1452 L 465 1176 L 352 1176 Z M 676 1176 L 944 1538 L 1065 1452 L 786 1176 L 676 1176 Z" unicode="ű" />
<glyph horiz-adv-x="1466" d="M 166 530 L 166 1434 L 342 1434 L 342 530 C 342 403 378 304 452 233 C 525 162 619 127 733 127 C 847 127 941 162 1015 233 C 1089 304 1126 403 1126 530 L 1126 1434 L 1300 1434 L 1300 530 C 1300 415 1277 317 1231 235 C 1185 153 1123 91 1044 49 C 968 7 910 -32 870 -70 C 830 -108 811 -150 811 -197 C 811 -227 821 -250 841 -267 C 861 -284 889 -293 924 -293 C 962 -293 998 -283 1034 -264 L 1038 -268 L 1038 -395 C 993 -414 947 -424 901 -424 C 835 -424 781 -406 741 -371 C 700 -336 680 -289 680 -231 C 680 -157 717 -87 793 -20 C 769 -23 749 -25 733 -25 C 652 -25 577 -13 509 10 C 441 34 381 68 330 113 C 278 158 238 216 209 288 C 180 359 166 440 166 530 Z" unicode="Ų" />
<glyph horiz-adv-x="1179" d="M 154 344 L 154 1063 L 324 1063 L 324 340 C 324 266 339 210 370 170 C 400 130 452 111 526 111 C 650 111 760 167 854 281 L 854 1063 L 1024 1063 L 1024 0 C 906 -52 848 -119 848 -201 C 848 -229 857 -252 877 -268 C 896 -284 921 -293 952 -293 C 990 -293 1027 -283 1063 -264 L 1067 -268 L 1067 -395 C 1022 -414 976 -424 928 -424 C 866 -424 815 -406 776 -372 C 736 -338 717 -291 717 -233 C 717 -138 768 -60 870 2 L 856 143 C 746 31 625 -25 492 -25 C 376 -25 290 7 236 72 C 181 137 154 228 154 344 Z" unicode="ų" />
<glyph horiz-adv-x="2117" d="M 66 1434 L 252 1434 L 621 238 L 625 238 L 975 1434 L 1147 1434 L 1495 238 L 1499 238 L 1870 1434 L 2054 1434 L 1597 0 L 1405 0 L 1061 1171 L 1057 1171 L 713 0 L 520 0 L 66 1434 Z M 717 1546 L 975 1782 L 1143 1782 L 1401 1546 L 1282 1546 L 1061 1686 L 1059 1686 L 836 1546 L 717 1546 Z" unicode="Ŵ" />
<glyph horiz-adv-x="1669" d="M 45 1063 L 219 1063 L 500 211 L 504 211 L 760 1063 L 911 1063 L 1169 211 L 1174 211 L 1452 1063 L 1622 1063 L 1262 0 L 1092 0 L 836 825 L 831 825 L 578 0 L 408 0 L 45 1063 Z M 492 1176 L 745 1499 L 926 1499 L 1180 1176 L 1057 1176 L 836 1399 L 834 1399 L 612 1176 L 492 1176 Z" unicode="ŵ" />
<glyph horiz-adv-x="1370" d="M 57 1434 L 264 1434 L 684 752 L 688 752 L 1108 1434 L 1313 1434 L 772 584 L 772 0 L 598 0 L 598 584 L 57 1434 Z M 342 1546 L 600 1782 L 768 1782 L 1026 1546 L 907 1546 L 686 1686 L 684 1686 L 461 1546 L 342 1546 Z" unicode="Ŷ" />
<glyph horiz-adv-x="1040" d="M 33 -395 L 82 -258 C 134 -278 177 -289 211 -289 C 251 -289 285 -279 311 -261 C 337 -242 359 -209 377 -162 L 442 6 L 47 1063 L 223 1063 L 524 223 L 528 223 L 821 1063 L 993 1063 L 545 -174 C 509 -269 464 -335 411 -373 C 358 -411 293 -430 217 -430 C 153 -430 92 -418 33 -395 Z M 178 1176 L 432 1499 L 612 1499 L 866 1176 L 743 1176 L 522 1399 L 520 1399 L 299 1176 L 178 1176 Z" unicode="ŷ" />
<glyph horiz-adv-x="1370" d="M 57 1434 L 264 1434 L 684 752 L 688 752 L 1108 1434 L 1313 1434 L 772 584 L 772 0 L 598 0 L 598 584 L 57 1434 Z M 401 1581 L 401 1749 L 559 1749 L 559 1581 L 401 1581 Z M 815 1581 L 815 1749 L 971 1749 L 971 1581 L 815 1581 Z" unicode="Ÿ" />
<glyph horiz-adv-x="1325" d="M 115 0 L 115 145 L 973 1276 L 117 1276 L 117 1434 L 1194 1434 L 1194 1290 L 340 160 L 1217 160 L 1217 0 L 115 0 Z M 561 1546 L 791 1821 L 926 1726 L 690 1546 L 561 1546 Z" unicode="Ź" />
<glyph horiz-adv-x="1026" d="M 102 0 L 102 119 L 705 926 L 119 926 L 119 1063 L 918 1063 L 918 942 L 317 137 L 938 137 L 938 0 L 102 0 Z M 412 1176 L 696 1538 L 817 1446 L 528 1176 L 412 1176 Z" unicode="ź" />
<glyph horiz-adv-x="1325" d="M 115 0 L 115 145 L 973 1276 L 117 1276 L 117 1434 L 1194 1434 L 1194 1290 L 340 160 L 1217 160 L 1217 0 L 115 0 Z M 561 1581 L 561 1749 L 721 1749 L 721 1581 L 561 1581 Z" unicode="Ż" />
<glyph horiz-adv-x="1026" d="M 102 0 L 102 119 L 705 926 L 119 926 L 119 1063 L 918 1063 L 918 942 L 317 137 L 938 137 L 938 0 L 102 0 Z M 432 1253 L 432 1421 L 590 1421 L 590 1253 L 432 1253 Z" unicode="ż" />
<glyph horiz-adv-x="1325" d="M 115 0 L 115 145 L 973 1276 L 117 1276 L 117 1434 L 1194 1434 L 1194 1290 L 340 160 L 1217 160 L 1217 0 L 115 0 Z M 313 1782 L 432 1782 L 653 1645 L 655 1645 L 879 1782 L 997 1782 L 739 1546 L 569 1546 L 313 1782 Z" unicode="Ž" />
<glyph horiz-adv-x="1026" d="M 102 0 L 102 119 L 705 926 L 119 926 L 119 1063 L 918 1063 L 918 942 L 317 137 L 938 137 L 938 0 L 102 0 Z M 170 1499 L 291 1499 L 512 1276 L 514 1276 L 735 1499 L 858 1499 L 604 1176 L 424 1176 L 170 1499 Z" unicode="ž" />
<glyph horiz-adv-x="1230" d="M 104 545 C 104 707 152 838 248 938 C 344 1037 467 1087 616 1087 C 764 1087 886 1037 981 938 C 1076 838 1124 707 1124 545 C 1124 371 1077 232 984 129 C 891 26 768 -25 616 -25 C 461 -25 337 26 244 129 C 150 232 104 371 104 545 Z M 276 545 C 276 413 306 307 367 229 C 428 150 511 111 616 111 C 718 111 799 150 860 229 C 921 308 952 413 952 545 C 952 666 920 764 858 838 C 796 912 715 950 616 950 C 516 950 434 912 371 838 C 307 764 276 666 276 545 Z M 543 -106 L 686 -106 L 686 -416 L 543 -416 L 543 -106 Z" unicode="" />
<glyph horiz-adv-x="1193" d="M 51 1116 L 254 1116 L 596 594 L 600 594 L 942 1116 L 1145 1116 L 682 434 L 682 0 L 510 0 L 510 434 L 51 1116 Z M 500 1229 L 784 1591 L 905 1499 L 616 1229 L 500 1229 Z" unicode="" />
<glyph horiz-adv-x="2512" d="M 47 926 L 47 1055 L 236 1055 L 236 1139 C 236 1411 373 1548 649 1548 C 767 1548 879 1515 983 1450 C 1057 1522 1165 1559 1305 1559 C 1440 1559 1545 1524 1621 1456 C 1697 1388 1735 1284 1735 1145 L 1735 518 L 2212 1063 L 2404 1063 L 2089 715 L 2470 0 L 2275 0 L 1978 590 L 1735 322 L 1735 0 L 1565 0 L 1565 1145 C 1565 1330 1477 1423 1303 1423 C 1127 1423 1040 1330 1040 1145 L 1040 1055 L 1337 1055 L 1337 926 L 1040 926 L 1040 0 L 872 0 L 872 926 L 406 926 L 406 0 L 236 0 L 236 926 L 47 926 Z M 406 1055 L 872 1055 L 872 1147 C 872 1228 884 1296 909 1350 C 835 1392 752 1413 662 1413 C 576 1413 511 1391 469 1348 C 427 1305 406 1236 406 1141 L 406 1055 Z" unicode="" />
<glyph horiz-adv-x="821" d="M 53 926 C 53 958 63 987 85 1014 C 106 1041 134 1063 170 1079 C 136 1103 119 1135 119 1176 C 119 1221 143 1258 193 1288 C 119 1340 82 1411 82 1501 C 82 1579 111 1643 169 1693 C 227 1742 299 1767 385 1767 C 463 1767 530 1746 586 1706 C 613 1726 641 1740 671 1749 C 701 1758 738 1763 784 1763 L 784 1669 C 721 1669 673 1662 641 1649 C 672 1605 688 1555 688 1501 C 688 1419 658 1354 598 1305 C 538 1255 467 1231 385 1231 C 342 1231 300 1238 260 1253 C 232 1239 219 1221 219 1198 C 219 1173 236 1155 270 1145 C 304 1135 365 1128 453 1124 C 552 1118 629 1101 684 1072 C 738 1043 766 998 766 936 C 766 870 735 820 675 784 C 614 748 525 731 408 731 C 294 731 206 747 145 781 C 83 815 53 863 53 926 Z M 170 930 C 170 858 247 823 401 823 C 480 823 540 831 582 848 C 624 865 645 890 645 922 C 645 940 640 954 632 965 C 624 976 609 985 589 992 C 568 998 546 1003 522 1007 C 498 1010 464 1013 422 1016 C 359 1018 305 1025 260 1038 C 200 1012 170 976 170 930 Z M 205 1501 C 205 1449 222 1407 256 1374 C 290 1341 333 1325 385 1325 C 438 1325 482 1341 517 1374 C 551 1406 569 1449 569 1501 C 569 1551 551 1593 517 1625 C 482 1657 438 1673 385 1673 C 333 1673 290 1657 256 1625 C 222 1593 205 1551 205 1501 Z" unicode="" />
<glyph horiz-adv-x="663" d="M 55 1020 L 55 1122 L 610 1122 L 610 1020 L 55 1020 Z" unicode="" />
<glyph horiz-adv-x="1875" d="M 47 926 L 47 1055 L 236 1055 L 236 1147 C 236 1285 274 1388 351 1456 C 427 1524 533 1559 668 1559 C 804 1559 910 1524 986 1456 C 1062 1388 1100 1284 1100 1145 L 1100 518 L 1577 1063 L 1769 1063 L 1454 713 L 1833 0 L 1638 0 L 1343 590 L 1100 322 L 1100 0 L 930 0 L 930 1145 C 930 1330 842 1423 668 1423 C 493 1423 406 1330 406 1145 L 406 1055 L 700 1055 L 700 926 L 406 926 L 406 0 L 236 0 L 236 926 L 47 926 Z" unicode="" />
<glyph horiz-adv-x="1230" d="M 47 926 L 47 1055 L 236 1055 L 236 1143 C 236 1288 272 1394 346 1460 C 420 1526 526 1559 664 1559 C 806 1559 942 1518 1071 1438 L 1001 1321 C 952 1351 898 1376 840 1395 C 782 1413 726 1423 672 1423 C 582 1423 516 1401 472 1357 C 428 1313 406 1241 406 1141 L 406 1055 L 700 1055 L 700 926 L 406 926 L 406 0 L 236 0 L 236 926 L 47 926 Z M 606 -408 L 639 -274 C 675 -284 704 -289 727 -289 C 840 -289 897 -211 897 -57 L 897 1057 L 1067 1057 L 1067 -51 C 1067 -181 1038 -277 982 -338 C 925 -399 845 -430 743 -430 C 697 -430 651 -422 606 -408 Z" unicode="" />
<glyph horiz-adv-x="399" d="M -47 -686 L -25 -586 C 5 -592 27 -596 41 -596 C 77 -596 105 -584 125 -561 C 144 -537 154 -499 154 -446 L 154 313 L 274 313 L 274 -442 C 274 -532 254 -597 214 -639 C 174 -681 120 -702 51 -702 C 17 -702 -15 -696 -47 -686 Z M 154 489 L 154 627 L 274 627 L 274 489 L 154 489 Z" unicode="" />
<glyph horiz-adv-x="1204" d="M 164 -410 L 164 1063 L 313 1063 L 328 922 C 428 1032 542 1087 670 1087 C 800 1087 905 1039 983 944 C 1061 849 1100 717 1100 549 C 1100 367 1061 226 985 126 C 909 25 804 -25 672 -25 C 546 -25 433 29 332 137 L 332 -410 L 164 -410 Z M 330 1278 L 330 1397 L 932 1397 L 932 1278 L 330 1278 Z M 332 268 C 420 164 521 113 633 113 C 728 113 801 151 853 228 C 904 304 930 411 930 547 C 930 675 903 774 851 844 C 799 914 725 950 631 950 C 525 950 426 897 332 793 L 332 268 Z" unicode="" />
<glyph horiz-adv-x="837" d="M 119 709 L 541 1696 L 721 1696 L 293 709 L 719 -260 L 541 -260 L 119 709 Z" unicode="" />
<glyph horiz-adv-x="1488" d="M 125 606 C 125 643 128 687 135 737 L 1202 737 C 1201 911 1153 1049 1059 1151 C 965 1253 840 1305 686 1305 C 547 1305 420 1262 305 1178 L 213 1305 C 353 1407 511 1458 688 1458 C 897 1458 1065 1392 1191 1262 C 1317 1131 1380 955 1380 735 C 1380 501 1318 316 1196 180 C 1073 43 908 -25 702 -25 C 519 -25 377 32 276 146 C 175 260 125 413 125 606 Z M 297 616 C 292 460 326 339 399 253 C 471 166 573 123 705 123 C 843 123 954 166 1040 254 C 1126 342 1178 462 1196 616 L 297 616 Z" unicode="Ə" />
<glyph horiz-adv-x="1843" d="M 193 647 L 836 1210 L 932 1100 L 477 711 L 967 721 L 1651 721 L 1651 571 L 967 571 L 477 582 L 934 193 L 836 82 L 193 647 Z" unicode="←" />
<glyph horiz-adv-x="1843" d="M 358 694 L 922 1337 L 1485 694 L 1374 598 L 985 1053 L 995 561 L 995 -121 L 848 -121 L 848 561 L 858 1053 L 469 598 L 358 694 Z" unicode="↑" />
<glyph horiz-adv-x="776" d="M -88 -401 L -49 -285 C -15 -295 20 -301 59 -301 C 119 -301 162 -280 190 -239 C 217 -197 231 -133 231 -45 L 231 831 L 41 831 L 41 952 L 231 952 L 231 1053 C 231 1193 267 1295 339 1360 C 411 1425 509 1458 635 1458 C 693 1458 748 1449 799 1432 L 760 1313 C 725 1325 685 1331 639 1331 C 558 1331 496 1308 453 1262 C 410 1216 389 1147 389 1055 L 389 952 L 686 952 L 686 831 L 389 831 L 389 -45 C 389 -180 363 -278 312 -338 C 260 -398 181 -428 74 -428 C 16 -428 -37 -419 -88 -401 Z" unicode="ƒ" />
<glyph horiz-adv-x="1843" d="M 358 586 L 469 682 L 858 227 L 848 719 L 848 1401 L 995 1401 L 995 719 L 985 227 L 1374 682 L 1485 586 L 922 -57 L 358 586 Z" unicode="↓" />
<glyph horiz-adv-x="1759" d="M 135 573 C 135 708 168 833 234 947 C 300 1061 391 1151 505 1217 C 619 1283 743 1317 879 1317 C 980 1317 1077 1297 1169 1258 C 1261 1218 1340 1165 1406 1099 C 1472 1033 1525 954 1565 862 C 1604 770 1624 674 1624 573 C 1624 472 1604 376 1565 284 C 1525 192 1472 114 1406 48 C 1340 -18 1261 -70 1169 -109 C 1077 -148 980 -168 879 -168 C 777 -168 681 -148 589 -109 C 497 -70 418 -18 352 48 C 286 114 233 192 194 284 C 154 376 135 472 135 573 Z M 231 573 C 231 457 259 349 317 250 C 375 151 453 73 553 15 C 653 -43 761 -72 879 -72 C 996 -72 1105 -43 1205 15 C 1305 73 1384 151 1442 250 C 1500 349 1530 457 1530 573 C 1530 661 1512 745 1478 825 C 1443 905 1397 975 1339 1033 C 1281 1091 1211 1137 1131 1171 C 1051 1205 967 1223 879 1223 C 791 1223 707 1205 627 1171 C 547 1137 478 1091 420 1033 C 362 975 316 905 282 825 C 248 745 231 661 231 573 Z M 586 182 L 586 967 L 956 967 C 1007 967 1052 960 1091 946 C 1129 932 1160 914 1182 890 C 1204 866 1220 840 1231 812 C 1241 784 1247 753 1247 721 C 1247 653 1222 595 1174 548 C 1126 500 1052 477 954 477 L 717 477 L 717 182 L 586 182 Z M 717 582 L 942 582 C 1002 582 1046 595 1075 622 C 1103 648 1118 681 1118 721 C 1118 761 1103 794 1075 821 C 1047 848 1003 862 944 862 L 717 862 L 717 582 Z" unicode="" />
<glyph horiz-adv-x="2590" d="M 47 926 L 47 1055 L 236 1055 L 236 1139 C 236 1411 373 1548 649 1548 C 767 1548 879 1515 983 1450 C 1057 1522 1165 1559 1305 1559 C 1440 1559 1545 1524 1621 1456 C 1697 1388 1735 1284 1735 1145 L 1735 920 C 1843 1033 1963 1090 2095 1090 C 2210 1090 2295 1057 2350 992 C 2405 927 2433 837 2433 721 L 2433 0 L 2263 0 L 2263 723 C 2263 875 2194 952 2058 952 C 1935 952 1827 896 1735 784 L 1735 0 L 1565 0 L 1565 1145 C 1565 1330 1477 1423 1303 1423 C 1127 1423 1040 1330 1040 1145 L 1040 1055 L 1337 1055 L 1337 926 L 1040 926 L 1040 0 L 872 0 L 872 926 L 406 926 L 406 0 L 236 0 L 236 926 L 47 926 Z M 406 1055 L 872 1055 L 872 1147 C 872 1228 884 1296 909 1350 C 835 1392 752 1413 662 1413 C 576 1413 511 1391 469 1348 C 427 1305 406 1236 406 1141 L 406 1055 Z" unicode="" />
<glyph horiz-adv-x="1843" d="M 379 1184 L 1231 1128 L 1223 983 L 625 1030 L 979 690 L 1462 207 L 1356 100 L 874 586 L 535 938 L 582 340 L 436 332 L 379 1184 Z" unicode="↖" />
<glyph horiz-adv-x="1843" d="M 379 207 L 862 690 L 1217 1030 L 618 983 L 610 1128 L 1462 1184 L 1405 332 L 1260 340 L 1307 938 L 967 586 L 485 100 L 379 207 Z" unicode="↗" />
<glyph horiz-adv-x="1372" d="M 172 0 L 172 1434 L 346 1434 L 346 608 C 403 629 455 669 502 727 C 549 785 598 866 649 969 C 724 1128 805 1243 892 1313 C 978 1383 1090 1425 1227 1438 L 1229 1298 C 1130 1284 1048 1247 982 1189 C 916 1131 852 1033 788 897 L 784 889 L 1298 0 L 1094 0 L 690 721 C 643 649 593 593 540 553 C 486 513 422 481 346 457 L 346 0 L 172 0 Z" unicode="Ƙ" />
<glyph horiz-adv-x="1097" d="M 166 0 L 166 1188 C 166 1433 278 1556 504 1556 L 504 1413 C 450 1413 408 1395 379 1360 C 350 1325 336 1268 336 1188 L 336 518 L 811 1063 L 1006 1063 L 682 705 L 1055 0 L 860 0 L 567 580 L 336 322 L 336 0 L 166 0 Z" unicode="ƙ" />
<glyph horiz-adv-x="1656" d="M 113 727 C 113 871 144 999 208 1111 C 271 1223 357 1308 465 1368 C 573 1428 695 1458 829 1458 C 928 1458 1022 1440 1110 1405 C 1198 1370 1274 1321 1338 1259 C 1402 1196 1452 1119 1490 1027 C 1527 935 1546 835 1546 727 C 1546 614 1527 510 1491 416 C 1454 321 1404 241 1340 177 C 1276 113 1200 63 1112 28 C 1024 -7 930 -25 829 -25 C 727 -25 633 -7 545 28 C 457 63 382 113 318 177 C 254 241 204 321 168 416 C 131 510 113 614 113 727 Z M 293 662 C 306 497 362 367 462 271 C 561 175 683 127 829 127 C 923 127 1009 148 1087 190 C 1165 232 1228 293 1278 375 C 1327 457 1356 552 1364 662 L 293 662 Z M 293 774 L 1366 774 C 1356 934 1300 1063 1199 1161 C 1098 1258 975 1307 829 1307 C 682 1307 558 1258 458 1161 C 358 1063 303 934 293 774 Z" unicode="Ɵ" />
<glyph horiz-adv-x="663" d="M 55 1339 L 55 1438 L 610 1438 L 610 1339 L 55 1339 Z M 279 1106 L 279 1231 L 385 1231 L 385 1106 L 279 1106 Z M 279 1544 L 279 1669 L 385 1669 L 385 1544 L 279 1544 Z" unicode="" />
<glyph horiz-adv-x="1921" d="M 125 0 L 125 1116 L 285 1116 L 801 303 L 801 1116 L 971 1116 L 971 0 L 809 0 L 297 815 L 297 0 L 125 0 Z M 1232 571 C 1168 633 1137 711 1137 803 C 1137 895 1168 971 1232 1033 C 1295 1095 1374 1126 1468 1126 C 1562 1126 1640 1095 1703 1033 C 1766 971 1798 895 1798 803 C 1798 711 1766 633 1703 571 C 1640 508 1562 477 1468 477 C 1374 477 1295 508 1232 571 Z M 1272 803 C 1272 745 1291 697 1329 659 C 1367 621 1414 602 1468 602 C 1523 602 1569 620 1607 658 C 1644 696 1663 744 1663 803 C 1663 859 1643 907 1605 946 C 1567 984 1521 1004 1468 1004 C 1414 1004 1367 984 1329 946 C 1291 907 1272 859 1272 803 Z" unicode="№" />
<glyph horiz-adv-x="663" d="M 55 1020 L 55 1122 L 279 1122 L 279 1346 L 385 1346 L 385 1122 L 610 1122 L 610 1020 L 385 1020 L 385 797 L 279 797 L 279 1020 L 55 1020 Z" unicode="" />
<glyph horiz-adv-x="591" d="M 117 1024 L 117 1749 L 223 1749 L 236 1626 C 290 1721 363 1769 457 1769 C 493 1769 526 1763 555 1753 L 528 1636 C 497 1647 468 1653 442 1653 C 362 1653 294 1601 238 1499 L 238 1024 L 117 1024 Z" unicode="" />
<glyph horiz-adv-x="778" d="M 125 -410 L 125 643 L 248 643 L 248 -45 L 563 315 L 707 315 L 481 66 L 741 -410 L 602 -410 L 401 -20 L 248 -190 L 248 -410 L 125 -410 Z" unicode="" />
<glyph horiz-adv-x="1179" d="M 154 344 L 154 1063 L 324 1063 L 324 340 C 324 266 339 210 370 170 C 400 130 452 111 526 111 C 650 111 760 167 854 281 L 854 1063 L 1024 1063 L 1024 0 L 870 0 L 856 143 C 746 31 625 -25 492 -25 C 376 -25 290 7 236 72 C 181 137 154 228 154 344 Z M 287 -233 L 889 -233 L 889 -352 L 287 -352 L 287 -233 Z" unicode="" />
<glyph horiz-adv-x="696" d="M 66 1085 L 121 1178 C 193 1132 270 1110 350 1110 C 400 1110 439 1118 467 1136 C 495 1153 510 1179 510 1214 C 510 1236 502 1255 486 1271 C 470 1287 450 1299 425 1308 C 399 1317 371 1325 341 1333 C 311 1341 280 1350 250 1360 C 220 1370 192 1382 167 1397 C 141 1411 121 1432 105 1459 C 89 1485 82 1517 82 1554 C 82 1620 106 1672 156 1710 C 205 1748 268 1767 346 1767 C 432 1767 517 1747 600 1708 L 553 1612 C 483 1647 415 1665 348 1665 C 304 1665 268 1656 241 1638 C 214 1620 201 1593 201 1559 C 201 1539 207 1521 219 1507 C 231 1493 248 1482 268 1474 C 288 1466 311 1459 337 1452 C 363 1444 389 1438 416 1432 C 442 1426 469 1418 495 1407 C 521 1395 544 1382 564 1368 C 584 1354 600 1334 612 1309 C 624 1283 631 1254 631 1221 C 631 1153 605 1101 554 1063 C 503 1025 436 1006 354 1006 C 252 1006 156 1032 66 1085 Z" unicode="" />
<glyph horiz-adv-x="1298" d="M 467 -233 C 467 -168 492 -110 542 -59 C 592 -8 659 31 743 61 L 774 0 C 656 -52 598 -119 598 -201 C 598 -229 607 -252 627 -268 C 646 -284 671 -293 702 -293 C 740 -293 777 -283 813 -264 L 817 -268 L 817 -395 C 772 -414 726 -424 678 -424 C 616 -424 565 -406 526 -372 C 486 -338 467 -291 467 -233 Z" unicode="" />
<glyph horiz-adv-x="575" d="M 41 1651 L 41 1749 L 170 1749 L 170 1958 L 293 1958 L 293 1749 L 502 1749 L 502 1651 L 293 1651 L 293 1219 C 293 1147 322 1112 381 1112 C 423 1112 460 1123 494 1147 L 543 1065 C 495 1028 438 1010 373 1010 C 237 1010 170 1079 170 1217 L 170 1651 L 41 1651 Z" unicode="" />
<glyph horiz-adv-x="1280" d="M 117 315 L 229 315 L 236 225 C 306 297 385 334 473 334 C 573 334 640 294 676 215 C 755 294 842 334 936 334 C 1012 334 1069 311 1108 266 C 1147 221 1167 160 1167 82 L 1167 -410 L 1044 -410 L 1044 82 C 1044 182 1000 233 913 233 C 873 233 835 223 798 203 C 760 183 728 157 700 123 C 701 112 702 96 702 76 L 702 -410 L 582 -410 L 582 82 C 582 182 539 233 453 233 C 371 233 299 196 238 123 L 238 -410 L 117 -410 L 117 315 Z" unicode="" />
<glyph horiz-adv-x="1290" d="M 78 1274 L 78 1434 L 1165 1434 L 1165 1300 L 479 618 C 555 634 620 643 674 643 C 841 643 975 594 1077 498 C 1178 401 1229 275 1229 121 C 1229 32 1211 -47 1176 -118 C 1140 -189 1092 -247 1030 -292 C 968 -336 898 -370 818 -394 C 738 -418 651 -430 559 -430 C 383 -430 225 -396 84 -328 L 147 -193 C 277 -254 413 -285 555 -285 C 649 -285 733 -269 807 -239 C 880 -209 939 -162 983 -99 C 1027 -36 1049 38 1049 125 C 1049 249 1008 344 927 412 C 846 480 733 514 588 514 C 508 514 422 504 330 485 L 254 608 L 911 1274 L 78 1274 Z" unicode="Ʒ" />
<glyph horiz-adv-x="649" d="M 74 1200 L 252 1389 L 74 1573 L 145 1647 L 324 1460 L 502 1647 L 575 1573 L 395 1389 L 575 1200 L 502 1130 L 324 1315 L 145 1130 L 74 1200 Z" unicode="" />
<glyph horiz-adv-x="372" d="M 125 -410 L 125 643 L 248 643 L 248 -410 L 125 -410 Z" unicode="" />
<glyph horiz-adv-x="1417" d="M 61 0 L 604 1434 L 813 1434 L 1354 0 L 1165 0 L 1036 352 L 379 352 L 252 0 L 61 0 Z M 367 1782 L 485 1782 L 707 1645 L 709 1645 L 932 1782 L 1051 1782 L 793 1546 L 623 1546 L 367 1782 Z M 430 494 L 985 494 L 709 1255 L 705 1255 L 430 494 Z" unicode="Ǎ" />
<glyph horiz-adv-x="1085" d="M 100 246 C 100 297 111 343 135 384 C 159 424 190 458 230 484 C 269 510 317 533 373 551 C 429 569 486 582 546 591 C 605 599 669 605 739 608 L 739 764 C 739 820 721 864 687 897 C 653 929 601 946 532 946 C 436 946 325 913 197 848 L 131 983 C 275 1052 411 1087 537 1087 C 663 1087 756 1057 817 999 C 878 940 909 861 909 762 L 909 231 C 909 159 944 123 1016 123 L 1016 -2 C 942 -2 885 8 846 29 C 807 50 778 84 760 131 C 665 27 549 -25 412 -25 C 318 -25 243 0 186 50 C 128 100 100 165 100 246 Z M 213 1499 L 334 1499 L 555 1276 L 557 1276 L 778 1499 L 901 1499 L 647 1176 L 467 1176 L 213 1499 Z M 268 258 C 268 212 284 175 317 147 C 350 119 394 106 449 106 C 510 106 566 118 617 144 C 667 170 708 202 739 242 L 739 500 C 425 485 268 404 268 258 Z" unicode="ǎ" />
<glyph horiz-adv-x="516" d="M -82 1782 L 37 1782 L 258 1645 L 260 1645 L 483 1782 L 602 1782 L 344 1546 L 174 1546 L -82 1782 Z M 172 0 L 172 1434 L 346 1434 L 346 0 L 172 0 Z" unicode="Ǐ" />
<glyph horiz-adv-x="499" d="M -94 1499 L 27 1499 L 248 1276 L 250 1276 L 471 1499 L 594 1499 L 340 1176 L 160 1176 L -94 1499 Z M 166 0 L 166 1057 L 336 1057 L 336 0 L 166 0 Z" unicode="ǐ" />
<glyph horiz-adv-x="1656" d="M 113 727 C 113 871 144 999 208 1111 C 271 1223 357 1308 465 1368 C 573 1428 695 1458 829 1458 C 928 1458 1022 1440 1110 1405 C 1198 1370 1274 1321 1338 1259 C 1402 1196 1452 1119 1490 1027 C 1527 935 1546 835 1546 727 C 1546 614 1527 510 1491 416 C 1454 321 1404 241 1340 177 C 1276 113 1200 63 1112 28 C 1024 -7 930 -25 829 -25 C 727 -25 633 -7 545 28 C 457 63 382 113 318 177 C 254 241 204 321 168 416 C 131 510 113 614 113 727 Z M 291 727 C 291 635 304 551 332 475 C 360 399 398 336 446 286 C 494 235 551 196 617 168 C 682 140 753 127 829 127 C 904 127 974 140 1040 168 C 1106 196 1163 235 1211 286 C 1259 336 1298 400 1326 476 C 1354 552 1368 635 1368 727 C 1368 813 1354 893 1326 966 C 1298 1039 1259 1100 1211 1150 C 1163 1199 1106 1237 1040 1265 C 974 1293 903 1307 829 1307 C 754 1307 684 1293 618 1265 C 552 1237 495 1199 447 1150 C 399 1100 361 1039 333 966 C 305 893 291 813 291 727 Z M 487 1782 L 606 1782 L 827 1645 L 829 1645 L 1053 1782 L 1171 1782 L 913 1546 L 743 1546 L 487 1782 Z" unicode="Ǒ" />
<glyph horiz-adv-x="1230" d="M 104 545 C 104 707 152 838 248 938 C 344 1037 467 1087 616 1087 C 764 1087 886 1037 981 938 C 1076 838 1124 707 1124 545 C 1124 371 1077 232 984 129 C 891 26 768 -25 616 -25 C 461 -25 337 26 244 129 C 150 232 104 371 104 545 Z M 272 1499 L 393 1499 L 614 1276 L 616 1276 L 838 1499 L 961 1499 L 707 1176 L 526 1176 L 272 1499 Z M 276 545 C 276 413 306 307 367 229 C 428 150 511 111 616 111 C 718 111 799 150 860 229 C 921 308 952 413 952 545 C 952 666 920 764 858 838 C 796 912 715 950 616 950 C 516 950 434 912 371 838 C 307 764 276 666 276 545 Z" unicode="ǒ" />
<glyph horiz-adv-x="1466" d="M 166 530 L 166 1434 L 342 1434 L 342 530 C 342 403 378 304 452 233 C 525 162 619 127 733 127 C 847 127 941 162 1015 233 C 1089 304 1126 403 1126 530 L 1126 1434 L 1300 1434 L 1300 530 C 1300 440 1285 359 1256 288 C 1227 216 1187 158 1136 113 C 1084 68 1024 34 956 10 C 888 -13 813 -25 733 -25 C 652 -25 577 -13 509 10 C 441 34 381 68 330 113 C 278 158 238 216 209 288 C 180 359 166 440 166 530 Z M 391 1782 L 510 1782 L 731 1645 L 733 1645 L 956 1782 L 1075 1782 L 817 1546 L 647 1546 L 391 1782 Z" unicode="Ǔ" />
<glyph horiz-adv-x="1179" d="M 154 344 L 154 1063 L 324 1063 L 324 340 C 324 266 339 210 370 170 C 400 130 452 111 526 111 C 650 111 760 167 854 281 L 854 1063 L 1024 1063 L 1024 0 L 870 0 L 856 143 C 746 31 625 -25 492 -25 C 376 -25 290 7 236 72 C 181 137 154 228 154 344 Z M 246 1499 L 367 1499 L 588 1276 L 590 1276 L 811 1499 L 934 1499 L 680 1176 L 500 1176 L 246 1499 Z" unicode="ǔ" />
<glyph horiz-adv-x="1269" d="M 86 559 C 86 730 137 869 239 977 C 341 1085 473 1139 635 1139 C 796 1139 928 1085 1030 977 C 1132 869 1184 730 1184 559 C 1184 386 1132 245 1030 136 C 928 27 796 -27 635 -27 C 473 -27 341 27 239 136 C 137 245 86 386 86 559 Z M 262 559 C 262 429 295 322 362 240 C 428 158 519 117 635 117 C 749 117 839 158 907 240 C 974 322 1008 429 1008 559 C 1008 687 974 792 907 873 C 839 954 749 995 635 995 C 520 995 429 954 362 874 C 295 793 262 688 262 559 Z" unicode="" />
<glyph horiz-adv-x="1269" d="M 190 950 L 637 1126 L 776 1126 L 776 139 L 1135 139 L 1135 0 L 203 0 L 203 139 L 602 139 L 602 956 L 254 823 L 190 950 Z" unicode="" />
<glyph horiz-adv-x="1269" d="M 147 948 C 214 1006 293 1052 384 1087 C 474 1121 568 1139 664 1139 C 805 1139 919 1108 1006 1047 C 1093 986 1137 905 1137 803 C 1137 760 1128 721 1111 685 C 1093 649 1070 619 1040 594 C 1010 568 976 545 938 523 C 899 501 858 481 815 464 C 772 446 729 429 686 413 C 642 397 601 380 561 362 C 521 344 485 324 453 304 C 421 284 394 260 373 233 C 352 205 340 175 336 143 L 1135 143 L 1135 0 L 152 0 L 152 47 C 150 119 163 183 192 239 C 220 295 258 340 306 375 C 353 410 406 442 464 470 C 522 498 580 522 639 544 C 697 566 751 588 799 610 C 847 632 887 659 917 691 C 947 723 963 759 963 799 C 963 860 935 909 880 945 C 824 981 754 999 668 999 C 590 999 514 984 440 954 C 366 924 302 884 246 834 L 147 948 Z" unicode="" />
<glyph horiz-adv-x="1269" d="M 127 -244 L 190 -109 C 310 -169 434 -199 563 -199 C 691 -199 795 -171 877 -117 C 958 -63 999 11 999 106 C 999 190 964 253 896 295 C 828 337 741 358 637 358 L 440 358 L 440 496 L 631 496 C 724 496 799 518 857 562 C 915 606 944 671 944 756 C 944 826 913 884 852 930 C 790 976 708 999 604 999 C 538 999 470 984 401 955 C 332 925 273 887 223 840 L 127 954 C 273 1080 435 1143 612 1143 C 762 1143 883 1107 977 1037 C 1071 966 1118 876 1118 766 C 1118 684 1095 616 1050 561 C 1004 505 942 465 862 440 C 956 416 1032 375 1089 318 C 1145 260 1174 187 1174 98 C 1174 6 1146 -72 1090 -140 C 1034 -208 961 -258 870 -292 C 779 -325 677 -342 565 -342 C 409 -342 263 -309 127 -244 Z" unicode="" />
<glyph horiz-adv-x="1417" d="M 61 0 L 604 1434 L 813 1434 L 1354 0 L 1165 0 L 1036 352 L 379 352 L 252 0 L 61 0 Z M 403 1827 L 403 1946 L 1010 1946 L 1010 1827 L 403 1827 Z M 424 1556 L 424 1724 L 582 1724 L 582 1556 L 424 1556 Z M 430 494 L 985 494 L 709 1255 L 705 1255 L 430 494 Z M 838 1556 L 838 1724 L 993 1724 L 993 1556 L 838 1556 Z" unicode="Ǟ" />
<glyph horiz-adv-x="1085" d="M 100 246 C 100 297 111 343 135 384 C 159 424 190 458 230 484 C 269 510 317 533 373 551 C 429 569 486 582 546 591 C 605 599 669 605 739 608 L 739 764 C 739 820 721 864 687 897 C 653 929 601 946 532 946 C 436 946 325 913 197 848 L 131 983 C 275 1052 411 1087 537 1087 C 663 1087 756 1057 817 999 C 878 940 909 861 909 762 L 909 231 C 909 159 944 123 1016 123 L 1016 -2 C 942 -2 885 8 846 29 C 807 50 778 84 760 131 C 665 27 549 -25 412 -25 C 318 -25 243 0 186 50 C 128 100 100 165 100 246 Z M 254 1548 L 254 1667 L 856 1667 L 856 1548 L 254 1548 Z M 268 258 C 268 212 284 175 317 147 C 350 119 394 106 449 106 C 510 106 566 118 617 144 C 667 170 708 202 739 242 L 739 500 C 425 485 268 404 268 258 Z M 279 1235 L 279 1403 L 434 1403 L 434 1235 L 279 1235 Z M 678 1235 L 678 1403 L 834 1403 L 834 1235 L 678 1235 Z" unicode="ǟ" />
<glyph horiz-adv-x="1269" d="M 96 672 C 96 782 108 881 132 971 C 156 1061 188 1135 228 1195 C 268 1254 316 1304 372 1344 C 427 1384 485 1413 546 1431 C 607 1449 671 1458 739 1458 C 869 1458 991 1432 1104 1380 L 1036 1253 C 938 1294 839 1315 739 1315 C 677 1315 619 1303 565 1281 C 511 1258 463 1224 419 1178 C 375 1132 339 1071 313 994 C 287 917 272 829 270 729 C 323 781 388 823 464 856 C 540 888 618 905 698 905 C 840 905 957 863 1048 781 C 1138 698 1184 588 1184 451 C 1184 387 1172 327 1148 270 C 1124 212 1091 162 1048 118 C 1004 74 949 40 883 14 C 817 -12 744 -25 664 -25 C 566 -25 480 -6 406 30 C 332 66 272 117 228 182 C 184 246 151 320 129 402 C 107 484 96 574 96 672 Z M 270 590 C 276 496 293 414 323 345 C 352 275 396 220 454 179 C 512 137 583 117 666 117 C 772 117 857 149 920 214 C 982 278 1014 357 1014 449 C 1014 545 982 622 919 681 C 856 740 775 770 676 770 C 596 770 520 753 447 719 C 373 685 314 642 270 590 Z" unicode="" />
<glyph horiz-adv-x="1269" d="M 117 969 L 117 1116 L 1155 1116 L 1155 993 L 537 -317 L 350 -317 L 973 969 L 117 969 Z" unicode="" />
<glyph horiz-adv-x="2117" d="M 55 0 L 713 1434 L 1972 1434 L 1972 1278 L 1004 1278 L 1141 805 L 1892 805 L 1892 655 L 1184 655 L 1329 156 L 1987 156 L 1987 0 L 1186 0 L 1087 352 L 408 352 L 252 0 L 55 0 Z M 473 498 L 1047 498 L 829 1278 L 819 1278 L 473 498 Z M 709 1604 L 709 1722 L 1315 1722 L 1315 1604 L 709 1604 Z" unicode="Ǣ" />
</font>
</defs>
</svg>
