<?xml version="1.0" standalone="yes"?><svg version="1.1" xmlns = 'http://www.w3.org/2000/svg'><defs><font id='web' horiz-adv-x="1000">
<font-face font-family="web" descent="-492" cap-height="1434" units-per-em="2048" bbox="-338,-745,2589,2130" x-height="1083" ascent="1556" />
<missing-glyph horiz-adv-x="1789" d="M 188 -485 L 551 1546 L 1556 1546 L 1192 -485 L 188 -485 Z M 393 -82 L 793 543 L 612 1149 L 393 -82 Z M 395 -348 L 1057 -348 L 846 358 L 395 -348 Z M 688 1409 L 897 707 L 1346 1409 L 688 1409 Z M 950 522 L 1128 -74 L 1346 1143 L 950 522 Z" /><glyph horiz-adv-x="1085" d="M 0 0 L 0 1085 L 1085 1085 L 1085 0 L 0 0 Z" unicode="" />
<glyph horiz-adv-x="1015" d="" unicode=" " />
<glyph horiz-adv-x="2031" d="" unicode=" " />
<glyph horiz-adv-x="677" d="" unicode=" " />
<glyph horiz-adv-x="507" d="" unicode=" " />
<glyph horiz-adv-x="339" d="" unicode=" " />
<glyph horiz-adv-x="1269" d="" unicode=" " />
<glyph horiz-adv-x="487" d="" unicode=" " />
<glyph horiz-adv-x="202" d="" unicode=" " />
<glyph horiz-adv-x="102" d="" unicode=" " />
<glyph horiz-adv-x="0" d="" unicode="​" />
<glyph horiz-adv-x="1161" d="M 20 276 L 211 375 C 245 312 282 263 321 229 C 360 195 409 178 467 178 C 541 178 599 202 643 252 C 686 302 717 377 735 479 L 903 1434 L 1153 1434 L 985 477 C 956 314 897 190 808 104 C 719 18 603 -25 459 -25 C 357 -25 268 2 194 57 C 119 111 61 184 20 276 Z M 729 1800 L 881 1800 L 1053 1673 L 1057 1673 L 1272 1800 L 1448 1800 L 1155 1546 L 926 1546 L 729 1800 Z" unicode="" />
<glyph horiz-adv-x="1366" d="M 41 0 L 295 1434 L 543 1434 L 418 729 L 1133 1434 L 1423 1434 L 866 887 L 1202 0 L 948 0 L 688 713 L 358 389 L 291 0 L 41 0 Z M 229 -362 C 358 -272 451 -180 508 -86 L 690 -86 C 632 -227 538 -349 408 -451 L 229 -362 Z" unicode="" />
<glyph horiz-adv-x="1222" d="M 41 0 L 295 1434 L 543 1434 L 330 217 L 1071 217 L 1032 0 L 41 0 Z M 199 -362 C 327 -272 419 -180 477 -86 L 659 -86 C 601 -227 507 -349 377 -451 L 199 -362 Z" unicode="" />
<glyph horiz-adv-x="1726" d="M 41 0 L 295 1434 L 526 1434 L 872 764 L 1446 1434 L 1714 1434 L 1460 0 L 1223 0 L 1409 1065 L 821 393 L 467 1065 L 283 0 L 41 0 Z M 680 1593 L 709 1753 L 1341 1753 L 1315 1593 L 680 1593 Z" unicode="" />
<glyph horiz-adv-x="1726" d="M 41 0 L 295 1434 L 526 1434 L 872 764 L 1446 1434 L 1714 1434 L 1460 0 L 1223 0 L 1409 1065 L 821 393 L 467 1065 L 283 0 L 41 0 Z M 387 -362 C 516 -272 609 -180 666 -86 L 848 -86 C 790 -226 696 -348 565 -451 L 387 -362 Z" unicode="" />
<glyph horiz-adv-x="1478" d="M 41 0 L 295 1434 L 502 1434 L 1042 391 L 1227 1434 L 1466 1434 L 1212 0 L 999 0 L 465 1042 L 281 0 L 41 0 Z M 637 1718 L 817 1843 L 997 1546 L 846 1546 L 637 1718 Z" unicode="" />
<glyph horiz-adv-x="1478" d="M 41 0 L 295 1434 L 502 1434 L 1042 391 L 1227 1434 L 1466 1434 L 1212 0 L 999 0 L 465 1042 L 281 0 L 41 0 Z M 569 1569 L 606 1778 L 817 1778 L 778 1569 L 569 1569 Z M 1001 1569 L 1040 1778 L 1247 1778 L 1208 1569 L 1001 1569 Z" unicode="" />
<glyph horiz-adv-x="1232" d="M 53 440 L 90 647 L 1153 647 L 1116 440 L 53 440 Z" unicode="–" />
<glyph horiz-adv-x="1830" d="M 57 440 L 96 647 L 1743 647 L 1706 440 L 57 440 Z" unicode="—" />
<glyph horiz-adv-x="1478" d="M 41 0 L 295 1434 L 502 1434 L 1042 391 L 1227 1434 L 1466 1434 L 1141 -410 L 903 -410 L 981 35 L 465 1042 L 281 0 L 41 0 Z" unicode="" />
<glyph horiz-adv-x="1642" d="M 102 598 C 102 716 123 828 165 934 C 207 1040 264 1131 337 1208 C 410 1284 498 1345 602 1390 C 706 1435 817 1458 936 1458 C 1022 1458 1103 1444 1179 1417 C 1255 1389 1322 1350 1381 1299 C 1439 1247 1486 1182 1520 1102 C 1554 1022 1571 934 1571 836 C 1571 718 1550 606 1508 500 C 1466 394 1408 302 1335 225 C 1262 148 1174 87 1070 42 C 966 -2 855 -25 737 -25 C 651 -25 570 -11 494 16 C 418 44 350 83 292 135 C 233 186 187 251 153 331 C 119 411 102 500 102 598 Z M 356 623 C 356 485 392 378 464 302 C 536 226 632 188 754 188 C 827 188 898 203 967 235 C 1035 266 1095 309 1147 363 C 1198 417 1239 483 1270 561 C 1301 639 1317 723 1317 811 C 1317 948 1281 1055 1209 1132 C 1137 1208 1042 1247 922 1247 C 848 1247 777 1231 708 1200 C 639 1168 579 1125 527 1071 C 475 1017 434 950 403 872 C 371 794 356 711 356 623 Z M 823 1661 C 823 1731 867 1800 956 1868 L 1124 1868 C 1050 1806 1014 1757 1014 1720 C 1014 1704 1018 1692 1028 1684 C 1037 1675 1050 1671 1067 1671 C 1085 1671 1102 1673 1118 1677 L 1094 1546 C 1060 1538 1025 1534 987 1534 C 933 1534 892 1545 864 1568 C 836 1591 823 1622 823 1661 Z" unicode="" />
<glyph horiz-adv-x="466" d="M 139 860 L 170 1034 C 191 1155 222 1244 262 1302 C 302 1359 369 1406 465 1442 L 508 1343 C 456 1321 415 1294 387 1260 C 359 1226 340 1182 332 1130 L 457 1130 L 410 860 L 139 860 Z" unicode="‘" />
<glyph horiz-adv-x="466" d="M 141 948 C 193 969 233 997 261 1031 C 289 1065 308 1108 317 1161 L 193 1161 L 240 1432 L 510 1432 L 479 1257 C 465 1175 447 1109 427 1061 C 406 1012 377 971 339 937 C 301 903 249 874 184 850 L 141 948 Z" unicode="’" />
<glyph horiz-adv-x="468" d="M -63 -213 C -11 -191 29 -164 57 -130 C 85 -96 104 -52 113 0 L -12 0 L 35 270 L 305 270 L 274 96 C 252 -25 222 -114 182 -171 C 142 -228 75 -275 -20 -311 L -63 -213 Z" unicode="‚" />
<glyph horiz-adv-x="1642" d="M 102 598 C 102 716 123 828 165 934 C 207 1040 264 1131 337 1208 C 410 1284 498 1345 602 1390 C 706 1435 817 1458 936 1458 C 1022 1458 1103 1444 1179 1417 C 1255 1389 1322 1350 1381 1299 C 1439 1247 1486 1182 1520 1102 C 1554 1022 1571 934 1571 836 C 1571 718 1550 606 1508 500 C 1466 394 1408 302 1335 225 C 1262 148 1174 87 1070 42 C 966 -2 855 -25 737 -25 C 651 -25 570 -11 494 16 C 418 44 350 83 292 135 C 233 186 187 251 153 331 C 119 411 102 500 102 598 Z M 342 -362 C 471 -272 564 -180 621 -86 L 803 -86 C 745 -226 651 -348 520 -451 L 342 -362 Z M 356 623 C 356 485 392 378 464 302 C 536 226 632 188 754 188 C 827 188 898 203 967 235 C 1035 266 1095 309 1147 363 C 1198 417 1239 483 1270 561 C 1301 639 1317 723 1317 811 C 1317 948 1281 1055 1209 1132 C 1137 1208 1042 1247 922 1247 C 848 1247 777 1231 708 1200 C 639 1168 579 1125 527 1071 C 475 1017 434 950 403 872 C 371 794 356 711 356 623 Z" unicode="" />
<glyph horiz-adv-x="897" d="M 139 860 L 170 1034 C 191 1155 222 1244 262 1302 C 302 1359 369 1406 465 1442 L 508 1343 C 456 1321 415 1294 387 1260 C 359 1226 340 1182 332 1130 L 457 1130 L 410 860 L 139 860 Z M 584 860 L 614 1034 C 635 1155 666 1244 706 1302 C 746 1359 813 1406 909 1442 L 952 1343 C 900 1321 859 1294 831 1260 C 803 1226 784 1182 776 1130 L 901 1130 L 854 860 L 584 860 Z" unicode="“" />
<glyph horiz-adv-x="901" d="M 141 948 C 193 969 233 997 261 1031 C 289 1065 308 1108 317 1161 L 193 1161 L 240 1432 L 510 1432 L 479 1257 C 465 1175 447 1109 427 1061 C 406 1012 377 971 339 937 C 301 903 249 874 184 850 L 141 948 Z M 586 948 C 638 969 678 997 706 1031 C 734 1065 753 1108 762 1161 L 637 1161 L 684 1432 L 954 1432 L 924 1257 C 910 1175 892 1109 872 1061 C 851 1012 822 971 784 937 C 746 903 694 874 629 850 L 586 948 Z" unicode="”" />
<glyph horiz-adv-x="899" d="M -63 -213 C -11 -191 29 -164 57 -130 C 85 -96 104 -52 113 0 L -12 0 L 35 270 L 305 270 L 274 96 C 252 -25 222 -114 182 -171 C 142 -228 75 -275 -20 -311 L -63 -213 Z M 381 -213 C 433 -191 473 -164 501 -130 C 529 -96 548 -52 557 0 L 432 0 L 479 270 L 750 270 L 719 96 C 705 14 687 -51 667 -100 C 646 -148 617 -189 579 -223 C 541 -257 489 -286 424 -311 L 381 -213 Z" unicode="„" />
<glyph horiz-adv-x="1282" d="M 41 0 L 295 1434 L 1298 1434 L 1260 1217 L 506 1217 L 436 829 L 1112 829 L 1077 629 L 401 629 L 328 217 L 1094 217 L 1055 0 L 41 0 Z M 391 -375 L 428 -164 L 633 -164 L 598 -375 L 391 -375 Z M 545 1718 L 725 1843 L 905 1546 L 754 1546 L 545 1718 Z" unicode="" />
<glyph horiz-adv-x="495" d="" unicode=" " />
<glyph horiz-adv-x="563" d="M 37 0 L 78 240 L 344 240 L 303 0 L 37 0 Z M 182 432 L 256 1174 L 303 1434 L 549 1434 L 502 1174 L 307 432 L 182 432 Z" unicode="!" />
<glyph horiz-adv-x="845" d="M 160 987 L 240 1434 L 492 1434 L 311 958 L 160 987 Z M 584 987 L 664 1434 L 915 1434 L 735 958 L 584 987 Z" unicode="&#x22;" />
<glyph horiz-adv-x="1454" d="M 20 377 L 51 545 L 344 545 L 463 897 L 186 897 L 217 1067 L 520 1067 L 645 1434 L 838 1434 L 713 1067 L 1008 1067 L 1133 1434 L 1325 1434 L 1200 1067 L 1460 1067 L 1430 897 L 1143 897 L 1022 545 L 1290 545 L 1262 377 L 965 377 L 838 0 L 647 0 L 774 377 L 479 377 L 352 0 L 160 0 L 287 377 L 20 377 Z M 537 545 L 831 545 L 950 897 L 655 897 L 537 545 Z" unicode="#" />
<glyph horiz-adv-x="1253" d="M 29 160 L 150 315 C 260 239 376 196 500 186 L 580 635 C 546 645 518 653 496 661 C 474 668 447 678 416 691 C 384 703 359 716 339 729 C 319 741 297 758 275 778 C 252 798 234 819 221 841 C 208 863 197 889 189 920 C 180 950 176 984 176 1020 C 176 1078 188 1132 213 1183 C 237 1233 272 1278 317 1316 C 362 1354 419 1385 487 1408 C 555 1430 630 1442 713 1444 L 748 1628 L 877 1628 L 844 1436 C 966 1422 1087 1383 1208 1319 L 1098 1147 C 998 1203 897 1235 793 1245 L 717 807 C 743 799 764 793 782 787 C 800 781 821 774 846 765 C 870 755 891 746 908 738 C 925 730 944 719 965 707 C 985 694 1003 681 1017 668 C 1031 655 1045 640 1059 622 C 1073 604 1085 585 1093 565 C 1101 545 1108 523 1114 498 C 1119 472 1122 446 1122 418 C 1122 360 1110 305 1088 255 C 1065 205 1032 160 988 122 C 944 83 888 52 819 29 C 749 5 671 -7 584 -10 L 541 -252 L 416 -252 L 457 -4 C 298 10 155 65 29 160 Z M 406 1024 C 406 977 423 940 459 913 C 495 885 547 860 616 838 L 688 1247 C 606 1243 538 1219 485 1177 C 432 1135 406 1084 406 1024 Z M 606 186 C 694 192 764 216 816 259 C 867 302 893 354 893 414 C 893 439 887 462 877 482 C 867 502 851 519 830 534 C 809 549 787 562 764 572 C 741 582 713 592 680 604 L 606 186 Z" unicode="$" />
<glyph horiz-adv-x="1695" d="M 158 1073 C 158 1181 195 1272 269 1345 C 343 1417 437 1454 549 1454 C 636 1454 707 1425 762 1368 C 816 1311 844 1238 844 1149 C 844 1041 806 950 732 878 C 658 806 565 770 453 770 C 366 770 295 798 240 855 C 185 912 158 985 158 1073 Z M 162 0 L 1362 1434 L 1542 1434 L 344 0 L 162 0 Z M 326 1077 C 326 1027 338 988 363 958 C 387 928 423 913 471 913 C 527 913 576 936 616 984 C 656 1032 676 1085 676 1145 C 676 1195 663 1235 638 1265 C 613 1295 577 1311 530 1311 C 473 1311 425 1287 385 1239 C 345 1191 326 1137 326 1077 Z M 877 283 C 877 391 914 482 988 555 C 1062 627 1156 664 1268 664 C 1355 664 1426 635 1481 578 C 1535 520 1563 447 1563 358 C 1563 250 1525 160 1451 88 C 1376 16 1283 -20 1171 -20 C 1084 -20 1013 8 959 65 C 904 121 877 194 877 283 Z M 1044 287 C 1044 237 1056 198 1081 168 C 1106 138 1142 123 1190 123 C 1246 123 1295 146 1335 194 C 1375 241 1395 294 1395 354 C 1395 404 1382 444 1357 474 C 1332 504 1296 520 1249 520 C 1192 520 1144 496 1104 449 C 1064 401 1044 347 1044 287 Z" unicode="%" />
<glyph horiz-adv-x="1505" d="M 41 367 C 41 472 74 564 140 644 C 206 723 294 788 403 838 C 359 918 338 996 338 1073 C 338 1180 378 1271 459 1345 C 540 1419 644 1456 770 1456 C 923 1456 1053 1396 1161 1276 L 997 1141 C 923 1218 845 1257 762 1257 C 703 1257 656 1239 620 1203 C 584 1167 567 1123 567 1071 C 567 999 594 928 649 860 C 742 743 867 611 1024 463 C 1078 551 1114 649 1130 756 L 1352 756 C 1325 596 1266 452 1176 326 C 1291 228 1366 165 1401 137 L 1251 -16 C 1165 54 1092 116 1032 170 C 880 40 704 -25 502 -25 C 357 -25 244 11 163 85 C 81 159 41 253 41 367 Z M 264 395 C 264 326 285 272 329 234 C 372 195 439 176 530 176 C 662 176 781 218 885 303 C 740 435 613 565 504 694 C 432 660 374 617 330 566 C 286 514 264 457 264 395 Z" unicode="&#x26;" />
<glyph horiz-adv-x="438" d="M 160 987 L 240 1434 L 492 1434 L 311 958 L 160 987 Z" unicode="'" />
<glyph horiz-adv-x="804" d="M 100 365 C 100 591 145 809 237 1017 C 329 1225 459 1401 627 1546 L 909 1546 C 733 1407 594 1230 491 1015 C 387 800 336 574 336 338 C 336 61 414 -188 571 -410 L 326 -410 C 260 -315 206 -201 164 -67 C 121 66 100 210 100 365 Z" unicode="(" />
<glyph horiz-adv-x="804" d="M -121 -410 C 54 -270 194 -92 298 123 C 402 338 455 563 455 799 C 455 1075 376 1324 219 1546 L 465 1546 C 529 1450 583 1335 626 1202 C 668 1069 690 926 690 772 C 690 544 644 326 552 118 C 460 -90 330 -266 162 -410 L -121 -410 Z" unicode=")" />
<glyph horiz-adv-x="856" d="M 174 1044 L 178 1229 L 436 1190 L 440 1194 L 338 1430 L 496 1475 L 545 1223 L 549 1221 L 745 1380 L 846 1239 L 616 1133 L 616 1126 L 838 993 L 729 860 L 545 1042 L 541 1040 L 467 784 L 317 840 L 436 1077 L 432 1079 L 174 1044 Z" unicode="*" />
<glyph horiz-adv-x="1239" d="M 55 442 L 92 645 L 514 645 L 592 1085 L 811 1085 L 735 645 L 1159 645 L 1120 442 L 698 442 L 621 0 L 399 0 L 477 442 L 55 442 Z" unicode="+" />
<glyph horiz-adv-x="471" d="M -63 -213 C -11 -191 29 -164 57 -130 C 85 -96 104 -52 113 0 L -12 0 L 35 270 L 305 270 L 274 96 C 252 -25 222 -114 182 -171 C 142 -228 75 -275 -20 -311 L -63 -213 Z" unicode="," />
<glyph horiz-adv-x="780" d="M 49 440 L 86 647 L 705 647 L 668 440 L 49 440 Z" unicode="-" />
<glyph horiz-adv-x="468" d="M -12 0 L 35 270 L 305 270 L 258 0 L -12 0 Z" unicode="." />
<glyph horiz-adv-x="1073" d="M -209 -410 L 1018 1546 L 1260 1546 C 1133 1346 932 1027 658 590 C 384 152 174 -180 29 -410 L -209 -410 Z" unicode="/" />
<glyph horiz-adv-x="1269" d="M 47 588 C 47 757 77 908 138 1041 C 199 1173 283 1276 390 1349 C 497 1421 618 1458 752 1458 C 901 1458 1022 1404 1114 1296 C 1206 1188 1253 1038 1253 846 C 1253 719 1235 601 1200 493 C 1164 384 1115 292 1053 216 C 991 140 916 81 830 39 C 743 -3 649 -25 549 -25 C 399 -25 278 29 186 137 C 93 245 47 396 47 588 Z M 295 610 C 295 478 317 374 363 298 C 408 222 479 184 575 184 C 655 184 729 212 795 270 C 861 328 913 405 950 503 C 987 600 1006 707 1006 823 C 1006 955 983 1059 937 1135 C 891 1211 821 1249 725 1249 C 644 1249 570 1220 504 1162 C 438 1104 386 1027 350 930 C 313 832 295 726 295 610 Z" unicode="0" />
<glyph horiz-adv-x="1269" d="M 76 0 L 106 193 L 500 193 L 674 1178 L 334 1030 L 246 1212 L 754 1434 L 967 1434 L 748 193 L 1085 193 L 1051 0 L 76 0 Z" unicode="1" />
<glyph horiz-adv-x="1269" d="M 43 0 L 57 113 C 66 188 84 257 111 319 C 138 381 171 434 209 477 C 247 519 289 558 335 593 C 381 627 429 657 478 682 C 527 706 576 729 624 751 C 672 773 718 794 761 815 C 803 836 841 858 874 881 C 907 904 933 931 952 963 C 971 995 981 1030 981 1069 C 981 1125 961 1170 923 1203 C 885 1236 825 1253 743 1253 C 624 1253 497 1197 362 1085 L 215 1245 C 383 1387 568 1458 770 1458 C 910 1458 1022 1421 1105 1349 C 1187 1277 1229 1185 1229 1075 C 1229 1019 1219 969 1201 923 C 1182 877 1156 837 1124 805 C 1092 772 1055 742 1013 714 C 971 686 926 661 878 639 C 830 617 783 595 735 574 C 687 552 640 529 594 505 C 548 481 506 455 468 428 C 430 400 398 367 371 329 C 343 291 325 249 315 203 L 1071 203 L 1034 0 L 43 0 Z" unicode="2" />
<glyph horiz-adv-x="1269" d="M 41 104 L 158 272 C 270 205 387 172 508 172 C 622 172 715 198 789 252 C 862 305 899 375 899 463 C 899 585 811 647 637 647 L 430 647 L 461 836 L 657 836 C 752 836 826 857 878 901 C 930 944 956 1002 956 1075 C 956 1135 935 1182 894 1215 C 852 1247 791 1264 711 1264 C 602 1264 476 1214 332 1114 L 223 1278 C 382 1399 558 1460 752 1460 C 887 1460 997 1425 1081 1356 C 1165 1286 1208 1198 1208 1092 C 1208 926 1118 809 940 743 C 1079 692 1149 593 1149 446 C 1149 374 1131 307 1096 247 C 1060 187 1013 137 953 97 C 893 57 823 27 744 5 C 665 -16 582 -27 494 -27 C 318 -27 167 16 41 104 Z" unicode="3" />
<glyph horiz-adv-x="1269" d="M 29 481 L 915 1434 L 1178 1434 L 1012 489 L 1214 489 L 1182 299 L 979 299 L 926 0 L 688 0 L 741 299 L 82 299 L 29 481 Z M 291 489 L 774 489 L 899 1159 L 291 489 Z" unicode="4" />
<glyph horiz-adv-x="1269" d="M 39 100 L 152 272 C 260 206 376 174 500 174 C 607 174 698 206 772 270 C 846 334 883 414 883 508 C 883 580 863 634 825 671 C 787 708 726 727 643 727 C 565 727 468 706 350 664 L 229 748 L 375 1434 L 1212 1434 L 1180 1241 L 559 1241 L 481 862 C 567 899 653 918 737 918 C 849 918 943 881 1019 808 C 1095 735 1133 640 1133 524 C 1133 441 1115 365 1081 295 C 1047 225 1000 166 942 119 C 884 72 816 36 738 10 C 660 -16 578 -29 492 -29 C 329 -29 178 14 39 100 Z" unicode="5" />
<glyph horiz-adv-x="1269" d="M 90 557 C 90 687 110 808 150 920 C 190 1032 244 1128 313 1206 C 381 1284 463 1346 558 1391 C 653 1435 754 1458 862 1458 C 1000 1458 1125 1425 1239 1360 L 1126 1194 C 1040 1239 948 1262 852 1262 C 780 1262 710 1242 642 1204 C 574 1165 514 1108 463 1034 C 412 960 380 876 367 784 C 494 878 626 926 762 926 C 885 926 983 889 1056 816 C 1128 743 1165 646 1165 526 C 1165 450 1150 379 1122 313 C 1094 246 1054 188 1003 138 C 951 88 888 48 812 19 C 736 -10 653 -25 563 -25 C 459 -25 371 0 299 51 C 227 102 174 171 140 257 C 106 343 90 443 90 557 Z M 340 498 C 340 401 361 322 405 262 C 449 202 513 172 598 172 C 665 172 724 188 774 222 C 824 256 862 298 886 349 C 910 400 922 455 922 514 C 922 586 902 642 863 682 C 824 722 769 743 698 743 C 578 743 460 691 344 588 C 341 571 340 541 340 498 Z" unicode="6" />
<glyph horiz-adv-x="1269" d="M 211 0 L 987 1231 L 246 1231 L 281 1434 L 1282 1434 L 1253 1257 L 485 0 L 211 0 Z" unicode="7" />
<glyph horiz-adv-x="1269" d="M 8 338 C 8 391 18 441 39 487 C 59 533 88 574 125 608 C 161 642 202 671 248 696 C 294 720 343 740 397 756 C 259 818 190 914 190 1042 C 190 1166 244 1267 352 1343 C 460 1419 600 1458 770 1458 C 902 1458 1011 1426 1096 1362 C 1180 1298 1223 1214 1223 1110 C 1223 1020 1194 942 1137 877 C 1079 811 1003 763 907 733 C 986 704 1049 663 1095 611 C 1141 558 1165 492 1165 414 C 1165 324 1137 246 1082 180 C 1027 113 951 62 853 27 C 755 -7 643 -25 516 -25 C 362 -25 238 8 146 74 C 54 140 8 228 8 338 Z M 260 360 C 260 298 285 250 335 216 C 385 181 457 164 551 164 C 656 164 743 187 812 233 C 880 279 915 340 915 416 C 915 480 890 531 841 570 C 792 609 723 635 635 647 C 529 635 440 602 368 550 C 296 497 260 434 260 360 Z M 434 1034 C 434 980 454 936 494 900 C 534 864 592 842 666 834 C 759 842 834 871 892 919 C 950 967 979 1025 979 1092 C 979 1148 958 1191 918 1223 C 878 1254 819 1270 741 1270 C 656 1270 584 1247 524 1201 C 464 1155 434 1100 434 1034 Z" unicode="8" />
<glyph horiz-adv-x="1269" d="M 55 96 L 180 256 C 258 201 350 174 457 174 C 509 174 562 185 616 208 C 669 230 718 262 763 302 C 807 342 846 393 878 453 C 910 513 932 579 942 649 C 815 555 683 508 547 508 C 423 508 325 544 252 617 C 179 689 143 786 143 907 C 143 982 156 1053 184 1120 C 211 1186 249 1245 299 1295 C 348 1345 409 1384 483 1414 C 556 1443 636 1458 723 1458 C 831 1458 923 1432 999 1382 C 1074 1331 1129 1263 1165 1177 C 1201 1091 1219 991 1219 877 C 1219 747 1199 625 1159 513 C 1119 400 1065 304 997 226 C 928 148 846 86 752 42 C 657 -2 556 -25 449 -25 C 305 -25 173 15 55 96 Z M 387 920 C 387 848 406 791 445 751 C 484 710 539 690 610 690 C 730 690 848 742 965 846 C 967 862 969 892 969 936 C 969 1032 947 1111 903 1171 C 859 1231 795 1262 711 1262 C 643 1262 584 1245 534 1211 C 484 1177 447 1135 423 1084 C 399 1033 387 978 387 920 Z" unicode="9" />
<glyph horiz-adv-x="468" d="M -12 0 L 35 270 L 305 270 L 258 0 L -12 0 Z M 131 815 L 178 1085 L 449 1085 L 401 815 L 131 815 Z" unicode=":" />
<glyph horiz-adv-x="468" d="M -63 -213 C -11 -191 29 -164 57 -130 C 85 -96 104 -52 113 0 L -12 0 L 35 270 L 305 270 L 274 96 C 252 -25 222 -114 182 -171 C 142 -228 75 -275 -20 -311 L -63 -213 Z M 131 815 L 178 1085 L 449 1085 L 401 815 L 131 815 Z" unicode=";" />
<glyph horiz-adv-x="1249" d="M 45 436 L 84 651 L 1219 1085 L 1176 836 L 346 537 L 1071 231 L 1028 0 L 45 436 Z" unicode="&#x3C;" />
<glyph horiz-adv-x="1239" d="M 12 193 L 49 395 L 1116 395 L 1077 193 L 12 193 Z M 100 690 L 137 893 L 1204 893 L 1165 690 L 100 690 Z" unicode="=" />
<glyph horiz-adv-x="1249" d="M 4 0 L 49 248 L 883 555 L 156 852 L 195 1085 L 1180 649 L 1143 434 L 4 0 Z" unicode="&#x3E;" />
<glyph horiz-adv-x="1095" d="M 156 1255 C 302 1390 465 1458 645 1458 C 724 1458 797 1444 863 1417 C 929 1390 984 1349 1026 1293 C 1068 1237 1090 1172 1090 1098 C 1090 1048 1080 1003 1061 962 C 1042 920 1017 885 986 856 C 954 826 920 799 882 773 C 844 747 806 723 767 701 C 727 678 691 655 658 633 C 624 611 596 585 572 557 C 548 528 534 497 528 465 L 522 432 L 336 432 C 336 452 338 472 342 492 C 350 539 365 582 388 622 C 411 662 437 695 467 723 C 497 750 529 775 563 799 C 597 823 630 845 662 865 C 694 885 724 906 750 926 C 776 946 798 968 814 994 C 830 1020 838 1047 838 1077 C 838 1131 818 1174 778 1206 C 738 1238 688 1255 629 1255 C 519 1255 406 1205 291 1106 L 156 1255 Z M 221 0 L 260 240 L 526 240 L 487 0 L 221 0 Z" unicode="?" />
<glyph horiz-adv-x="1710" d="M 133 578 C 133 678 152 774 191 866 C 230 958 283 1037 349 1103 C 415 1169 493 1222 585 1262 C 677 1301 773 1321 874 1321 C 972 1321 1065 1304 1152 1270 C 1238 1236 1313 1190 1375 1131 C 1437 1072 1485 1001 1521 918 C 1557 835 1575 746 1575 651 C 1575 574 1562 504 1538 441 C 1513 378 1481 327 1441 289 C 1401 250 1357 220 1310 199 C 1262 178 1215 168 1167 168 C 1107 168 1058 181 1020 207 C 982 233 958 267 946 309 C 918 275 885 248 846 228 C 807 207 765 197 721 197 C 650 197 591 221 544 271 C 496 321 473 389 473 475 C 473 520 478 566 490 612 C 501 658 518 702 541 745 C 564 787 591 825 623 859 C 655 892 693 919 738 939 C 782 959 830 969 881 969 C 959 969 1021 938 1065 877 L 1098 948 L 1247 948 L 1108 461 C 1091 403 1091 360 1107 331 C 1123 301 1152 287 1196 287 C 1264 287 1324 319 1376 385 C 1428 451 1454 539 1454 651 C 1454 810 1399 941 1291 1045 C 1182 1148 1044 1200 877 1200 C 765 1200 661 1172 566 1116 C 470 1060 395 985 339 889 C 283 793 256 690 256 578 C 256 466 283 363 339 268 C 395 172 470 97 566 42 C 661 -13 765 -41 877 -41 C 1003 -41 1118 -5 1223 66 L 1292 -35 C 1165 -121 1026 -164 874 -164 C 739 -164 615 -130 501 -64 C 387 1 298 91 232 205 C 166 319 133 443 133 578 Z M 649 485 C 649 437 659 401 680 375 C 700 349 729 336 766 336 C 806 336 842 350 875 379 C 907 407 932 450 948 506 L 1026 772 C 990 807 947 825 895 825 C 846 825 802 806 764 769 C 725 731 696 687 677 636 C 658 585 649 535 649 485 Z" unicode="@" />
<glyph horiz-adv-x="1423" d="M -66 0 L 705 1434 L 999 1434 L 1260 0 L 1008 0 L 956 309 L 367 309 L 209 0 L -66 0 Z M 469 508 L 926 508 L 817 1176 L 813 1176 L 469 508 Z" unicode="A" />
<glyph horiz-adv-x="1357" d="M 41 0 L 295 1434 L 858 1434 C 995 1434 1102 1400 1178 1334 C 1254 1268 1292 1183 1292 1079 C 1292 913 1200 798 1018 733 C 1161 682 1233 584 1233 438 C 1233 300 1182 192 1082 115 C 982 38 837 0 647 0 L 41 0 Z M 324 205 L 676 205 C 771 205 846 226 901 270 C 955 313 983 373 983 449 C 983 508 963 553 924 584 C 884 615 830 631 760 631 L 401 631 L 324 205 Z M 434 825 L 752 825 C 842 825 911 847 961 893 C 1011 938 1036 994 1036 1061 C 1036 1173 963 1229 817 1229 L 506 1229 L 434 825 Z" unicode="B" />
<glyph horiz-adv-x="1427" d="M 96 612 C 96 768 132 910 204 1039 C 276 1167 376 1269 506 1345 C 636 1420 781 1458 942 1458 C 1130 1458 1289 1397 1417 1276 L 1270 1116 C 1176 1202 1061 1245 926 1245 C 850 1245 776 1229 706 1197 C 636 1165 574 1121 522 1067 C 470 1012 428 946 397 869 C 365 791 350 710 350 625 C 350 489 387 382 461 304 C 535 226 632 188 752 188 C 824 188 890 202 952 231 C 1014 260 1075 302 1137 356 L 1276 182 C 1195 115 1110 64 1022 28 C 933 -7 833 -25 723 -25 C 606 -25 500 0 406 50 C 312 100 236 173 180 271 C 124 369 96 482 96 612 Z" unicode="C" />
<glyph horiz-adv-x="1458" d="M 41 0 L 295 1434 L 729 1434 C 935 1434 1097 1381 1216 1276 C 1335 1171 1395 1023 1395 831 C 1395 737 1383 649 1360 567 C 1337 485 1301 409 1253 339 C 1205 269 1146 209 1076 159 C 1006 109 921 70 822 42 C 723 14 614 0 494 0 L 41 0 Z M 326 207 L 528 207 C 624 207 710 222 788 254 C 866 285 930 328 981 383 C 1031 438 1070 502 1098 576 C 1125 650 1139 729 1139 815 C 1139 953 1104 1057 1035 1125 C 965 1193 859 1227 717 1227 L 506 1227 L 326 207 Z" unicode="D" />
<glyph horiz-adv-x="1282" d="M 41 0 L 295 1434 L 1298 1434 L 1260 1217 L 506 1217 L 436 829 L 1112 829 L 1077 629 L 401 629 L 328 217 L 1094 217 L 1055 0 L 41 0 Z" unicode="E" />
<glyph horiz-adv-x="1253" d="M 41 0 L 295 1434 L 1280 1434 L 1241 1217 L 506 1217 L 432 813 L 1071 813 L 1030 604 L 397 604 L 291 0 L 41 0 Z" unicode="F" />
<glyph horiz-adv-x="1474" d="M 96 608 C 96 766 131 909 203 1038 C 274 1167 375 1269 506 1345 C 636 1420 784 1458 950 1458 C 1041 1458 1130 1442 1216 1412 C 1302 1381 1375 1340 1436 1290 L 1290 1128 C 1192 1206 1074 1245 936 1245 C 857 1245 782 1229 710 1197 C 638 1165 575 1122 523 1068 C 470 1014 428 948 397 870 C 365 792 350 709 350 621 C 350 487 386 382 459 304 C 532 226 629 188 750 188 C 860 188 958 214 1042 268 L 1100 598 L 750 598 L 782 780 L 1364 780 L 1247 131 C 1089 27 913 -25 721 -25 C 602 -25 495 0 401 52 C 306 104 231 178 177 275 C 123 371 96 482 96 608 Z" unicode="G" />
<glyph horiz-adv-x="1425" d="M 41 0 L 295 1434 L 543 1434 L 438 836 L 1059 836 L 1165 1434 L 1413 1434 L 1161 0 L 911 0 L 1022 621 L 401 621 L 291 0 L 41 0 Z" unicode="H" />
<glyph horiz-adv-x="555" d="M 41 0 L 295 1434 L 543 1434 L 291 0 L 41 0 Z" unicode="I" />
<glyph horiz-adv-x="1161" d="M 20 276 L 211 375 C 245 312 282 263 321 229 C 360 195 409 178 467 178 C 541 178 599 202 643 252 C 686 302 717 377 735 479 L 903 1434 L 1153 1434 L 985 477 C 956 314 897 190 808 104 C 719 18 603 -25 459 -25 C 357 -25 268 2 194 57 C 119 111 61 184 20 276 Z" unicode="J" />
<glyph horiz-adv-x="1366" d="M 41 0 L 295 1434 L 543 1434 L 418 729 L 1133 1434 L 1423 1434 L 866 887 L 1202 0 L 948 0 L 688 713 L 358 389 L 291 0 L 41 0 Z" unicode="K" />
<glyph horiz-adv-x="1222" d="M 41 0 L 295 1434 L 543 1434 L 330 217 L 1071 217 L 1032 0 L 41 0 Z" unicode="L" />
<glyph horiz-adv-x="1726" d="M 41 0 L 295 1434 L 526 1434 L 872 764 L 1446 1434 L 1714 1434 L 1460 0 L 1223 0 L 1409 1065 L 821 393 L 467 1065 L 283 0 L 41 0 Z" unicode="M" />
<glyph horiz-adv-x="1478" d="M 41 0 L 295 1434 L 502 1434 L 1042 391 L 1227 1434 L 1466 1434 L 1212 0 L 999 0 L 465 1042 L 281 0 L 41 0 Z" unicode="N" />
<glyph horiz-adv-x="1642" d="M 102 598 C 102 716 123 828 165 934 C 207 1040 264 1131 337 1208 C 410 1284 498 1345 602 1390 C 706 1435 817 1458 936 1458 C 1022 1458 1103 1444 1179 1417 C 1255 1389 1322 1350 1381 1299 C 1439 1247 1486 1182 1520 1102 C 1554 1022 1571 934 1571 836 C 1571 718 1550 606 1508 500 C 1466 394 1408 302 1335 225 C 1262 148 1174 87 1070 42 C 966 -2 855 -25 737 -25 C 651 -25 570 -11 494 16 C 418 44 350 83 292 135 C 233 186 187 251 153 331 C 119 411 102 500 102 598 Z M 356 623 C 356 485 392 378 464 302 C 536 226 632 188 754 188 C 827 188 898 203 967 235 C 1035 266 1095 309 1147 363 C 1198 417 1239 483 1270 561 C 1301 639 1317 723 1317 811 C 1317 948 1281 1055 1209 1132 C 1137 1208 1042 1247 922 1247 C 848 1247 777 1231 708 1200 C 639 1168 579 1125 527 1071 C 475 1017 434 950 403 872 C 371 794 356 711 356 623 Z" unicode="O" />
<glyph horiz-adv-x="1343" d="M 41 0 L 295 1434 L 858 1434 C 933 1434 1000 1423 1060 1402 C 1120 1381 1168 1352 1205 1316 C 1242 1280 1270 1238 1290 1191 C 1309 1143 1319 1092 1319 1038 C 1319 987 1313 939 1301 893 C 1289 847 1268 803 1238 760 C 1208 716 1171 679 1127 648 C 1082 617 1025 592 955 573 C 885 554 807 545 719 545 L 387 545 L 291 0 L 41 0 Z M 424 745 L 748 745 C 798 745 844 753 886 769 C 927 785 961 807 987 835 C 1013 862 1032 892 1046 926 C 1060 960 1067 995 1067 1032 C 1067 1163 990 1229 836 1229 L 508 1229 L 424 745 Z" unicode="P" />
<glyph horiz-adv-x="1642" d="M 102 598 C 102 716 123 828 165 934 C 207 1040 264 1131 337 1208 C 410 1284 498 1345 602 1390 C 706 1435 817 1458 936 1458 C 1022 1458 1103 1444 1179 1417 C 1255 1389 1322 1350 1381 1299 C 1439 1247 1486 1182 1520 1102 C 1554 1022 1571 934 1571 836 C 1571 722 1551 614 1513 513 C 1475 411 1421 322 1352 244 L 1505 78 L 1368 -41 L 1219 125 C 1077 25 917 -25 737 -25 C 651 -25 570 -11 494 16 C 418 44 350 83 292 135 C 233 186 187 251 153 331 C 119 411 102 500 102 598 Z M 356 623 C 356 485 392 378 464 302 C 536 226 632 188 754 188 C 871 188 977 224 1073 297 L 858 526 L 993 643 L 1192 420 C 1275 531 1317 661 1317 811 C 1317 948 1281 1055 1209 1132 C 1137 1208 1042 1247 922 1247 C 848 1247 777 1231 708 1200 C 639 1168 579 1125 527 1071 C 475 1017 434 950 403 872 C 371 794 356 711 356 623 Z" unicode="Q" />
<glyph horiz-adv-x="1398" d="M 41 0 L 295 1434 L 891 1434 C 1034 1434 1147 1397 1230 1323 C 1312 1249 1354 1155 1354 1042 C 1354 931 1323 835 1261 755 C 1199 674 1111 617 995 584 L 1167 0 L 922 0 L 778 553 L 756 553 L 389 553 L 291 0 L 41 0 Z M 424 745 L 782 745 C 880 745 957 773 1014 831 C 1071 889 1100 956 1100 1032 C 1100 1163 1022 1229 868 1229 L 508 1229 L 424 745 Z" unicode="R" />
<glyph horiz-adv-x="1261" d="M 25 152 L 162 334 C 296 241 429 195 561 195 C 657 195 733 215 788 257 C 842 298 870 350 870 412 C 870 437 865 459 856 478 C 847 497 836 513 824 525 C 811 537 791 550 764 562 C 736 574 712 583 690 590 C 668 597 636 607 594 619 C 591 619 589 620 587 621 C 585 621 582 622 580 623 C 577 623 575 624 573 625 C 529 637 492 649 460 661 C 428 673 393 689 356 711 C 318 732 288 755 265 781 C 241 806 222 838 206 877 C 190 915 182 958 182 1006 C 182 1136 233 1243 335 1329 C 437 1415 576 1458 750 1458 C 919 1458 1078 1414 1227 1327 L 1110 1141 C 986 1207 860 1241 733 1241 C 649 1241 580 1220 526 1179 C 471 1137 444 1086 444 1026 C 444 1002 448 981 458 963 C 468 945 478 930 488 919 C 498 907 518 895 548 883 C 578 871 601 862 618 857 C 634 851 665 842 711 829 C 719 826 726 824 731 823 C 763 813 790 805 812 798 C 834 790 860 780 890 767 C 920 754 946 741 966 728 C 986 715 1008 699 1030 679 C 1052 659 1070 637 1084 614 C 1097 591 1108 564 1117 533 C 1125 502 1130 468 1130 432 C 1130 367 1117 307 1093 253 C 1068 198 1032 150 984 108 C 936 66 873 34 797 10 C 721 -13 634 -25 537 -25 C 439 -25 346 -8 258 25 C 170 58 92 100 25 152 Z" unicode="S" />
<glyph horiz-adv-x="1329" d="M 160 1214 L 197 1434 L 1413 1434 L 1374 1214 L 893 1214 L 680 0 L 430 0 L 645 1214 L 160 1214 Z" unicode="T" />
<glyph horiz-adv-x="1456" d="M 123 422 C 123 472 127 525 137 580 L 291 1434 L 541 1434 L 383 563 C 375 522 371 478 371 432 C 371 352 396 291 446 249 C 496 207 565 186 651 186 C 747 186 831 217 903 279 C 975 341 1021 432 1042 553 L 1196 1434 L 1444 1434 L 1288 539 C 1257 357 1181 218 1060 121 C 939 23 789 -25 610 -25 C 464 -25 346 14 257 93 C 167 171 123 281 123 422 Z" unicode="U" />
<glyph horiz-adv-x="1417" d="M 190 1434 L 440 1434 L 633 285 L 637 285 L 1233 1434 L 1509 1434 L 741 0 L 453 0 L 190 1434 Z" unicode="V" />
<glyph horiz-adv-x="2107" d="M 195 1434 L 442 1434 L 573 350 L 578 350 L 1063 1434 L 1294 1434 L 1411 350 L 1415 350 L 1931 1434 L 2198 1434 L 1501 0 L 1233 0 L 1122 1047 L 1118 1047 L 647 0 L 381 0 L 195 1434 Z" unicode="W" />
<glyph horiz-adv-x="1433" d="M -45 0 L 586 739 L 240 1434 L 512 1434 L 760 924 L 1178 1434 L 1493 1434 L 889 721 L 1247 0 L 977 0 L 719 541 L 270 0 L -45 0 Z" unicode="X" />
<glyph horiz-adv-x="1390" d="M 184 1434 L 453 1434 L 717 821 L 721 821 L 1194 1434 L 1491 1434 L 809 575 L 709 0 L 459 0 L 561 580 L 184 1434 Z" unicode="Y" />
<glyph horiz-adv-x="1308" d="M -8 0 L 25 193 L 956 1212 L 207 1212 L 246 1434 L 1335 1434 L 1300 1243 L 373 223 L 1145 223 L 1106 0 L -8 0 Z" unicode="Z" />
<glyph horiz-adv-x="845" d="M -16 -410 L 326 1546 L 883 1546 L 852 1370 L 537 1370 L 254 -233 L 569 -233 L 537 -410 L -16 -410 Z" unicode="[" />
<glyph horiz-adv-x="1073" d="M 145 1546 L 373 1546 L 920 -410 L 692 -410 L 145 1546 Z" unicode="\" />
<glyph horiz-adv-x="845" d="M -63 -410 L -35 -233 L 279 -233 L 561 1370 L 248 1370 L 279 1546 L 831 1546 L 487 -410 L -63 -410 Z" unicode="]" />
<glyph horiz-adv-x="1142" d="M 276 1151 L 623 1526 L 848 1526 L 1059 1151 L 895 1151 L 721 1346 L 469 1151 L 276 1151 Z" unicode="^" />
<glyph horiz-adv-x="1116" d="M -156 -236 L -117 -27 L 1001 -27 L 965 -236 L -156 -236 Z" unicode="_" />
<glyph horiz-adv-x="1243" d="M 551 1454 L 725 1577 L 940 1196 L 784 1196 L 551 1454 Z" unicode="`" />
<glyph horiz-adv-x="1234" d="M 61 420 C 61 548 85 665 133 771 C 181 876 248 958 333 1018 C 417 1078 511 1108 614 1108 C 676 1108 735 1094 789 1068 C 843 1042 886 1009 918 971 L 948 1083 L 1159 1083 L 1018 287 C 1014 263 1012 245 1012 233 C 1012 208 1018 191 1032 181 C 1046 171 1067 166 1096 166 L 1067 -4 C 985 -4 921 8 877 34 C 832 59 805 101 797 160 C 699 36 580 -25 438 -25 C 331 -25 241 14 169 93 C 97 171 61 280 61 420 Z M 303 438 C 303 344 320 275 356 230 C 391 184 437 162 494 162 C 603 162 706 239 803 393 L 877 823 C 801 889 722 922 639 922 C 543 922 463 875 399 783 C 335 690 303 575 303 438 Z" unicode="a" />
<glyph horiz-adv-x="1222" d="M 33 0 L 305 1546 L 543 1546 L 432 930 C 530 1046 640 1104 762 1104 C 873 1104 963 1064 1031 985 C 1099 906 1133 796 1133 655 C 1133 527 1109 411 1063 308 C 1017 205 952 125 868 67 C 784 9 690 -20 586 -20 C 466 -20 365 27 281 123 L 244 0 L 33 0 Z M 315 272 C 351 234 387 206 425 188 C 463 170 506 162 555 162 C 623 162 683 185 735 231 C 787 277 826 338 852 413 C 878 487 891 569 891 659 C 891 749 873 815 838 857 C 802 899 756 920 700 920 C 596 920 493 846 393 700 L 315 272 Z" unicode="b" />
<glyph horiz-adv-x="1064" d="M 57 449 C 57 542 73 629 105 711 C 137 793 180 863 236 921 C 292 979 358 1024 436 1058 C 513 1091 596 1108 684 1108 C 756 1108 823 1095 883 1070 C 943 1044 992 1012 1032 973 L 899 827 C 829 883 750 911 662 911 C 565 911 481 869 409 785 C 337 701 301 597 301 473 C 301 378 322 304 366 251 C 410 198 469 172 543 172 C 629 172 715 206 803 274 L 924 117 C 865 69 803 34 739 10 C 675 -13 600 -25 514 -25 C 432 -25 357 -6 289 29 C 221 65 165 120 122 194 C 78 267 57 352 57 449 Z" unicode="c" />
<glyph horiz-adv-x="1224" d="M 63 424 C 63 551 86 667 134 771 C 182 875 248 956 332 1015 C 416 1074 509 1104 612 1104 C 729 1104 827 1064 907 985 L 1008 1546 L 1243 1546 L 971 0 L 780 0 L 788 162 C 734 100 681 55 628 25 C 575 -5 510 -20 434 -20 C 384 -20 337 -10 293 8 C 249 27 209 55 175 91 C 141 127 113 174 93 232 C 73 289 63 353 63 424 Z M 305 442 C 305 345 322 274 358 229 C 394 184 440 162 498 162 C 607 162 709 239 805 393 L 879 823 C 803 889 723 922 641 922 C 544 922 464 875 400 783 C 336 691 305 577 305 442 Z" unicode="d" />
<glyph horiz-adv-x="1161" d="M 57 446 C 57 566 84 676 139 777 C 194 877 272 958 372 1018 C 472 1078 585 1108 709 1108 C 821 1108 912 1079 982 1022 C 1052 964 1087 895 1087 815 C 1087 710 1030 629 918 573 C 805 517 652 489 459 489 L 301 489 L 301 455 C 301 263 385 168 555 168 C 651 168 751 200 856 266 L 948 106 C 825 18 684 -25 524 -25 C 386 -25 273 17 187 103 C 100 188 57 302 57 446 Z M 338 659 L 477 659 C 544 659 602 663 652 671 C 702 679 741 691 769 706 C 797 721 817 738 830 756 C 843 774 850 793 850 815 C 850 847 835 875 806 897 C 777 919 738 930 690 930 C 616 930 547 905 483 857 C 419 808 370 742 338 659 Z" unicode="e" />
<glyph horiz-adv-x="808" d="M 82 895 L 115 1069 L 291 1069 L 305 1141 C 329 1283 383 1389 466 1458 C 549 1526 654 1561 782 1561 C 871 1561 950 1544 1018 1511 L 926 1352 C 881 1368 836 1376 791 1376 C 723 1376 669 1356 627 1317 C 585 1277 555 1211 539 1118 L 528 1069 L 813 1069 L 780 895 L 500 895 L 342 0 L 104 0 L 262 895 L 82 895 Z" unicode="f" />
<glyph horiz-adv-x="1222" d="M 4 -272 L 131 -115 C 235 -198 340 -240 446 -240 C 528 -240 592 -218 638 -174 C 684 -130 717 -55 737 49 L 760 168 C 667 50 552 -8 416 -8 C 370 -8 326 0 284 18 C 242 36 205 62 171 96 C 137 130 109 177 89 235 C 69 293 59 359 59 434 C 59 530 73 621 102 705 C 131 789 170 860 220 918 C 269 976 327 1021 395 1054 C 463 1087 534 1104 610 1104 C 673 1104 731 1092 784 1068 C 836 1044 879 1013 913 975 L 944 1083 L 1157 1083 L 967 10 C 955 -58 937 -117 913 -169 C 889 -220 857 -266 816 -306 C 774 -346 721 -377 657 -398 C 592 -419 516 -430 430 -430 C 352 -430 274 -415 198 -386 C 121 -356 56 -318 4 -272 Z M 301 442 C 301 351 318 284 354 240 C 389 196 434 174 489 174 C 549 174 604 193 654 232 C 704 271 753 328 803 403 L 874 823 C 798 889 719 922 635 922 C 573 922 517 900 466 858 C 415 816 375 758 345 684 C 315 610 301 530 301 442 Z" unicode="g" />
<glyph horiz-adv-x="1202" d="M 33 0 L 307 1546 L 543 1546 L 430 907 C 540 1038 661 1104 793 1104 C 884 1104 956 1078 1008 1028 C 1060 977 1087 910 1087 827 C 1087 781 1081 725 1069 659 L 950 0 L 715 0 L 838 690 C 846 736 850 775 850 805 C 850 884 810 924 731 924 C 626 924 512 838 389 666 L 270 0 L 33 0 Z" unicode="h" />
<glyph horiz-adv-x="524" d="M 33 0 L 223 1073 L 459 1073 L 270 0 L 33 0 Z M 262 1303 L 303 1530 L 539 1530 L 500 1303 L 262 1303 Z" unicode="i" />
<glyph horiz-adv-x="532" d="M -338 -365 L -242 -205 C -195 -225 -160 -236 -137 -236 C -90 -236 -52 -218 -24 -183 C 3 -148 25 -90 39 -8 L 229 1073 L 467 1073 L 270 -33 C 246 -169 202 -270 138 -334 C 73 -398 -16 -430 -131 -430 C -169 -430 -206 -424 -244 -412 C -281 -400 -312 -384 -338 -365 Z M 268 1303 L 309 1530 L 545 1530 L 506 1303 L 268 1303 Z" unicode="j" />
<glyph horiz-adv-x="1130" d="M 33 0 L 305 1546 L 543 1546 L 377 602 L 870 1083 L 1149 1083 L 737 692 L 969 0 L 727 0 L 563 526 L 324 299 L 270 0 L 33 0 Z" unicode="k" />
<glyph horiz-adv-x="524" d="M 33 0 L 305 1546 L 543 1546 L 270 0 L 33 0 Z" unicode="l" />
<glyph horiz-adv-x="1837" d="M 27 0 L 213 1083 L 410 1083 L 403 897 C 450 959 507 1010 573 1048 C 639 1086 709 1106 784 1106 C 862 1106 925 1086 971 1048 C 1017 1009 1046 959 1057 897 C 1175 1036 1306 1106 1448 1106 C 1534 1106 1601 1082 1650 1034 C 1699 986 1724 924 1724 846 C 1724 792 1718 730 1706 662 L 1587 0 L 1356 0 L 1479 694 C 1487 738 1491 775 1491 807 C 1491 885 1453 924 1378 924 C 1326 924 1271 902 1213 860 C 1155 818 1099 758 1044 682 C 1044 680 1043 677 1043 673 C 1042 669 1042 667 1042 666 L 924 0 L 692 0 L 815 696 C 823 740 827 776 827 805 C 827 884 789 924 715 924 C 659 924 604 902 550 859 C 495 815 438 752 379 668 L 260 0 L 27 0 Z" unicode="m" />
<glyph horiz-adv-x="1196" d="M 27 0 L 215 1083 L 412 1083 L 406 897 C 518 1035 646 1104 791 1104 C 880 1104 950 1078 1002 1027 C 1053 975 1079 909 1079 829 C 1079 781 1073 723 1061 655 L 942 0 L 707 0 L 829 692 C 837 742 842 780 842 805 C 842 884 803 924 725 924 C 619 924 504 838 381 666 L 264 0 L 27 0 Z" unicode="n" />
<glyph horiz-adv-x="1234" d="M 61 453 C 61 576 88 688 142 788 C 196 888 270 966 364 1023 C 458 1079 564 1108 680 1108 C 819 1108 932 1065 1018 979 C 1104 893 1147 776 1147 629 C 1147 506 1120 395 1066 295 C 1012 195 937 116 843 60 C 748 3 642 -25 526 -25 C 388 -25 276 18 190 104 C 104 190 61 306 61 453 Z M 301 455 C 301 359 322 287 366 237 C 409 187 470 162 549 162 C 646 162 730 208 801 301 C 871 394 907 503 907 627 C 907 723 885 797 843 847 C 800 897 740 922 662 922 C 598 922 538 900 482 857 C 426 813 381 756 349 684 C 317 612 301 535 301 455 Z" unicode="o" />
<glyph horiz-adv-x="1222" d="M -41 -410 L 219 1083 L 426 1083 L 420 930 C 522 1046 637 1104 764 1104 C 872 1104 961 1065 1030 987 C 1098 909 1133 799 1133 657 C 1133 559 1119 468 1091 384 C 1063 300 1025 228 977 169 C 929 110 871 64 804 30 C 736 -3 664 -20 588 -20 C 470 -20 370 25 289 115 L 193 -410 L -41 -410 Z M 315 272 C 349 233 384 205 422 188 C 460 170 503 162 553 162 C 622 162 683 185 735 232 C 787 278 826 339 852 413 C 878 487 891 569 891 657 C 891 746 873 812 839 855 C 805 898 758 920 698 920 C 595 920 493 847 391 702 L 315 272 Z" unicode="p" />
<glyph horiz-adv-x="1222" d="M 63 424 C 63 522 77 614 106 700 C 135 785 174 857 224 916 C 274 974 332 1020 400 1054 C 467 1087 538 1104 614 1104 C 676 1104 734 1091 790 1066 C 845 1040 888 1009 920 971 L 950 1083 L 1161 1083 L 897 -410 L 662 -410 L 760 145 C 667 35 558 -20 434 -20 C 383 -20 335 -10 291 8 C 247 27 208 55 174 91 C 140 127 113 173 93 231 C 73 288 63 352 63 424 Z M 305 438 C 305 344 322 274 356 229 C 390 184 435 162 492 162 C 548 162 602 182 652 223 C 702 263 753 320 805 393 L 879 823 C 803 889 724 922 641 922 C 544 922 464 875 400 783 C 336 691 305 576 305 438 Z" unicode="q" />
<glyph horiz-adv-x="856" d="M 27 0 L 215 1083 L 410 1083 L 403 891 C 500 1038 619 1112 760 1112 C 812 1112 860 1101 903 1081 L 825 874 C 788 890 746 899 700 899 C 643 899 588 875 535 827 C 481 779 428 713 375 627 L 262 0 L 27 0 Z" unicode="r" />
<glyph horiz-adv-x="1001" d="M -12 113 L 102 270 C 198 198 302 162 414 162 C 478 162 531 174 575 200 C 619 226 641 261 641 307 C 641 328 635 347 624 364 C 613 380 596 394 574 406 C 552 418 529 427 507 435 C 485 442 456 450 422 459 C 216 509 113 612 113 766 C 113 839 134 902 177 954 C 219 1006 275 1045 344 1069 C 413 1093 491 1106 578 1106 C 706 1106 830 1070 948 999 L 831 840 C 740 893 648 920 555 920 C 501 920 453 906 411 879 C 369 851 348 816 348 772 C 348 750 353 732 365 716 C 376 700 393 686 416 675 C 439 663 462 654 485 647 C 507 640 536 633 571 625 C 617 614 656 602 690 588 C 724 574 755 555 784 533 C 813 510 835 481 851 447 C 866 413 874 373 874 328 C 874 214 830 127 742 66 C 654 5 537 -25 391 -25 C 248 -25 114 21 -12 113 Z" unicode="s" />
<glyph horiz-adv-x="839" d="M 88 905 L 119 1083 L 297 1083 L 348 1374 L 584 1374 L 532 1083 L 829 1083 L 801 905 L 502 905 L 406 362 C 398 316 395 282 395 258 C 395 198 424 168 483 168 C 531 168 586 188 649 229 L 727 63 C 687 37 640 15 586 0 C 532 -16 480 -25 428 -25 C 346 -25 280 -2 230 43 C 180 88 156 147 156 219 C 156 265 162 323 176 393 L 268 905 L 88 905 Z" unicode="t" />
<glyph horiz-adv-x="1189" d="M 76 254 C 76 304 80 358 90 418 L 209 1083 L 444 1083 L 322 387 C 314 339 311 302 311 276 C 311 198 350 160 428 160 C 533 160 649 245 776 416 L 891 1083 L 1128 1083 L 938 0 L 748 0 L 752 184 C 636 44 505 -25 360 -25 C 270 -25 200 0 150 51 C 100 102 76 170 76 254 Z" unicode="u" />
<glyph horiz-adv-x="1062" d="M 115 1083 L 336 1083 L 453 260 L 457 260 L 858 1083 L 1104 1083 L 549 0 L 287 0 L 115 1083 Z" unicode="v" />
<glyph horiz-adv-x="1681" d="M 115 1083 L 338 1083 L 449 303 L 453 303 L 805 1083 L 1006 1083 L 1092 303 L 1096 303 L 1477 1083 L 1722 1083 L 1174 0 L 946 0 L 856 748 L 852 748 L 504 0 L 283 0 L 115 1083 Z" unicode="w" />
<glyph horiz-adv-x="1077" d="M -59 0 L 389 553 L 145 1083 L 379 1083 L 541 713 L 827 1083 L 1096 1083 L 659 541 L 907 0 L 678 0 L 506 385 L 203 0 L -59 0 Z" unicode="x" />
<glyph horiz-adv-x="1071" d="M -147 -367 L -61 -197 C -12 -223 33 -236 76 -236 C 146 -236 204 -193 250 -109 L 313 6 L 113 1083 L 340 1083 L 469 303 L 473 303 L 862 1083 L 1112 1083 L 473 -133 C 413 -247 353 -325 293 -367 C 233 -409 160 -430 74 -430 C -2 -430 -76 -409 -147 -367 Z" unicode="y" />
<glyph horiz-adv-x="1036" d="M -18 0 L 12 160 L 682 895 L 154 895 L 186 1083 L 1014 1083 L 987 920 L 315 186 L 877 186 L 846 0 L -18 0 Z" unicode="z" />
<glyph horiz-adv-x="974" d="M 33 455 L 70 668 L 182 668 C 239 668 282 681 312 708 C 341 735 361 780 373 844 L 436 1208 C 457 1332 500 1420 564 1470 C 628 1520 730 1546 870 1546 L 1018 1546 L 989 1372 L 874 1372 C 760 1372 694 1317 676 1208 L 612 842 C 597 758 570 694 532 649 C 494 603 439 572 369 555 L 369 553 C 469 512 520 446 520 354 C 520 328 516 300 510 268 L 451 -72 C 446 -98 444 -119 444 -133 C 444 -168 455 -194 477 -211 C 499 -227 535 -236 584 -236 L 705 -236 L 674 -410 L 543 -410 C 437 -410 354 -387 294 -342 C 234 -297 205 -229 205 -139 C 205 -115 207 -89 211 -61 L 274 291 C 278 309 281 328 281 348 C 281 384 270 411 248 429 C 226 446 191 455 143 455 L 33 455 Z" unicode="{" />
<glyph horiz-adv-x="624" d="M 16 -410 L 360 1546 L 588 1546 L 242 -410 L 16 -410 Z" unicode="|" />
<glyph horiz-adv-x="974" d="M -66 -410 L -35 -236 L 80 -236 C 194 -236 260 -181 279 -72 L 340 279 C 354 363 381 427 419 473 C 457 518 512 549 584 567 L 584 569 C 482 608 432 676 432 772 C 432 802 434 829 438 854 L 502 1208 C 507 1238 510 1259 510 1270 C 510 1305 499 1331 477 1347 C 455 1363 419 1372 371 1372 L 250 1372 L 281 1546 L 412 1546 C 517 1546 600 1524 661 1481 C 721 1438 752 1372 752 1284 C 752 1257 749 1228 743 1198 L 674 831 C 671 812 670 795 670 780 C 670 740 680 712 702 694 C 724 676 759 668 809 668 L 920 668 L 881 455 L 770 455 C 712 455 669 441 639 414 C 609 386 590 341 580 279 L 518 -72 C 495 -196 452 -283 388 -334 C 324 -384 223 -410 84 -410 L -66 -410 Z" unicode="}" />
<glyph horiz-adv-x="1142" d="M 98 403 C 100 503 125 585 173 651 C 221 717 291 750 383 750 C 413 750 443 744 472 732 C 500 720 525 706 547 690 C 569 674 590 657 611 641 C 631 625 653 611 676 599 C 699 587 722 582 745 582 C 805 582 840 627 852 717 L 1020 717 C 1020 613 996 530 949 466 C 901 402 831 371 737 371 C 707 371 677 376 649 388 C 620 400 595 414 573 431 C 551 447 529 464 509 481 C 488 497 466 511 444 523 C 421 535 399 541 377 541 C 313 541 277 495 268 403 L 98 403 Z" unicode="~" />
<glyph horiz-adv-x="827" d="M 166 1024 L 295 1751 L 444 1751 L 436 1671 C 517 1736 596 1769 672 1769 C 750 1769 806 1744 841 1694 C 875 1644 886 1581 872 1505 L 786 1024 L 627 1024 L 713 1507 C 720 1551 717 1584 704 1605 C 691 1625 665 1636 627 1636 C 557 1636 487 1604 418 1540 L 326 1024 L 166 1024 Z" unicode="ⁿ" />
<glyph horiz-adv-x="792" d="M 6 299 C 6 431 43 538 119 620 C 195 702 290 743 406 743 C 492 743 562 716 616 662 C 669 608 696 532 696 432 C 696 300 658 193 583 111 C 507 29 412 -12 297 -12 C 210 -12 140 14 86 68 C 32 122 6 199 6 299 Z M 164 311 C 164 253 176 207 201 173 C 226 139 263 123 311 123 C 375 123 429 151 473 209 C 517 266 539 336 539 420 C 539 478 526 523 500 557 C 474 591 437 608 389 608 C 325 608 271 579 228 522 C 185 464 164 394 164 311 Z" unicode="₀" />
<glyph horiz-adv-x="647" d="M 0 0 L 23 129 L 188 129 L 264 557 L 131 492 L 70 610 L 332 731 L 455 731 L 348 129 L 496 129 L 475 0 L 0 0 Z" unicode="₁" />
<glyph horiz-adv-x="694" d="M -16 0 L -8 74 C -3 117 8 156 28 192 C 48 227 71 256 98 279 C 125 301 155 322 187 340 C 219 358 250 374 281 388 C 312 402 340 415 366 428 C 391 441 411 456 427 473 C 443 489 451 508 451 528 C 451 552 442 572 425 587 C 407 602 382 610 348 610 C 280 610 212 581 145 524 L 55 623 C 91 657 137 686 191 709 C 245 731 300 743 356 743 C 430 743 490 722 536 681 C 582 639 606 589 606 530 C 606 482 591 440 563 405 C 534 369 499 341 457 321 C 415 301 374 282 332 265 C 290 247 253 228 221 206 C 189 184 170 159 166 131 L 530 131 L 510 0 L -16 0 Z" unicode="₂" />
<glyph horiz-adv-x="704" d="M -8 63 L 66 172 C 126 134 186 115 248 115 C 295 115 334 127 365 151 C 396 175 412 206 412 242 C 412 267 403 285 385 296 C 367 307 340 313 303 313 L 186 313 L 207 440 L 315 440 C 359 440 391 448 412 465 C 433 481 444 504 444 532 C 444 555 434 574 416 590 C 398 606 372 614 340 614 C 281 614 216 589 145 541 L 70 645 C 162 710 258 743 360 743 C 429 743 487 724 533 688 C 579 652 602 605 602 547 C 602 469 561 411 481 375 C 541 345 571 298 571 233 C 571 157 540 96 479 52 C 417 8 340 -14 246 -14 C 148 -14 64 11 -8 63 Z" unicode="₃" />
<glyph horiz-adv-x="681" d="M -16 262 L 406 729 L 580 729 L 500 272 L 588 272 L 567 145 L 477 145 L 451 0 L 297 0 L 324 145 L 16 145 L -16 262 Z M 154 272 L 346 272 L 397 547 L 154 272 Z" unicode="₄" />
<glyph horiz-adv-x="659" d="M -37 59 L 33 174 C 59 157 88 143 122 133 C 156 122 187 117 215 117 C 264 117 304 130 334 157 C 364 184 379 218 379 260 C 379 318 347 348 283 348 C 243 348 192 337 129 317 L 55 371 L 129 729 L 584 729 L 561 600 L 246 600 L 215 449 C 253 463 293 471 336 471 C 395 471 444 452 484 414 C 523 376 543 327 543 266 C 543 180 512 112 451 62 C 389 11 309 -14 211 -14 C 124 -14 41 10 -37 59 Z" unicode="₅" />
<glyph horiz-adv-x="690" d="M -6 285 C -6 423 32 534 109 618 C 185 701 281 743 395 743 C 471 743 543 723 610 684 L 532 575 C 490 599 442 612 389 612 C 342 612 297 595 255 561 C 212 527 186 484 178 432 C 232 466 289 483 348 483 C 416 483 470 463 510 425 C 550 386 571 334 571 268 C 571 190 542 124 485 70 C 427 15 354 -12 264 -12 C 178 -12 111 14 64 68 C 17 121 -6 193 -6 285 Z M 158 260 C 158 163 196 115 272 115 C 312 115 346 129 373 157 C 400 185 414 220 414 260 C 414 295 406 321 390 339 C 374 356 347 365 309 365 C 263 365 214 347 162 313 C 159 291 158 274 158 260 Z" unicode="₆" />
<glyph horiz-adv-x="620" d="M 25 0 L 393 594 L 47 594 L 70 729 L 588 729 L 567 616 L 199 0 L 25 0 Z" unicode="₇" />
<glyph horiz-adv-x="714" d="M -23 180 C -23 228 -6 270 27 304 C 61 338 104 366 158 387 C 98 424 68 472 68 530 C 68 594 96 645 152 684 C 208 723 281 743 371 743 C 441 743 499 726 545 692 C 591 658 614 613 614 559 C 614 479 567 419 473 377 C 551 336 590 281 590 213 C 590 143 558 88 496 48 C 434 8 352 -12 250 -12 C 166 -12 100 4 51 38 C 1 72 -23 119 -23 180 Z M 139 193 C 139 167 150 147 172 132 C 194 116 226 109 268 109 C 312 109 349 119 380 139 C 410 159 426 184 426 215 C 426 240 414 262 392 281 C 369 299 339 311 303 315 C 255 311 216 297 185 274 C 154 251 139 224 139 193 Z M 225 524 C 225 500 233 481 251 465 C 269 449 294 440 326 438 C 366 440 398 452 422 474 C 445 495 457 519 457 547 C 457 594 422 618 352 618 C 316 618 286 609 262 591 C 237 573 225 551 225 524 Z" unicode="₈" />
<glyph horiz-adv-x="692" d="M -14 47 L 63 156 C 105 131 153 119 207 119 C 253 119 298 135 341 169 C 383 203 409 246 418 299 C 363 265 306 248 248 248 C 180 248 125 267 85 306 C 45 344 25 397 25 463 C 25 540 53 606 111 661 C 168 715 242 743 332 743 C 418 743 484 716 531 663 C 578 609 602 537 602 446 C 602 307 563 196 487 113 C 410 29 315 -12 201 -12 C 124 -12 52 7 -14 47 Z M 182 471 C 182 435 190 409 206 392 C 222 375 249 367 287 367 C 333 367 382 384 434 418 C 436 439 438 457 438 471 C 438 567 400 616 324 616 C 283 616 249 601 222 573 C 195 545 182 511 182 471 Z" unicode="₉" />
<glyph horiz-adv-x="1253" d="M -63 0 L 559 1096 C 521 1134 502 1181 502 1237 C 502 1307 526 1367 575 1415 C 624 1463 687 1487 764 1487 C 822 1487 872 1468 912 1430 C 952 1392 973 1345 973 1288 C 973 1244 963 1203 943 1166 C 923 1129 896 1100 860 1079 L 1096 0 L 858 0 L 813 229 L 322 229 L 199 0 L -63 0 Z M 414 403 L 780 403 L 686 899 L 680 899 L 414 403 Z M 614 1245 C 614 1213 623 1187 642 1168 C 660 1148 687 1139 721 1139 C 757 1139 789 1152 819 1180 C 849 1208 864 1241 864 1280 C 864 1313 854 1339 836 1358 C 817 1376 790 1386 754 1386 C 718 1386 685 1372 657 1344 C 628 1316 614 1283 614 1245 Z" unicode="" />
<glyph horiz-adv-x="1253" d="M -63 0 L 584 1139 L 848 1139 L 1096 0 L 858 0 L 813 229 L 322 229 L 199 0 L -63 0 Z M 414 403 L 780 403 L 686 899 L 680 899 L 414 403 Z M 420 1577 L 563 1577 L 737 1380 L 741 1380 L 983 1577 L 1155 1577 L 848 1249 L 614 1249 L 420 1577 Z" unicode="" />
<glyph horiz-adv-x="466" d="M -8 178 C -8 339 21 494 81 643 C 140 791 225 920 336 1030 L 528 1030 C 411 925 320 796 254 644 C 188 492 156 332 156 166 C 156 -22 197 -189 279 -336 L 115 -336 C 33 -186 -8 -15 -8 178 Z" unicode="₍" />
<glyph horiz-adv-x="466" d="M -158 -336 C -41 -231 49 -103 115 48 C 180 200 213 359 213 526 C 213 628 201 723 177 810 C 153 896 123 970 88 1030 L 252 1030 C 334 880 375 708 375 514 C 375 353 345 198 287 50 C 229 -98 145 -227 35 -336 L -158 -336 Z" unicode="₎" />
<glyph horiz-adv-x="1253" d="M -63 0 L 584 1139 L 848 1139 L 1096 0 L 858 0 L 813 229 L 322 229 L 199 0 L -63 0 Z M 391 1249 C 417 1359 464 1443 532 1502 C 600 1561 686 1591 791 1591 C 889 1591 964 1560 1016 1499 C 1067 1437 1088 1354 1079 1249 L 930 1249 C 932 1308 919 1354 893 1386 C 867 1418 826 1434 772 1434 C 719 1434 674 1418 636 1386 C 598 1354 570 1308 553 1249 L 391 1249 Z M 414 403 L 780 403 L 686 899 L 680 899 L 414 403 Z" unicode="" />
<glyph horiz-adv-x="1253" d="M -63 0 L 584 1139 L 848 1139 L 1096 0 L 858 0 L 813 229 L 322 229 L 199 0 L -63 0 Z M 301 1516 L 471 1630 L 659 1249 L 520 1249 L 301 1516 Z M 414 403 L 780 403 L 686 899 L 680 899 L 414 403 Z M 618 1516 L 788 1630 L 975 1249 L 838 1249 L 618 1516 Z" unicode="" />
<glyph horiz-adv-x="1253" d="M -63 0 L 584 1139 L 848 1139 L 1096 0 L 858 0 L 813 229 L 322 229 L 199 0 L -63 0 Z M 414 403 L 780 403 L 686 899 L 680 899 L 414 403 Z M 633 1309 L 670 1518 L 877 1518 L 840 1309 L 633 1309 Z" unicode="" />
<glyph horiz-adv-x="1253" d="M -63 0 L 559 1096 C 521 1134 502 1181 502 1237 C 502 1307 526 1367 575 1415 C 624 1463 687 1487 764 1487 C 822 1487 872 1468 912 1430 C 952 1392 973 1345 973 1288 C 973 1244 963 1203 943 1166 C 923 1129 896 1100 860 1079 L 1096 0 L 858 0 L 813 229 L 322 229 L 199 0 L -63 0 Z M 414 403 L 780 403 L 686 899 L 680 899 L 414 403 Z M 614 1245 C 614 1214 622 1189 639 1170 C 655 1151 679 1141 711 1139 L 721 1139 C 757 1139 789 1152 819 1180 C 849 1208 864 1241 864 1280 C 864 1313 854 1339 836 1358 C 817 1376 790 1386 754 1386 C 718 1386 685 1372 657 1344 C 628 1316 614 1283 614 1245 Z M 641 1546 L 975 1927 L 1139 1804 L 799 1546 L 641 1546 Z" unicode="" />
<glyph horiz-adv-x="1253" d="M -63 0 L 584 1139 L 848 1139 L 1096 0 L 858 0 L 813 229 L 322 229 L 199 0 L -63 0 Z M 414 403 L 780 403 L 686 899 L 680 899 L 414 403 Z M 440 1284 L 475 1493 L 686 1493 L 649 1284 L 440 1284 Z M 494 1614 L 522 1772 L 1151 1772 L 1122 1614 L 494 1614 Z M 856 1284 L 893 1493 L 1102 1493 L 1065 1284 L 856 1284 Z" unicode="" />
<glyph horiz-adv-x="1253" d="M -63 0 L 584 1139 L 848 1139 L 1096 0 C 962 -48 895 -108 895 -180 C 895 -224 922 -246 977 -246 C 1015 -246 1052 -237 1087 -219 L 1092 -223 L 1061 -397 C 1010 -415 958 -424 905 -424 C 844 -424 795 -407 758 -373 C 720 -339 702 -296 702 -244 C 702 -147 759 -66 874 0 L 858 0 L 813 229 L 322 229 L 199 0 L -63 0 Z M 414 403 L 780 403 L 686 899 L 680 899 L 414 403 Z" unicode="" />
<glyph horiz-adv-x="1937" d="M 82 895 L 115 1069 L 291 1069 L 303 1137 C 354 1413 521 1552 803 1552 C 921 1552 1035 1521 1147 1460 C 1232 1526 1345 1559 1487 1559 C 1642 1559 1787 1514 1921 1425 L 1810 1276 C 1698 1342 1589 1376 1485 1376 C 1325 1376 1229 1286 1198 1108 L 1192 1069 L 1475 1069 L 1444 895 L 1161 895 L 1006 0 L 768 0 L 924 895 L 500 895 L 342 0 L 104 0 L 262 895 L 82 895 Z M 528 1069 L 954 1069 L 967 1139 C 979 1208 999 1268 1028 1319 C 955 1354 880 1372 803 1372 C 729 1372 670 1351 628 1310 C 585 1269 554 1201 535 1106 L 528 1069 Z M 1065 -365 L 1161 -205 C 1201 -225 1236 -236 1266 -236 C 1312 -236 1350 -218 1378 -183 C 1406 -148 1428 -90 1442 -8 L 1630 1073 L 1868 1073 L 1673 -33 C 1648 -170 1604 -270 1540 -334 C 1476 -398 1386 -430 1272 -430 C 1191 -430 1122 -408 1065 -365 Z" unicode="" />
<glyph horiz-adv-x="1824" d="M -78 0 L 647 1139 L 1798 1139 L 1763 942 L 985 942 L 1020 666 L 1649 666 L 1618 487 L 1042 487 L 1079 195 L 1640 195 L 1606 0 L 870 0 L 846 229 L 332 229 L 190 0 L -78 0 Z M 449 416 L 825 416 L 772 918 L 762 918 L 449 416 Z" unicode="" />
<glyph horiz-adv-x="1824" d="M -78 0 L 647 1139 L 1798 1139 L 1763 942 L 985 942 L 1020 666 L 1649 666 L 1618 487 L 1042 487 L 1079 195 L 1640 195 L 1606 0 L 870 0 L 846 229 L 332 229 L 190 0 L -78 0 Z M 449 416 L 825 416 L 772 918 L 762 918 L 449 416 Z M 817 1249 L 1151 1630 L 1315 1507 L 975 1249 L 817 1249 Z" unicode="" />
<glyph horiz-adv-x="1824" d="M -78 0 L 647 1139 L 1798 1139 L 1763 942 L 985 942 L 1020 666 L 1649 666 L 1618 487 L 1042 487 L 1079 195 L 1640 195 L 1606 0 L 870 0 L 846 229 L 332 229 L 190 0 L -78 0 Z M 449 416 L 825 416 L 772 918 L 762 918 L 449 416 Z M 680 1333 L 709 1491 L 1337 1491 L 1309 1333 L 680 1333 Z" unicode="" />
<glyph horiz-adv-x="1243" d="M 74 487 C 74 580 91 668 125 751 C 159 833 207 905 268 965 C 328 1025 402 1073 490 1108 C 577 1143 671 1161 772 1161 C 934 1161 1072 1112 1186 1014 L 1051 862 C 966 932 870 967 764 967 C 640 967 534 922 447 833 C 360 744 317 636 317 508 C 317 403 345 320 402 260 C 458 200 535 170 633 170 C 748 170 857 213 961 301 L 1085 143 C 1013 85 940 42 866 15 C 792 -11 708 -25 614 -25 C 454 -25 324 21 224 115 C 124 209 74 333 74 487 Z M 643 1249 L 977 1630 L 1141 1507 L 801 1249 L 643 1249 Z" unicode="" />
<glyph horiz-adv-x="1243" d="M 74 487 C 74 580 91 668 125 751 C 159 833 207 905 268 965 C 328 1025 402 1073 490 1108 C 577 1143 671 1161 772 1161 C 934 1161 1072 1112 1186 1014 L 1051 862 C 966 932 870 967 764 967 C 640 967 534 922 447 833 C 360 744 317 636 317 508 C 317 403 345 320 402 260 C 458 200 535 170 633 170 C 748 170 857 213 961 301 L 1085 143 C 1013 85 940 42 866 15 C 792 -11 708 -25 614 -25 C 454 -25 324 21 224 115 C 124 209 74 333 74 487 Z M 418 1249 L 729 1577 L 963 1577 L 1155 1249 L 1006 1249 L 838 1440 L 834 1440 L 598 1249 L 418 1249 Z" unicode="" />
<glyph horiz-adv-x="1243" d="M 74 487 C 74 580 91 668 125 751 C 159 833 207 905 268 965 C 328 1025 402 1073 490 1108 C 577 1143 671 1161 772 1161 C 934 1161 1072 1112 1186 1014 L 1051 862 C 966 932 870 967 764 967 C 640 967 534 922 447 833 C 360 744 317 636 317 508 C 317 403 345 320 402 260 C 458 200 535 170 633 170 C 748 170 857 213 961 301 L 1085 143 C 1013 85 940 42 866 15 C 792 -11 708 -25 614 -25 C 454 -25 324 21 224 115 C 124 209 74 333 74 487 Z M 481 1577 L 625 1577 L 799 1380 L 803 1380 L 1044 1577 L 1217 1577 L 909 1249 L 676 1249 L 481 1577 Z" unicode="" />
<glyph horiz-adv-x="1243" d="M 74 487 C 74 580 91 668 125 751 C 159 833 207 905 268 965 C 328 1025 402 1073 490 1108 C 577 1143 671 1161 772 1161 C 934 1161 1072 1112 1186 1014 L 1051 862 C 966 932 870 967 764 967 C 640 967 534 922 447 833 C 360 744 317 636 317 508 C 317 403 345 320 402 260 C 458 200 535 170 633 170 C 748 170 857 213 961 301 L 1085 143 C 1013 85 940 42 866 15 C 792 -11 708 -25 614 -25 C 454 -25 324 21 224 115 C 124 209 74 333 74 487 Z M 680 1309 L 717 1518 L 924 1518 L 887 1309 L 680 1309 Z" unicode="" />
<glyph horiz-adv-x="1425" d="M 41 0 L 295 1434 L 543 1434 L 438 836 L 1059 836 L 1165 1434 L 1413 1434 L 1161 0 L 911 0 L 1022 621 L 401 621 L 291 0 L 41 0 Z M 215 -383 L 244 -223 L 877 -223 L 850 -383 L 215 -383 Z" unicode="" />
<glyph horiz-adv-x="1269" d="M 33 0 L 233 1139 L 604 1139 C 784 1139 924 1097 1025 1014 C 1125 931 1176 814 1176 662 C 1176 568 1160 482 1130 403 C 1100 324 1055 254 995 194 C 935 133 856 85 760 51 C 663 17 552 0 428 0 L 33 0 Z M 305 190 L 455 190 C 607 190 724 233 808 320 C 892 406 934 518 934 655 C 934 757 908 831 856 878 C 804 924 717 948 594 948 L 438 948 L 305 190 Z M 408 1577 L 551 1577 L 725 1380 L 729 1380 L 971 1577 L 1143 1577 L 836 1249 L 602 1249 L 408 1577 Z" unicode="" />
<glyph horiz-adv-x="1269" d="M 33 0 L 233 1139 L 604 1139 C 784 1139 924 1097 1025 1014 C 1125 931 1176 814 1176 662 C 1176 568 1160 482 1130 403 C 1100 324 1055 254 995 194 C 935 133 856 85 760 51 C 663 17 552 0 428 0 L 33 0 Z M 133 -362 C 262 -272 355 -180 412 -86 L 594 -86 C 536 -226 442 -348 311 -451 L 133 -362 Z M 305 190 L 455 190 C 607 190 724 233 808 320 C 892 406 934 518 934 655 C 934 757 908 831 856 878 C 804 924 717 948 594 948 L 438 948 L 305 190 Z" unicode="" />
<glyph horiz-adv-x="495" d="" unicode=" " />
<glyph horiz-adv-x="555" d="M -18 -348 L 29 -88 L 223 653 L 348 653 L 274 -88 L 227 -348 L -18 -348 Z M 186 846 L 227 1085 L 494 1085 L 453 846 L 186 846 Z" unicode="¡" />
<glyph horiz-adv-x="1236" d="M 100 645 C 100 737 117 824 151 906 C 185 988 232 1058 292 1117 C 352 1175 426 1222 514 1256 C 601 1290 695 1307 797 1307 C 824 1307 844 1306 856 1305 L 909 1434 L 1040 1434 L 977 1280 C 1056 1256 1130 1217 1200 1161 L 1077 1022 C 1023 1066 964 1096 901 1112 L 571 313 C 596 309 623 307 651 307 C 767 307 877 350 979 438 L 1104 293 C 966 182 809 127 631 127 C 591 127 549 130 506 137 L 451 0 L 317 0 L 391 174 C 299 213 228 273 177 355 C 125 437 100 533 100 645 Z M 326 659 C 326 588 338 526 363 474 C 388 421 424 380 471 352 L 788 1126 C 658 1126 549 1081 460 992 C 370 902 326 791 326 659 Z" unicode="¢" />
<glyph horiz-adv-x="1366" d="M -20 197 C -20 266 5 325 56 373 C 107 421 174 446 256 446 C 330 446 412 419 500 365 C 513 399 520 432 520 463 C 520 488 516 514 510 542 C 504 569 497 591 491 607 C 485 623 475 647 463 678 L 174 678 L 199 821 L 401 821 C 367 912 350 991 350 1059 C 350 1176 394 1272 483 1346 C 571 1420 682 1458 815 1458 C 913 1458 993 1435 1057 1389 C 1120 1343 1165 1286 1192 1219 L 1020 1147 C 977 1237 903 1282 797 1282 C 733 1282 677 1261 631 1219 C 584 1177 561 1125 561 1061 C 561 989 582 907 625 815 L 975 815 L 950 680 L 678 680 C 709 590 725 517 725 459 C 725 393 706 325 670 256 C 717 219 759 191 796 173 C 833 154 871 145 911 145 C 1031 145 1087 221 1079 373 L 1274 373 C 1286 253 1262 156 1202 84 C 1142 11 1050 -25 924 -25 C 856 -25 795 -12 740 13 C 685 38 626 73 563 119 C 517 75 467 40 412 14 C 356 -12 300 -25 242 -25 C 160 -25 96 -4 50 37 C 3 79 -20 132 -20 197 Z M 145 207 C 145 180 154 159 174 144 C 194 128 218 121 246 121 C 313 121 373 156 426 227 C 363 273 304 297 250 297 C 221 297 196 288 176 272 C 155 256 145 234 145 207 Z" unicode="£" />
<glyph horiz-adv-x="1341" d="M 51 98 L 180 217 C 132 295 109 383 109 481 C 109 637 160 772 264 887 L 170 1010 L 287 1104 L 379 987 C 491 1062 615 1100 752 1100 C 858 1100 954 1065 1042 997 L 1163 1108 L 1264 999 L 1139 887 C 1189 806 1214 716 1214 618 C 1214 458 1160 319 1053 203 L 1145 88 L 1026 -4 L 936 106 C 830 35 708 0 571 0 C 458 0 360 34 276 104 L 150 -8 L 51 98 Z M 326 496 C 326 410 350 341 398 289 C 446 237 514 211 602 211 C 668 211 731 228 792 264 C 852 300 901 348 939 409 C 976 470 995 535 995 604 C 995 690 971 759 923 811 C 875 863 807 889 719 889 C 618 889 527 849 447 770 C 366 691 326 600 326 496 Z" unicode="¤" />
<glyph horiz-adv-x="1380" d="M 90 203 L 117 344 L 524 344 L 553 510 L 145 510 L 170 651 L 578 651 L 193 1434 L 440 1434 L 715 856 L 717 856 L 1186 1434 L 1473 1434 L 809 651 L 1212 651 L 1186 510 L 784 510 L 754 344 L 1157 344 L 1133 203 L 729 203 L 694 0 L 465 0 L 500 203 L 90 203 Z" unicode="¥" />
<glyph horiz-adv-x="624" d="M 16 -410 L 152 362 L 377 362 L 242 -410 L 16 -410 Z M 217 723 L 360 1546 L 588 1546 L 442 723 L 217 723 Z" unicode="¦" />
<glyph horiz-adv-x="1087" d="M 47 141 L 207 254 C 271 186 350 152 446 152 C 500 152 547 163 586 185 C 625 207 645 237 645 276 C 645 298 635 318 617 337 C 598 355 574 372 544 386 C 514 400 480 415 444 429 C 408 443 371 460 335 478 C 299 496 266 516 236 538 C 206 560 181 587 163 620 C 144 653 135 690 135 731 C 135 782 151 829 185 872 C 218 914 259 949 309 975 C 255 1023 229 1085 229 1159 C 229 1247 268 1319 348 1375 C 428 1430 534 1458 668 1458 C 746 1458 821 1442 893 1412 C 964 1382 1021 1341 1063 1290 L 903 1178 C 839 1246 759 1280 664 1280 C 609 1280 562 1268 523 1246 C 484 1224 465 1193 465 1155 C 465 1133 474 1112 493 1094 C 511 1075 536 1058 566 1044 C 596 1030 629 1015 665 1001 C 701 987 738 970 774 952 C 810 934 844 914 874 892 C 904 870 928 843 947 810 C 965 777 975 740 975 700 C 975 648 958 601 925 559 C 892 517 851 483 801 455 C 854 403 881 342 881 272 C 881 183 841 111 761 56 C 681 0 575 -27 442 -27 C 363 -27 288 -11 217 18 C 145 48 89 89 47 141 Z M 352 760 C 352 738 357 719 369 701 C 381 683 399 667 423 653 C 447 639 470 626 493 616 C 515 606 545 593 582 579 C 618 564 648 551 670 541 C 728 579 758 623 758 672 C 758 693 752 712 740 730 C 728 748 711 764 687 778 C 663 792 639 805 617 815 C 594 825 564 838 528 853 C 491 867 462 880 440 891 C 381 852 352 808 352 760 Z" unicode="§" />
<glyph horiz-adv-x="1275" d="M 440 1255 L 475 1464 L 686 1464 L 649 1255 L 440 1255 Z M 856 1255 L 893 1464 L 1102 1464 L 1065 1255 L 856 1255 Z" unicode="¨" />
<glyph horiz-adv-x="1734" d="M 117 578 C 117 678 136 774 175 866 C 214 958 267 1037 333 1103 C 399 1169 477 1222 569 1262 C 661 1301 757 1321 858 1321 C 992 1321 1117 1287 1231 1221 C 1345 1155 1435 1065 1502 951 C 1568 837 1602 712 1602 578 C 1602 477 1582 381 1543 289 C 1503 197 1450 118 1384 52 C 1317 -13 1238 -66 1146 -105 C 1054 -144 958 -164 858 -164 C 723 -164 599 -130 485 -64 C 371 1 282 91 216 205 C 150 319 117 443 117 578 Z M 242 578 C 242 466 269 363 324 268 C 379 173 454 98 549 42 C 644 -13 748 -41 860 -41 C 972 -41 1075 -13 1171 42 C 1266 97 1341 172 1397 268 C 1453 363 1481 466 1481 578 C 1481 690 1453 793 1397 889 C 1341 985 1266 1060 1171 1116 C 1075 1172 972 1200 860 1200 C 776 1200 695 1183 619 1150 C 543 1117 477 1073 422 1017 C 367 961 323 895 291 819 C 258 742 242 662 242 578 Z M 457 578 C 457 692 496 787 574 864 C 652 940 752 979 874 979 C 981 979 1079 942 1169 870 L 1073 748 C 1003 798 938 823 879 823 C 810 823 752 799 706 753 C 660 707 637 648 637 578 C 637 503 659 443 705 399 C 750 354 808 332 879 332 C 953 332 1019 358 1077 412 L 1186 299 C 1144 259 1095 227 1041 205 C 987 183 930 172 872 172 C 747 172 647 209 571 284 C 495 358 457 456 457 578 Z" unicode="©" />
<glyph horiz-adv-x="778" d="M 113 868 C 113 1038 269 1128 582 1137 L 596 1212 C 602 1246 598 1270 585 1286 C 572 1301 546 1309 506 1309 C 436 1309 353 1285 258 1239 L 215 1370 C 316 1420 416 1446 516 1446 C 609 1446 675 1424 715 1380 C 754 1336 768 1279 756 1210 L 698 885 C 693 859 695 842 704 834 C 712 825 729 821 754 821 L 733 698 C 679 698 639 704 612 717 C 584 730 564 750 551 778 C 483 715 406 684 319 684 C 258 684 208 700 170 734 C 132 768 113 812 113 868 Z M 279 887 C 279 865 286 847 302 833 C 317 819 338 813 365 813 C 429 813 486 835 535 879 L 563 1030 C 481 1028 414 1016 360 993 C 306 969 279 934 279 887 Z" unicode="ª" />
<glyph horiz-adv-x="1286" d="M 63 545 L 530 1085 L 688 954 L 307 528 L 571 117 L 397 0 L 63 545 Z M 592 545 L 1059 1085 L 1217 954 L 836 528 L 1100 117 L 926 0 L 592 545 Z" unicode="«" />
<glyph horiz-adv-x="1284" d="M 172 938 L 207 1139 L 1257 1139 L 1151 547 L 907 547 L 977 938 L 172 938 Z" unicode="¬" />
<glyph horiz-adv-x="1118" d="M 33 0 L 236 1139 L 1092 1139 L 1057 944 L 438 944 L 391 666 L 942 666 L 911 489 L 358 489 L 305 195 L 932 195 L 899 0 L 33 0 Z M 317 -375 L 354 -164 L 559 -164 L 522 -375 L 317 -375 Z M 410 1507 L 584 1630 L 799 1249 L 643 1249 L 410 1507 Z" unicode="" />
<glyph horiz-adv-x="1734" d="M 117 578 C 117 678 136 774 175 866 C 214 958 267 1037 333 1103 C 399 1169 477 1222 569 1262 C 661 1301 757 1321 858 1321 C 992 1321 1117 1287 1231 1221 C 1345 1155 1435 1065 1502 951 C 1568 837 1602 712 1602 578 C 1602 477 1582 381 1543 289 C 1503 197 1450 118 1384 52 C 1317 -13 1238 -66 1146 -105 C 1054 -144 958 -164 858 -164 C 723 -164 599 -130 485 -64 C 371 1 282 91 216 205 C 150 319 117 443 117 578 Z M 242 578 C 242 466 269 363 324 268 C 379 173 454 98 549 42 C 644 -13 748 -41 860 -41 C 972 -41 1075 -13 1171 42 C 1266 97 1341 172 1397 268 C 1453 363 1481 466 1481 578 C 1481 690 1453 793 1397 889 C 1341 985 1266 1060 1171 1116 C 1075 1172 972 1200 860 1200 C 776 1200 695 1183 619 1150 C 543 1117 477 1073 422 1017 C 367 961 323 895 291 819 C 258 742 242 662 242 578 Z M 551 195 L 551 965 L 922 965 C 1021 965 1094 940 1142 892 C 1190 843 1214 783 1214 713 C 1214 667 1201 625 1177 585 C 1153 545 1116 515 1067 494 C 1077 476 1103 428 1145 348 C 1187 268 1216 217 1231 195 L 1040 195 L 899 473 L 727 473 L 727 195 L 551 195 Z M 727 606 L 903 606 C 949 606 984 616 1006 638 C 1028 659 1040 684 1040 713 C 1040 744 1029 770 1007 792 C 985 814 950 825 903 825 L 727 825 L 727 606 Z" unicode="®" />
<glyph horiz-adv-x="1267" d="M 446 1280 L 475 1438 L 1104 1438 L 1075 1280 L 446 1280 Z" unicode="¯" />
<glyph horiz-adv-x="845" d="M 158 1122 C 158 1219 192 1300 261 1364 C 329 1428 410 1460 504 1460 C 596 1460 677 1428 745 1364 C 813 1300 848 1219 848 1122 C 848 1020 814 938 748 877 C 681 816 600 786 506 786 C 410 786 328 816 260 877 C 192 938 158 1020 158 1122 Z M 311 1122 C 311 1064 330 1018 369 983 C 407 947 453 930 506 930 C 558 930 603 947 640 982 C 677 1017 696 1064 696 1122 C 696 1178 677 1224 640 1260 C 602 1296 558 1315 506 1315 C 454 1315 408 1296 369 1260 C 330 1224 311 1178 311 1122 Z" unicode="°" />
<glyph horiz-adv-x="1239" d="M -25 0 L 4 168 L 428 168 L 487 506 L 66 506 L 104 711 L 526 711 L 592 1085 L 811 1085 L 748 711 L 1171 711 L 1130 506 L 709 506 L 649 168 L 1071 168 L 1042 0 L -25 0 Z" unicode="±" />
<glyph horiz-adv-x="690" d="M 164 1024 L 172 1098 C 176 1141 188 1180 208 1216 C 228 1251 251 1280 278 1303 C 305 1325 335 1346 367 1364 C 399 1382 430 1398 461 1412 C 492 1426 520 1439 546 1452 C 571 1465 591 1480 607 1497 C 623 1513 631 1532 631 1552 C 631 1576 622 1596 605 1611 C 587 1626 562 1634 528 1634 C 460 1634 393 1605 326 1548 L 236 1647 C 272 1681 318 1710 372 1733 C 426 1755 481 1767 537 1767 C 611 1767 671 1746 717 1705 C 763 1663 786 1613 786 1554 C 786 1506 771 1464 743 1429 C 714 1393 679 1365 637 1345 C 595 1325 554 1306 512 1289 C 470 1271 433 1252 401 1230 C 369 1208 350 1183 346 1155 L 711 1155 L 690 1024 L 164 1024 Z" unicode="²" />
<glyph horiz-adv-x="704" d="M 172 1087 L 246 1196 C 306 1158 366 1139 428 1139 C 475 1139 514 1151 545 1175 C 576 1199 592 1230 592 1266 C 592 1291 583 1309 565 1320 C 547 1331 520 1337 483 1337 L 367 1337 L 387 1464 L 496 1464 C 540 1464 572 1472 593 1489 C 614 1505 625 1528 625 1556 C 625 1579 615 1598 597 1614 C 578 1630 552 1638 520 1638 C 462 1638 397 1613 326 1565 L 250 1669 C 342 1734 439 1767 541 1767 C 610 1767 667 1748 713 1712 C 759 1676 782 1629 782 1571 C 782 1492 742 1435 662 1399 C 722 1369 752 1322 752 1257 C 752 1181 721 1120 659 1076 C 597 1032 520 1010 426 1010 C 328 1010 244 1035 172 1087 Z" unicode="³" />
<glyph horiz-adv-x="1243" d="M 504 1196 L 838 1577 L 1001 1454 L 662 1196 L 504 1196 Z" unicode="´" />
<glyph horiz-adv-x="1161" d="M -66 -410 L 209 1139 L 453 1139 L 317 383 C 312 357 309 335 308 316 C 306 297 307 278 310 258 C 313 238 319 222 328 209 C 337 196 350 186 368 178 C 386 170 408 166 434 166 C 488 166 541 186 594 228 C 647 270 704 332 764 416 L 891 1139 L 1137 1139 L 936 0 L 731 0 L 737 174 C 639 44 527 -20 399 -20 C 335 -20 284 1 248 43 L 150 -410 L -66 -410 Z" unicode="µ" />
<glyph horiz-adv-x="1447" d="M 162 938 C 162 983 168 1028 181 1073 C 194 1118 215 1163 245 1207 C 275 1251 311 1289 354 1323 C 396 1356 450 1383 515 1403 C 580 1423 652 1434 731 1434 L 1423 1434 L 1171 0 L 952 0 L 1174 1255 L 991 1255 L 768 0 L 551 0 L 651 567 L 584 567 C 510 567 445 577 389 599 C 333 620 289 649 257 685 C 225 721 201 761 185 803 C 169 845 162 890 162 938 Z" unicode="¶" />
<glyph horiz-adv-x="466" d="M 59 408 L 109 678 L 379 678 L 332 408 L 59 408 Z" unicode="·" />
<glyph horiz-adv-x="1243" d="M 246 -362 C 322 -310 391 -250 452 -182 C 513 -113 556 -43 580 29 L 745 29 C 721 -66 681 -154 625 -236 C 569 -318 502 -389 422 -451 L 246 -362 Z" unicode="¸" />
<glyph horiz-adv-x="647" d="M 180 1024 L 203 1153 L 369 1153 L 444 1581 L 311 1516 L 250 1634 L 512 1755 L 635 1755 L 528 1153 L 676 1153 L 655 1024 L 180 1024 Z" unicode="¹" />
<glyph horiz-adv-x="849" d="M 133 1004 C 133 1134 173 1240 253 1322 C 333 1404 435 1446 559 1446 C 649 1446 724 1416 784 1358 C 844 1299 874 1222 874 1126 C 874 996 834 889 754 807 C 674 725 573 684 449 684 C 358 684 283 713 223 772 C 163 830 133 908 133 1004 Z M 297 1010 C 297 881 353 817 467 817 C 534 817 591 847 639 907 C 687 967 711 1038 711 1120 C 711 1248 654 1313 541 1313 C 473 1313 416 1282 368 1222 C 320 1162 297 1091 297 1010 Z" unicode="º" />
<glyph horiz-adv-x="1286" d="M 27 133 L 408 563 L 141 971 L 317 1085 L 651 545 L 184 0 L 27 133 Z M 555 133 L 936 563 L 670 971 L 846 1085 L 1180 545 L 713 0 L 555 133 Z" unicode="»" />
<glyph horiz-adv-x="1611" d="M 133 0 L 1559 1434 L 1749 1434 L 324 0 L 133 0 Z M 154 702 L 176 831 L 342 831 L 418 1260 L 285 1194 L 223 1313 L 485 1434 L 608 1434 L 502 831 L 649 831 L 629 702 L 154 702 Z M 913 262 L 1335 729 L 1509 729 L 1430 272 L 1518 272 L 1497 145 L 1407 145 L 1380 0 L 1227 0 L 1253 145 L 946 145 L 913 262 Z M 1083 272 L 1276 272 L 1327 547 L 1083 272 Z" unicode="¼" />
<glyph horiz-adv-x="1814" d="M 133 0 L 1559 1434 L 1749 1434 L 324 0 L 133 0 Z M 154 702 L 176 831 L 342 831 L 418 1260 L 285 1194 L 223 1313 L 485 1434 L 608 1434 L 502 831 L 649 831 L 629 702 L 154 702 Z M 1083 0 L 1092 74 C 1096 117 1108 156 1128 192 C 1147 227 1170 256 1198 279 C 1225 301 1255 322 1287 340 C 1319 358 1350 374 1381 388 C 1411 402 1439 415 1465 428 C 1490 441 1510 456 1526 473 C 1542 489 1550 508 1550 528 C 1550 552 1541 572 1524 587 C 1506 602 1481 610 1448 610 C 1380 610 1312 581 1245 524 L 1155 623 C 1191 657 1237 686 1291 709 C 1345 731 1400 743 1456 743 C 1530 743 1590 722 1636 681 C 1682 639 1706 589 1706 530 C 1706 482 1691 440 1663 405 C 1634 369 1599 341 1557 321 C 1515 301 1474 282 1432 265 C 1390 247 1353 228 1321 206 C 1289 184 1270 159 1266 131 L 1630 131 L 1610 0 L 1083 0 Z" unicode="½" />
<glyph horiz-adv-x="1595" d="M 113 0 L 1538 1434 L 1729 1434 L 303 0 L 113 0 Z M 137 766 L 211 874 C 271 836 331 817 393 817 C 440 817 479 829 510 853 C 541 877 557 908 557 944 C 557 969 548 987 531 999 C 513 1010 486 1016 449 1016 L 332 1016 L 352 1143 L 461 1143 C 505 1143 537 1151 558 1168 C 579 1184 590 1207 590 1235 C 590 1258 580 1277 562 1293 C 543 1309 517 1317 485 1317 C 427 1317 363 1292 291 1243 L 215 1348 C 307 1413 404 1446 506 1446 C 575 1446 633 1427 679 1391 C 725 1354 748 1307 748 1249 C 748 1171 707 1113 627 1077 C 687 1047 717 1000 717 936 C 717 860 686 799 624 755 C 562 710 485 688 391 688 C 294 688 209 714 137 766 Z M 897 262 L 1319 729 L 1493 729 L 1413 272 L 1501 272 L 1481 145 L 1391 145 L 1364 0 L 1210 0 L 1237 145 L 930 145 L 897 262 Z M 1067 272 L 1260 272 L 1311 547 L 1067 272 Z" unicode="¾" />
<glyph horiz-adv-x="1073" d="M -20 -12 C -20 37 -10 82 8 124 C 27 165 52 200 83 230 C 114 259 149 286 187 312 C 225 338 263 362 302 385 C 341 407 377 430 411 452 C 444 474 472 500 496 529 C 520 557 535 588 541 621 L 547 653 L 733 653 C 733 633 731 614 727 594 C 719 546 703 503 680 463 C 657 423 631 390 601 363 C 571 335 540 310 506 286 C 472 262 438 240 406 220 C 374 200 344 179 318 159 C 292 139 271 116 255 90 C 239 64 231 37 231 8 C 231 -46 251 -89 291 -121 C 331 -153 380 -170 440 -170 C 549 -170 662 -120 778 -20 L 913 -170 C 767 -305 604 -373 424 -373 C 344 -373 271 -359 205 -332 C 139 -305 85 -264 43 -208 C 1 -152 -20 -86 -20 -12 Z M 543 846 L 582 1085 L 848 1085 L 809 846 L 543 846 Z" unicode="¿" />
<glyph horiz-adv-x="1423" d="M -66 0 L 705 1434 L 999 1434 L 1260 0 L 1008 0 L 956 309 L 367 309 L 209 0 L -66 0 Z M 469 508 L 926 508 L 817 1176 L 813 1176 L 469 508 Z M 616 1718 L 797 1843 L 977 1546 L 825 1546 L 616 1718 Z" unicode="À" />
<glyph horiz-adv-x="1423" d="M -66 0 L 705 1434 L 999 1434 L 1260 0 L 1008 0 L 956 309 L 367 309 L 209 0 L -66 0 Z M 469 508 L 926 508 L 817 1176 L 813 1176 L 469 508 Z M 762 1546 L 1036 1843 L 1212 1718 L 928 1546 L 762 1546 Z" unicode="Á" />
<glyph horiz-adv-x="1423" d="M -66 0 L 705 1434 L 999 1434 L 1260 0 L 1008 0 L 956 309 L 367 309 L 209 0 L -66 0 Z M 469 508 L 926 508 L 817 1176 L 813 1176 L 469 508 Z M 508 1546 L 799 1800 L 1028 1800 L 1225 1546 L 1075 1546 L 899 1673 L 895 1673 L 680 1546 L 508 1546 Z" unicode="Â" />
<glyph horiz-adv-x="1423" d="M -66 0 L 705 1434 L 999 1434 L 1260 0 L 1008 0 L 956 309 L 367 309 L 209 0 L -66 0 Z M 469 508 L 926 508 L 817 1176 L 813 1176 L 469 508 Z M 551 1548 C 553 1632 575 1697 615 1744 C 655 1791 708 1815 776 1815 C 805 1815 833 1809 859 1797 C 885 1785 905 1772 921 1758 C 937 1744 954 1731 973 1719 C 992 1707 1010 1702 1026 1702 C 1074 1702 1101 1734 1106 1798 L 1251 1798 C 1247 1714 1225 1648 1185 1602 C 1145 1555 1090 1532 1022 1532 C 993 1532 966 1537 940 1549 C 914 1560 893 1573 877 1587 C 861 1601 844 1613 826 1625 C 807 1636 790 1642 774 1642 C 750 1642 732 1633 718 1617 C 704 1600 697 1577 696 1548 L 551 1548 Z" unicode="Ã" />
<glyph horiz-adv-x="1423" d="M -66 0 L 705 1434 L 999 1434 L 1260 0 L 1008 0 L 956 309 L 367 309 L 209 0 L -66 0 Z M 469 508 L 926 508 L 817 1176 L 813 1176 L 469 508 Z M 559 1569 L 596 1778 L 807 1778 L 768 1569 L 559 1569 Z M 991 1569 L 1030 1778 L 1237 1778 L 1198 1569 L 991 1569 Z" unicode="Ä" />
<glyph horiz-adv-x="1423" d="M -66 0 L 686 1399 C 652 1435 635 1481 635 1538 C 635 1607 659 1665 708 1713 C 756 1760 819 1784 897 1784 C 958 1784 1008 1765 1047 1727 C 1086 1689 1106 1640 1106 1581 C 1106 1541 1097 1503 1080 1469 C 1062 1435 1038 1406 1008 1384 L 1260 0 L 1008 0 L 956 309 L 367 309 L 209 0 L -66 0 Z M 469 508 L 926 508 L 817 1176 L 813 1176 L 469 508 Z M 745 1544 C 745 1512 753 1486 770 1466 C 787 1446 812 1436 844 1434 L 854 1434 C 893 1434 927 1447 955 1475 C 983 1503 997 1537 997 1577 C 997 1611 987 1637 969 1657 C 951 1676 924 1686 889 1686 C 849 1686 815 1672 787 1644 C 759 1616 745 1583 745 1544 Z" unicode="Å" />
<glyph horiz-adv-x="2113" d="M -76 0 L 811 1434 L 2130 1434 L 2091 1217 L 1167 1217 L 1204 831 L 1944 831 L 1909 627 L 1223 627 L 1264 217 L 1925 217 L 1888 0 L 1040 0 L 1014 309 L 401 309 L 215 0 L -76 0 Z M 524 514 L 997 514 L 940 1194 L 934 1194 L 524 514 Z" unicode="Æ" />
<glyph horiz-adv-x="1427" d="M 96 612 C 96 768 132 910 204 1039 C 276 1167 376 1269 506 1345 C 636 1420 781 1458 942 1458 C 1130 1458 1289 1397 1417 1276 L 1270 1116 C 1176 1202 1061 1245 926 1245 C 850 1245 776 1229 706 1197 C 636 1165 574 1121 522 1067 C 470 1012 428 946 397 869 C 365 791 350 710 350 625 C 350 489 387 382 461 304 C 535 226 632 188 752 188 C 824 188 890 202 952 231 C 1014 260 1075 302 1137 356 L 1276 182 C 1124 54 955 -14 770 -23 C 715 -191 613 -334 463 -451 L 287 -362 C 355 -314 418 -260 475 -200 C 531 -140 574 -78 604 -14 C 454 10 331 77 237 188 C 143 299 96 440 96 612 Z" unicode="Ç" />
<glyph horiz-adv-x="1282" d="M 41 0 L 295 1434 L 1298 1434 L 1260 1217 L 506 1217 L 436 829 L 1112 829 L 1077 629 L 401 629 L 328 217 L 1094 217 L 1055 0 L 41 0 Z M 545 1718 L 725 1843 L 905 1546 L 754 1546 L 545 1718 Z" unicode="È" />
<glyph horiz-adv-x="1282" d="M 41 0 L 295 1434 L 1298 1434 L 1260 1217 L 506 1217 L 436 829 L 1112 829 L 1077 629 L 401 629 L 328 217 L 1094 217 L 1055 0 L 41 0 Z M 702 1546 L 977 1843 L 1153 1718 L 868 1546 L 702 1546 Z" unicode="É" />
<glyph horiz-adv-x="1282" d="M 41 0 L 295 1434 L 1298 1434 L 1260 1217 L 506 1217 L 436 829 L 1112 829 L 1077 629 L 401 629 L 328 217 L 1094 217 L 1055 0 L 41 0 Z M 461 1546 L 752 1800 L 981 1800 L 1178 1546 L 1028 1546 L 852 1673 L 848 1673 L 633 1546 L 461 1546 Z" unicode="Ê" />
<glyph horiz-adv-x="1282" d="M 41 0 L 295 1434 L 1298 1434 L 1260 1217 L 506 1217 L 436 829 L 1112 829 L 1077 629 L 401 629 L 328 217 L 1094 217 L 1055 0 L 41 0 Z M 500 1569 L 537 1778 L 748 1778 L 709 1569 L 500 1569 Z M 932 1569 L 971 1778 L 1178 1778 L 1139 1569 L 932 1569 Z" unicode="Ë" />
<glyph horiz-adv-x="555" d="M 41 0 L 295 1434 L 543 1434 L 291 0 L 41 0 Z M 172 1718 L 352 1843 L 532 1546 L 381 1546 L 172 1718 Z" unicode="Ì" />
<glyph horiz-adv-x="555" d="M 41 0 L 295 1434 L 543 1434 L 291 0 L 41 0 Z M 326 1546 L 600 1843 L 776 1718 L 492 1546 L 326 1546 Z" unicode="Í" />
<glyph horiz-adv-x="555" d="M 41 0 L 295 1434 L 543 1434 L 291 0 L 41 0 Z M 70 1546 L 360 1800 L 590 1800 L 786 1546 L 637 1546 L 461 1673 L 457 1673 L 242 1546 L 70 1546 Z" unicode="Î" />
<glyph horiz-adv-x="555" d="M 41 0 L 295 1434 L 543 1434 L 291 0 L 41 0 Z M 117 1569 L 154 1778 L 365 1778 L 326 1569 L 117 1569 Z M 549 1569 L 588 1778 L 795 1778 L 756 1569 L 549 1569 Z" unicode="Ï" />
<glyph horiz-adv-x="1548" d="M 33 641 L 61 801 L 258 801 L 371 1434 L 805 1434 C 1011 1434 1173 1381 1292 1276 C 1410 1171 1470 1023 1470 831 C 1470 737 1458 649 1435 567 C 1412 485 1376 409 1328 339 C 1280 269 1221 209 1151 159 C 1081 109 996 70 897 42 C 798 14 689 0 569 0 L 117 0 L 229 641 L 33 641 Z M 401 207 L 604 207 C 700 207 786 222 864 254 C 942 285 1006 328 1057 383 C 1107 438 1146 502 1173 576 C 1200 650 1214 729 1214 815 C 1214 953 1179 1057 1110 1125 C 1041 1193 935 1227 793 1227 L 582 1227 L 506 801 L 858 801 L 831 643 L 477 643 L 401 207 Z" unicode="Ð" />
<glyph horiz-adv-x="1478" d="M 41 0 L 295 1434 L 502 1434 L 1042 391 L 1227 1434 L 1466 1434 L 1212 0 L 999 0 L 465 1042 L 281 0 L 41 0 Z M 553 1548 C 555 1632 577 1697 617 1744 C 657 1791 710 1815 778 1815 C 807 1815 835 1809 861 1797 C 887 1785 907 1772 923 1758 C 939 1744 956 1731 975 1719 C 994 1707 1012 1702 1028 1702 C 1076 1702 1103 1734 1108 1798 L 1253 1798 C 1249 1714 1227 1648 1187 1602 C 1147 1555 1092 1532 1024 1532 C 995 1532 968 1537 942 1549 C 916 1560 895 1573 879 1587 C 863 1601 846 1613 828 1625 C 809 1636 792 1642 776 1642 C 752 1642 734 1633 720 1617 C 706 1600 699 1577 698 1548 L 553 1548 Z" unicode="Ñ" />
<glyph horiz-adv-x="1642" d="M 102 598 C 102 716 123 828 165 934 C 207 1040 264 1131 337 1208 C 410 1284 498 1345 602 1390 C 706 1435 817 1458 936 1458 C 1022 1458 1103 1444 1179 1417 C 1255 1389 1322 1350 1381 1299 C 1439 1247 1486 1182 1520 1102 C 1554 1022 1571 934 1571 836 C 1571 718 1550 606 1508 500 C 1466 394 1408 302 1335 225 C 1262 148 1174 87 1070 42 C 966 -2 855 -25 737 -25 C 651 -25 570 -11 494 16 C 418 44 350 83 292 135 C 233 186 187 251 153 331 C 119 411 102 500 102 598 Z M 356 623 C 356 485 392 378 464 302 C 536 226 632 188 754 188 C 827 188 898 203 967 235 C 1035 266 1095 309 1147 363 C 1198 417 1239 483 1270 561 C 1301 639 1317 723 1317 811 C 1317 948 1281 1055 1209 1132 C 1137 1208 1042 1247 922 1247 C 848 1247 777 1231 708 1200 C 639 1168 579 1125 527 1071 C 475 1017 434 950 403 872 C 371 794 356 711 356 623 Z M 696 1718 L 877 1843 L 1057 1546 L 905 1546 L 696 1718 Z" unicode="Ò" />
<glyph horiz-adv-x="1642" d="M 102 598 C 102 716 123 828 165 934 C 207 1040 264 1131 337 1208 C 410 1284 498 1345 602 1390 C 706 1435 817 1458 936 1458 C 1022 1458 1103 1444 1179 1417 C 1255 1389 1322 1350 1381 1299 C 1439 1247 1486 1182 1520 1102 C 1554 1022 1571 934 1571 836 C 1571 718 1550 606 1508 500 C 1466 394 1408 302 1335 225 C 1262 148 1174 87 1070 42 C 966 -2 855 -25 737 -25 C 651 -25 570 -11 494 16 C 418 44 350 83 292 135 C 233 186 187 251 153 331 C 119 411 102 500 102 598 Z M 356 623 C 356 485 392 378 464 302 C 536 226 632 188 754 188 C 827 188 898 203 967 235 C 1035 266 1095 309 1147 363 C 1198 417 1239 483 1270 561 C 1301 639 1317 723 1317 811 C 1317 948 1281 1055 1209 1132 C 1137 1208 1042 1247 922 1247 C 848 1247 777 1231 708 1200 C 639 1168 579 1125 527 1071 C 475 1017 434 950 403 872 C 371 794 356 711 356 623 Z M 852 1546 L 1126 1843 L 1303 1718 L 1018 1546 L 852 1546 Z" unicode="Ó" />
<glyph horiz-adv-x="1642" d="M 102 598 C 102 716 123 828 165 934 C 207 1040 264 1131 337 1208 C 410 1284 498 1345 602 1390 C 706 1435 817 1458 936 1458 C 1022 1458 1103 1444 1179 1417 C 1255 1389 1322 1350 1381 1299 C 1439 1247 1486 1182 1520 1102 C 1554 1022 1571 934 1571 836 C 1571 718 1550 606 1508 500 C 1466 394 1408 302 1335 225 C 1262 148 1174 87 1070 42 C 966 -2 855 -25 737 -25 C 651 -25 570 -11 494 16 C 418 44 350 83 292 135 C 233 186 187 251 153 331 C 119 411 102 500 102 598 Z M 356 623 C 356 485 392 378 464 302 C 536 226 632 188 754 188 C 827 188 898 203 967 235 C 1035 266 1095 309 1147 363 C 1198 417 1239 483 1270 561 C 1301 639 1317 723 1317 811 C 1317 948 1281 1055 1209 1132 C 1137 1208 1042 1247 922 1247 C 848 1247 777 1231 708 1200 C 639 1168 579 1125 527 1071 C 475 1017 434 950 403 872 C 371 794 356 711 356 623 Z M 596 1546 L 887 1800 L 1116 1800 L 1313 1546 L 1163 1546 L 987 1673 L 983 1673 L 768 1546 L 596 1546 Z" unicode="Ô" />
<glyph horiz-adv-x="1642" d="M 102 598 C 102 716 123 828 165 934 C 207 1040 264 1131 337 1208 C 410 1284 498 1345 602 1390 C 706 1435 817 1458 936 1458 C 1022 1458 1103 1444 1179 1417 C 1255 1389 1322 1350 1381 1299 C 1439 1247 1486 1182 1520 1102 C 1554 1022 1571 934 1571 836 C 1571 718 1550 606 1508 500 C 1466 394 1408 302 1335 225 C 1262 148 1174 87 1070 42 C 966 -2 855 -25 737 -25 C 651 -25 570 -11 494 16 C 418 44 350 83 292 135 C 233 186 187 251 153 331 C 119 411 102 500 102 598 Z M 356 623 C 356 485 392 378 464 302 C 536 226 632 188 754 188 C 827 188 898 203 967 235 C 1035 266 1095 309 1147 363 C 1198 417 1239 483 1270 561 C 1301 639 1317 723 1317 811 C 1317 948 1281 1055 1209 1132 C 1137 1208 1042 1247 922 1247 C 848 1247 777 1231 708 1200 C 639 1168 579 1125 527 1071 C 475 1017 434 950 403 872 C 371 794 356 711 356 623 Z M 633 1548 C 635 1632 657 1697 697 1744 C 737 1791 790 1815 858 1815 C 887 1815 915 1809 941 1797 C 967 1785 987 1772 1003 1758 C 1019 1744 1036 1731 1055 1719 C 1074 1707 1092 1702 1108 1702 C 1156 1702 1183 1734 1188 1798 L 1333 1798 C 1329 1714 1307 1648 1267 1602 C 1227 1555 1172 1532 1104 1532 C 1075 1532 1048 1537 1022 1549 C 996 1560 975 1573 959 1587 C 943 1601 926 1613 908 1625 C 889 1636 872 1642 856 1642 C 832 1642 814 1633 800 1617 C 786 1600 779 1577 778 1548 L 633 1548 Z" unicode="Õ" />
<glyph horiz-adv-x="1642" d="M 102 598 C 102 716 123 828 165 934 C 207 1040 264 1131 337 1208 C 410 1284 498 1345 602 1390 C 706 1435 817 1458 936 1458 C 1022 1458 1103 1444 1179 1417 C 1255 1389 1322 1350 1381 1299 C 1439 1247 1486 1182 1520 1102 C 1554 1022 1571 934 1571 836 C 1571 718 1550 606 1508 500 C 1466 394 1408 302 1335 225 C 1262 148 1174 87 1070 42 C 966 -2 855 -25 737 -25 C 651 -25 570 -11 494 16 C 418 44 350 83 292 135 C 233 186 187 251 153 331 C 119 411 102 500 102 598 Z M 356 623 C 356 485 392 378 464 302 C 536 226 632 188 754 188 C 827 188 898 203 967 235 C 1035 266 1095 309 1147 363 C 1198 417 1239 483 1270 561 C 1301 639 1317 723 1317 811 C 1317 948 1281 1055 1209 1132 C 1137 1208 1042 1247 922 1247 C 848 1247 777 1231 708 1200 C 639 1168 579 1125 527 1071 C 475 1017 434 950 403 872 C 371 794 356 711 356 623 Z M 655 1569 L 692 1778 L 903 1778 L 864 1569 L 655 1569 Z M 1087 1569 L 1126 1778 L 1333 1778 L 1294 1569 L 1087 1569 Z" unicode="Ö" />
<glyph horiz-adv-x="1198" d="M 45 199 L 446 553 L 170 905 L 332 1040 L 604 688 L 991 1042 L 1128 885 L 733 530 L 1006 182 L 840 49 L 575 395 L 182 43 L 45 199 Z" unicode="×" />
<glyph horiz-adv-x="1642" d="M 72 25 L 233 197 C 145 303 102 437 102 598 C 102 716 123 828 165 934 C 207 1040 264 1131 337 1208 C 410 1284 498 1345 602 1390 C 706 1435 817 1458 936 1458 C 1084 1458 1212 1420 1319 1346 L 1473 1513 L 1593 1407 L 1434 1241 C 1525 1135 1571 1000 1571 836 C 1571 718 1550 606 1508 500 C 1466 394 1408 302 1335 225 C 1262 148 1174 87 1070 42 C 966 -2 855 -25 737 -25 C 583 -25 452 14 344 92 L 186 -78 L 72 25 Z M 356 623 C 356 523 376 439 416 369 L 1165 1169 C 1097 1221 1016 1247 922 1247 C 848 1247 777 1231 708 1200 C 639 1168 579 1125 527 1071 C 475 1017 434 950 403 872 C 371 794 356 711 356 623 Z M 500 268 C 566 214 651 188 754 188 C 827 188 898 203 967 235 C 1035 266 1095 309 1147 363 C 1198 417 1239 483 1270 561 C 1301 639 1317 723 1317 811 C 1317 911 1295 998 1253 1071 L 500 268 Z" unicode="Ø" />
<glyph horiz-adv-x="1456" d="M 123 422 C 123 472 127 525 137 580 L 291 1434 L 541 1434 L 383 563 C 375 522 371 478 371 432 C 371 352 396 291 446 249 C 496 207 565 186 651 186 C 747 186 831 217 903 279 C 975 341 1021 432 1042 553 L 1196 1434 L 1444 1434 L 1288 539 C 1257 357 1181 218 1060 121 C 939 23 789 -25 610 -25 C 464 -25 346 14 257 93 C 167 171 123 281 123 422 Z M 614 1718 L 795 1843 L 975 1546 L 823 1546 L 614 1718 Z" unicode="Ù" />
<glyph horiz-adv-x="1456" d="M 123 422 C 123 472 127 525 137 580 L 291 1434 L 541 1434 L 383 563 C 375 522 371 478 371 432 C 371 352 396 291 446 249 C 496 207 565 186 651 186 C 747 186 831 217 903 279 C 975 341 1021 432 1042 553 L 1196 1434 L 1444 1434 L 1288 539 C 1257 357 1181 218 1060 121 C 939 23 789 -25 610 -25 C 464 -25 346 14 257 93 C 167 171 123 281 123 422 Z M 772 1546 L 1047 1843 L 1223 1718 L 938 1546 L 772 1546 Z" unicode="Ú" />
<glyph horiz-adv-x="1456" d="M 123 422 C 123 472 127 525 137 580 L 291 1434 L 541 1434 L 383 563 C 375 522 371 478 371 432 C 371 352 396 291 446 249 C 496 207 565 186 651 186 C 747 186 831 217 903 279 C 975 341 1021 432 1042 553 L 1196 1434 L 1444 1434 L 1288 539 C 1257 357 1181 218 1060 121 C 939 23 789 -25 610 -25 C 464 -25 346 14 257 93 C 167 171 123 281 123 422 Z M 518 1546 L 809 1800 L 1038 1800 L 1235 1546 L 1085 1546 L 909 1673 L 905 1673 L 690 1546 L 518 1546 Z" unicode="Û" />
<glyph horiz-adv-x="1456" d="M 123 422 C 123 472 127 525 137 580 L 291 1434 L 541 1434 L 383 563 C 375 522 371 478 371 432 C 371 352 396 291 446 249 C 496 207 565 186 651 186 C 747 186 831 217 903 279 C 975 341 1021 432 1042 553 L 1196 1434 L 1444 1434 L 1288 539 C 1257 357 1181 218 1060 121 C 939 23 789 -25 610 -25 C 464 -25 346 14 257 93 C 167 171 123 281 123 422 Z M 569 1569 L 606 1778 L 817 1778 L 778 1569 L 569 1569 Z M 1001 1569 L 1040 1778 L 1247 1778 L 1208 1569 L 1001 1569 Z" unicode="Ü" />
<glyph horiz-adv-x="1390" d="M 184 1434 L 453 1434 L 717 821 L 721 821 L 1194 1434 L 1491 1434 L 809 575 L 709 0 L 459 0 L 561 580 L 184 1434 Z M 713 1546 L 987 1843 L 1163 1718 L 879 1546 L 713 1546 Z" unicode="Ý" />
<glyph horiz-adv-x="1345" d="M 41 0 L 295 1434 L 543 1434 L 504 1198 L 750 1198 C 912 1198 1037 1159 1125 1083 C 1213 1007 1257 906 1257 780 C 1257 706 1244 637 1219 574 C 1194 511 1156 455 1105 405 C 1053 355 984 315 897 287 C 809 258 708 244 592 244 L 332 244 L 291 0 L 41 0 Z M 371 444 L 621 444 C 741 444 836 474 904 534 C 972 594 1006 671 1006 766 C 1006 845 983 903 938 940 C 892 976 819 995 717 995 L 467 995 L 371 444 Z" unicode="Þ" />
<glyph horiz-adv-x="1304" d="M 25 0 L 221 1102 C 247 1251 309 1365 409 1443 C 508 1521 636 1561 793 1561 C 916 1561 1018 1525 1099 1453 C 1180 1381 1221 1288 1221 1174 C 1221 1079 1194 999 1142 933 C 1089 867 1018 818 928 788 L 928 786 C 1012 763 1077 723 1121 665 C 1165 607 1188 536 1188 451 C 1188 357 1163 273 1115 201 C 1066 128 1001 73 921 36 C 840 -1 751 -20 653 -20 C 567 -20 486 -6 410 20 L 479 207 C 539 185 595 174 647 174 C 733 174 806 200 864 252 C 922 304 952 374 952 463 C 952 536 928 591 881 629 C 834 667 770 686 688 686 L 596 686 L 635 881 L 680 881 C 771 881 844 906 900 956 C 955 1006 983 1076 983 1165 C 983 1231 963 1283 925 1321 C 886 1359 832 1378 762 1378 C 685 1378 618 1352 562 1300 C 505 1248 469 1177 453 1087 L 262 0 L 25 0 Z" unicode="ß" />
<glyph horiz-adv-x="1228" d="M 61 420 C 61 548 85 665 133 771 C 181 876 248 958 333 1018 C 417 1078 511 1108 614 1108 C 676 1108 735 1094 789 1068 C 843 1042 886 1009 918 971 L 948 1083 L 1159 1083 L 1018 287 C 1014 263 1012 245 1012 233 C 1012 208 1018 191 1032 181 C 1046 171 1067 166 1096 166 L 1067 -4 C 985 -4 921 8 877 34 C 832 59 805 101 797 160 C 699 36 580 -25 438 -25 C 331 -25 241 14 169 93 C 97 171 61 280 61 420 Z M 303 438 C 303 344 320 275 356 230 C 391 184 437 162 494 162 C 603 162 706 239 803 393 L 877 823 C 801 889 722 922 639 922 C 543 922 463 875 399 783 C 335 690 303 575 303 438 Z M 424 1454 L 598 1577 L 813 1196 L 657 1196 L 424 1454 Z" unicode="à" />
<glyph horiz-adv-x="1228" d="M 61 420 C 61 548 85 665 133 771 C 181 876 248 958 333 1018 C 417 1078 511 1108 614 1108 C 676 1108 735 1094 789 1068 C 843 1042 886 1009 918 971 L 948 1083 L 1159 1083 L 1018 287 C 1014 263 1012 245 1012 233 C 1012 208 1018 191 1032 181 C 1046 171 1067 166 1096 166 L 1067 -4 C 985 -4 921 8 877 34 C 832 59 805 101 797 160 C 699 36 580 -25 438 -25 C 331 -25 241 14 169 93 C 97 171 61 280 61 420 Z M 303 438 C 303 344 320 275 356 230 C 391 184 437 162 494 162 C 603 162 706 239 803 393 L 877 823 C 801 889 722 922 639 922 C 543 922 463 875 399 783 C 335 690 303 575 303 438 Z M 559 1196 L 893 1577 L 1057 1454 L 717 1196 L 559 1196 Z" unicode="á" />
<glyph horiz-adv-x="1228" d="M 61 420 C 61 548 85 665 133 771 C 181 876 248 958 333 1018 C 417 1078 511 1108 614 1108 C 676 1108 735 1094 789 1068 C 843 1042 886 1009 918 971 L 948 1083 L 1159 1083 L 1018 287 C 1014 263 1012 245 1012 233 C 1012 208 1018 191 1032 181 C 1046 171 1067 166 1096 166 L 1067 -4 C 985 -4 921 8 877 34 C 832 59 805 101 797 160 C 699 36 580 -25 438 -25 C 331 -25 241 14 169 93 C 97 171 61 280 61 420 Z M 303 438 C 303 344 320 275 356 230 C 391 184 437 162 494 162 C 603 162 706 239 803 393 L 877 823 C 801 889 722 922 639 922 C 543 922 463 875 399 783 C 335 690 303 575 303 438 Z M 334 1196 L 645 1524 L 879 1524 L 1071 1196 L 922 1196 L 754 1386 L 750 1386 L 514 1196 L 334 1196 Z" unicode="â" />
<glyph horiz-adv-x="1228" d="M 61 420 C 61 548 85 665 133 771 C 181 876 248 958 333 1018 C 417 1078 511 1108 614 1108 C 676 1108 735 1094 789 1068 C 843 1042 886 1009 918 971 L 948 1083 L 1159 1083 L 1018 287 C 1014 263 1012 245 1012 233 C 1012 208 1018 191 1032 181 C 1046 171 1067 166 1096 166 L 1067 -4 C 985 -4 921 8 877 34 C 832 59 805 101 797 160 C 699 36 580 -25 438 -25 C 331 -25 241 14 169 93 C 97 171 61 280 61 420 Z M 303 438 C 303 344 320 275 356 230 C 391 184 437 162 494 162 C 603 162 706 239 803 393 L 877 823 C 801 889 722 922 639 922 C 543 922 463 875 399 783 C 335 690 303 575 303 438 Z M 383 1233 C 387 1317 408 1382 448 1430 C 487 1477 540 1501 608 1501 C 637 1501 665 1495 691 1483 C 717 1471 737 1459 753 1445 C 768 1431 785 1418 804 1406 C 823 1394 841 1389 858 1389 C 906 1389 932 1421 936 1487 L 1081 1487 C 1077 1403 1054 1337 1014 1290 C 974 1242 920 1219 852 1219 C 824 1219 797 1224 772 1236 C 746 1247 726 1260 711 1274 C 695 1288 678 1300 660 1312 C 641 1323 624 1329 608 1329 C 558 1329 532 1297 528 1233 L 383 1233 Z" unicode="ã" />
<glyph horiz-adv-x="1228" d="M 61 420 C 61 548 85 665 133 771 C 181 876 248 958 333 1018 C 417 1078 511 1108 614 1108 C 676 1108 735 1094 789 1068 C 843 1042 886 1009 918 971 L 948 1083 L 1159 1083 L 1018 287 C 1014 263 1012 245 1012 233 C 1012 208 1018 191 1032 181 C 1046 171 1067 166 1096 166 L 1067 -4 C 985 -4 921 8 877 34 C 832 59 805 101 797 160 C 699 36 580 -25 438 -25 C 331 -25 241 14 169 93 C 97 171 61 280 61 420 Z M 303 438 C 303 344 320 275 356 230 C 391 184 437 162 494 162 C 603 162 706 239 803 393 L 877 823 C 801 889 722 922 639 922 C 543 922 463 875 399 783 C 335 690 303 575 303 438 Z M 401 1255 L 436 1464 L 647 1464 L 610 1255 L 401 1255 Z M 817 1255 L 854 1464 L 1063 1464 L 1026 1255 L 817 1255 Z" unicode="ä" />
<glyph horiz-adv-x="1228" d="M 61 420 C 61 548 85 665 133 771 C 181 876 248 958 333 1018 C 417 1078 511 1108 614 1108 C 676 1108 735 1094 789 1068 C 843 1042 886 1009 918 971 L 948 1083 L 1159 1083 L 1018 287 C 1014 263 1012 245 1012 233 C 1012 208 1018 191 1032 181 C 1046 171 1067 166 1096 166 L 1067 -4 C 985 -4 921 8 877 34 C 832 59 805 101 797 160 C 699 36 580 -25 438 -25 C 331 -25 241 14 169 93 C 97 171 61 280 61 420 Z M 303 438 C 303 344 320 275 356 230 C 391 184 437 162 494 162 C 603 162 706 239 803 393 L 877 823 C 801 889 722 922 639 922 C 543 922 463 875 399 783 C 335 690 303 575 303 438 Z M 492 1382 C 492 1452 516 1512 565 1560 C 614 1608 677 1632 754 1632 C 812 1632 862 1613 902 1576 C 942 1538 963 1491 963 1434 C 963 1363 938 1304 889 1256 C 840 1208 777 1184 700 1184 C 642 1184 592 1202 552 1240 C 512 1277 492 1324 492 1382 Z M 604 1391 C 604 1358 613 1332 632 1313 C 650 1293 677 1284 711 1284 C 747 1284 779 1297 809 1325 C 839 1353 854 1386 854 1425 C 854 1459 844 1485 826 1504 C 807 1522 779 1532 743 1532 C 707 1532 674 1518 646 1490 C 618 1462 604 1429 604 1391 Z" unicode="å" />
<glyph horiz-adv-x="1925" d="M 61 420 C 61 548 85 665 133 771 C 181 876 248 958 333 1018 C 417 1078 511 1108 614 1108 C 764 1108 904 1047 1034 926 L 1032 922 C 1085 980 1149 1026 1225 1059 C 1300 1091 1383 1108 1475 1108 C 1587 1108 1678 1079 1747 1022 C 1816 965 1851 896 1851 815 C 1851 710 1794 629 1682 573 C 1570 517 1417 489 1225 489 L 1067 489 C 1066 486 1066 483 1066 479 C 1066 475 1066 471 1066 466 C 1066 461 1067 457 1067 455 C 1067 263 1151 168 1319 168 C 1413 168 1512 202 1616 270 L 1714 106 C 1589 18 1447 -25 1288 -25 C 1190 -25 1108 -2 1041 42 C 974 87 925 152 895 236 C 840 156 772 93 691 46 C 610 -1 529 -25 449 -25 C 338 -25 246 14 172 92 C 98 170 61 280 61 420 Z M 303 438 C 303 344 320 275 356 230 C 391 184 437 162 494 162 C 606 162 709 240 803 397 L 815 465 C 815 467 816 479 820 502 C 824 524 826 536 827 537 L 877 823 C 805 889 725 922 639 922 C 543 922 463 875 399 783 C 335 690 303 575 303 438 Z M 1102 659 L 1241 659 C 1371 659 1466 673 1525 702 C 1584 731 1614 769 1614 815 C 1614 847 1599 875 1570 897 C 1541 919 1502 930 1454 930 C 1382 930 1313 905 1248 856 C 1183 806 1134 741 1102 659 Z" unicode="æ" />
<glyph horiz-adv-x="1064" d="M 57 449 C 57 542 73 629 105 711 C 137 793 180 863 236 921 C 292 979 358 1024 436 1058 C 513 1091 596 1108 684 1108 C 756 1108 823 1095 883 1070 C 943 1044 992 1012 1032 973 L 899 827 C 829 883 750 911 662 911 C 565 911 481 869 409 785 C 337 701 301 597 301 473 C 301 378 322 304 366 251 C 410 198 469 172 543 172 C 629 172 715 206 803 274 L 924 117 C 820 32 703 -14 571 -23 C 517 -189 414 -332 262 -451 L 86 -362 C 155 -314 218 -260 275 -199 C 332 -138 375 -76 403 -12 C 302 10 219 62 154 143 C 89 224 57 326 57 449 Z" unicode="ç" />
<glyph horiz-adv-x="1161" d="M 57 446 C 57 566 84 676 139 777 C 194 877 272 958 372 1018 C 472 1078 585 1108 709 1108 C 821 1108 912 1079 982 1022 C 1052 964 1087 895 1087 815 C 1087 710 1030 629 918 573 C 805 517 652 489 459 489 L 301 489 L 301 455 C 301 263 385 168 555 168 C 651 168 751 200 856 266 L 948 106 C 825 18 684 -25 524 -25 C 386 -25 273 17 187 103 C 100 188 57 302 57 446 Z M 338 659 L 477 659 C 544 659 602 663 652 671 C 702 679 741 691 769 706 C 797 721 817 738 830 756 C 843 774 850 793 850 815 C 850 847 835 875 806 897 C 777 919 738 930 690 930 C 616 930 547 905 483 857 C 419 808 370 742 338 659 Z M 418 1454 L 592 1577 L 807 1196 L 651 1196 L 418 1454 Z" unicode="è" />
<glyph horiz-adv-x="1161" d="M 57 446 C 57 566 84 676 139 777 C 194 877 272 958 372 1018 C 472 1078 585 1108 709 1108 C 821 1108 912 1079 982 1022 C 1052 964 1087 895 1087 815 C 1087 710 1030 629 918 573 C 805 517 652 489 459 489 L 301 489 L 301 455 C 301 263 385 168 555 168 C 651 168 751 200 856 266 L 948 106 C 825 18 684 -25 524 -25 C 386 -25 273 17 187 103 C 100 188 57 302 57 446 Z M 338 659 L 477 659 C 544 659 602 663 652 671 C 702 679 741 691 769 706 C 797 721 817 738 830 756 C 843 774 850 793 850 815 C 850 847 835 875 806 897 C 777 919 738 930 690 930 C 616 930 547 905 483 857 C 419 808 370 742 338 659 Z M 569 1196 L 903 1577 L 1067 1454 L 727 1196 L 569 1196 Z" unicode="é" />
<glyph horiz-adv-x="1161" d="M 57 446 C 57 566 84 676 139 777 C 194 877 272 958 372 1018 C 472 1078 585 1108 709 1108 C 821 1108 912 1079 982 1022 C 1052 964 1087 895 1087 815 C 1087 710 1030 629 918 573 C 805 517 652 489 459 489 L 301 489 L 301 455 C 301 263 385 168 555 168 C 651 168 751 200 856 266 L 948 106 C 825 18 684 -25 524 -25 C 386 -25 273 17 187 103 C 100 188 57 302 57 446 Z M 328 1196 L 639 1524 L 872 1524 L 1065 1196 L 915 1196 L 748 1386 L 743 1386 L 508 1196 L 328 1196 Z M 338 659 L 477 659 C 544 659 602 663 652 671 C 702 679 741 691 769 706 C 797 721 817 738 830 756 C 843 774 850 793 850 815 C 850 847 835 875 806 897 C 777 919 738 930 690 930 C 616 930 547 905 483 857 C 419 808 370 742 338 659 Z" unicode="ê" />
<glyph horiz-adv-x="1161" d="M 57 446 C 57 566 84 676 139 777 C 194 877 272 958 372 1018 C 472 1078 585 1108 709 1108 C 821 1108 912 1079 982 1022 C 1052 964 1087 895 1087 815 C 1087 710 1030 629 918 573 C 805 517 652 489 459 489 L 301 489 L 301 455 C 301 263 385 168 555 168 C 651 168 751 200 856 266 L 948 106 C 825 18 684 -25 524 -25 C 386 -25 273 17 187 103 C 100 188 57 302 57 446 Z M 338 659 L 477 659 C 544 659 602 663 652 671 C 702 679 741 691 769 706 C 797 721 817 738 830 756 C 843 774 850 793 850 815 C 850 847 835 875 806 897 C 777 919 738 930 690 930 C 616 930 547 905 483 857 C 419 808 370 742 338 659 Z M 397 1255 L 432 1464 L 643 1464 L 606 1255 L 397 1255 Z M 813 1255 L 850 1464 L 1059 1464 L 1022 1255 L 813 1255 Z" unicode="ë" />
<glyph horiz-adv-x="524" d="M 33 0 L 223 1073 L 459 1073 L 270 0 L 33 0 Z M 84 1454 L 258 1577 L 473 1196 L 317 1196 L 84 1454 Z" unicode="ì" />
<glyph horiz-adv-x="524" d="M 33 0 L 223 1073 L 459 1073 L 270 0 L 33 0 Z M 233 1196 L 567 1577 L 731 1454 L 391 1196 L 233 1196 Z" unicode="í" />
<glyph horiz-adv-x="524" d="M -16 1196 L 295 1524 L 528 1524 L 721 1196 L 571 1196 L 403 1386 L 399 1386 L 164 1196 L -16 1196 Z M 33 0 L 223 1073 L 459 1073 L 270 0 L 33 0 Z" unicode="î" />
<glyph horiz-adv-x="524" d="M 33 0 L 223 1073 L 459 1073 L 270 0 L 33 0 Z M 55 1255 L 90 1464 L 301 1464 L 264 1255 L 55 1255 Z M 471 1255 L 508 1464 L 717 1464 L 680 1255 L 471 1255 Z" unicode="ï" />
<glyph horiz-adv-x="1208" d="M 51 416 C 51 517 74 608 120 688 C 166 768 229 831 310 875 C 390 919 481 942 582 942 C 690 942 785 908 866 842 C 843 966 791 1086 711 1204 L 442 1094 L 385 1227 L 623 1321 C 569 1386 498 1461 412 1546 L 678 1546 C 724 1497 768 1447 809 1397 L 1024 1487 L 1077 1350 L 897 1276 C 1035 1069 1104 855 1104 635 C 1104 430 1048 269 938 151 C 828 33 680 -25 496 -25 C 362 -25 254 16 173 100 C 91 184 51 289 51 416 Z M 291 418 C 291 337 311 273 351 226 C 391 179 448 156 524 156 C 624 156 707 200 773 289 C 838 378 870 499 870 651 C 798 734 708 776 598 776 C 516 776 444 742 383 675 C 321 607 291 522 291 418 Z" unicode="ð" />
<glyph horiz-adv-x="1196" d="M 27 0 L 215 1083 L 412 1083 L 406 897 C 518 1035 646 1104 791 1104 C 880 1104 950 1078 1002 1027 C 1053 975 1079 909 1079 829 C 1079 781 1073 723 1061 655 L 942 0 L 707 0 L 829 692 C 837 742 842 780 842 805 C 842 884 803 924 725 924 C 619 924 504 838 381 666 L 264 0 L 27 0 Z M 387 1233 C 391 1317 412 1382 452 1430 C 491 1477 544 1501 612 1501 C 641 1501 669 1495 695 1483 C 721 1471 741 1459 757 1445 C 772 1431 789 1418 808 1406 C 827 1394 845 1389 862 1389 C 910 1389 936 1421 940 1487 L 1085 1487 C 1081 1403 1058 1337 1018 1290 C 978 1242 924 1219 856 1219 C 828 1219 801 1224 776 1236 C 750 1247 730 1260 715 1274 C 699 1288 682 1300 664 1312 C 645 1323 628 1329 612 1329 C 562 1329 536 1297 532 1233 L 387 1233 Z" unicode="ñ" />
<glyph horiz-adv-x="1234" d="M 61 453 C 61 576 88 688 142 788 C 196 888 270 966 364 1023 C 458 1079 564 1108 680 1108 C 819 1108 932 1065 1018 979 C 1104 893 1147 776 1147 629 C 1147 506 1120 395 1066 295 C 1012 195 937 116 843 60 C 748 3 642 -25 526 -25 C 388 -25 276 18 190 104 C 104 190 61 306 61 453 Z M 301 455 C 301 359 322 287 366 237 C 409 187 470 162 549 162 C 646 162 730 208 801 301 C 871 394 907 503 907 627 C 907 723 885 797 843 847 C 800 897 740 922 662 922 C 598 922 538 900 482 857 C 426 813 381 756 349 684 C 317 612 301 535 301 455 Z M 426 1454 L 600 1577 L 815 1196 L 659 1196 L 426 1454 Z" unicode="ò" />
<glyph horiz-adv-x="1234" d="M 61 453 C 61 576 88 688 142 788 C 196 888 270 966 364 1023 C 458 1079 564 1108 680 1108 C 819 1108 932 1065 1018 979 C 1104 893 1147 776 1147 629 C 1147 506 1120 395 1066 295 C 1012 195 937 116 843 60 C 748 3 642 -25 526 -25 C 388 -25 276 18 190 104 C 104 190 61 306 61 453 Z M 301 455 C 301 359 322 287 366 237 C 409 187 470 162 549 162 C 646 162 730 208 801 301 C 871 394 907 503 907 627 C 907 723 885 797 843 847 C 800 897 740 922 662 922 C 598 922 538 900 482 857 C 426 813 381 756 349 684 C 317 612 301 535 301 455 Z M 561 1196 L 895 1577 L 1059 1454 L 719 1196 L 561 1196 Z" unicode="ó" />
<glyph horiz-adv-x="1234" d="M 61 453 C 61 576 88 688 142 788 C 196 888 270 966 364 1023 C 458 1079 564 1108 680 1108 C 819 1108 932 1065 1018 979 C 1104 893 1147 776 1147 629 C 1147 506 1120 395 1066 295 C 1012 195 937 116 843 60 C 748 3 642 -25 526 -25 C 388 -25 276 18 190 104 C 104 190 61 306 61 453 Z M 301 455 C 301 359 322 287 366 237 C 409 187 470 162 549 162 C 646 162 730 208 801 301 C 871 394 907 503 907 627 C 907 723 885 797 843 847 C 800 897 740 922 662 922 C 598 922 538 900 482 857 C 426 813 381 756 349 684 C 317 612 301 535 301 455 Z M 326 1196 L 637 1524 L 870 1524 L 1063 1196 L 913 1196 L 745 1386 L 741 1386 L 506 1196 L 326 1196 Z" unicode="ô" />
<glyph horiz-adv-x="1234" d="M 61 453 C 61 576 88 688 142 788 C 196 888 270 966 364 1023 C 458 1079 564 1108 680 1108 C 819 1108 932 1065 1018 979 C 1104 893 1147 776 1147 629 C 1147 506 1120 395 1066 295 C 1012 195 937 116 843 60 C 748 3 642 -25 526 -25 C 388 -25 276 18 190 104 C 104 190 61 306 61 453 Z M 301 455 C 301 359 322 287 366 237 C 409 187 470 162 549 162 C 646 162 730 208 801 301 C 871 394 907 503 907 627 C 907 723 885 797 843 847 C 800 897 740 922 662 922 C 598 922 538 900 482 857 C 426 813 381 756 349 684 C 317 612 301 535 301 455 Z M 385 1233 C 389 1317 410 1382 450 1430 C 489 1477 542 1501 610 1501 C 639 1501 667 1495 693 1483 C 719 1471 739 1459 755 1445 C 770 1431 787 1418 806 1406 C 825 1394 843 1389 860 1389 C 908 1389 934 1421 938 1487 L 1083 1487 C 1079 1403 1056 1337 1016 1290 C 976 1242 922 1219 854 1219 C 826 1219 799 1224 774 1236 C 748 1247 728 1260 713 1274 C 697 1288 680 1300 662 1312 C 643 1323 626 1329 610 1329 C 560 1329 534 1297 530 1233 L 385 1233 Z" unicode="õ" />
<glyph horiz-adv-x="1234" d="M 61 453 C 61 576 88 688 142 788 C 196 888 270 966 364 1023 C 458 1079 564 1108 680 1108 C 819 1108 932 1065 1018 979 C 1104 893 1147 776 1147 629 C 1147 506 1120 395 1066 295 C 1012 195 937 116 843 60 C 748 3 642 -25 526 -25 C 388 -25 276 18 190 104 C 104 190 61 306 61 453 Z M 301 455 C 301 359 322 287 366 237 C 409 187 470 162 549 162 C 646 162 730 208 801 301 C 871 394 907 503 907 627 C 907 723 885 797 843 847 C 800 897 740 922 662 922 C 598 922 538 900 482 857 C 426 813 381 756 349 684 C 317 612 301 535 301 455 Z M 401 1255 L 436 1464 L 647 1464 L 610 1255 L 401 1255 Z M 817 1255 L 854 1464 L 1063 1464 L 1026 1255 L 817 1255 Z" unicode="ö" />
<glyph horiz-adv-x="1239" d="M 55 442 L 92 645 L 1159 645 L 1120 442 L 55 442 Z M 399 39 L 436 250 L 662 250 L 627 39 L 399 39 Z M 539 836 L 578 1047 L 803 1047 L 766 836 L 539 836 Z" unicode="÷" />
<glyph horiz-adv-x="1234" d="M -14 -10 L 147 156 C 89 237 61 336 61 453 C 61 576 88 688 142 788 C 196 888 270 966 364 1023 C 458 1079 564 1108 680 1108 C 789 1108 885 1078 969 1020 L 1118 1180 L 1229 1083 L 1067 918 C 1120 836 1147 740 1147 629 C 1147 506 1120 395 1066 295 C 1012 195 937 116 843 60 C 748 3 642 -25 526 -25 C 418 -25 324 2 246 57 L 90 -106 L -14 -10 Z M 301 455 C 301 403 307 359 319 322 L 829 860 C 785 901 730 922 662 922 C 598 922 538 900 482 857 C 426 813 381 756 349 684 C 317 612 301 535 301 455 Z M 387 215 C 426 179 480 162 549 162 C 646 162 730 208 801 301 C 871 394 907 503 907 627 C 907 669 901 710 891 750 L 387 215 Z" unicode="ø" />
<glyph horiz-adv-x="1189" d="M 76 254 C 76 304 80 358 90 418 L 209 1083 L 444 1083 L 322 387 C 314 339 311 302 311 276 C 311 198 350 160 428 160 C 533 160 649 245 776 416 L 891 1083 L 1128 1083 L 938 0 L 748 0 L 752 184 C 636 44 505 -25 360 -25 C 270 -25 200 0 150 51 C 100 102 76 170 76 254 Z M 401 1454 L 575 1577 L 791 1196 L 635 1196 L 401 1454 Z" unicode="ù" />
<glyph horiz-adv-x="1189" d="M 76 254 C 76 304 80 358 90 418 L 209 1083 L 444 1083 L 322 387 C 314 339 311 302 311 276 C 311 198 350 160 428 160 C 533 160 649 245 776 416 L 891 1083 L 1128 1083 L 938 0 L 748 0 L 752 184 C 636 44 505 -25 360 -25 C 270 -25 200 0 150 51 C 100 102 76 170 76 254 Z M 561 1196 L 895 1577 L 1059 1454 L 719 1196 L 561 1196 Z" unicode="ú" />
<glyph horiz-adv-x="1189" d="M 76 254 C 76 304 80 358 90 418 L 209 1083 L 444 1083 L 322 387 C 314 339 311 302 311 276 C 311 198 350 160 428 160 C 533 160 649 245 776 416 L 891 1083 L 1128 1083 L 938 0 L 748 0 L 752 184 C 636 44 505 -25 360 -25 C 270 -25 200 0 150 51 C 100 102 76 170 76 254 Z M 317 1196 L 629 1524 L 862 1524 L 1055 1196 L 905 1196 L 737 1386 L 733 1386 L 498 1196 L 317 1196 Z" unicode="û" />
<glyph horiz-adv-x="1189" d="M 76 254 C 76 304 80 358 90 418 L 209 1083 L 444 1083 L 322 387 C 314 339 311 302 311 276 C 311 198 350 160 428 160 C 533 160 649 245 776 416 L 891 1083 L 1128 1083 L 938 0 L 748 0 L 752 184 C 636 44 505 -25 360 -25 C 270 -25 200 0 150 51 C 100 102 76 170 76 254 Z M 385 1255 L 420 1464 L 631 1464 L 594 1255 L 385 1255 Z M 801 1255 L 838 1464 L 1047 1464 L 1010 1255 L 801 1255 Z" unicode="ü" />
<glyph horiz-adv-x="1071" d="M -147 -367 L -61 -197 C -12 -223 33 -236 76 -236 C 146 -236 204 -193 250 -109 L 313 6 L 113 1083 L 340 1083 L 469 303 L 473 303 L 862 1083 L 1112 1083 L 473 -133 C 413 -247 353 -325 293 -367 C 233 -409 160 -430 74 -430 C -2 -430 -76 -409 -147 -367 Z M 498 1196 L 831 1577 L 995 1454 L 655 1196 L 498 1196 Z" unicode="ý" />
<glyph horiz-adv-x="1222" d="M -41 -410 L 305 1546 L 545 1546 L 434 946 C 530 1051 640 1104 764 1104 C 872 1104 961 1065 1030 987 C 1098 909 1133 799 1133 657 C 1133 559 1119 468 1091 384 C 1063 300 1025 228 977 169 C 929 110 871 64 804 30 C 736 -3 664 -20 588 -20 C 470 -20 370 25 289 115 L 193 -410 L -41 -410 Z M 315 272 C 349 233 384 205 422 188 C 460 170 503 162 553 162 C 622 162 683 185 735 232 C 787 278 826 339 852 413 C 878 487 891 569 891 657 C 891 746 873 812 839 855 C 805 898 758 920 698 920 C 595 920 493 847 391 702 L 315 272 Z" unicode="þ" />
<glyph horiz-adv-x="1071" d="M -147 -367 L -61 -197 C -12 -223 33 -236 76 -236 C 146 -236 204 -193 250 -109 L 313 6 L 113 1083 L 340 1083 L 469 303 L 473 303 L 862 1083 L 1112 1083 L 473 -133 C 413 -247 353 -325 293 -367 C 233 -409 160 -430 74 -430 C -2 -430 -76 -409 -147 -367 Z M 322 1255 L 356 1464 L 567 1464 L 530 1255 L 322 1255 Z M 737 1255 L 774 1464 L 983 1464 L 946 1255 L 737 1255 Z" unicode="ÿ" />
<glyph horiz-adv-x="1423" d="M -66 0 L 705 1434 L 999 1434 L 1260 0 L 1008 0 L 956 309 L 367 309 L 209 0 L -66 0 Z M 469 508 L 926 508 L 817 1176 L 813 1176 L 469 508 Z M 567 1593 L 596 1753 L 1229 1753 L 1202 1593 L 567 1593 Z" unicode="Ā" />
<glyph horiz-adv-x="1228" d="M 61 420 C 61 548 85 665 133 771 C 181 876 248 958 333 1018 C 417 1078 511 1108 614 1108 C 676 1108 735 1094 789 1068 C 843 1042 886 1009 918 971 L 948 1083 L 1159 1083 L 1018 287 C 1014 263 1012 245 1012 233 C 1012 208 1018 191 1032 181 C 1046 171 1067 166 1096 166 L 1067 -4 C 985 -4 921 8 877 34 C 832 59 805 101 797 160 C 699 36 580 -25 438 -25 C 331 -25 241 14 169 93 C 97 171 61 280 61 420 Z M 303 438 C 303 344 320 275 356 230 C 391 184 437 162 494 162 C 603 162 706 239 803 393 L 877 823 C 801 889 722 922 639 922 C 543 922 463 875 399 783 C 335 690 303 575 303 438 Z M 395 1280 L 424 1438 L 1053 1438 L 1024 1280 L 395 1280 Z" unicode="ā" />
<glyph horiz-adv-x="1423" d="M -66 0 L 705 1434 L 999 1434 L 1260 0 L 1008 0 L 956 309 L 367 309 L 209 0 L -66 0 Z M 469 508 L 926 508 L 817 1176 L 813 1176 L 469 508 Z M 561 1800 L 719 1800 C 735 1728 790 1692 883 1692 C 977 1692 1046 1728 1092 1800 L 1262 1800 C 1195 1624 1063 1536 866 1536 C 775 1536 703 1559 649 1606 C 595 1653 566 1718 561 1800 Z" unicode="Ă" />
<glyph horiz-adv-x="1228" d="M 61 420 C 61 548 85 665 133 771 C 181 876 248 958 333 1018 C 417 1078 511 1108 614 1108 C 676 1108 735 1094 789 1068 C 843 1042 886 1009 918 971 L 948 1083 L 1159 1083 L 1018 287 C 1014 263 1012 245 1012 233 C 1012 208 1018 191 1032 181 C 1046 171 1067 166 1096 166 L 1067 -4 C 985 -4 921 8 877 34 C 832 59 805 101 797 160 C 699 36 580 -25 438 -25 C 331 -25 241 14 169 93 C 97 171 61 280 61 420 Z M 303 438 C 303 344 320 275 356 230 C 391 184 437 162 494 162 C 603 162 706 239 803 393 L 877 823 C 801 889 722 922 639 922 C 543 922 463 875 399 783 C 335 690 303 575 303 438 Z M 403 1524 L 555 1524 C 549 1400 600 1339 709 1339 C 762 1339 808 1355 847 1387 C 885 1419 913 1464 930 1524 L 1092 1524 C 1066 1413 1019 1328 951 1269 C 883 1209 796 1180 692 1180 C 593 1180 518 1211 467 1273 C 416 1335 395 1418 403 1524 Z" unicode="ă" />
<glyph horiz-adv-x="1423" d="M -66 0 L 705 1434 L 999 1434 L 1260 0 C 1126 -48 1059 -108 1059 -180 C 1059 -224 1086 -246 1141 -246 C 1179 -246 1216 -237 1251 -219 L 1255 -223 L 1225 -397 C 1174 -415 1122 -424 1069 -424 C 1008 -424 959 -407 922 -373 C 884 -339 866 -296 866 -244 C 866 -147 923 -66 1038 0 L 1008 0 L 956 309 L 367 309 L 209 0 L -66 0 Z M 469 508 L 926 508 L 817 1176 L 813 1176 L 469 508 Z" unicode="Ą" />
<glyph horiz-adv-x="1234" d="M 61 422 C 61 550 85 667 133 772 C 181 876 248 958 333 1018 C 417 1078 511 1108 614 1108 C 676 1108 735 1094 789 1068 C 843 1042 886 1009 918 971 L 948 1083 L 1159 1083 L 1018 287 C 1014 263 1012 245 1012 233 C 1012 208 1018 191 1032 181 C 1046 171 1067 166 1096 166 L 1067 0 C 1048 -7 1032 -14 1018 -20 C 1004 -26 987 -35 966 -47 C 945 -59 928 -71 914 -83 C 900 -95 889 -110 879 -128 C 869 -146 864 -164 864 -184 C 864 -229 892 -252 948 -252 C 987 -252 1024 -243 1059 -225 L 1063 -229 L 1034 -397 C 983 -415 931 -424 879 -424 C 819 -424 770 -407 733 -373 C 696 -339 678 -297 678 -246 C 678 -134 752 -43 901 25 C 841 48 806 93 797 160 C 699 36 579 -25 436 -25 C 385 -25 337 -15 292 4 C 247 23 207 51 173 88 C 138 124 111 171 91 229 C 71 286 61 350 61 422 Z M 303 438 C 303 344 320 274 355 229 C 390 184 436 162 494 162 C 605 162 708 239 803 393 L 877 823 C 801 889 722 922 639 922 C 543 922 463 875 399 783 C 335 690 303 575 303 438 Z" unicode="ą" />
<glyph horiz-adv-x="1427" d="M 96 612 C 96 768 132 910 204 1039 C 276 1167 376 1269 506 1345 C 636 1420 781 1458 942 1458 C 1130 1458 1289 1397 1417 1276 L 1270 1116 C 1176 1202 1061 1245 926 1245 C 850 1245 776 1229 706 1197 C 636 1165 574 1121 522 1067 C 470 1012 428 946 397 869 C 365 791 350 710 350 625 C 350 489 387 382 461 304 C 535 226 632 188 752 188 C 824 188 890 202 952 231 C 1014 260 1075 302 1137 356 L 1276 182 C 1195 115 1110 64 1022 28 C 933 -7 833 -25 723 -25 C 606 -25 500 0 406 50 C 312 100 236 173 180 271 C 124 369 96 482 96 612 Z M 817 1546 L 1092 1843 L 1268 1718 L 983 1546 L 817 1546 Z" unicode="Ć" />
<glyph horiz-adv-x="1064" d="M 57 449 C 57 542 73 629 105 711 C 137 793 180 863 236 921 C 292 979 358 1024 436 1058 C 513 1091 596 1108 684 1108 C 756 1108 823 1095 883 1070 C 943 1044 992 1012 1032 973 L 899 827 C 829 883 750 911 662 911 C 565 911 481 869 409 785 C 337 701 301 597 301 473 C 301 378 322 304 366 251 C 410 198 469 172 543 172 C 629 172 715 206 803 274 L 924 117 C 865 69 803 34 739 10 C 675 -13 600 -25 514 -25 C 432 -25 357 -6 289 29 C 221 65 165 120 122 194 C 78 267 57 352 57 449 Z M 530 1196 L 864 1577 L 1028 1454 L 688 1196 L 530 1196 Z" unicode="ć" />
<glyph horiz-adv-x="1427" d="M 96 612 C 96 768 132 910 204 1039 C 276 1167 376 1269 506 1345 C 636 1420 781 1458 942 1458 C 1130 1458 1289 1397 1417 1276 L 1270 1116 C 1176 1202 1061 1245 926 1245 C 850 1245 776 1229 706 1197 C 636 1165 574 1121 522 1067 C 470 1012 428 946 397 869 C 365 791 350 710 350 625 C 350 489 387 382 461 304 C 535 226 632 188 752 188 C 824 188 890 202 952 231 C 1014 260 1075 302 1137 356 L 1276 182 C 1195 115 1110 64 1022 28 C 933 -7 833 -25 723 -25 C 606 -25 500 0 406 50 C 312 100 236 173 180 271 C 124 369 96 482 96 612 Z M 586 1546 L 877 1800 L 1106 1800 L 1303 1546 L 1153 1546 L 977 1673 L 973 1673 L 758 1546 L 586 1546 Z" unicode="Ĉ" />
<glyph horiz-adv-x="1064" d="M 57 449 C 57 542 73 629 105 711 C 137 793 180 863 236 921 C 292 979 358 1024 436 1058 C 513 1091 596 1108 684 1108 C 756 1108 823 1095 883 1070 C 943 1044 992 1012 1032 973 L 899 827 C 829 883 750 911 662 911 C 565 911 481 869 409 785 C 337 701 301 597 301 473 C 301 378 322 304 366 251 C 410 198 469 172 543 172 C 629 172 715 206 803 274 L 924 117 C 865 69 803 34 739 10 C 675 -13 600 -25 514 -25 C 432 -25 357 -6 289 29 C 221 65 165 120 122 194 C 78 267 57 352 57 449 Z M 303 1196 L 614 1524 L 848 1524 L 1040 1196 L 891 1196 L 723 1386 L 719 1386 L 483 1196 L 303 1196 Z" unicode="ĉ" />
<glyph horiz-adv-x="1427" d="M 96 612 C 96 768 132 910 204 1039 C 276 1167 376 1269 506 1345 C 636 1420 781 1458 942 1458 C 1130 1458 1289 1397 1417 1276 L 1270 1116 C 1176 1202 1061 1245 926 1245 C 850 1245 776 1229 706 1197 C 636 1165 574 1121 522 1067 C 470 1012 428 946 397 869 C 365 791 350 710 350 625 C 350 489 387 382 461 304 C 535 226 632 188 752 188 C 824 188 890 202 952 231 C 1014 260 1075 302 1137 356 L 1276 182 C 1195 115 1110 64 1022 28 C 933 -7 833 -25 723 -25 C 606 -25 500 0 406 50 C 312 100 236 173 180 271 C 124 369 96 482 96 612 Z M 825 1569 L 864 1778 L 1071 1778 L 1034 1569 L 825 1569 Z" unicode="Ċ" />
<glyph horiz-adv-x="1064" d="M 57 449 C 57 542 73 629 105 711 C 137 793 180 863 236 921 C 292 979 358 1024 436 1058 C 513 1091 596 1108 684 1108 C 756 1108 823 1095 883 1070 C 943 1044 992 1012 1032 973 L 899 827 C 829 883 750 911 662 911 C 565 911 481 869 409 785 C 337 701 301 597 301 473 C 301 378 322 304 366 251 C 410 198 469 172 543 172 C 629 172 715 206 803 274 L 924 117 C 865 69 803 34 739 10 C 675 -13 600 -25 514 -25 C 432 -25 357 -6 289 29 C 221 65 165 120 122 194 C 78 267 57 352 57 449 Z M 563 1255 L 600 1464 L 807 1464 L 770 1255 L 563 1255 Z" unicode="ċ" />
<glyph horiz-adv-x="1427" d="M 96 612 C 96 768 132 910 204 1039 C 276 1167 376 1269 506 1345 C 636 1420 781 1458 942 1458 C 1130 1458 1289 1397 1417 1276 L 1270 1116 C 1176 1202 1061 1245 926 1245 C 850 1245 776 1229 706 1197 C 636 1165 574 1121 522 1067 C 470 1012 428 946 397 869 C 365 791 350 710 350 625 C 350 489 387 382 461 304 C 535 226 632 188 752 188 C 824 188 890 202 952 231 C 1014 260 1075 302 1137 356 L 1276 182 C 1195 115 1110 64 1022 28 C 933 -7 833 -25 723 -25 C 606 -25 500 0 406 50 C 312 100 236 173 180 271 C 124 369 96 482 96 612 Z M 637 1800 L 788 1800 L 961 1673 L 965 1673 L 1180 1800 L 1356 1800 L 1063 1546 L 834 1546 L 637 1800 Z" unicode="Č" />
<glyph horiz-adv-x="1064" d="M 57 449 C 57 542 73 629 105 711 C 137 793 180 863 236 921 C 292 979 358 1024 436 1058 C 513 1091 596 1108 684 1108 C 756 1108 823 1095 883 1070 C 943 1044 992 1012 1032 973 L 899 827 C 829 883 750 911 662 911 C 565 911 481 869 409 785 C 337 701 301 597 301 473 C 301 378 322 304 366 251 C 410 198 469 172 543 172 C 629 172 715 206 803 274 L 924 117 C 865 69 803 34 739 10 C 675 -13 600 -25 514 -25 C 432 -25 357 -6 289 29 C 221 65 165 120 122 194 C 78 267 57 352 57 449 Z M 371 1524 L 514 1524 L 688 1327 L 692 1327 L 934 1524 L 1106 1524 L 799 1196 L 565 1196 L 371 1524 Z" unicode="č" />
<glyph horiz-adv-x="1472" d="M 41 0 L 295 1434 L 729 1434 C 935 1434 1097 1381 1216 1276 C 1335 1171 1395 1023 1395 831 C 1395 737 1383 649 1360 567 C 1337 485 1301 409 1253 339 C 1205 269 1146 209 1076 159 C 1006 109 921 70 822 42 C 723 14 614 0 494 0 L 41 0 Z M 326 207 L 528 207 C 624 207 710 222 788 254 C 866 285 930 328 981 383 C 1031 438 1070 502 1098 576 C 1125 650 1139 729 1139 815 C 1139 953 1104 1057 1035 1125 C 965 1193 859 1227 717 1227 L 506 1227 L 326 207 Z M 543 1800 L 694 1800 L 866 1673 L 870 1673 L 1085 1800 L 1262 1800 L 969 1546 L 739 1546 L 543 1800 Z" unicode="Ď" />
<glyph horiz-adv-x="1226" d="M 63 424 C 63 551 86 667 134 771 C 182 875 248 956 332 1015 C 416 1074 509 1104 612 1104 C 729 1104 827 1064 907 985 L 1008 1546 L 1243 1546 L 971 0 L 780 0 L 788 162 C 734 100 681 55 628 25 C 575 -5 510 -20 434 -20 C 384 -20 337 -10 293 8 C 249 27 209 55 175 91 C 141 127 113 174 93 232 C 73 289 63 353 63 424 Z M 305 442 C 305 345 322 274 358 229 C 394 184 440 162 498 162 C 607 162 709 239 805 393 L 879 823 C 803 889 723 922 641 922 C 544 922 464 875 400 783 C 336 691 305 577 305 442 Z M 1325 1165 C 1399 1235 1436 1290 1436 1329 C 1436 1359 1418 1374 1382 1374 C 1364 1374 1349 1372 1335 1368 C 1338 1394 1346 1437 1358 1497 C 1386 1506 1422 1511 1464 1511 C 1518 1511 1559 1499 1587 1475 C 1615 1451 1630 1419 1630 1380 C 1630 1307 1584 1235 1493 1165 L 1325 1165 Z" unicode="ď" />
<glyph horiz-adv-x="1548" d="M 33 641 L 61 801 L 258 801 L 371 1434 L 805 1434 C 1011 1434 1173 1381 1292 1276 C 1410 1171 1470 1023 1470 831 C 1470 737 1458 649 1435 567 C 1412 485 1376 409 1328 339 C 1280 269 1221 209 1151 159 C 1081 109 996 70 897 42 C 798 14 689 0 569 0 L 117 0 L 229 641 L 33 641 Z M 401 207 L 604 207 C 700 207 786 222 864 254 C 942 285 1006 328 1057 383 C 1107 438 1146 502 1173 576 C 1200 650 1214 729 1214 815 C 1214 953 1179 1057 1110 1125 C 1041 1193 935 1227 793 1227 L 582 1227 L 506 801 L 858 801 L 831 643 L 477 643 L 401 207 Z" unicode="Đ" />
<glyph horiz-adv-x="1224" d="M 63 424 C 63 551 86 667 134 771 C 182 875 248 956 332 1015 C 416 1074 509 1104 612 1104 C 729 1104 827 1064 907 985 L 952 1241 L 682 1241 L 711 1391 L 979 1391 L 1008 1546 L 1243 1546 L 1214 1391 L 1370 1391 L 1343 1237 L 1188 1237 L 971 0 L 780 0 L 788 162 C 734 100 681 55 628 25 C 575 -5 510 -20 434 -20 C 384 -20 337 -10 293 8 C 249 27 209 55 175 91 C 141 127 113 174 93 232 C 73 289 63 353 63 424 Z M 305 442 C 305 345 322 274 358 229 C 394 184 440 162 498 162 C 607 162 709 239 805 393 L 879 823 C 803 889 723 922 641 922 C 544 922 464 875 400 783 C 336 691 305 577 305 442 Z" unicode="đ" />
<glyph horiz-adv-x="1282" d="M 41 0 L 295 1434 L 1298 1434 L 1260 1217 L 506 1217 L 436 829 L 1112 829 L 1077 629 L 401 629 L 328 217 L 1094 217 L 1055 0 L 41 0 Z M 504 1593 L 532 1753 L 1165 1753 L 1139 1593 L 504 1593 Z" unicode="Ē" />
<glyph horiz-adv-x="1161" d="M 57 446 C 57 566 84 676 139 777 C 194 877 272 958 372 1018 C 472 1078 585 1108 709 1108 C 821 1108 912 1079 982 1022 C 1052 964 1087 895 1087 815 C 1087 710 1030 629 918 573 C 805 517 652 489 459 489 L 301 489 L 301 455 C 301 263 385 168 555 168 C 651 168 751 200 856 266 L 948 106 C 825 18 684 -25 524 -25 C 386 -25 273 17 187 103 C 100 188 57 302 57 446 Z M 338 659 L 477 659 C 544 659 602 663 652 671 C 702 679 741 691 769 706 C 797 721 817 738 830 756 C 843 774 850 793 850 815 C 850 847 835 875 806 897 C 777 919 738 930 690 930 C 616 930 547 905 483 857 C 419 808 370 742 338 659 Z M 391 1280 L 420 1438 L 1049 1438 L 1020 1280 L 391 1280 Z" unicode="ē" />
<glyph horiz-adv-x="1282" d="M 41 0 L 295 1434 L 1298 1434 L 1260 1217 L 506 1217 L 436 829 L 1112 829 L 1077 629 L 401 629 L 328 217 L 1094 217 L 1055 0 L 41 0 Z M 502 1800 L 659 1800 C 675 1728 730 1692 823 1692 C 917 1692 986 1728 1032 1800 L 1202 1800 C 1135 1624 1003 1536 807 1536 C 716 1536 644 1559 590 1606 C 536 1653 507 1718 502 1800 Z" unicode="Ĕ" />
<glyph horiz-adv-x="1161" d="M 57 446 C 57 566 84 676 139 777 C 194 877 272 958 372 1018 C 472 1078 585 1108 709 1108 C 821 1108 912 1079 982 1022 C 1052 964 1087 895 1087 815 C 1087 710 1030 629 918 573 C 805 517 652 489 459 489 L 301 489 L 301 455 C 301 263 385 168 555 168 C 651 168 751 200 856 266 L 948 106 C 825 18 684 -25 524 -25 C 386 -25 273 17 187 103 C 100 188 57 302 57 446 Z M 338 659 L 477 659 C 544 659 602 663 652 671 C 702 679 741 691 769 706 C 797 721 817 738 830 756 C 843 774 850 793 850 815 C 850 847 835 875 806 897 C 777 919 738 930 690 930 C 616 930 547 905 483 857 C 419 808 370 742 338 659 Z M 406 1524 L 557 1524 C 551 1400 602 1339 711 1339 C 764 1339 810 1355 849 1387 C 887 1419 915 1464 932 1524 L 1094 1524 C 1068 1413 1021 1328 953 1269 C 885 1209 798 1180 694 1180 C 595 1180 520 1211 470 1273 C 419 1335 398 1418 406 1524 Z" unicode="ĕ" />
<glyph horiz-adv-x="1282" d="M 41 0 L 295 1434 L 1298 1434 L 1260 1217 L 506 1217 L 436 829 L 1112 829 L 1077 629 L 401 629 L 328 217 L 1094 217 L 1055 0 L 41 0 Z M 707 1569 L 745 1778 L 952 1778 L 915 1569 L 707 1569 Z" unicode="Ė" />
<glyph horiz-adv-x="1161" d="M 57 446 C 57 566 84 676 139 777 C 194 877 272 958 372 1018 C 472 1078 585 1108 709 1108 C 821 1108 912 1079 982 1022 C 1052 964 1087 895 1087 815 C 1087 710 1030 629 918 573 C 805 517 652 489 459 489 L 301 489 L 301 455 C 301 263 385 168 555 168 C 651 168 751 200 856 266 L 948 106 C 825 18 684 -25 524 -25 C 386 -25 273 17 187 103 C 100 188 57 302 57 446 Z M 338 659 L 477 659 C 544 659 602 663 652 671 C 702 679 741 691 769 706 C 797 721 817 738 830 756 C 843 774 850 793 850 815 C 850 847 835 875 806 897 C 777 919 738 930 690 930 C 616 930 547 905 483 857 C 419 808 370 742 338 659 Z M 590 1255 L 627 1464 L 834 1464 L 797 1255 L 590 1255 Z" unicode="ė" />
<glyph horiz-adv-x="1282" d="M 41 0 L 295 1434 L 1298 1434 L 1260 1217 L 506 1217 L 436 829 L 1112 829 L 1077 629 L 401 629 L 328 217 L 1094 217 L 1055 0 C 921 -48 854 -108 854 -180 C 854 -224 881 -246 936 -246 C 975 -246 1012 -237 1047 -219 L 1051 -223 L 1020 -397 C 969 -415 917 -424 864 -424 C 803 -424 754 -407 717 -373 C 680 -339 662 -296 662 -244 C 662 -147 719 -66 834 0 L 41 0 Z" unicode="Ę" />
<glyph horiz-adv-x="1161" d="M 57 446 C 57 566 84 676 139 777 C 194 877 272 958 372 1018 C 472 1078 585 1108 709 1108 C 821 1108 912 1079 982 1022 C 1052 964 1087 895 1087 815 C 1087 710 1030 629 918 573 C 805 517 652 489 459 489 L 301 489 C 300 486 300 483 300 479 C 300 475 300 471 300 466 C 300 461 301 457 301 455 C 301 263 385 168 555 168 C 649 168 748 202 852 270 L 948 106 C 898 74 868 55 858 51 C 830 37 807 26 788 16 C 769 6 747 -7 721 -24 C 695 -40 674 -56 658 -72 C 642 -87 629 -104 617 -124 C 605 -144 600 -164 600 -184 C 600 -206 608 -222 624 -234 C 640 -246 663 -252 692 -252 C 733 -252 770 -243 803 -225 L 807 -229 L 776 -397 C 727 -415 677 -424 625 -424 C 561 -424 510 -407 473 -374 C 436 -340 418 -298 418 -246 C 418 -162 458 -88 539 -25 L 524 -25 C 386 -25 273 17 187 103 C 100 188 57 302 57 446 Z M 338 659 L 477 659 C 544 659 602 663 652 671 C 702 679 741 691 769 706 C 797 721 817 738 830 756 C 843 774 850 793 850 815 C 850 847 835 875 806 897 C 777 919 738 930 690 930 C 616 930 547 905 483 856 C 419 807 370 741 338 659 Z" unicode="ę" />
<glyph horiz-adv-x="1282" d="M 41 0 L 295 1434 L 1298 1434 L 1260 1217 L 506 1217 L 436 829 L 1112 829 L 1077 629 L 401 629 L 328 217 L 1094 217 L 1055 0 L 41 0 Z M 500 1800 L 651 1800 L 823 1673 L 827 1673 L 1042 1800 L 1219 1800 L 926 1546 L 696 1546 L 500 1800 Z" unicode="Ě" />
<glyph horiz-adv-x="1161" d="M 57 446 C 57 566 84 676 139 777 C 194 877 272 958 372 1018 C 472 1078 585 1108 709 1108 C 821 1108 912 1079 982 1022 C 1052 964 1087 895 1087 815 C 1087 710 1030 629 918 573 C 805 517 652 489 459 489 L 301 489 L 301 455 C 301 263 385 168 555 168 C 651 168 751 200 856 266 L 948 106 C 825 18 684 -25 524 -25 C 386 -25 273 17 187 103 C 100 188 57 302 57 446 Z M 338 659 L 477 659 C 544 659 602 663 652 671 C 702 679 741 691 769 706 C 797 721 817 738 830 756 C 843 774 850 793 850 815 C 850 847 835 875 806 897 C 777 919 738 930 690 930 C 616 930 547 905 483 857 C 419 808 370 742 338 659 Z M 393 1524 L 537 1524 L 711 1327 L 715 1327 L 956 1524 L 1128 1524 L 821 1196 L 588 1196 L 393 1524 Z" unicode="ě" />
<glyph horiz-adv-x="1474" d="M 96 608 C 96 766 131 909 203 1038 C 274 1167 375 1269 506 1345 C 636 1420 784 1458 950 1458 C 1041 1458 1130 1442 1216 1412 C 1302 1381 1375 1340 1436 1290 L 1290 1128 C 1192 1206 1074 1245 936 1245 C 857 1245 782 1229 710 1197 C 638 1165 575 1122 523 1068 C 470 1014 428 948 397 870 C 365 792 350 709 350 621 C 350 487 386 382 459 304 C 532 226 629 188 750 188 C 860 188 958 214 1042 268 L 1100 598 L 750 598 L 782 780 L 1364 780 L 1247 131 C 1089 27 913 -25 721 -25 C 602 -25 495 0 401 52 C 306 104 231 178 177 275 C 123 371 96 482 96 608 Z M 598 1546 L 889 1800 L 1118 1800 L 1315 1546 L 1165 1546 L 989 1673 L 985 1673 L 770 1546 L 598 1546 Z" unicode="Ĝ" />
<glyph horiz-adv-x="1222" d="M 4 -272 L 131 -115 C 235 -198 340 -240 446 -240 C 528 -240 592 -218 638 -174 C 684 -130 717 -55 737 49 L 760 168 C 667 50 552 -8 416 -8 C 370 -8 326 0 284 18 C 242 36 205 62 171 96 C 137 130 109 177 89 235 C 69 293 59 359 59 434 C 59 530 73 621 102 705 C 131 789 170 860 220 918 C 269 976 327 1021 395 1054 C 463 1087 534 1104 610 1104 C 673 1104 731 1092 784 1068 C 836 1044 879 1013 913 975 L 944 1083 L 1157 1083 L 967 10 C 955 -58 937 -117 913 -169 C 889 -220 857 -266 816 -306 C 774 -346 721 -377 657 -398 C 592 -419 516 -430 430 -430 C 352 -430 274 -415 198 -386 C 121 -356 56 -318 4 -272 Z M 301 442 C 301 351 318 284 354 240 C 389 196 434 174 489 174 C 549 174 604 193 654 232 C 704 271 753 328 803 403 L 874 823 C 798 889 719 922 635 922 C 573 922 517 900 466 858 C 415 816 375 758 345 684 C 315 610 301 530 301 442 Z M 336 1196 L 647 1524 L 881 1524 L 1073 1196 L 924 1196 L 756 1386 L 752 1386 L 516 1196 L 336 1196 Z" unicode="ĝ" />
<glyph horiz-adv-x="1474" d="M 96 608 C 96 766 131 909 203 1038 C 274 1167 375 1269 506 1345 C 636 1420 784 1458 950 1458 C 1041 1458 1130 1442 1216 1412 C 1302 1381 1375 1340 1436 1290 L 1290 1128 C 1192 1206 1074 1245 936 1245 C 857 1245 782 1229 710 1197 C 638 1165 575 1122 523 1068 C 470 1014 428 948 397 870 C 365 792 350 709 350 621 C 350 487 386 382 459 304 C 532 226 629 188 750 188 C 860 188 958 214 1042 268 L 1100 598 L 750 598 L 782 780 L 1364 780 L 1247 131 C 1089 27 913 -25 721 -25 C 602 -25 495 0 401 52 C 306 104 231 178 177 275 C 123 371 96 482 96 608 Z M 645 1800 L 803 1800 C 819 1728 874 1692 967 1692 C 1061 1692 1130 1728 1176 1800 L 1346 1800 C 1279 1624 1147 1536 950 1536 C 859 1536 787 1559 733 1606 C 679 1653 650 1718 645 1800 Z" unicode="Ğ" />
<glyph horiz-adv-x="1222" d="M 4 -272 L 131 -115 C 235 -198 340 -240 446 -240 C 528 -240 592 -218 638 -174 C 684 -130 717 -55 737 49 L 760 168 C 667 50 552 -8 416 -8 C 370 -8 326 0 284 18 C 242 36 205 62 171 96 C 137 130 109 177 89 235 C 69 293 59 359 59 434 C 59 530 73 621 102 705 C 131 789 170 860 220 918 C 269 976 327 1021 395 1054 C 463 1087 534 1104 610 1104 C 673 1104 731 1092 784 1068 C 836 1044 879 1013 913 975 L 944 1083 L 1157 1083 L 967 10 C 955 -58 937 -117 913 -169 C 889 -220 857 -266 816 -306 C 774 -346 721 -377 657 -398 C 592 -419 516 -430 430 -430 C 352 -430 274 -415 198 -386 C 121 -356 56 -318 4 -272 Z M 301 442 C 301 351 318 284 354 240 C 389 196 434 174 489 174 C 549 174 604 193 654 232 C 704 271 753 328 803 403 L 874 823 C 798 889 719 922 635 922 C 573 922 517 900 466 858 C 415 816 375 758 345 684 C 315 610 301 530 301 442 Z M 414 1524 L 565 1524 C 559 1400 610 1339 719 1339 C 772 1339 818 1355 857 1387 C 895 1419 923 1464 940 1524 L 1102 1524 C 1076 1413 1029 1328 961 1269 C 893 1209 806 1180 702 1180 C 603 1180 528 1211 478 1273 C 427 1335 406 1418 414 1524 Z" unicode="ğ" />
<glyph horiz-adv-x="1474" d="M 96 608 C 96 766 131 909 203 1038 C 274 1167 375 1269 506 1345 C 636 1420 784 1458 950 1458 C 1041 1458 1130 1442 1216 1412 C 1302 1381 1375 1340 1436 1290 L 1290 1128 C 1192 1206 1074 1245 936 1245 C 857 1245 782 1229 710 1197 C 638 1165 575 1122 523 1068 C 470 1014 428 948 397 870 C 365 792 350 709 350 621 C 350 487 386 382 459 304 C 532 226 629 188 750 188 C 860 188 958 214 1042 268 L 1100 598 L 750 598 L 782 780 L 1364 780 L 1247 131 C 1089 27 913 -25 721 -25 C 602 -25 495 0 401 52 C 306 104 231 178 177 275 C 123 371 96 482 96 608 Z M 829 1569 L 868 1778 L 1075 1778 L 1038 1569 L 829 1569 Z" unicode="Ġ" />
<glyph horiz-adv-x="1222" d="M 4 -272 L 131 -115 C 235 -198 340 -240 446 -240 C 528 -240 592 -218 638 -174 C 684 -130 717 -55 737 49 L 760 168 C 667 50 552 -8 416 -8 C 370 -8 326 0 284 18 C 242 36 205 62 171 96 C 137 130 109 177 89 235 C 69 293 59 359 59 434 C 59 530 73 621 102 705 C 131 789 170 860 220 918 C 269 976 327 1021 395 1054 C 463 1087 534 1104 610 1104 C 673 1104 731 1092 784 1068 C 836 1044 879 1013 913 975 L 944 1083 L 1157 1083 L 967 10 C 955 -58 937 -117 913 -169 C 889 -220 857 -266 816 -306 C 774 -346 721 -377 657 -398 C 592 -419 516 -430 430 -430 C 352 -430 274 -415 198 -386 C 121 -356 56 -318 4 -272 Z M 301 442 C 301 351 318 284 354 240 C 389 196 434 174 489 174 C 549 174 604 193 654 232 C 704 271 753 328 803 403 L 874 823 C 798 889 719 922 635 922 C 573 922 517 900 466 858 C 415 816 375 758 345 684 C 315 610 301 530 301 442 Z M 586 1255 L 623 1464 L 829 1464 L 793 1255 L 586 1255 Z" unicode="ġ" />
<glyph horiz-adv-x="1474" d="M 96 608 C 96 766 131 909 203 1038 C 274 1167 375 1269 506 1345 C 636 1420 784 1458 950 1458 C 1041 1458 1130 1442 1216 1412 C 1302 1381 1375 1340 1436 1290 L 1290 1128 C 1192 1206 1074 1245 936 1245 C 857 1245 782 1229 710 1197 C 638 1165 575 1122 523 1068 C 470 1014 428 948 397 870 C 365 792 350 709 350 621 C 350 487 386 382 459 304 C 532 226 629 188 750 188 C 860 188 958 214 1042 268 L 1100 598 L 750 598 L 782 780 L 1364 780 L 1247 131 C 1089 27 913 -25 721 -25 C 602 -25 495 0 401 52 C 306 104 231 178 177 275 C 123 371 96 482 96 608 Z M 506 -444 C 579 -372 616 -318 616 -281 C 616 -251 598 -236 563 -236 C 546 -236 530 -238 514 -242 L 539 -113 C 570 -103 605 -98 645 -98 C 699 -98 739 -110 767 -134 C 795 -158 809 -190 809 -231 C 809 -303 764 -374 676 -444 L 506 -444 Z" unicode="Ģ" />
<glyph horiz-adv-x="1222" d="M 4 -272 L 131 -115 C 235 -198 340 -240 446 -240 C 528 -240 592 -218 638 -174 C 684 -130 717 -55 737 49 L 760 168 C 667 50 552 -8 416 -8 C 370 -8 326 0 284 18 C 242 36 205 62 171 96 C 137 130 109 177 89 235 C 69 293 59 359 59 434 C 59 530 73 621 102 705 C 131 789 170 860 220 918 C 269 976 327 1021 395 1054 C 463 1087 534 1104 610 1104 C 673 1104 731 1092 784 1068 C 836 1044 879 1013 913 975 L 944 1083 L 1157 1083 L 967 10 C 955 -58 937 -117 913 -169 C 889 -220 857 -266 816 -306 C 774 -346 721 -377 657 -398 C 592 -419 516 -430 430 -430 C 352 -430 274 -415 198 -386 C 121 -356 56 -318 4 -272 Z M 301 442 C 301 351 318 284 354 240 C 389 196 434 174 489 174 C 549 174 604 193 654 232 C 704 271 753 328 803 403 L 874 823 C 798 889 719 922 635 922 C 573 922 517 900 466 858 C 415 816 375 758 345 684 C 315 610 301 530 301 442 Z M 545 1323 C 545 1395 590 1467 682 1538 L 850 1538 C 776 1467 739 1412 739 1374 C 739 1344 757 1329 793 1329 C 810 1329 826 1331 840 1335 C 836 1309 829 1266 817 1206 C 788 1196 753 1192 711 1192 C 657 1192 615 1204 587 1228 C 559 1252 545 1283 545 1323 Z" unicode="ģ" />
<glyph horiz-adv-x="1425" d="M 41 0 L 295 1434 L 543 1434 L 438 836 L 1059 836 L 1165 1434 L 1413 1434 L 1161 0 L 911 0 L 1022 621 L 401 621 L 291 0 L 41 0 Z M 500 1546 L 791 1800 L 1020 1800 L 1217 1546 L 1067 1546 L 891 1673 L 887 1673 L 672 1546 L 500 1546 Z" unicode="Ĥ" />
<glyph horiz-adv-x="1202" d="M 33 0 L 307 1546 L 543 1546 L 430 907 C 540 1038 661 1104 793 1104 C 884 1104 956 1078 1008 1028 C 1060 977 1087 910 1087 827 C 1087 781 1081 725 1069 659 L 950 0 L 715 0 L 838 690 C 846 736 850 775 850 805 C 850 884 810 924 731 924 C 626 924 512 838 389 666 L 270 0 L 33 0 Z M 70 1632 L 360 1886 L 590 1886 L 786 1632 L 637 1632 L 461 1759 L 457 1759 L 242 1632 L 70 1632 Z" unicode="ĥ" />
<glyph horiz-adv-x="1425" d="M 41 0 L 295 1434 L 543 1434 L 504 1212 L 1124 1212 L 1165 1434 L 1413 1434 L 1161 0 L 911 0 L 1022 621 L 401 621 L 291 0 L 41 0 Z M 438 836 L 1059 836 L 1098 1061 L 477 1061 L 438 836 Z" unicode="Ħ" />
<glyph horiz-adv-x="1202" d="M 33 0 L 252 1237 L 92 1237 L 123 1391 L 279 1391 L 307 1546 L 543 1546 L 514 1391 L 786 1391 L 758 1241 L 487 1241 L 430 907 C 540 1038 661 1104 793 1104 C 884 1104 956 1078 1008 1028 C 1060 977 1087 910 1087 827 C 1087 781 1081 725 1069 659 L 950 0 L 715 0 L 838 690 C 846 736 850 775 850 805 C 850 884 810 924 731 924 C 626 924 512 838 389 666 L 270 0 L 33 0 Z" unicode="ħ" />
<glyph horiz-adv-x="555" d="M 41 0 L 295 1434 L 543 1434 L 291 0 L 41 0 Z M 106 1548 C 108 1632 130 1697 170 1744 C 210 1791 264 1815 332 1815 C 361 1815 389 1809 415 1797 C 441 1785 461 1772 477 1758 C 493 1744 510 1731 529 1719 C 548 1707 566 1702 582 1702 C 630 1702 657 1734 662 1798 L 807 1798 C 803 1714 781 1648 741 1602 C 701 1555 646 1532 578 1532 C 549 1532 522 1537 496 1549 C 470 1560 449 1573 433 1587 C 417 1601 400 1613 382 1625 C 363 1636 346 1642 330 1642 C 306 1642 288 1633 274 1617 C 260 1600 253 1577 252 1548 L 106 1548 Z" unicode="Ĩ" />
<glyph horiz-adv-x="524" d="M 33 0 L 223 1073 L 459 1073 L 270 0 L 33 0 Z M 37 1233 C 41 1317 62 1382 102 1430 C 141 1477 194 1501 262 1501 C 291 1501 319 1495 345 1483 C 371 1471 391 1459 407 1445 C 422 1431 439 1418 458 1406 C 477 1394 495 1389 512 1389 C 560 1389 586 1421 590 1487 L 735 1487 C 731 1403 708 1337 668 1290 C 628 1242 574 1219 506 1219 C 478 1219 451 1224 426 1236 C 400 1247 380 1260 365 1274 C 349 1288 332 1300 314 1312 C 295 1323 278 1329 262 1329 C 212 1329 186 1297 182 1233 L 37 1233 Z" unicode="ĩ" />
<glyph horiz-adv-x="555" d="M 41 0 L 295 1434 L 543 1434 L 291 0 L 41 0 Z M 127 1593 L 156 1753 L 788 1753 L 762 1593 L 127 1593 Z" unicode="Ī" />
<glyph horiz-adv-x="524" d="M 33 0 L 223 1073 L 459 1073 L 270 0 L 33 0 Z M 55 1280 L 84 1438 L 713 1438 L 684 1280 L 55 1280 Z" unicode="ī" />
<glyph horiz-adv-x="555" d="M 41 0 L 295 1434 L 543 1434 L 291 0 L 41 0 Z M 127 1800 L 285 1800 C 301 1728 356 1692 449 1692 C 542 1692 611 1728 657 1800 L 827 1800 C 760 1624 628 1536 432 1536 C 341 1536 269 1559 215 1606 C 161 1653 132 1718 127 1800 Z" unicode="Ĭ" />
<glyph horiz-adv-x="524" d="M 33 0 L 223 1073 L 459 1073 L 270 0 L 33 0 Z M 68 1524 L 219 1524 C 213 1400 264 1339 373 1339 C 426 1339 472 1355 511 1387 C 549 1419 577 1464 594 1524 L 756 1524 C 730 1413 683 1328 615 1269 C 547 1209 460 1180 356 1180 C 257 1180 182 1211 132 1273 C 81 1335 60 1418 68 1524 Z" unicode="ĭ" />
<glyph horiz-adv-x="555" d="M -102 -244 C -102 -147 -44 -66 70 0 L 41 0 L 295 1434 L 543 1434 L 291 0 C 157 -48 90 -108 90 -180 C 90 -224 117 -246 172 -246 C 211 -246 248 -237 283 -219 L 287 -223 L 256 -397 C 205 -415 153 -424 100 -424 C 39 -424 -9 -407 -46 -373 C -83 -339 -102 -296 -102 -244 Z" unicode="Į" />
<glyph horiz-adv-x="524" d="M -123 -244 C -123 -147 -65 -66 49 0 L 33 0 L 223 1073 L 459 1073 L 270 0 C 136 -47 70 -107 70 -180 C 70 -224 97 -246 152 -246 C 190 -246 227 -237 262 -219 L 266 -223 L 236 -397 C 185 -415 133 -424 80 -424 C 19 -424 -29 -407 -67 -373 C -104 -339 -123 -296 -123 -244 Z M 262 1303 L 303 1530 L 539 1530 L 500 1303 L 262 1303 Z" unicode="į" />
<glyph horiz-adv-x="555" d="M 41 0 L 295 1434 L 543 1434 L 291 0 L 41 0 Z M 334 1569 L 373 1778 L 580 1778 L 543 1569 L 334 1569 Z" unicode="İ" />
<glyph horiz-adv-x="524" d="M 33 0 L 223 1073 L 459 1073 L 270 0 L 33 0 Z" unicode="ı" />
<glyph horiz-adv-x="1187" d="M 31 0 L 233 1139 L 471 1139 L 438 956 L 631 956 C 777 956 890 926 970 867 C 1050 807 1090 721 1090 608 C 1090 546 1078 488 1054 436 C 1030 383 994 336 947 296 C 899 255 837 223 761 200 C 684 177 596 166 498 166 L 299 166 L 270 0 L 31 0 Z M 334 360 L 520 360 C 628 360 709 381 764 425 C 818 468 846 524 846 592 C 846 654 827 699 790 725 C 752 751 686 764 590 764 L 403 764 L 334 360 Z" unicode="" />
<glyph horiz-adv-x="1837" d="M 27 0 L 213 1083 L 410 1083 L 403 897 C 450 959 507 1010 573 1048 C 639 1086 709 1106 784 1106 C 862 1106 925 1086 971 1048 C 1017 1009 1046 959 1057 897 C 1175 1036 1306 1106 1448 1106 C 1534 1106 1601 1082 1650 1034 C 1699 986 1724 924 1724 846 C 1724 792 1718 730 1706 662 L 1587 0 L 1356 0 L 1479 694 C 1487 738 1491 775 1491 807 C 1491 885 1453 924 1378 924 C 1326 924 1271 902 1213 860 C 1155 818 1099 758 1044 682 C 1044 680 1043 677 1043 673 C 1042 669 1042 667 1042 666 L 924 0 L 692 0 L 815 696 C 823 740 827 776 827 805 C 827 884 789 924 715 924 C 659 924 604 902 550 859 C 495 815 438 752 379 668 L 260 0 L 27 0 Z M 711 1280 L 739 1438 L 1368 1438 L 1339 1280 L 711 1280 Z" unicode="" />
<glyph horiz-adv-x="1161" d="M 20 276 L 211 375 C 245 312 282 263 321 229 C 360 195 409 178 467 178 C 541 178 599 202 643 252 C 686 302 717 377 735 479 L 903 1434 L 1153 1434 L 985 477 C 956 314 897 190 808 104 C 719 18 603 -25 459 -25 C 357 -25 268 2 194 57 C 119 111 61 184 20 276 Z M 676 1546 L 967 1800 L 1196 1800 L 1393 1546 L 1243 1546 L 1067 1673 L 1063 1673 L 848 1546 L 676 1546 Z" unicode="Ĵ" />
<glyph horiz-adv-x="532" d="M -338 -365 L -242 -205 C -202 -225 -167 -236 -137 -236 C -90 -236 -52 -218 -24 -183 C 3 -148 25 -90 39 -8 L 229 1073 L 467 1073 L 270 -33 C 246 -169 202 -270 138 -334 C 73 -398 -16 -430 -131 -430 C -169 -430 -206 -424 -244 -412 C -281 -400 -312 -384 -338 -365 Z M -12 1196 L 299 1524 L 532 1524 L 725 1196 L 575 1196 L 408 1386 L 403 1386 L 168 1196 L -12 1196 Z" unicode="ĵ" />
<glyph horiz-adv-x="1366" d="M 41 0 L 295 1434 L 543 1434 L 418 729 L 1133 1434 L 1423 1434 L 866 887 L 1202 0 L 948 0 L 688 713 L 358 389 L 291 0 L 41 0 Z M 430 -444 C 504 -372 541 -317 541 -281 C 541 -267 536 -256 527 -248 C 517 -240 504 -236 487 -236 C 470 -236 454 -238 438 -242 L 463 -113 C 494 -103 529 -98 569 -98 C 623 -98 663 -110 691 -134 C 719 -158 733 -190 733 -231 C 733 -303 688 -374 600 -444 L 430 -444 Z" unicode="Ķ" />
<glyph horiz-adv-x="1130" d="M 33 0 L 305 1546 L 543 1546 L 377 602 L 870 1083 L 1149 1083 L 737 692 L 969 0 L 727 0 L 563 526 L 324 299 L 270 0 L 33 0 Z M 328 -444 C 400 -374 436 -319 436 -281 C 436 -251 419 -236 385 -236 C 368 -236 352 -238 336 -242 L 358 -113 C 391 -103 427 -98 465 -98 C 519 -98 561 -110 589 -134 C 617 -158 631 -190 631 -231 C 631 -303 586 -374 496 -444 L 328 -444 Z" unicode="ķ" />
<glyph horiz-adv-x="1130" d="M 35 0 L 223 1083 L 461 1083 L 379 602 L 872 1083 L 1151 1083 L 739 692 L 971 0 L 729 0 L 565 526 L 326 299 L 272 0 L 35 0 Z" unicode="ĸ" />
<glyph horiz-adv-x="1222" d="M 41 0 L 295 1434 L 543 1434 L 330 217 L 1071 217 L 1032 0 L 41 0 Z M 334 1546 L 608 1843 L 784 1718 L 500 1546 L 334 1546 Z" unicode="Ĺ" />
<glyph horiz-adv-x="524" d="M 33 0 L 305 1546 L 543 1546 L 270 0 L 33 0 Z M 319 1632 L 594 1929 L 770 1804 L 485 1632 L 319 1632 Z" unicode="ĺ" />
<glyph horiz-adv-x="1222" d="M 41 0 L 295 1434 L 543 1434 L 330 217 L 1071 217 L 1032 0 L 41 0 Z M 369 -444 C 442 -372 479 -318 479 -281 C 479 -251 461 -236 426 -236 C 409 -236 393 -238 377 -242 L 401 -113 C 432 -103 468 -98 508 -98 C 562 -98 602 -110 630 -134 C 658 -158 672 -190 672 -231 C 672 -303 627 -374 539 -444 L 369 -444 Z" unicode="Ļ" />
<glyph horiz-adv-x="524" d="M -20 -444 C 52 -374 88 -319 88 -281 C 88 -251 71 -236 37 -236 C 20 -236 4 -238 -12 -242 L 10 -113 C 43 -103 79 -98 117 -98 C 171 -98 213 -110 241 -134 C 269 -158 283 -190 283 -231 C 283 -303 237 -374 147 -444 L -20 -444 Z M 33 0 L 305 1546 L 543 1546 L 270 0 L 33 0 Z" unicode="ļ" />
<glyph horiz-adv-x="1222" d="M 41 0 L 295 1434 L 543 1434 L 330 217 L 1071 217 L 1032 0 L 41 0 Z M 981 1098 C 1055 1170 1092 1224 1092 1262 C 1092 1276 1087 1287 1078 1295 C 1068 1303 1055 1307 1038 1307 C 1024 1307 1007 1304 989 1300 L 1014 1430 C 1042 1439 1078 1444 1120 1444 C 1174 1444 1214 1432 1242 1408 C 1270 1384 1284 1351 1284 1311 C 1284 1239 1239 1168 1151 1098 L 981 1098 Z" unicode="Ľ" />
<glyph horiz-adv-x="524" d="M 33 0 L 305 1546 L 543 1546 L 270 0 L 33 0 Z M 602 1165 C 676 1235 713 1290 713 1329 C 713 1359 695 1374 659 1374 C 641 1374 626 1372 612 1368 C 615 1394 623 1437 635 1497 C 663 1506 699 1511 741 1511 C 795 1511 836 1499 864 1475 C 892 1451 907 1419 907 1380 C 907 1307 861 1235 770 1165 L 602 1165 Z" unicode="ľ" />
<glyph horiz-adv-x="1222" d="M 41 0 L 295 1434 L 543 1434 L 330 217 L 1071 217 L 1032 0 L 41 0 Z M 952 719 L 989 930 L 1194 930 L 1159 719 L 952 719 Z" unicode="Ŀ" />
<glyph horiz-adv-x="524" d="M 33 0 L 305 1546 L 543 1546 L 270 0 L 33 0 Z M 479 612 L 516 821 L 723 821 L 686 612 L 479 612 Z" unicode="ŀ" />
<glyph horiz-adv-x="1280" d="M -35 442 L 2 627 L 229 739 L 352 1434 L 600 1434 L 502 874 L 909 1077 L 872 889 L 469 690 L 387 217 L 1128 217 L 1090 0 L 98 0 L 197 555 L -35 442 Z" unicode="Ł" />
<glyph horiz-adv-x="557" d="M -27 539 L 8 723 L 180 807 L 311 1546 L 549 1546 L 442 938 L 610 1022 L 578 840 L 410 756 L 276 0 L 39 0 L 150 627 L -27 539 Z" unicode="ł" />
<glyph horiz-adv-x="1478" d="M 41 0 L 295 1434 L 502 1434 L 1042 391 L 1227 1434 L 1466 1434 L 1212 0 L 999 0 L 465 1042 L 281 0 L 41 0 Z M 780 1546 L 1055 1843 L 1231 1718 L 946 1546 L 780 1546 Z" unicode="Ń" />
<glyph horiz-adv-x="1196" d="M 27 0 L 215 1083 L 412 1083 L 406 897 C 518 1035 646 1104 791 1104 C 880 1104 950 1078 1002 1027 C 1053 975 1079 909 1079 829 C 1079 781 1073 723 1061 655 L 942 0 L 707 0 L 829 692 C 837 742 842 780 842 805 C 842 884 803 924 725 924 C 619 924 504 838 381 666 L 264 0 L 27 0 Z M 584 1196 L 918 1577 L 1081 1454 L 741 1196 L 584 1196 Z" unicode="ń" />
<glyph horiz-adv-x="1478" d="M 41 0 L 295 1434 L 502 1434 L 1042 391 L 1227 1434 L 1466 1434 L 1212 0 L 999 0 L 465 1042 L 281 0 L 41 0 Z M 471 -444 C 545 -372 582 -317 582 -281 C 582 -267 577 -256 568 -248 C 558 -240 545 -236 528 -236 C 511 -236 495 -238 479 -242 L 504 -113 C 534 -103 570 -98 610 -98 C 664 -98 704 -110 732 -134 C 760 -158 774 -190 774 -231 C 774 -303 729 -374 641 -444 L 471 -444 Z" unicode="Ņ" />
<glyph horiz-adv-x="1196" d="M 27 0 L 215 1083 L 412 1083 L 406 897 C 518 1035 646 1104 791 1104 C 880 1104 950 1078 1002 1027 C 1053 975 1079 909 1079 829 C 1079 781 1073 723 1061 655 L 942 0 L 707 0 L 829 692 C 837 742 842 780 842 805 C 842 884 803 924 725 924 C 619 924 504 838 381 666 L 264 0 L 27 0 Z M 319 -444 C 391 -373 428 -319 428 -281 C 428 -251 411 -236 377 -236 C 360 -236 344 -238 328 -242 L 350 -113 C 383 -103 419 -98 457 -98 C 511 -98 553 -110 581 -134 C 609 -158 623 -190 623 -231 C 623 -303 577 -374 487 -444 L 319 -444 Z" unicode="ņ" />
<glyph horiz-adv-x="1478" d="M 41 0 L 295 1434 L 502 1434 L 1042 391 L 1227 1434 L 1466 1434 L 1212 0 L 999 0 L 465 1042 L 281 0 L 41 0 Z M 567 1800 L 719 1800 L 891 1673 L 895 1673 L 1110 1800 L 1286 1800 L 993 1546 L 764 1546 L 567 1800 Z" unicode="Ň" />
<glyph horiz-adv-x="1196" d="M 27 0 L 215 1083 L 412 1083 L 406 897 C 518 1035 646 1104 791 1104 C 880 1104 950 1078 1002 1027 C 1053 975 1079 909 1079 829 C 1079 781 1073 723 1061 655 L 942 0 L 707 0 L 829 692 C 837 742 842 780 842 805 C 842 884 803 924 725 924 C 619 924 504 838 381 666 L 264 0 L 27 0 Z M 387 1524 L 530 1524 L 705 1327 L 709 1327 L 950 1524 L 1122 1524 L 815 1196 L 582 1196 L 387 1524 Z" unicode="ň" />
<glyph horiz-adv-x="1298" d="M 70 571 L 559 1139 L 713 1008 L 303 549 L 584 111 L 418 0 L 70 571 Z M 592 571 L 1081 1139 L 1235 1008 L 825 549 L 1106 111 L 940 0 L 592 571 Z" unicode="" />
<glyph horiz-adv-x="1478" d="M 41 0 L 295 1434 L 502 1434 L 1042 391 L 1227 1434 L 1466 1434 L 1208 -31 C 1183 -168 1138 -269 1073 -333 C 1008 -397 918 -430 803 -430 C 763 -430 724 -423 686 -410 C 648 -397 616 -381 590 -362 L 690 -197 C 731 -218 766 -229 795 -229 C 841 -229 879 -211 909 -176 C 939 -141 961 -84 975 -4 L 981 35 L 465 1042 L 281 0 L 41 0 Z" unicode="Ŋ" />
<glyph horiz-adv-x="1196" d="M 27 0 L 215 1083 L 412 1083 L 406 897 C 520 1037 648 1108 791 1108 C 880 1108 950 1081 1002 1029 C 1053 976 1079 909 1079 829 C 1079 781 1073 723 1061 655 L 938 -33 C 913 -169 868 -270 804 -334 C 739 -398 650 -430 537 -430 C 498 -430 460 -424 422 -412 C 384 -400 354 -384 330 -365 L 426 -205 C 466 -225 500 -236 528 -236 C 575 -236 613 -218 642 -183 C 671 -148 693 -90 707 -8 L 829 692 C 837 742 842 780 842 805 C 842 884 803 924 725 924 C 619 924 504 838 381 666 L 264 0 L 27 0 Z" unicode="ŋ" />
<glyph horiz-adv-x="1642" d="M 102 598 C 102 716 123 828 165 934 C 207 1040 264 1131 337 1208 C 410 1284 498 1345 602 1390 C 706 1435 817 1458 936 1458 C 1022 1458 1103 1444 1179 1417 C 1255 1389 1322 1350 1381 1299 C 1439 1247 1486 1182 1520 1102 C 1554 1022 1571 934 1571 836 C 1571 718 1550 606 1508 500 C 1466 394 1408 302 1335 225 C 1262 148 1174 87 1070 42 C 966 -2 855 -25 737 -25 C 651 -25 570 -11 494 16 C 418 44 350 83 292 135 C 233 186 187 251 153 331 C 119 411 102 500 102 598 Z M 356 623 C 356 485 392 378 464 302 C 536 226 632 188 754 188 C 827 188 898 203 967 235 C 1035 266 1095 309 1147 363 C 1198 417 1239 483 1270 561 C 1301 639 1317 723 1317 811 C 1317 948 1281 1055 1209 1132 C 1137 1208 1042 1247 922 1247 C 848 1247 777 1231 708 1200 C 639 1168 579 1125 527 1071 C 475 1017 434 950 403 872 C 371 794 356 711 356 623 Z M 651 1593 L 680 1753 L 1313 1753 L 1286 1593 L 651 1593 Z" unicode="Ō" />
<glyph horiz-adv-x="1234" d="M 61 453 C 61 576 88 688 142 788 C 196 888 270 966 364 1023 C 458 1079 564 1108 680 1108 C 819 1108 932 1065 1018 979 C 1104 893 1147 776 1147 629 C 1147 506 1120 395 1066 295 C 1012 195 937 116 843 60 C 748 3 642 -25 526 -25 C 388 -25 276 18 190 104 C 104 190 61 306 61 453 Z M 301 455 C 301 359 322 287 366 237 C 409 187 470 162 549 162 C 646 162 730 208 801 301 C 871 394 907 503 907 627 C 907 723 885 797 843 847 C 800 897 740 922 662 922 C 598 922 538 900 482 857 C 426 813 381 756 349 684 C 317 612 301 535 301 455 Z M 406 1280 L 434 1438 L 1063 1438 L 1034 1280 L 406 1280 Z" unicode="ō" />
<glyph horiz-adv-x="1642" d="M 102 598 C 102 716 123 828 165 934 C 207 1040 264 1131 337 1208 C 410 1284 498 1345 602 1390 C 706 1435 817 1458 936 1458 C 1022 1458 1103 1444 1179 1417 C 1255 1389 1322 1350 1381 1299 C 1439 1247 1486 1182 1520 1102 C 1554 1022 1571 934 1571 836 C 1571 718 1550 606 1508 500 C 1466 394 1408 302 1335 225 C 1262 148 1174 87 1070 42 C 966 -2 855 -25 737 -25 C 651 -25 570 -11 494 16 C 418 44 350 83 292 135 C 233 186 187 251 153 331 C 119 411 102 500 102 598 Z M 356 623 C 356 485 392 378 464 302 C 536 226 632 188 754 188 C 827 188 898 203 967 235 C 1035 266 1095 309 1147 363 C 1198 417 1239 483 1270 561 C 1301 639 1317 723 1317 811 C 1317 948 1281 1055 1209 1132 C 1137 1208 1042 1247 922 1247 C 848 1247 777 1231 708 1200 C 639 1168 579 1125 527 1071 C 475 1017 434 950 403 872 C 371 794 356 711 356 623 Z M 647 1800 L 805 1800 C 821 1728 876 1692 969 1692 C 1063 1692 1132 1728 1178 1800 L 1348 1800 C 1281 1624 1149 1536 952 1536 C 861 1536 789 1559 735 1606 C 681 1653 652 1718 647 1800 Z" unicode="Ŏ" />
<glyph horiz-adv-x="1234" d="M 61 453 C 61 576 88 688 142 788 C 196 888 270 966 364 1023 C 458 1079 564 1108 680 1108 C 819 1108 932 1065 1018 979 C 1104 893 1147 776 1147 629 C 1147 506 1120 395 1066 295 C 1012 195 937 116 843 60 C 748 3 642 -25 526 -25 C 388 -25 276 18 190 104 C 104 190 61 306 61 453 Z M 301 455 C 301 359 322 287 366 237 C 409 187 470 162 549 162 C 646 162 730 208 801 301 C 871 394 907 503 907 627 C 907 723 885 797 843 847 C 800 897 740 922 662 922 C 598 922 538 900 482 857 C 426 813 381 756 349 684 C 317 612 301 535 301 455 Z M 422 1524 L 573 1524 C 567 1400 618 1339 727 1339 C 780 1339 826 1355 865 1387 C 903 1419 931 1464 948 1524 L 1110 1524 C 1084 1413 1037 1328 969 1269 C 901 1209 815 1180 711 1180 C 612 1180 537 1211 486 1273 C 435 1335 414 1418 422 1524 Z" unicode="ŏ" />
<glyph horiz-adv-x="1642" d="M 102 598 C 102 716 123 828 165 934 C 207 1040 264 1131 337 1208 C 410 1284 498 1345 602 1390 C 706 1435 817 1458 936 1458 C 1022 1458 1103 1444 1179 1417 C 1255 1389 1322 1350 1381 1299 C 1439 1247 1486 1182 1520 1102 C 1554 1022 1571 934 1571 836 C 1571 718 1550 606 1508 500 C 1466 394 1408 302 1335 225 C 1262 148 1174 87 1070 42 C 966 -2 855 -25 737 -25 C 651 -25 570 -11 494 16 C 418 44 350 83 292 135 C 233 186 187 251 153 331 C 119 411 102 500 102 598 Z M 356 623 C 356 485 392 378 464 302 C 536 226 632 188 754 188 C 827 188 898 203 967 235 C 1035 266 1095 309 1147 363 C 1198 417 1239 483 1270 561 C 1301 639 1317 723 1317 811 C 1317 948 1281 1055 1209 1132 C 1137 1208 1042 1247 922 1247 C 848 1247 777 1231 708 1200 C 639 1168 579 1125 527 1071 C 475 1017 434 950 403 872 C 371 794 356 711 356 623 Z M 684 1546 L 961 1843 L 1137 1718 L 854 1546 L 684 1546 Z M 1057 1546 L 1333 1843 L 1509 1718 L 1227 1546 L 1057 1546 Z" unicode="Ő" />
<glyph horiz-adv-x="1234" d="M 61 453 C 61 576 88 688 142 788 C 196 888 270 966 364 1023 C 458 1079 564 1108 680 1108 C 819 1108 932 1065 1018 979 C 1104 893 1147 776 1147 629 C 1147 506 1120 395 1066 295 C 1012 195 937 116 843 60 C 748 3 642 -25 526 -25 C 388 -25 276 18 190 104 C 104 190 61 306 61 453 Z M 301 455 C 301 359 322 287 366 237 C 409 187 470 162 549 162 C 646 162 730 208 801 301 C 871 394 907 503 907 627 C 907 723 885 797 843 847 C 800 897 740 922 662 922 C 598 922 538 900 482 857 C 426 813 381 756 349 684 C 317 612 301 535 301 455 Z M 434 1196 L 752 1577 L 909 1462 L 586 1196 L 434 1196 Z M 782 1196 L 1104 1577 L 1260 1462 L 936 1196 L 782 1196 Z" unicode="ő" />
<glyph horiz-adv-x="2430" d="M 102 598 C 102 756 137 900 209 1032 C 281 1163 380 1267 507 1343 C 633 1419 774 1458 928 1458 C 1035 1458 1132 1435 1220 1390 C 1308 1345 1369 1284 1405 1206 L 1444 1434 L 2447 1434 L 2408 1217 L 1655 1217 L 1585 829 L 2261 829 L 2226 629 L 1550 629 L 1477 217 L 2243 217 L 2204 0 L 1192 0 L 1223 178 C 1085 42 919 -25 723 -25 C 657 -25 594 -16 534 0 C 473 17 416 43 364 78 C 312 112 266 154 227 203 C 188 251 157 309 135 377 C 113 445 102 518 102 598 Z M 356 623 C 356 485 392 378 464 302 C 536 226 632 188 754 188 C 826 188 897 203 965 234 C 1033 265 1093 308 1145 362 C 1197 416 1238 482 1270 560 C 1301 638 1317 722 1317 811 C 1317 948 1281 1055 1209 1132 C 1137 1208 1042 1247 922 1247 C 849 1247 778 1231 710 1200 C 641 1168 581 1126 529 1072 C 477 1018 435 952 403 874 C 371 795 356 711 356 623 Z" unicode="Œ" />
<glyph horiz-adv-x="1994" d="M 61 453 C 61 576 88 688 142 788 C 196 888 270 966 364 1023 C 458 1079 564 1108 680 1108 C 774 1108 854 1087 919 1047 C 984 1006 1032 947 1063 870 C 1116 944 1184 1003 1267 1045 C 1349 1087 1443 1108 1548 1108 C 1660 1108 1751 1079 1821 1022 C 1890 965 1925 896 1925 815 C 1925 745 1898 685 1846 636 C 1794 586 1721 549 1628 525 C 1534 501 1424 489 1298 489 L 1141 489 C 1139 482 1139 471 1139 455 C 1139 359 1160 287 1204 239 C 1247 191 1310 168 1393 168 C 1487 168 1586 202 1690 270 L 1788 106 C 1663 18 1521 -25 1362 -25 C 1268 -25 1189 -5 1124 34 C 1058 74 1010 131 979 207 C 927 133 863 76 785 36 C 707 -4 621 -25 526 -25 C 388 -25 276 18 190 104 C 104 190 61 306 61 453 Z M 301 455 C 301 359 322 287 366 237 C 409 187 470 162 549 162 C 646 162 730 208 801 301 C 871 394 907 503 907 627 C 907 723 885 797 843 847 C 800 897 740 922 662 922 C 598 922 538 900 482 857 C 426 813 381 756 349 684 C 317 612 301 535 301 455 Z M 1176 659 L 1315 659 C 1445 659 1540 673 1599 702 C 1658 731 1688 769 1688 815 C 1688 847 1673 875 1644 897 C 1615 919 1576 930 1528 930 C 1456 930 1387 905 1322 856 C 1257 806 1208 741 1176 659 Z" unicode="œ" />
<glyph horiz-adv-x="1398" d="M 41 0 L 295 1434 L 891 1434 C 1034 1434 1147 1397 1230 1323 C 1312 1249 1354 1155 1354 1042 C 1354 931 1323 835 1261 755 C 1199 674 1111 617 995 584 L 1167 0 L 922 0 L 778 553 L 389 553 L 291 0 L 41 0 Z M 424 745 L 782 745 C 880 745 957 773 1014 831 C 1071 889 1100 956 1100 1032 C 1100 1163 1022 1229 868 1229 L 508 1229 L 424 745 Z M 707 1546 L 981 1843 L 1157 1718 L 872 1546 L 707 1546 Z" unicode="Ŕ" />
<glyph horiz-adv-x="856" d="M 27 0 L 215 1083 L 410 1083 L 403 891 C 500 1038 619 1112 760 1112 C 812 1112 860 1101 903 1081 L 825 874 C 788 890 746 899 700 899 C 643 899 588 875 535 827 C 481 779 428 713 375 627 L 262 0 L 27 0 Z M 440 1196 L 774 1577 L 938 1454 L 598 1196 L 440 1196 Z" unicode="ŕ" />
<glyph horiz-adv-x="1398" d="M 41 0 L 295 1434 L 891 1434 C 1034 1434 1147 1397 1230 1323 C 1312 1249 1354 1155 1354 1042 C 1354 931 1323 835 1261 755 C 1199 674 1111 617 995 584 L 1167 0 L 922 0 L 778 553 L 756 553 L 389 553 L 291 0 L 41 0 Z M 408 -444 C 481 -372 518 -318 518 -281 C 518 -251 500 -236 465 -236 C 448 -236 432 -238 416 -242 L 440 -113 C 470 -103 506 -98 547 -98 C 601 -98 641 -110 669 -134 C 697 -158 711 -190 711 -231 C 711 -303 666 -374 578 -444 L 408 -444 Z M 424 745 L 782 745 C 880 745 957 773 1014 831 C 1071 889 1100 956 1100 1032 C 1100 1163 1022 1229 868 1229 L 508 1229 L 424 745 Z" unicode="Ŗ" />
<glyph horiz-adv-x="856" d="M -29 -444 C 43 -373 80 -319 80 -281 C 80 -251 63 -236 29 -236 C 12 -236 -4 -238 -20 -242 L 2 -113 C 35 -103 71 -98 109 -98 C 163 -98 204 -110 232 -134 C 260 -158 274 -190 274 -231 C 274 -303 229 -374 139 -444 L -29 -444 Z M 27 0 L 215 1083 L 410 1083 L 403 891 C 500 1038 619 1112 760 1112 C 812 1112 860 1101 903 1081 L 825 874 C 788 890 746 899 700 899 C 643 899 588 875 535 827 C 481 779 428 713 375 627 L 262 0 L 27 0 Z" unicode="ŗ" />
<glyph horiz-adv-x="1398" d="M 41 0 L 295 1434 L 891 1434 C 1034 1434 1147 1397 1230 1323 C 1312 1249 1354 1155 1354 1042 C 1354 931 1323 835 1261 755 C 1199 674 1111 617 995 584 L 1167 0 L 922 0 L 778 553 L 756 553 L 389 553 L 291 0 L 41 0 Z M 424 745 L 782 745 C 880 745 957 773 1014 831 C 1071 889 1100 956 1100 1032 C 1100 1163 1022 1229 868 1229 L 508 1229 L 424 745 Z M 514 1800 L 666 1800 L 838 1673 L 842 1673 L 1057 1800 L 1233 1800 L 940 1546 L 711 1546 L 514 1800 Z" unicode="Ř" />
<glyph horiz-adv-x="856" d="M 27 0 L 215 1083 L 410 1083 L 403 891 C 500 1038 619 1112 760 1112 C 812 1112 860 1101 903 1081 L 825 874 C 788 890 746 899 700 899 C 643 899 588 875 535 827 C 481 779 428 713 375 627 L 262 0 L 27 0 Z M 272 1524 L 416 1524 L 590 1327 L 594 1327 L 836 1524 L 1008 1524 L 700 1196 L 467 1196 L 272 1524 Z" unicode="ř" />
<glyph horiz-adv-x="1261" d="M 25 152 L 162 334 C 296 241 429 195 561 195 C 657 195 733 215 788 257 C 842 298 870 350 870 412 C 870 437 865 459 856 478 C 847 497 836 513 824 525 C 811 537 791 550 764 562 C 736 574 712 583 690 590 C 668 597 636 607 594 619 C 591 619 589 620 587 621 C 585 621 582 622 580 623 C 577 623 575 624 573 625 C 529 637 492 649 460 661 C 428 673 393 689 356 711 C 318 732 288 755 265 781 C 241 806 222 838 206 877 C 190 915 182 958 182 1006 C 182 1136 233 1243 335 1329 C 437 1415 576 1458 750 1458 C 919 1458 1078 1414 1227 1327 L 1110 1141 C 986 1207 860 1241 733 1241 C 649 1241 580 1220 526 1179 C 471 1137 444 1086 444 1026 C 444 1002 448 981 458 963 C 468 945 478 930 488 919 C 498 907 518 895 548 883 C 578 871 601 862 618 857 C 634 851 665 842 711 829 C 719 826 726 824 731 823 C 763 813 790 805 812 798 C 834 790 860 780 890 767 C 920 754 946 741 966 728 C 986 715 1008 699 1030 679 C 1052 659 1070 637 1084 614 C 1097 591 1108 564 1117 533 C 1125 502 1130 468 1130 432 C 1130 367 1117 307 1093 253 C 1068 198 1032 150 984 108 C 936 66 873 34 797 10 C 721 -13 634 -25 537 -25 C 439 -25 346 -8 258 25 C 170 58 92 100 25 152 Z M 655 1546 L 930 1843 L 1106 1718 L 821 1546 L 655 1546 Z" unicode="Ś" />
<glyph horiz-adv-x="1001" d="M -12 113 L 102 270 C 198 198 302 162 414 162 C 478 162 531 174 575 200 C 619 226 641 261 641 307 C 641 328 635 347 624 364 C 613 380 596 394 574 406 C 552 418 529 427 507 435 C 485 442 456 450 422 459 C 216 509 113 612 113 766 C 113 839 134 902 177 954 C 219 1006 275 1045 344 1069 C 413 1093 491 1106 578 1106 C 706 1106 830 1070 948 999 L 831 840 C 740 893 648 920 555 920 C 501 920 453 906 411 879 C 369 851 348 816 348 772 C 348 750 353 732 365 716 C 376 700 393 686 416 675 C 439 663 462 654 485 647 C 507 640 536 633 571 625 C 617 614 656 602 690 588 C 724 574 755 555 784 533 C 813 510 835 481 851 447 C 866 413 874 373 874 328 C 874 214 830 127 742 66 C 654 5 537 -25 391 -25 C 248 -25 114 21 -12 113 Z M 453 1196 L 786 1577 L 950 1454 L 610 1196 L 453 1196 Z" unicode="ś" />
<glyph horiz-adv-x="1261" d="M 25 152 L 162 334 C 296 241 429 195 561 195 C 657 195 733 215 788 257 C 842 298 870 350 870 412 C 870 437 865 459 856 478 C 847 497 836 513 824 525 C 811 537 791 550 764 562 C 736 574 712 583 690 590 C 668 597 636 607 594 619 C 591 619 589 620 587 621 C 585 621 582 622 580 623 C 577 623 575 624 573 625 C 529 637 492 649 460 661 C 428 673 393 689 356 711 C 318 732 288 755 265 781 C 241 806 222 838 206 877 C 190 915 182 958 182 1006 C 182 1136 233 1243 335 1329 C 437 1415 576 1458 750 1458 C 919 1458 1078 1414 1227 1327 L 1110 1141 C 986 1207 860 1241 733 1241 C 649 1241 580 1220 526 1179 C 471 1137 444 1086 444 1026 C 444 1002 448 981 458 963 C 468 945 478 930 488 919 C 498 907 518 895 548 883 C 578 871 601 862 618 857 C 634 851 665 842 711 829 C 719 826 726 824 731 823 C 763 813 790 805 812 798 C 834 790 860 780 890 767 C 920 754 946 741 966 728 C 986 715 1008 699 1030 679 C 1052 659 1070 637 1084 614 C 1097 591 1108 564 1117 533 C 1125 502 1130 468 1130 432 C 1130 367 1117 307 1093 253 C 1068 198 1032 150 984 108 C 936 66 873 34 797 10 C 721 -13 634 -25 537 -25 C 439 -25 346 -8 258 25 C 170 58 92 100 25 152 Z M 416 1546 L 707 1800 L 936 1800 L 1133 1546 L 983 1546 L 807 1673 L 803 1673 L 588 1546 L 416 1546 Z" unicode="Ŝ" />
<glyph horiz-adv-x="1001" d="M -12 113 L 102 270 C 198 198 302 162 414 162 C 478 162 531 174 575 200 C 619 226 641 261 641 307 C 641 328 635 347 624 364 C 613 380 596 394 574 406 C 552 418 529 427 507 435 C 485 442 456 450 422 459 C 216 509 113 612 113 766 C 113 839 134 902 177 954 C 219 1006 275 1045 344 1069 C 413 1093 491 1106 578 1106 C 706 1106 830 1070 948 999 L 831 840 C 740 893 648 920 555 920 C 501 920 453 906 411 879 C 369 851 348 816 348 772 C 348 750 353 732 365 716 C 376 700 393 686 416 675 C 439 663 462 654 485 647 C 507 640 536 633 571 625 C 617 614 656 602 690 588 C 724 574 755 555 784 533 C 813 510 835 481 851 447 C 866 413 874 373 874 328 C 874 214 830 127 742 66 C 654 5 537 -25 391 -25 C 248 -25 114 21 -12 113 Z M 221 1196 L 532 1524 L 766 1524 L 958 1196 L 809 1196 L 641 1386 L 637 1386 L 401 1196 L 221 1196 Z" unicode="ŝ" />
<glyph horiz-adv-x="1261" d="M 25 152 L 162 334 C 296 241 429 195 561 195 C 657 195 733 215 788 257 C 842 298 870 350 870 412 C 870 437 865 459 856 478 C 847 497 836 513 824 525 C 811 537 791 550 764 562 C 736 574 712 583 690 590 C 668 597 636 607 594 619 C 591 619 589 620 587 621 C 585 621 582 622 580 623 C 577 623 575 624 573 625 C 529 637 492 649 460 661 C 428 673 393 689 356 711 C 318 732 288 755 265 781 C 241 806 222 838 206 877 C 190 915 182 958 182 1006 C 182 1136 233 1243 335 1329 C 437 1415 576 1458 750 1458 C 919 1458 1078 1414 1227 1327 L 1110 1141 C 986 1207 860 1241 733 1241 C 649 1241 580 1220 526 1179 C 471 1137 444 1086 444 1026 C 444 1002 448 981 458 963 C 468 945 478 930 488 919 C 498 907 518 895 548 883 C 578 871 601 862 618 857 C 634 851 665 842 711 829 C 719 826 726 824 731 823 C 763 813 790 805 812 798 C 834 790 860 780 890 767 C 920 754 946 741 966 728 C 986 715 1008 699 1030 679 C 1052 659 1070 637 1084 614 C 1097 591 1108 564 1117 533 C 1125 502 1130 468 1130 432 C 1130 307 1085 203 996 119 C 906 35 778 -11 610 -23 C 556 -190 453 -333 301 -451 L 125 -362 C 193 -316 255 -263 311 -203 C 367 -143 410 -81 440 -18 C 288 0 149 56 25 152 Z" unicode="Ş" />
<glyph horiz-adv-x="1001" d="M -12 113 L 102 270 C 198 198 302 162 414 162 C 478 162 531 174 575 200 C 619 226 641 261 641 307 C 641 328 635 347 624 364 C 613 380 596 394 574 406 C 552 418 529 427 507 435 C 485 442 456 450 422 459 C 216 509 113 612 113 766 C 113 839 134 902 177 954 C 219 1006 275 1045 344 1069 C 413 1093 491 1106 578 1106 C 706 1106 830 1070 948 999 L 831 840 C 740 893 648 920 555 920 C 501 920 453 906 411 879 C 369 851 348 816 348 772 C 348 750 353 732 365 716 C 376 700 393 686 416 675 C 439 663 462 654 485 647 C 507 640 536 633 571 625 C 617 614 656 602 690 588 C 724 574 755 555 784 533 C 813 510 835 481 851 447 C 866 413 874 373 874 328 C 874 227 838 147 768 87 C 698 27 603 -8 483 -20 C 429 -189 326 -333 174 -451 L -2 -362 C 65 -316 127 -263 183 -203 C 239 -143 281 -81 311 -18 C 195 -3 87 40 -12 113 Z" unicode="ş" />
<glyph horiz-adv-x="1271" d="M 25 152 L 162 334 C 296 241 429 195 561 195 C 657 195 733 215 788 257 C 842 298 870 350 870 412 C 870 437 865 459 856 478 C 847 497 836 513 824 525 C 811 537 791 550 764 562 C 736 574 712 583 690 590 C 668 597 636 607 594 619 C 591 619 589 620 587 621 C 585 621 582 622 580 623 C 577 623 575 624 573 625 C 529 637 492 649 460 661 C 428 673 393 689 356 711 C 318 732 288 755 265 781 C 241 806 222 838 206 877 C 190 915 182 958 182 1006 C 182 1136 233 1243 335 1329 C 437 1415 576 1458 750 1458 C 919 1458 1078 1414 1227 1327 L 1110 1141 C 986 1207 860 1241 733 1241 C 649 1241 580 1220 526 1179 C 471 1137 444 1086 444 1026 C 444 1002 448 981 458 963 C 468 945 478 930 488 919 C 498 907 518 895 548 883 C 578 871 601 862 618 857 C 634 851 665 842 711 829 C 719 826 726 824 731 823 C 763 813 790 805 812 798 C 834 790 860 780 890 767 C 920 754 946 741 966 728 C 986 715 1008 699 1030 679 C 1052 659 1070 637 1084 614 C 1097 591 1108 564 1117 533 C 1125 502 1130 468 1130 432 C 1130 367 1117 307 1093 253 C 1068 198 1032 150 984 108 C 936 66 873 34 797 10 C 721 -13 634 -25 537 -25 C 439 -25 346 -8 258 25 C 170 58 92 100 25 152 Z M 461 1800 L 612 1800 L 784 1673 L 788 1673 L 1004 1800 L 1180 1800 L 887 1546 L 657 1546 L 461 1800 Z" unicode="Š" />
<glyph horiz-adv-x="1001" d="M -12 113 L 102 270 C 198 198 302 162 414 162 C 478 162 531 174 575 200 C 619 226 641 261 641 307 C 641 328 635 347 624 364 C 613 380 596 394 574 406 C 552 418 529 427 507 435 C 485 442 456 450 422 459 C 216 509 113 612 113 766 C 113 839 134 902 177 954 C 219 1006 275 1045 344 1069 C 413 1093 491 1106 578 1106 C 706 1106 830 1070 948 999 L 831 840 C 740 893 648 920 555 920 C 501 920 453 906 411 879 C 369 851 348 816 348 772 C 348 750 353 732 365 716 C 376 700 393 686 416 675 C 439 663 462 654 485 647 C 507 640 536 633 571 625 C 617 614 656 602 690 588 C 724 574 755 555 784 533 C 813 510 835 481 851 447 C 866 413 874 373 874 328 C 874 214 830 127 742 66 C 654 5 537 -25 391 -25 C 248 -25 114 21 -12 113 Z M 279 1524 L 422 1524 L 596 1327 L 600 1327 L 842 1524 L 1014 1524 L 707 1196 L 473 1196 L 279 1524 Z" unicode="š" />
<glyph horiz-adv-x="1329" d="M 160 1214 L 197 1434 L 1413 1434 L 1374 1214 L 893 1214 L 680 0 L 430 0 L 645 1214 L 160 1214 Z M 172 -362 C 301 -272 394 -180 451 -86 L 633 -86 C 575 -226 481 -348 350 -451 L 172 -362 Z" unicode="Ţ" />
<glyph horiz-adv-x="839" d="M -20 -362 C 108 -272 200 -180 258 -86 L 440 -86 C 382 -227 288 -349 158 -451 L -20 -362 Z M 88 905 L 119 1083 L 297 1083 L 348 1374 L 584 1374 L 532 1083 L 829 1083 L 801 905 L 502 905 L 406 362 C 398 316 395 282 395 258 C 395 198 424 168 483 168 C 531 168 586 188 649 229 L 727 63 C 687 37 640 15 586 0 C 532 -16 480 -25 428 -25 C 346 -25 280 -2 230 43 C 180 88 156 147 156 219 C 156 265 162 323 176 393 L 268 905 L 88 905 Z" unicode="ţ" />
<glyph horiz-adv-x="1329" d="M 160 1214 L 197 1434 L 1413 1434 L 1374 1214 L 893 1214 L 680 0 L 430 0 L 645 1214 L 160 1214 Z M 498 1800 L 649 1800 L 821 1673 L 825 1673 L 1040 1800 L 1217 1800 L 924 1546 L 694 1546 L 498 1800 Z" unicode="Ť" />
<glyph horiz-adv-x="839" d="M 88 905 L 119 1083 L 297 1083 L 348 1374 L 584 1374 L 532 1083 L 829 1083 L 801 905 L 502 905 L 406 362 C 398 316 395 282 395 258 C 395 198 424 168 483 168 C 531 168 586 188 649 229 L 727 63 C 687 37 640 15 586 0 C 532 -16 480 -25 428 -25 C 346 -25 280 -2 230 43 C 180 88 156 147 156 219 C 156 265 162 323 176 393 L 268 905 L 88 905 Z M 686 1171 C 760 1241 797 1296 797 1335 C 797 1365 779 1380 743 1380 C 725 1380 710 1378 696 1374 C 699 1400 707 1443 719 1503 C 750 1513 785 1518 825 1518 C 879 1518 920 1505 948 1481 C 976 1457 991 1425 991 1386 C 991 1313 945 1241 854 1171 L 686 1171 Z" unicode="ť" />
<glyph horiz-adv-x="1329" d="M 160 1214 L 197 1434 L 1413 1434 L 1374 1214 L 893 1214 L 819 799 L 1102 799 L 1073 641 L 793 641 L 680 0 L 430 0 L 543 641 L 264 641 L 291 799 L 571 799 L 645 1214 L 160 1214 Z" unicode="Ŧ" />
<glyph horiz-adv-x="839" d="M 35 520 L 63 674 L 225 674 L 268 905 L 88 905 L 119 1083 L 297 1083 L 348 1374 L 584 1374 L 532 1083 L 829 1083 L 801 905 L 502 905 L 459 670 L 723 670 L 696 520 L 432 520 L 406 362 C 398 316 395 282 395 258 C 395 198 424 168 483 168 C 531 168 586 188 649 229 L 727 63 C 687 37 640 15 586 0 C 532 -16 480 -25 428 -25 C 346 -25 280 -2 230 43 C 180 88 156 147 156 219 C 156 265 162 323 176 393 L 199 520 L 35 520 Z" unicode="ŧ" />
<glyph horiz-adv-x="1456" d="M 123 422 C 123 472 127 525 137 580 L 291 1434 L 541 1434 L 383 563 C 375 522 371 478 371 432 C 371 352 396 291 446 249 C 496 207 565 186 651 186 C 747 186 831 217 903 279 C 975 341 1021 432 1042 553 L 1196 1434 L 1444 1434 L 1288 539 C 1257 357 1181 218 1060 121 C 939 23 789 -25 610 -25 C 464 -25 346 14 257 93 C 167 171 123 281 123 422 Z M 553 1548 C 555 1632 577 1697 617 1744 C 657 1791 710 1815 778 1815 C 807 1815 835 1809 861 1797 C 887 1785 907 1772 923 1758 C 939 1744 956 1731 975 1719 C 994 1707 1012 1702 1028 1702 C 1076 1702 1103 1734 1108 1798 L 1253 1798 C 1249 1714 1227 1648 1187 1602 C 1147 1555 1092 1532 1024 1532 C 995 1532 968 1537 942 1549 C 916 1560 895 1573 879 1587 C 863 1601 846 1613 828 1625 C 809 1636 792 1642 776 1642 C 752 1642 734 1633 720 1617 C 706 1600 699 1577 698 1548 L 553 1548 Z" unicode="Ũ" />
<glyph horiz-adv-x="1189" d="M 76 254 C 76 304 80 358 90 418 L 209 1083 L 444 1083 L 322 387 C 314 339 311 302 311 276 C 311 198 350 160 428 160 C 533 160 649 245 776 416 L 891 1083 L 1128 1083 L 938 0 L 748 0 L 752 184 C 636 44 505 -25 360 -25 C 270 -25 200 0 150 51 C 100 102 76 170 76 254 Z M 371 1233 C 375 1317 396 1382 436 1430 C 475 1477 528 1501 596 1501 C 625 1501 653 1495 679 1483 C 705 1471 725 1459 741 1445 C 756 1431 773 1418 792 1406 C 811 1394 829 1389 846 1389 C 894 1389 920 1421 924 1487 L 1069 1487 C 1065 1403 1042 1337 1002 1290 C 962 1242 908 1219 840 1219 C 812 1219 785 1224 760 1236 C 734 1247 714 1260 699 1274 C 683 1288 666 1300 648 1312 C 629 1323 612 1329 596 1329 C 546 1329 520 1297 516 1233 L 371 1233 Z" unicode="ũ" />
<glyph horiz-adv-x="1456" d="M 123 422 C 123 472 127 525 137 580 L 291 1434 L 541 1434 L 383 563 C 375 522 371 478 371 432 C 371 352 396 291 446 249 C 496 207 565 186 651 186 C 747 186 831 217 903 279 C 975 341 1021 432 1042 553 L 1196 1434 L 1444 1434 L 1288 539 C 1257 357 1181 218 1060 121 C 939 23 789 -25 610 -25 C 464 -25 346 14 257 93 C 167 171 123 281 123 422 Z M 569 1593 L 598 1753 L 1231 1753 L 1204 1593 L 569 1593 Z" unicode="Ū" />
<glyph horiz-adv-x="1189" d="M 76 254 C 76 304 80 358 90 418 L 209 1083 L 444 1083 L 322 387 C 314 339 311 302 311 276 C 311 198 350 160 428 160 C 533 160 649 245 776 416 L 891 1083 L 1128 1083 L 938 0 L 748 0 L 752 184 C 636 44 505 -25 360 -25 C 270 -25 200 0 150 51 C 100 102 76 170 76 254 Z M 385 1280 L 414 1438 L 1042 1438 L 1014 1280 L 385 1280 Z" unicode="ū" />
<glyph horiz-adv-x="1456" d="M 123 422 C 123 472 127 525 137 580 L 291 1434 L 541 1434 L 383 563 C 375 522 371 478 371 432 C 371 352 396 291 446 249 C 496 207 565 186 651 186 C 747 186 831 217 903 279 C 975 341 1021 432 1042 553 L 1196 1434 L 1444 1434 L 1288 539 C 1257 357 1181 218 1060 121 C 939 23 789 -25 610 -25 C 464 -25 346 14 257 93 C 167 171 123 281 123 422 Z M 575 1800 L 733 1800 C 749 1728 804 1692 897 1692 C 991 1692 1060 1728 1106 1800 L 1276 1800 C 1209 1624 1077 1536 881 1536 C 790 1536 718 1559 664 1606 C 610 1653 580 1718 575 1800 Z" unicode="Ŭ" />
<glyph horiz-adv-x="1189" d="M 76 254 C 76 304 80 358 90 418 L 209 1083 L 444 1083 L 322 387 C 314 339 311 302 311 276 C 311 198 350 160 428 160 C 533 160 649 245 776 416 L 891 1083 L 1128 1083 L 938 0 L 748 0 L 752 184 C 636 44 505 -25 360 -25 C 270 -25 200 0 150 51 C 100 102 76 170 76 254 Z M 397 1524 L 549 1524 C 543 1400 594 1339 702 1339 C 755 1339 801 1355 840 1387 C 879 1419 907 1464 924 1524 L 1085 1524 C 1059 1413 1012 1328 944 1269 C 876 1209 790 1180 686 1180 C 587 1180 512 1211 461 1273 C 410 1335 389 1418 397 1524 Z" unicode="ŭ" />
<glyph horiz-adv-x="1456" d="M 123 422 C 123 472 127 525 137 580 L 291 1434 L 541 1434 L 383 563 C 375 522 371 478 371 432 C 371 352 396 291 446 249 C 496 207 565 186 651 186 C 747 186 831 217 903 279 C 975 341 1021 432 1042 553 L 1196 1434 L 1444 1434 L 1288 539 C 1257 357 1181 218 1060 121 C 939 23 789 -25 610 -25 C 464 -25 346 14 257 93 C 167 171 123 281 123 422 Z M 678 1739 C 678 1808 702 1866 751 1914 C 799 1961 862 1985 940 1985 C 1001 1985 1051 1966 1090 1928 C 1129 1890 1149 1841 1149 1782 C 1149 1712 1124 1654 1076 1607 C 1027 1559 964 1536 887 1536 C 825 1536 775 1555 736 1593 C 697 1631 678 1679 678 1739 Z M 788 1745 C 788 1711 797 1684 816 1664 C 834 1644 861 1634 897 1634 C 936 1634 970 1648 998 1676 C 1026 1704 1040 1738 1040 1778 C 1040 1812 1030 1838 1012 1857 C 994 1876 967 1886 932 1886 C 892 1886 858 1872 830 1845 C 802 1817 788 1784 788 1745 Z" unicode="Ů" />
<glyph horiz-adv-x="1189" d="M 76 254 C 76 304 80 358 90 418 L 209 1083 L 444 1083 L 322 387 C 314 339 311 302 311 276 C 311 198 350 160 428 160 C 533 160 649 245 776 416 L 891 1083 L 1128 1083 L 938 0 L 748 0 L 752 184 C 636 44 505 -25 360 -25 C 270 -25 200 0 150 51 C 100 102 76 170 76 254 Z M 475 1382 C 475 1452 499 1512 548 1560 C 597 1608 660 1632 737 1632 C 795 1632 845 1613 885 1576 C 925 1538 946 1491 946 1434 C 946 1363 921 1304 873 1256 C 824 1208 761 1184 684 1184 C 626 1184 576 1202 536 1240 C 495 1277 475 1324 475 1382 Z M 588 1391 C 588 1358 597 1332 615 1313 C 633 1293 660 1284 694 1284 C 730 1284 763 1297 793 1325 C 823 1353 838 1386 838 1425 C 838 1459 828 1485 810 1504 C 791 1522 763 1532 727 1532 C 691 1532 658 1518 630 1490 C 602 1462 588 1429 588 1391 Z" unicode="ů" />
<glyph horiz-adv-x="1456" d="M 123 422 C 123 472 127 525 137 580 L 291 1434 L 541 1434 L 383 563 C 375 522 371 478 371 432 C 371 352 396 291 446 249 C 496 207 565 186 651 186 C 747 186 831 217 903 279 C 975 341 1021 432 1042 553 L 1196 1434 L 1444 1434 L 1288 539 C 1257 357 1181 218 1060 121 C 939 23 789 -25 610 -25 C 464 -25 346 14 257 93 C 167 171 123 281 123 422 Z M 592 1546 L 868 1843 L 1044 1718 L 762 1546 L 592 1546 Z M 965 1546 L 1241 1843 L 1417 1718 L 1135 1546 L 965 1546 Z" unicode="Ű" />
<glyph horiz-adv-x="1189" d="M 76 254 C 76 304 80 358 90 418 L 209 1083 L 444 1083 L 322 387 C 314 339 311 302 311 276 C 311 198 350 160 428 160 C 533 160 649 245 776 416 L 891 1083 L 1128 1083 L 938 0 L 748 0 L 752 184 C 636 44 505 -25 360 -25 C 270 -25 200 0 150 51 C 100 102 76 170 76 254 Z M 418 1196 L 735 1577 L 893 1462 L 569 1196 L 418 1196 Z M 766 1196 L 1087 1577 L 1243 1462 L 920 1196 L 766 1196 Z" unicode="ű" />
<glyph horiz-adv-x="1456" d="M 123 422 C 123 472 127 525 137 580 L 291 1434 L 541 1434 L 383 563 C 375 522 371 478 371 432 C 371 352 396 291 446 249 C 496 207 565 186 651 186 C 747 186 831 217 903 279 C 975 341 1021 432 1042 553 L 1196 1434 L 1444 1434 L 1288 539 C 1268 423 1228 323 1170 240 C 1112 157 1038 93 950 49 C 870 8 810 -29 770 -65 C 730 -100 711 -138 711 -180 C 711 -224 741 -246 801 -246 C 839 -246 876 -237 911 -219 L 915 -223 L 885 -397 C 834 -415 783 -424 731 -424 C 666 -424 615 -407 578 -373 C 540 -339 522 -295 522 -242 C 522 -160 559 -87 635 -25 L 610 -25 C 464 -25 346 14 257 93 C 167 171 123 281 123 422 Z" unicode="Ų" />
<glyph horiz-adv-x="1189" d="M 76 254 C 76 304 80 358 90 418 L 209 1083 L 444 1083 L 322 387 C 314 339 311 302 311 276 C 311 198 350 160 428 160 C 533 160 649 245 776 416 L 891 1083 L 1128 1083 L 938 0 C 804 -48 737 -108 737 -180 C 737 -224 764 -246 819 -246 C 858 -246 895 -237 930 -219 L 934 -223 L 903 -397 C 852 -415 800 -424 748 -424 C 687 -424 638 -407 601 -373 C 563 -339 545 -296 545 -244 C 545 -138 612 -51 748 16 L 752 184 C 636 44 505 -25 360 -25 C 270 -25 200 0 150 51 C 100 102 76 170 76 254 Z" unicode="ų" />
<glyph horiz-adv-x="2107" d="M 195 1434 L 442 1434 L 573 350 L 578 350 L 1063 1434 L 1294 1434 L 1411 350 L 1415 350 L 1931 1434 L 2198 1434 L 1501 0 L 1233 0 L 1122 1047 L 1118 1047 L 647 0 L 381 0 L 195 1434 Z M 831 1546 L 1122 1800 L 1352 1800 L 1548 1546 L 1399 1546 L 1223 1673 L 1219 1673 L 1004 1546 L 831 1546 Z" unicode="Ŵ" />
<glyph horiz-adv-x="1681" d="M 115 1083 L 338 1083 L 449 303 L 453 303 L 805 1083 L 1006 1083 L 1092 303 L 1096 303 L 1477 1083 L 1722 1083 L 1174 0 L 946 0 L 856 748 L 852 748 L 504 0 L 283 0 L 115 1083 Z M 551 1196 L 862 1524 L 1096 1524 L 1288 1196 L 1139 1196 L 971 1386 L 967 1386 L 731 1196 L 551 1196 Z" unicode="ŵ" />
<glyph horiz-adv-x="1390" d="M 184 1434 L 453 1434 L 717 821 L 721 821 L 1194 1434 L 1491 1434 L 809 575 L 709 0 L 459 0 L 561 580 L 184 1434 Z M 479 1546 L 770 1800 L 999 1800 L 1196 1546 L 1047 1546 L 870 1673 L 866 1673 L 651 1546 L 479 1546 Z" unicode="Ŷ" />
<glyph horiz-adv-x="1071" d="M -147 -367 L -61 -197 C -12 -223 33 -236 76 -236 C 146 -236 204 -193 250 -109 L 313 6 L 113 1083 L 340 1083 L 469 303 L 473 303 L 862 1083 L 1112 1083 L 473 -133 C 413 -247 353 -325 293 -367 C 233 -409 160 -430 74 -430 C -2 -430 -76 -409 -147 -367 Z M 256 1196 L 567 1524 L 801 1524 L 993 1196 L 844 1196 L 676 1386 L 672 1386 L 436 1196 L 256 1196 Z" unicode="ŷ" />
<glyph horiz-adv-x="1390" d="M 184 1434 L 453 1434 L 717 821 L 721 821 L 1194 1434 L 1491 1434 L 809 575 L 709 0 L 459 0 L 561 580 L 184 1434 Z M 524 1569 L 561 1778 L 772 1778 L 733 1569 L 524 1569 Z M 956 1569 L 995 1778 L 1202 1778 L 1163 1569 L 956 1569 Z" unicode="Ÿ" />
<glyph horiz-adv-x="1308" d="M -8 0 L 25 193 L 956 1212 L 207 1212 L 246 1434 L 1335 1434 L 1300 1243 L 373 223 L 1145 223 L 1106 0 L -8 0 Z M 686 1546 L 961 1843 L 1137 1718 L 852 1546 L 686 1546 Z" unicode="Ź" />
<glyph horiz-adv-x="1036" d="M -18 0 L 12 160 L 682 895 L 154 895 L 186 1083 L 1014 1083 L 987 920 L 315 186 L 877 186 L 846 0 L -18 0 Z M 477 1196 L 811 1577 L 975 1454 L 635 1196 L 477 1196 Z" unicode="ź" />
<glyph horiz-adv-x="1308" d="M -8 0 L 25 193 L 956 1212 L 207 1212 L 246 1434 L 1335 1434 L 1300 1243 L 373 223 L 1145 223 L 1106 0 L -8 0 Z M 688 1569 L 727 1778 L 934 1778 L 897 1569 L 688 1569 Z" unicode="Ż" />
<glyph horiz-adv-x="1036" d="M -18 0 L 12 160 L 682 895 L 154 895 L 186 1083 L 1014 1083 L 987 920 L 315 186 L 877 186 L 846 0 L -18 0 Z M 510 1255 L 547 1464 L 754 1464 L 717 1255 L 510 1255 Z" unicode="ż" />
<glyph horiz-adv-x="1308" d="M -8 0 L 25 193 L 956 1212 L 207 1212 L 246 1434 L 1335 1434 L 1300 1243 L 373 223 L 1145 223 L 1106 0 L -8 0 Z M 489 1800 L 641 1800 L 813 1673 L 817 1673 L 1032 1800 L 1208 1800 L 915 1546 L 686 1546 L 489 1800 Z" unicode="Ž" />
<glyph horiz-adv-x="1036" d="M -18 0 L 12 160 L 682 895 L 154 895 L 186 1083 L 1014 1083 L 987 920 L 315 186 L 877 186 L 846 0 L -18 0 Z M 297 1524 L 440 1524 L 614 1327 L 618 1327 L 860 1524 L 1032 1524 L 725 1196 L 492 1196 L 297 1524 Z" unicode="ž" />
<glyph horiz-adv-x="1234" d="M 61 453 C 61 576 88 688 142 788 C 196 888 270 966 364 1023 C 458 1079 564 1108 680 1108 C 819 1108 932 1065 1018 979 C 1104 893 1147 776 1147 629 C 1147 506 1120 395 1066 295 C 1012 195 937 116 843 60 C 748 3 642 -25 526 -25 C 388 -25 276 18 190 104 C 104 190 61 306 61 453 Z M 301 455 C 301 359 322 287 366 237 C 409 187 470 162 549 162 C 646 162 730 208 801 301 C 871 394 907 503 907 627 C 907 723 885 797 843 847 C 800 897 740 922 662 922 C 598 922 538 900 482 857 C 426 813 381 756 349 684 C 317 612 301 535 301 455 Z M 334 -418 L 389 -102 L 586 -102 L 530 -418 L 334 -418 Z" unicode="" />
<glyph horiz-adv-x="1253" d="M 129 1139 L 387 1139 L 602 651 L 606 651 L 987 1139 L 1280 1139 L 698 432 L 623 0 L 385 0 L 461 432 L 129 1139 Z M 561 1249 L 895 1630 L 1059 1507 L 719 1249 L 561 1249 Z" unicode="" />
<glyph horiz-adv-x="2570" d="M 82 895 L 115 1069 L 291 1069 L 303 1137 C 354 1413 521 1552 803 1552 C 919 1552 1035 1520 1149 1458 C 1237 1526 1353 1561 1497 1561 C 1621 1561 1721 1529 1796 1466 C 1871 1402 1909 1318 1909 1214 C 1909 1167 1903 1108 1892 1036 L 1817 602 L 2312 1083 L 2589 1083 L 2179 694 L 2410 0 L 2169 0 L 2003 528 L 1763 299 L 1710 0 L 1473 0 L 1661 1071 C 1670 1131 1675 1175 1675 1202 C 1675 1318 1608 1376 1475 1376 C 1401 1376 1340 1354 1292 1310 C 1244 1266 1213 1199 1198 1110 L 1192 1069 L 1475 1069 L 1444 895 L 1161 895 L 1006 0 L 768 0 L 924 895 L 500 895 L 342 0 L 104 0 L 262 895 L 82 895 Z M 528 1069 L 954 1069 L 965 1130 C 977 1204 998 1267 1028 1319 C 955 1354 880 1372 803 1372 C 729 1372 670 1351 628 1310 C 585 1269 554 1201 535 1106 L 528 1069 Z" unicode="" />
<glyph horiz-adv-x="831" d="M 96 918 C 96 955 108 988 132 1018 C 156 1048 191 1072 236 1090 C 211 1114 199 1142 199 1174 C 199 1233 235 1277 307 1305 C 257 1352 233 1409 233 1477 C 233 1565 265 1635 331 1689 C 396 1742 477 1769 575 1769 C 653 1769 718 1747 770 1704 C 799 1724 830 1738 863 1748 C 896 1757 939 1762 991 1763 L 971 1640 C 916 1640 870 1634 834 1624 C 848 1593 856 1560 856 1524 C 856 1462 839 1408 806 1362 C 772 1316 730 1283 680 1262 C 629 1241 574 1231 514 1231 C 472 1231 434 1237 399 1249 C 358 1240 338 1224 338 1200 C 338 1188 342 1179 352 1173 C 361 1166 381 1160 411 1155 C 441 1149 485 1145 541 1143 C 639 1139 710 1122 756 1093 C 802 1064 825 1020 825 961 C 825 811 692 737 426 737 C 320 737 239 752 182 783 C 124 814 96 859 96 918 Z M 254 936 C 254 906 267 886 295 874 C 322 862 370 856 438 856 C 512 856 568 863 607 879 C 646 894 666 916 666 944 C 666 965 653 980 629 988 C 604 996 553 1002 477 1008 C 421 1010 374 1018 336 1032 C 310 1022 290 1008 276 991 C 261 973 254 955 254 936 Z M 393 1473 C 393 1395 436 1356 522 1356 C 570 1356 611 1372 645 1406 C 679 1439 696 1480 696 1530 C 696 1606 652 1645 565 1645 C 519 1645 478 1628 444 1595 C 410 1561 393 1521 393 1473 Z" unicode="" />
<glyph horiz-adv-x="655" d="M 111 1001 L 135 1137 L 698 1137 L 676 1001 L 111 1001 Z" unicode="" />
<glyph horiz-adv-x="1908" d="M 82 895 L 115 1069 L 291 1069 L 303 1130 C 327 1268 385 1375 475 1449 C 565 1523 685 1561 834 1561 C 958 1561 1058 1529 1133 1466 C 1207 1402 1245 1318 1245 1214 C 1245 1163 1239 1104 1229 1036 L 1153 602 L 1649 1083 L 1925 1083 L 1516 694 L 1747 0 L 1505 0 L 1339 528 L 1100 299 L 1047 0 L 809 0 L 997 1071 C 1007 1135 1012 1179 1012 1202 C 1012 1318 945 1376 811 1376 C 738 1376 678 1354 631 1310 C 583 1266 552 1199 537 1110 L 528 1069 L 813 1069 L 780 895 L 500 895 L 342 0 L 104 0 L 262 895 L 82 895 Z" unicode="" />
<glyph horiz-adv-x="1271" d="M 82 895 L 115 1069 L 291 1069 L 303 1139 C 328 1275 386 1379 476 1451 C 566 1523 683 1559 825 1559 C 977 1559 1122 1514 1260 1425 L 1149 1276 C 1033 1342 924 1376 821 1376 C 660 1376 565 1287 537 1110 L 528 1069 L 813 1069 L 780 895 L 500 895 L 342 0 L 104 0 L 262 895 L 82 895 Z M 401 -365 L 500 -205 C 536 -225 570 -236 602 -236 C 648 -236 686 -218 714 -183 C 742 -148 764 -90 780 -8 L 969 1073 L 1206 1073 L 1012 -33 C 987 -169 942 -270 878 -334 C 813 -398 724 -430 610 -430 C 571 -430 533 -424 495 -412 C 457 -400 426 -384 401 -365 Z" unicode="" />
<glyph horiz-adv-x="376" d="M -309 -670 L -262 -543 C -232 -552 -208 -557 -188 -557 C -126 -557 -88 -514 -74 -428 L 57 313 L 217 313 L 84 -430 C 52 -608 -39 -698 -190 -698 C -241 -698 -281 -688 -309 -670 Z M 82 457 L 111 618 L 270 618 L 242 457 L 82 457 Z" unicode="" />
<glyph horiz-adv-x="1222" d="M -41 -410 L 219 1083 L 426 1083 L 420 930 C 522 1046 637 1104 764 1104 C 872 1104 961 1065 1030 987 C 1098 909 1133 799 1133 657 C 1133 559 1119 468 1091 384 C 1063 300 1025 228 977 169 C 929 110 871 64 804 30 C 736 -3 664 -20 588 -20 C 470 -20 370 25 289 115 L 193 -410 L -41 -410 Z M 315 272 C 349 233 384 205 422 188 C 460 170 503 162 553 162 C 622 162 683 185 735 232 C 787 278 826 339 852 413 C 878 487 891 569 891 657 C 891 746 873 812 839 855 C 805 898 758 920 698 920 C 595 920 493 847 391 702 L 315 272 Z M 424 1280 L 453 1438 L 1081 1438 L 1053 1280 L 424 1280 Z" unicode="" />
<glyph horiz-adv-x="868" d="M 121 711 L 686 1696 L 948 1696 L 354 678 L 592 -260 L 358 -260 L 121 711 Z" unicode="" />
<glyph horiz-adv-x="1454" d="M 88 324 C 88 618 340 766 846 766 L 1124 766 C 1124 772 1124 781 1125 793 C 1125 805 1126 815 1126 821 C 1126 963 1097 1068 1039 1137 C 981 1206 890 1241 768 1241 C 647 1241 521 1198 389 1114 L 281 1294 C 447 1403 617 1458 793 1458 C 879 1458 958 1443 1031 1414 C 1104 1385 1167 1344 1219 1291 C 1271 1237 1312 1171 1342 1092 C 1371 1012 1386 924 1386 827 C 1386 703 1364 587 1322 481 C 1280 375 1222 285 1149 211 C 1075 137 988 80 886 38 C 784 -4 676 -25 561 -25 C 418 -25 303 8 217 76 C 131 144 88 226 88 324 Z M 336 350 C 336 300 356 260 398 230 C 439 199 494 184 563 184 C 692 184 804 221 899 295 C 994 369 1060 471 1096 600 L 860 600 C 678 600 545 578 461 536 C 377 494 336 432 336 350 Z" unicode="Ə" />
<glyph horiz-adv-x="1843" d="M 154 606 L 823 1202 L 956 1049 L 549 696 L 971 709 L 1634 709 L 1634 504 L 971 504 L 549 514 L 961 164 L 823 10 L 154 606 Z" unicode="←" />
<glyph horiz-adv-x="1843" d="M 334 666 L 930 1337 L 1526 666 L 1372 535 L 1022 942 L 1032 518 L 1032 -143 L 827 -143 L 827 518 L 840 942 L 487 535 L 334 666 Z" unicode="↑" />
<glyph horiz-adv-x="892" d="M -285 -387 L -205 -227 C -150 -243 -108 -252 -80 -252 C -32 -252 5 -233 33 -197 C 61 -160 84 -98 102 -10 L 246 799 L 63 799 L 94 967 L 274 967 L 285 1032 C 336 1317 494 1460 760 1460 C 844 1460 920 1444 989 1413 L 899 1260 C 859 1276 814 1284 764 1284 C 696 1284 641 1264 599 1225 C 556 1185 526 1119 510 1026 L 500 967 L 782 967 L 754 799 L 471 799 L 324 -49 C 280 -301 146 -428 -78 -428 C -154 -428 -223 -414 -285 -387 Z" unicode="ƒ" />
<glyph horiz-adv-x="1843" d="M 317 526 L 471 657 L 823 250 L 811 674 L 811 1335 L 1016 1335 L 1016 674 L 1006 250 L 1356 657 L 1509 526 L 913 -145 L 317 526 Z" unicode="↓" />
<glyph horiz-adv-x="1734" d="M 117 578 C 117 678 136 774 175 866 C 214 958 267 1037 333 1103 C 399 1169 477 1222 569 1262 C 661 1301 757 1321 858 1321 C 992 1321 1117 1287 1231 1221 C 1345 1155 1435 1065 1502 951 C 1568 837 1602 712 1602 578 C 1602 477 1582 381 1543 289 C 1503 197 1450 118 1384 52 C 1317 -13 1238 -66 1146 -105 C 1054 -144 958 -164 858 -164 C 723 -164 599 -130 485 -64 C 371 1 282 91 216 205 C 150 319 117 443 117 578 Z M 242 578 C 242 466 269 363 324 268 C 379 173 454 98 549 42 C 644 -13 748 -41 860 -41 C 972 -41 1075 -13 1171 42 C 1266 97 1341 172 1397 268 C 1453 363 1481 466 1481 578 C 1481 690 1453 793 1397 889 C 1341 985 1266 1060 1171 1116 C 1075 1172 972 1200 860 1200 C 776 1200 695 1183 619 1150 C 543 1117 477 1073 422 1017 C 367 961 323 895 291 819 C 258 742 242 662 242 578 Z M 567 195 L 567 965 L 942 965 C 1041 965 1115 940 1163 892 C 1211 843 1235 783 1235 713 C 1235 642 1211 583 1163 535 C 1115 487 1041 463 942 463 L 745 463 L 745 195 L 567 195 Z M 743 602 L 924 602 C 969 602 1003 612 1025 633 C 1047 654 1059 681 1059 713 C 1059 745 1047 771 1025 793 C 1003 814 969 825 924 825 L 743 825 L 743 602 Z" unicode="" />
<glyph horiz-adv-x="2639" d="M 82 895 L 115 1069 L 291 1069 L 303 1137 C 354 1413 521 1552 803 1552 C 919 1552 1035 1520 1149 1458 C 1237 1526 1353 1561 1497 1561 C 1621 1561 1721 1529 1796 1466 C 1871 1402 1909 1318 1909 1214 C 1909 1167 1903 1108 1892 1036 L 1870 907 C 1980 1038 2101 1104 2232 1104 C 2323 1104 2395 1078 2448 1028 C 2500 977 2527 910 2527 827 C 2527 781 2521 725 2509 659 L 2390 0 L 2154 0 L 2277 690 C 2285 740 2290 779 2290 805 C 2290 884 2251 924 2173 924 C 2067 924 1952 838 1829 666 L 1710 0 L 1473 0 L 1661 1071 C 1670 1131 1675 1175 1675 1202 C 1675 1318 1608 1376 1475 1376 C 1401 1376 1340 1354 1292 1310 C 1244 1266 1213 1199 1198 1110 L 1192 1069 L 1475 1069 L 1444 895 L 1161 895 L 1006 0 L 768 0 L 924 895 L 500 895 L 342 0 L 104 0 L 262 895 L 82 895 Z M 528 1069 L 954 1069 L 965 1130 C 977 1204 998 1267 1028 1319 C 955 1354 880 1372 803 1372 C 729 1372 670 1351 628 1310 C 585 1269 554 1201 535 1106 L 528 1069 Z" unicode="" />
<glyph horiz-adv-x="1843" d="M 365 1149 L 1260 1096 L 1247 893 L 709 934 L 1016 643 L 1485 174 L 1339 29 L 872 500 L 582 805 L 621 266 L 420 254 L 365 1149 Z" unicode="↖" />
<glyph horiz-adv-x="1843" d="M 358 174 L 827 643 L 1135 934 L 596 893 L 584 1096 L 1479 1149 L 1423 254 L 1223 266 L 1262 805 L 971 500 L 504 29 L 358 174 Z" unicode="↗" />
<glyph horiz-adv-x="1343" d="M 41 0 L 295 1434 L 543 1434 L 412 686 C 455 701 497 726 537 760 C 577 794 611 828 639 864 C 666 900 694 941 723 989 C 759 1050 793 1102 823 1144 C 853 1186 888 1226 927 1265 C 966 1303 1007 1334 1049 1357 C 1091 1380 1139 1399 1195 1414 C 1250 1428 1312 1437 1380 1440 L 1348 1241 C 1303 1234 1263 1224 1228 1211 C 1192 1197 1161 1182 1135 1165 C 1108 1148 1081 1124 1055 1094 C 1028 1064 1004 1034 984 1004 C 963 974 937 934 907 885 L 883 846 L 1202 0 L 948 0 L 715 639 C 621 553 506 491 371 453 L 291 0 L 41 0 Z" unicode="Ƙ" />
<glyph horiz-adv-x="1130" d="M 35 0 L 244 1188 C 268 1322 315 1417 386 1474 C 457 1530 557 1559 686 1559 L 651 1366 C 603 1366 566 1351 538 1322 C 510 1293 489 1241 477 1167 L 379 602 L 872 1083 L 1151 1083 L 739 692 L 971 0 L 729 0 L 565 526 L 326 299 L 272 0 L 35 0 Z" unicode="ƙ" />
<glyph horiz-adv-x="1642" d="M 102 598 C 102 716 123 828 165 934 C 207 1040 264 1131 337 1208 C 410 1284 498 1345 602 1390 C 706 1435 817 1458 936 1458 C 1022 1458 1103 1444 1179 1417 C 1255 1389 1322 1350 1381 1299 C 1439 1247 1486 1182 1520 1102 C 1554 1022 1571 934 1571 836 C 1571 718 1550 606 1508 500 C 1466 394 1408 302 1335 225 C 1262 148 1174 87 1070 42 C 966 -2 855 -25 737 -25 C 651 -25 570 -11 494 16 C 418 44 350 83 292 135 C 233 186 187 251 153 331 C 119 411 102 500 102 598 Z M 356 623 C 356 485 392 378 464 302 C 536 226 632 188 754 188 C 878 188 991 230 1093 314 C 1194 398 1262 507 1296 643 L 356 643 L 356 623 Z M 377 795 L 1317 795 L 1317 811 C 1317 948 1281 1055 1209 1132 C 1137 1208 1042 1247 922 1247 C 797 1247 684 1205 582 1121 C 480 1037 411 929 377 795 Z" unicode="Ɵ" />
<glyph horiz-adv-x="655" d="M 166 1323 L 190 1454 L 754 1454 L 731 1323 L 166 1323 Z M 336 1094 L 360 1229 L 500 1229 L 477 1094 L 336 1094 Z M 420 1552 L 444 1686 L 584 1686 L 561 1552 L 420 1552 Z" unicode="" />
<glyph horiz-adv-x="1914" d="M 8 0 L 209 1137 L 389 1137 L 711 432 L 836 1137 L 1079 1137 L 879 0 L 692 0 L 377 707 L 252 0 L 8 0 Z M 1165 764 C 1165 872 1202 964 1278 1038 C 1353 1112 1447 1149 1559 1149 C 1642 1149 1712 1122 1769 1068 C 1826 1014 1855 944 1855 858 C 1855 750 1817 659 1742 585 C 1667 511 1574 475 1462 475 C 1378 475 1307 501 1250 555 C 1193 608 1165 678 1165 764 Z M 1354 782 C 1354 738 1365 704 1387 680 C 1409 655 1441 643 1481 643 C 1528 643 1571 662 1609 701 C 1647 740 1667 786 1667 840 C 1667 883 1655 917 1633 942 C 1611 966 1580 979 1540 979 C 1492 979 1449 959 1411 920 C 1373 881 1354 835 1354 782 Z" unicode="№" />
<glyph horiz-adv-x="655" d="M 111 1001 L 135 1137 L 346 1137 L 383 1352 L 524 1352 L 487 1137 L 698 1137 L 676 1001 L 463 1001 L 424 786 L 281 786 L 322 1001 L 111 1001 Z" unicode="" />
<glyph horiz-adv-x="604" d="M 168 1024 L 297 1751 L 434 1751 L 430 1640 C 496 1728 576 1772 668 1772 C 706 1772 740 1763 770 1747 L 713 1602 C 684 1612 654 1618 623 1618 C 584 1618 547 1604 513 1578 C 479 1552 443 1512 406 1458 L 328 1024 L 168 1024 Z" unicode="" />
<glyph horiz-adv-x="782" d="M -82 -410 L 102 625 L 264 625 L 154 2 L 479 317 L 674 317 L 393 55 L 557 -410 L 393 -410 L 276 -51 L 117 -203 L 80 -410 L -82 -410 Z" unicode="" />
<glyph horiz-adv-x="1189" d="M 76 254 C 76 304 80 358 90 418 L 209 1083 L 444 1083 L 322 387 C 314 339 311 302 311 276 C 311 198 350 160 428 160 C 533 160 649 245 776 416 L 891 1083 L 1128 1083 L 938 0 L 748 0 L 752 184 C 636 44 505 -25 360 -25 C 270 -25 200 0 150 51 C 100 102 76 170 76 254 Z M 88 -379 L 117 -221 L 745 -221 L 717 -379 L 88 -379 Z" unicode="" />
<glyph horiz-adv-x="710" d="M 145 1100 L 231 1214 C 295 1166 364 1143 438 1143 C 481 1143 518 1149 549 1163 C 580 1177 596 1199 596 1229 C 596 1253 583 1272 558 1287 C 532 1302 496 1317 449 1331 C 424 1337 403 1344 386 1350 C 368 1356 349 1365 328 1377 C 306 1388 289 1400 277 1414 C 264 1428 253 1445 244 1466 C 235 1487 231 1511 231 1538 C 231 1610 259 1666 316 1707 C 373 1748 447 1769 539 1769 C 581 1769 626 1762 675 1748 C 723 1734 765 1716 801 1694 L 723 1583 C 658 1617 595 1634 535 1634 C 499 1634 466 1626 438 1612 C 409 1598 395 1577 395 1550 C 395 1524 407 1504 433 1490 C 458 1476 495 1462 543 1450 C 569 1442 589 1436 605 1431 C 621 1425 640 1417 662 1406 C 684 1394 701 1382 713 1369 C 725 1356 735 1339 744 1318 C 753 1296 758 1272 758 1245 C 758 1169 729 1111 671 1070 C 613 1028 535 1008 438 1008 C 330 1008 233 1038 145 1100 Z" unicode="" />
<glyph horiz-adv-x="1247" d="M 246 -244 C 246 -209 253 -176 269 -145 C 284 -114 304 -87 328 -65 C 352 -43 380 -22 414 -2 C 447 17 479 33 511 46 C 543 58 576 70 612 80 L 639 0 C 505 -48 438 -108 438 -180 C 438 -224 465 -246 520 -246 C 559 -246 596 -237 631 -219 L 635 -223 L 604 -397 C 553 -415 501 -424 449 -424 C 388 -424 339 -407 302 -373 C 264 -339 246 -296 246 -244 Z" unicode="" />
<glyph horiz-adv-x="598" d="M 211 1624 L 231 1751 L 356 1751 L 389 1944 L 551 1944 L 518 1751 L 721 1751 L 698 1624 L 496 1624 L 426 1229 C 416 1175 435 1149 481 1149 C 514 1149 552 1160 596 1184 L 647 1063 C 621 1046 590 1033 553 1023 C 516 1013 480 1008 446 1008 C 379 1008 329 1028 296 1068 C 263 1108 254 1169 268 1251 L 334 1624 L 211 1624 Z" unicode="" />
<glyph horiz-adv-x="1265" d="M -88 -410 L 41 317 L 188 317 L 182 240 C 261 304 340 336 418 336 C 510 336 571 299 600 227 C 688 299 776 336 866 336 C 940 336 995 312 1030 265 C 1065 218 1075 155 1061 76 L 975 -410 L 813 -410 L 897 78 C 904 122 902 153 890 173 C 878 193 853 203 815 203 C 747 203 680 173 616 113 L 610 66 L 526 -410 L 362 -410 L 449 78 C 457 122 455 153 443 173 C 431 193 405 203 365 203 C 295 203 228 170 166 106 L 74 -410 L -88 -410 Z" unicode="" />
<glyph horiz-adv-x="1298" d="M -78 -295 L 35 -111 C 93 -145 158 -173 228 -194 C 298 -214 366 -225 430 -225 C 514 -225 592 -209 663 -178 C 734 -146 792 -98 837 -34 C 882 29 905 104 905 190 C 905 382 793 479 571 479 C 481 479 392 464 305 436 L 217 616 L 901 1212 L 186 1212 L 225 1434 L 1319 1434 L 1286 1257 L 532 625 C 587 642 651 651 725 651 C 854 651 960 608 1042 524 C 1124 439 1165 331 1165 201 C 1165 101 1145 11 1106 -69 C 1067 -149 1014 -216 947 -268 C 880 -320 802 -360 714 -388 C 626 -416 531 -430 430 -430 C 248 -430 78 -385 -78 -295 Z" unicode="Ʒ" />
<glyph horiz-adv-x="649" d="M 168 1225 L 367 1407 L 233 1577 L 332 1661 L 465 1491 L 664 1669 L 752 1565 L 549 1384 L 686 1212 L 586 1130 L 455 1300 L 254 1122 L 168 1225 Z" unicode="" />
<glyph horiz-adv-x="372" d="M -82 -410 L 100 625 L 262 625 L 80 -410 L -82 -410 Z" unicode="" />
<glyph horiz-adv-x="1423" d="M -66 0 L 705 1434 L 999 1434 L 1260 0 L 1008 0 L 956 309 L 367 309 L 209 0 L -66 0 Z M 469 508 L 926 508 L 817 1176 L 813 1176 L 469 508 Z M 565 1800 L 717 1800 L 889 1673 L 893 1673 L 1108 1800 L 1284 1800 L 991 1546 L 762 1546 L 565 1800 Z" unicode="Ǎ" />
<glyph horiz-adv-x="1228" d="M 61 420 C 61 548 85 665 133 771 C 181 876 248 958 333 1018 C 417 1078 511 1108 614 1108 C 676 1108 735 1094 789 1068 C 843 1042 886 1009 918 971 L 948 1083 L 1159 1083 L 1018 287 C 1014 263 1012 245 1012 233 C 1012 208 1018 191 1032 181 C 1046 171 1067 166 1096 166 L 1067 -4 C 985 -4 921 8 877 34 C 832 59 805 101 797 160 C 699 36 580 -25 438 -25 C 331 -25 241 14 169 93 C 97 171 61 280 61 420 Z M 303 438 C 303 344 320 275 356 230 C 391 184 437 162 494 162 C 603 162 706 239 803 393 L 877 823 C 801 889 722 922 639 922 C 543 922 463 875 399 783 C 335 690 303 575 303 438 Z M 393 1524 L 537 1524 L 711 1327 L 715 1327 L 956 1524 L 1128 1524 L 821 1196 L 588 1196 L 393 1524 Z" unicode="ǎ" />
<glyph horiz-adv-x="555" d="M 41 0 L 295 1434 L 543 1434 L 291 0 L 41 0 Z M 127 1800 L 279 1800 L 451 1673 L 455 1673 L 670 1800 L 846 1800 L 553 1546 L 324 1546 L 127 1800 Z" unicode="Ǐ" />
<glyph horiz-adv-x="524" d="M 33 0 L 223 1073 L 459 1073 L 270 0 L 33 0 Z M 49 1524 L 193 1524 L 367 1327 L 371 1327 L 612 1524 L 784 1524 L 477 1196 L 244 1196 L 49 1524 Z" unicode="ǐ" />
<glyph horiz-adv-x="1642" d="M 102 598 C 102 716 123 828 165 934 C 207 1040 264 1131 337 1208 C 410 1284 498 1345 602 1390 C 706 1435 817 1458 936 1458 C 1022 1458 1103 1444 1179 1417 C 1255 1389 1322 1350 1381 1299 C 1439 1247 1486 1182 1520 1102 C 1554 1022 1571 934 1571 836 C 1571 718 1550 606 1508 500 C 1466 394 1408 302 1335 225 C 1262 148 1174 87 1070 42 C 966 -2 855 -25 737 -25 C 651 -25 570 -11 494 16 C 418 44 350 83 292 135 C 233 186 187 251 153 331 C 119 411 102 500 102 598 Z M 356 623 C 356 485 392 378 464 302 C 536 226 632 188 754 188 C 827 188 898 203 967 235 C 1035 266 1095 309 1147 363 C 1198 417 1239 483 1270 561 C 1301 639 1317 723 1317 811 C 1317 948 1281 1055 1209 1132 C 1137 1208 1042 1247 922 1247 C 848 1247 777 1231 708 1200 C 639 1168 579 1125 527 1071 C 475 1017 434 950 403 872 C 371 794 356 711 356 623 Z M 647 1800 L 799 1800 L 971 1673 L 975 1673 L 1190 1800 L 1366 1800 L 1073 1546 L 844 1546 L 647 1800 Z" unicode="Ǒ" />
<glyph horiz-adv-x="1234" d="M 61 453 C 61 576 88 688 142 788 C 196 888 270 966 364 1023 C 458 1079 564 1108 680 1108 C 819 1108 932 1065 1018 979 C 1104 893 1147 776 1147 629 C 1147 506 1120 395 1066 295 C 1012 195 937 116 843 60 C 748 3 642 -25 526 -25 C 388 -25 276 18 190 104 C 104 190 61 306 61 453 Z M 301 455 C 301 359 322 287 366 237 C 409 187 470 162 549 162 C 646 162 730 208 801 301 C 871 394 907 503 907 627 C 907 723 885 797 843 847 C 800 897 740 922 662 922 C 598 922 538 900 482 857 C 426 813 381 756 349 684 C 317 612 301 535 301 455 Z M 397 1524 L 541 1524 L 715 1327 L 719 1327 L 961 1524 L 1133 1524 L 825 1196 L 592 1196 L 397 1524 Z" unicode="ǒ" />
<glyph horiz-adv-x="1456" d="M 123 422 C 123 472 127 525 137 580 L 291 1434 L 541 1434 L 383 563 C 375 522 371 478 371 432 C 371 352 396 291 446 249 C 496 207 565 186 651 186 C 747 186 831 217 903 279 C 975 341 1021 432 1042 553 L 1196 1434 L 1444 1434 L 1288 539 C 1257 357 1181 218 1060 121 C 939 23 789 -25 610 -25 C 464 -25 346 14 257 93 C 167 171 123 281 123 422 Z M 569 1800 L 721 1800 L 893 1673 L 897 1673 L 1112 1800 L 1288 1800 L 995 1546 L 766 1546 L 569 1800 Z" unicode="Ǔ" />
<glyph horiz-adv-x="1189" d="M 76 254 C 76 304 80 358 90 418 L 209 1083 L 444 1083 L 322 387 C 314 339 311 302 311 276 C 311 198 350 160 428 160 C 533 160 649 245 776 416 L 891 1083 L 1128 1083 L 938 0 L 748 0 L 752 184 C 636 44 505 -25 360 -25 C 270 -25 200 0 150 51 C 100 102 76 170 76 254 Z M 375 1524 L 518 1524 L 692 1327 L 696 1327 L 938 1524 L 1110 1524 L 803 1196 L 569 1196 L 375 1524 Z" unicode="ǔ" />
<glyph horiz-adv-x="1269" d="M 45 479 C 45 578 62 670 97 756 C 131 841 178 913 238 972 C 297 1031 367 1077 449 1111 C 530 1144 617 1161 709 1161 C 857 1161 976 1116 1066 1026 C 1156 936 1202 813 1202 657 C 1202 557 1184 465 1150 380 C 1116 294 1069 222 1010 163 C 950 104 880 58 799 25 C 717 -8 631 -25 539 -25 C 391 -25 271 20 181 110 C 90 200 45 323 45 479 Z M 297 485 C 297 389 319 314 363 260 C 407 206 474 180 565 180 C 633 180 696 201 756 245 C 816 288 863 346 898 419 C 932 491 950 569 950 651 C 950 747 928 822 884 876 C 840 930 774 958 684 958 C 616 958 552 936 492 892 C 432 848 384 790 349 717 C 314 644 297 567 297 485 Z" unicode="" />
<glyph horiz-adv-x="1269" d="M 76 0 L 111 197 L 487 197 L 612 907 L 301 786 L 221 977 L 713 1155 L 905 1155 L 735 197 L 1071 197 L 1034 0 L 76 0 Z" unicode="" />
<glyph horiz-adv-x="1269" d="M 29 0 L 35 70 C 41 132 56 188 80 239 C 104 290 135 333 171 368 C 207 403 247 435 292 463 C 337 491 384 515 432 535 C 480 555 529 573 577 590 C 625 606 670 622 713 637 C 755 652 793 668 826 684 C 859 700 885 718 905 740 C 924 761 934 785 934 811 C 934 859 914 897 874 925 C 834 953 772 967 688 967 C 556 967 420 914 279 809 L 158 975 C 333 1099 518 1161 713 1161 C 857 1161 970 1129 1054 1066 C 1138 1003 1180 921 1180 819 C 1180 770 1168 726 1145 686 C 1122 646 1092 612 1054 585 C 1016 558 973 533 924 509 C 875 485 825 465 773 449 C 721 432 669 414 618 396 C 566 377 519 359 477 342 C 435 325 398 304 368 280 C 337 255 317 228 309 199 L 1069 199 L 1034 0 L 29 0 Z" unicode="" />
<glyph horiz-adv-x="1269" d="M -25 -195 L 92 -27 C 204 -93 323 -127 449 -127 C 563 -127 658 -100 734 -46 C 810 7 848 77 848 164 C 848 286 758 348 578 348 L 365 348 L 395 537 L 598 537 C 694 537 769 558 823 602 C 877 646 905 704 905 776 C 905 836 883 882 839 915 C 795 948 732 965 651 965 C 538 965 410 915 266 815 L 158 979 C 232 1035 315 1080 407 1112 C 499 1144 594 1161 692 1161 C 828 1161 939 1126 1026 1056 C 1113 986 1157 899 1157 793 C 1157 627 1066 511 885 444 C 1027 392 1098 293 1098 147 C 1098 51 1066 -33 1004 -106 C 942 -179 861 -234 761 -271 C 661 -307 552 -326 434 -326 C 350 -326 268 -314 188 -292 C 108 -270 37 -237 -25 -195 Z" unicode="" />
<glyph horiz-adv-x="1423" d="M -66 0 L 705 1434 L 999 1434 L 1260 0 L 1008 0 L 956 309 L 367 309 L 209 0 L -66 0 Z M 469 508 L 926 508 L 817 1176 L 813 1176 L 469 508 Z M 553 1546 L 590 1755 L 801 1755 L 762 1546 L 553 1546 Z M 610 1849 L 639 2009 L 1272 2009 L 1245 1849 L 610 1849 Z M 985 1546 L 1024 1755 L 1231 1755 L 1192 1546 L 985 1546 Z" unicode="Ǟ" />
<glyph horiz-adv-x="1228" d="M 61 420 C 61 548 85 665 133 771 C 181 876 248 958 333 1018 C 417 1078 511 1108 614 1108 C 676 1108 735 1094 789 1068 C 843 1042 886 1009 918 971 L 948 1083 L 1159 1083 L 1018 287 C 1014 263 1012 245 1012 233 C 1012 208 1018 191 1032 181 C 1046 171 1067 166 1096 166 L 1067 -4 C 985 -4 921 8 877 34 C 832 59 805 101 797 160 C 699 36 580 -25 438 -25 C 331 -25 241 14 169 93 C 97 171 61 280 61 420 Z M 303 438 C 303 344 320 275 356 230 C 391 184 437 162 494 162 C 603 162 706 239 803 393 L 877 823 C 801 889 722 922 639 922 C 543 922 463 875 399 783 C 335 690 303 575 303 438 Z M 397 1245 L 432 1454 L 643 1454 L 606 1245 L 397 1245 Z M 451 1585 L 479 1743 L 1108 1743 L 1079 1585 L 451 1585 Z M 813 1245 L 850 1454 L 1059 1454 L 1022 1245 L 813 1245 Z" unicode="ǟ" />
<glyph horiz-adv-x="1269" d="M 90 557 C 90 687 110 808 150 920 C 190 1032 244 1128 313 1206 C 381 1284 463 1346 558 1391 C 653 1435 754 1458 862 1458 C 1000 1458 1125 1425 1239 1360 L 1126 1194 C 1040 1239 948 1262 852 1262 C 780 1262 710 1242 642 1204 C 574 1165 514 1108 463 1034 C 412 960 380 876 367 784 C 494 878 626 926 762 926 C 885 926 983 889 1056 816 C 1128 743 1165 646 1165 526 C 1165 450 1150 379 1122 313 C 1094 246 1054 188 1003 138 C 951 88 888 48 812 19 C 736 -10 653 -25 563 -25 C 459 -25 371 0 299 51 C 227 102 174 171 140 257 C 106 343 90 443 90 557 Z M 340 498 C 340 401 361 322 405 262 C 449 202 513 172 598 172 C 665 172 724 188 774 222 C 824 256 862 298 886 349 C 910 400 922 455 922 514 C 922 586 902 642 863 682 C 824 722 769 743 698 743 C 578 743 460 691 344 588 C 341 571 340 541 340 498 Z" unicode="" />
<glyph horiz-adv-x="1269" d="M 154 -297 L 950 934 L 174 934 L 211 1139 L 1247 1139 L 1217 963 L 428 -297 L 154 -297 Z" unicode="" />
<glyph horiz-adv-x="2113" d="M -76 0 L 811 1434 L 2130 1434 L 2091 1217 L 1167 1217 L 1204 831 L 1944 831 L 1909 627 L 1223 627 L 1264 217 L 1925 217 L 1888 0 L 1040 0 L 1014 309 L 401 309 L 215 0 L -76 0 Z M 524 514 L 997 514 L 940 1194 L 934 1194 L 524 514 Z M 868 1593 L 897 1753 L 1530 1753 L 1503 1593 L 868 1593 Z" unicode="Ǣ" />
</font>
</defs>
</svg>
