<?xml version="1.0" encoding="utf-8"?>
<!-- Generator: Adobe Illustrator 18.1.0, SVG Export Plug-In . SVG Version: 6.00 Build 0)  -->
<svg version="1.1" id="Layer_1" xmlns="http://www.w3.org/2000/svg" xmlns:xlink="http://www.w3.org/1999/xlink" x="0px" y="0px"
	 viewBox="0 0 1000 1000" enable-background="new 0 0 1000 1000" xml:space="preserve">
<g>
	<path fill="#FFFFFF" d="M314.5,146.6c0-37.5-30.3-66-66-66h-48.2c-37.5,0-67.8,30.3-67.8,66"/>
	<path fill="#FFFFFF" d="M144.9,841H96.7c-19.6,0-37.5-16.1-37.5-37.5V244.8c0-19.6-21.4,0-1.8,0h267.8c16.1,0,30.3-14.3,30.3-30.3
		s-12.5-30.3-30.3-30.3H0.3l0,0v621.2c0,53.6,42.8,96.4,96.4,96.4h48.2c16.1,0,30.3-14.3,30.3-30.3C175.3,855.3,162.8,841,144.9,841
		z"/>
	<path fill="#FFFFFF" d="M903.6,184.1h-48.2c-16.1,0-30.3,14.3-30.3,30.3s14.3,30.3,30.3,30.3h48.2c19.6,0,37.5,16.1,37.5,37.5
		v560.5c0,19.6,16.1,0-3.6,0H750.1c-16.1,0-30.3,14.3-30.3,30.3s14.3,30.3,30.3,30.3H1000l0,0v-623
		C1000,226.9,957.2,184.1,903.6,184.1z"/>
	<path fill="#FFFFFF" d="M832.2,542.9c0-158.9-128.5-287.4-287.4-287.4S257.4,384,257.4,542.9s130.3,287.4,289.2,287.4
		C703.7,830.3,832.2,701.7,832.2,542.9z M546.6,769.6c-125,0-226.7-101.8-226.7-226.7s101.8-226.7,226.7-226.7
		s226.7,101.8,226.7,226.7C773.3,667.8,671.5,769.6,546.6,769.6z"/>
	<path fill="#FFFFFF" d="M546.6,353.7c-105.3,0-189.2,83.9-189.2,189.2s85.7,189.2,189.2,189.2c105.3,0,189.2-85.7,189.2-189.2
		C735.8,437.6,650.1,353.7,546.6,353.7z M546.6,673.2c-71.4,0-130.3-58.9-130.3-130.3s58.9-130.3,130.3-130.3
		s130.3,58.9,130.3,130.3C675.1,614.3,618,673.2,546.6,673.2z"/>
</g>
</svg>
