<?xml version="1.0" encoding="utf-8"?>
<!-- Generator: Adobe Illustrator 18.1.0, SVG Export Plug-In . SVG Version: 6.00 Build 0)  -->
<svg version="1.1" id="Layer_1" xmlns="http://www.w3.org/2000/svg" xmlns:xlink="http://www.w3.org/1999/xlink" x="0px" y="0px"
	 viewBox="0 0 20 20" enable-background="new 0 0 20 20" xml:space="preserve">
<g>
	<path fill="#FFFFFF" d="M10,11.9c3.3,0,6,2.7,6.2,6.1L3.8,18C4,14.6,6.7,11.9,10,11.9 M10,9.9c-4.5,0-8.2,3.9-8.2,8.6
		C1.8,19,1.9,20,1.9,20l16.2,0c0,0,0.1-1,0.1-1.5C18.2,13.7,14.5,9.9,10,9.9L10,9.9z"/>
</g>
<g>
	<path fill="#FFFFFF" d="M10,2c1.5,0,2.8,1.6,2.8,3.5S11.5,9,10,9S7.2,7.4,7.2,5.5S8.4,2,10,2 M10,0C7.3,0,5.2,2.4,5.2,5.5
		S7.3,11,10,11s4.8-2.5,4.8-5.5S12.6,0,10,0L10,0z"/>
</g>
</svg>
