<?xml version="1.0" encoding="utf-8"?>
<!-- Generator: Adobe Illustrator 18.1.0, SVG Export Plug-In . SVG Version: 6.00 Build 0)  -->
<svg version="1.1" id="Layer_1" xmlns="http://www.w3.org/2000/svg" xmlns:xlink="http://www.w3.org/1999/xlink" x="0px" y="0px"
	 viewBox="0 0 30 30" enable-background="new 0 0 30 30" xml:space="preserve">
<g>
	<path fill="#FFFFFF" d="M27.2,2C27.6,2,28,2.4,28,2.8v24.3c0,0.4-0.4,0.8-0.8,0.8H2.8c-0.4,0-0.8-0.4-0.8-0.8V2.8
		C2,2.4,2.4,2,2.8,2H27.2 M27.2,0H2.8C1.3,0,0,1.3,0,2.8v24.3c0,1.6,1.3,2.8,2.8,2.8h24.3c1.6,0,2.8-1.3,2.8-2.8V2.8
		C30,1.3,28.7,0,27.2,0L27.2,0z"/>
</g>
<path fill="#FFFFFF" d="M13.1,19.1l5.3-3.5c0.6-0.3,0.4-0.9,0-1.1l-5.3-3.6c-0.4-0.3-0.9-0.1-0.9,0.5v7.2
	C12.2,19.1,12.6,19.4,13.1,19.1z"/>
<line fill="none" stroke="#FFFFFF" stroke-width="2" stroke-miterlimit="10" x1="29.3" y1="6.1" x2="1.2" y2="6.1"/>
<line fill="none" stroke="#FFFFFF" stroke-width="2" stroke-miterlimit="10" x1="21.8" y1="1.1" x2="21.8" y2="6.4"/>
<line fill="none" stroke="#FFFFFF" stroke-width="2" stroke-miterlimit="10" x1="14.8" y1="1.1" x2="14.8" y2="6.4"/>
<line fill="none" stroke="#FFFFFF" stroke-width="2" stroke-miterlimit="10" x1="7.8" y1="1.1" x2="7.8" y2="6.4"/>
<line fill="none" stroke="#FFFFFF" stroke-width="2" stroke-miterlimit="10" x1="29.3" y1="23.9" x2="1.2" y2="23.9"/>
<line fill="none" stroke="#FFFFFF" stroke-width="2" stroke-miterlimit="10" x1="21.8" y1="28.9" x2="21.8" y2="23.6"/>
<line fill="none" stroke="#FFFFFF" stroke-width="2" stroke-miterlimit="10" x1="14.8" y1="28.9" x2="14.8" y2="23.6"/>
<line fill="none" stroke="#FFFFFF" stroke-width="2" stroke-miterlimit="10" x1="7.8" y1="28.9" x2="7.8" y2="23.6"/>
</svg>
