<svg xmlns="http://www.w3.org/2000/svg" x="0px" y="0px" viewBox="0 0 43 34" enable-background="new 0 0 43 34">
  <circle fill="#FFFFFF" cx="21.8" cy="3.7" r="0.8"/>
  <g>
    <path fill="#FFFFFF" d="M37.5,2c1.1,0,2,0.9,2,2v21c0,1.1-0.9,2-2,2h-32c-1.1,0-2-0.9-2-2V4c0-1.1,0.9-2,2-2H37.5 M37.5,0h-32
      c-2.2,0-4,1.8-4,4v21c0,2.2,1.8,4,4,4h32c2.2,0,4-1.8,4-4V4C41.5,1.8,39.7,0,37.5,0L37.5,0z"/>
  </g>
  <g id="Laptop">
    <g>
      <path fill="#FFFFFF" d="M41.5,30.8h-16c0,0.6-0.4,1-1,1h-6c-0.6,0-1-0.4-1-1h-16c-0.8,0-1.5,0.7-1.5,1.5c0,0.8,0.7,1.5,1.5,1.5h40
        c0.8,0,1.5-0.7,1.5-1.5C43,31.5,42.3,30.8,41.5,30.8z"/>
    </g>
  </g>
</svg>
