<?xml version="1.0" encoding="utf-8"?>
<!-- Generator: Adobe Illustrator 18.1.0, SVG Export Plug-In . SVG Version: 6.00 Build 0)  -->
<svg version="1.1" id="Layer_1" xmlns="http://www.w3.org/2000/svg" xmlns:xlink="http://www.w3.org/1999/xlink" x="0px" y="0px"
	 viewBox="0 0 20 20" enable-background="new 0 0 20 20" xml:space="preserve">
<path fill="#B3B3B3" stroke="#B3B3B3" stroke-width="0.8" stroke-miterlimit="10" d="M19.5,15.9V3.6c0-0.2-0.2-0.4-0.4-0.4H0.9
	c-0.2,0-0.4,0.2-0.4,0.4v12.2c0,0.2,0.2,0.4,0.4,0.4l18.2,0C19.3,16.2,19.5,16.1,19.5,15.9z M1.4,15.5L6.8,10l1.7,1.7L8.8,12
	c0.3,0.3,0.7,0.5,1.2,0.5c0.4,0,0.9-0.2,1.2-0.5l2-2l5.5,5.5L1.4,15.5z M13.7,9.5L13.7,9.5L13.7,9.5l5-5v9.4v0.3v0.1v0.1L13.7,9.5z
	 M18.1,4l-0.4,0.4h0l-7.1,7.1c-0.3,0.3-0.9,0.3-1.3,0L2.5,4.6h0L2,4.2L1.9,4H18.1z M1.3,14.2V4.5l4.9,4.9l0,0l0.1,0.1l-5,5v-0.2
	V14.2z"/>
</svg>
