<?xml version="1.0" encoding="utf-8"?>
<!-- Generator: Adobe Illustrator 18.1.0, SVG Export Plug-In . SVG Version: 6.00 Build 0)  -->
<svg version="1.1" id="Layer_1" xmlns="http://www.w3.org/2000/svg" xmlns:xlink="http://www.w3.org/1999/xlink" x="0px" y="0px"
	 viewBox="0 0 30 30" enable-background="new 0 0 30 30" xml:space="preserve">
<g>
	<path fill="#FFFFFF" d="M21.6,2c0.5,0,1,0.5,1,1v18.6c0,0.5-0.5,1-1,1H3c-0.5,0-1-0.5-1-1V3c0-0.5,0.5-1,1-1H21.6 M21.6,0H3
		C1.4,0,0,1.4,0,3v18.6c0,1.6,1.4,3,3,3h18.6c1.6,0,3-1.4,3-3V3C24.6,1.4,23.3,0,21.6,0L21.6,0z"/>
</g>
<g>
	<path fill="#FFFFFF" d="M27.9,6.2v4v8.2v6.6c0,1.5-1.3,2.8-2.8,2.8H10.3h-4c0.9,1.3,2.4,2.1,4,2.1h14.7c2.7,0,4.9-2.2,4.9-4.9V10.3
		C30,8.6,29.2,7.1,27.9,6.2z"/>
</g>
<polygon fill="#FFFFFF" points="0.5,22.4 8.5,9 15.8,19.3 18.1,14.9 23.5,22.4 21.9,23.7 2.7,23.3 "/>
<circle fill="#FFFFFF" cx="17.3" cy="6.4" r="2.1"/>
</svg>
