<?xml version="1.0" encoding="utf-8"?>
<!-- Generator: Adobe Illustrator 18.1.0, SVG Export Plug-In . SVG Version: 6.00 Build 0)  -->
<svg version="1.1" id="Layer_1" xmlns="http://www.w3.org/2000/svg" xmlns:xlink="http://www.w3.org/1999/xlink" x="0px" y="0px"
	 viewBox="0 0 20 20" enable-background="new 0 0 20 20" xml:space="preserve">
<path fill="#B3B3B3" d="M17.2,9.5H2.8c-0.3,0-0.5,0.2-0.5,0.5v9.5c0,0.3,0.2,0.5,0.5,0.5h14.3c0.3,0,0.5-0.2,0.5-0.5V10
	C17.6,9.7,17.4,9.5,17.2,9.5z M15.7,17.6c0,0.3-0.2,0.5-0.5,0.5H4.8c-0.3,0-0.5-0.2-0.5-0.5v-5.7c0-0.3,0.2-0.5,0.5-0.5h10.5
	c0.3,0,0.5,0.2,0.5,0.5V17.6z"/>
<path fill="#B3B3B3" d="M12.4,9.5L12.4,9.5l-4.8,0V4.3c0-1.3,1.1-2.4,2.4-2.4c1.3,0,2.4,1.1,2.4,2.4v0h1.9v0C14.3,1.9,12.4,0,10,0
	S5.7,1.9,5.7,4.3v7.2h8.6V9.5H12.4z"/>
</svg>
