<?xml version="1.0" encoding="utf-8"?>
<!-- Generator: Adobe Illustrator 18.1.0, SVG Export Plug-In . SVG Version: 6.00 Build 0)  -->
<svg version="1.1" id="Layer_1" xmlns="http://www.w3.org/2000/svg" xmlns:xlink="http://www.w3.org/1999/xlink" x="0px" y="0px"
   viewBox="0 0 24 35" enable-background="new 0 0 24 35" xml:space="preserve">
<g>
  <path fill="#FFFFFF" d="M14.6,2.2l6.8,3.5l-9.2,17.5l-8.7,8.3l1.9-11.8L14.6,2.2 M14.4,0c-0.5,0-1,0.4-1.3,0.9L3.5,19.1
    c0,0,0,0,0,0.1L1.2,33.5C1,34.4,1.6,35,2.2,35c0.3,0,0.7-0.1,1-0.4l10.6-10.1c0,0,0,0,0-0.1l9.6-18.1c0.4-0.8,0.2-1.6-0.3-1.9
    l-8.2-4.3C14.7,0,14.6,0,14.4,0L14.4,0z"/>
</g>
<line fill="none" stroke="#FFFFFF" stroke-width="1.5" stroke-miterlimit="10" x1="4.4" y1="19.1" x2="13.4" y2="23.8"/>
<path fill-rule="evenodd" clip-rule="evenodd" fill="none" stroke="#FFFFFF" stroke-width="1.5" stroke-miterlimit="10" d="
  M2.8,26.8c0.9-0.1,1.8,0,2.6,0.4c0.8,0.4,1.4,1.1,1.8,1.9"/>
<line fill="none" stroke="#FFFFFF" stroke-width="1.5" stroke-linecap="round" stroke-miterlimit="10" x1="16.2" y1="7.5" x2="8.9" y2="21.4"/>
</svg>
